<svg id="kity_svg_6" xmlns="http://www.w3.org/2000/svg" xmlns:xlink="http://www.w3.org/1999/xlink" version="1.1" width="1908" height="845" style="background: rgb(251, 251, 251); visibility: visible;" viewBox="0 0 1908 845"><defs id="kity_defs_7"><linearGradient id="kity_linearGradient_17" x1="0" y1="0" x2="0" y2="1"><stop id="kity_stop_18" offset="0" stop-color="rgb(255, 255, 255)"></stop><stop id="kity_stop_19" offset="1" stop-color="rgb(204, 204, 204)"></stop></linearGradient><marker id="kity_marker_2" orient="auto" refX="6" refY="0" viewBox="-7 -7 14 14" markerWidth="7" markerHeight="7" markerUnits="userSpaceOnUse"><path id="kity_path_3" fill="rgb(115, 161, 191)" stroke="none" d="M6,0A6,6,0,1,1,-6,0A6,6,0,1,1,6,0"></path></marker></defs><g id="kity_g_8"><g id="minder1" text-rendering="geometricPrecision"><g id="minder_connect_group1"><path id="kity_path_87" fill="none" stroke="rgb(115, 191, 118)" stroke-width="1" d="M694.5000053718686,81.5000000372529v10h-623V99.5000000372529"></path><path id="kity_path_95" fill="none" stroke="rgb(115, 191, 118)" stroke-width="1" d="M694.5000053718686,81.5000000372529v10h623V99.5000000372529"></path><path id="kity_path_111" fill="none" stroke="rgb(115, 191, 118)" stroke-width="1" d="M39.50000537186861,143.5000000372529V170.5000000372529L47.50000537186861,170.5000000372529"></path><path id="kity_path_119" fill="none" stroke="rgb(115, 191, 118)" stroke-width="1" d="M67.50000537186861,185.5000000372529V202.5000000372529L75.50000537186861,202.5000000372529"></path><path id="kity_path_127" fill="none" stroke="rgb(115, 191, 118)" stroke-width="1" d="M39.50000537186861,143.5000000372529V494.5000000372529L47.50000537186861,494.5000000372529"></path><path id="kity_path_135" fill="none" stroke="rgb(115, 191, 118)" stroke-width="1" d="M39.50000537186861,143.5000000372529V752.5000000372529L47.50000537186861,752.5000000372529"></path><path id="kity_path_143" fill="none" stroke="rgb(115, 191, 118)" stroke-width="1" d="M67.50000537186861,185.5000000372529V306.5000000372529L75.50000537186861,306.5000000372529"></path><path id="kity_path_159" fill="none" stroke="rgb(115, 191, 118)" stroke-width="1" d="M67.50000537186861,185.5000000372529V384.5000000372529L75.50000537186861,384.5000000372529"></path><path id="kity_path_185" fill="none" stroke="rgb(115, 191, 118)" stroke-width="1" d="M95.50000537186861,211.5000000372529V254.5000000372529L103.50000537186861,254.5000000372529"></path><path id="kity_path_193" fill="none" stroke="rgb(115, 191, 118)" stroke-width="1" d="M95.50000537186861,211.5000000372529V280.5000000372529L103.50000537186861,280.5000000372529"></path><path id="kity_path_201" fill="none" stroke="rgb(115, 191, 118)" stroke-width="1" d="M95.50000537186861,393.5000000372529V410.5000000372529L103.50000537186861,410.5000000372529"></path><path id="kity_path_217" fill="none" stroke="rgb(115, 191, 118)" stroke-width="1" d="M95.50000537186861,211.5000000372529V228.5000000372529L103.50000537186861,228.5000000372529"></path><path id="kity_path_257" fill="none" stroke="rgb(115, 191, 118)" stroke-width="1" d="M95.50000537186861,315.5000000372529V332.5000000372529L103.50000537186861,332.5000000372529"></path><path id="kity_path_265" fill="none" stroke="rgb(115, 191, 118)" stroke-width="1" d="M95.50000537186861,315.5000000372529V358.5000000372529L103.50000537186861,358.5000000372529"></path><path id="kity_path_297" fill="none" stroke="rgb(115, 191, 118)" stroke-width="1" d="M67.50000537186861,185.5000000372529V436.5000000372529L75.50000537186861,436.5000000372529"></path><path id="kity_path_305" fill="none" stroke="rgb(115, 191, 118)" stroke-width="1" d="M95.50000537186861,445.5000000372529V462.5000000372529L103.50000537186861,462.5000000372529"></path><path id="kity_path_347" fill="none" stroke="rgb(115, 191, 118)" stroke-width="1" d="M694.5000053718686,81.5000000372529v10h18V99.5000000372529"></path><path id="kity_path_355" fill="none" stroke="rgb(115, 191, 118)" stroke-width="1" d="M680.5000053718686,143.5000000372529V170.5000000372529L688.5000053718686,170.5000000372529"></path><path id="kity_path_357" fill="none" stroke="rgb(115, 191, 118)" stroke-width="1" d="M736.5000053718686,217.5000000372529V286.5000000372529L744.5000053718686,286.5000000372529"></path><path id="kity_path_359" fill="none" stroke="rgb(115, 191, 118)" stroke-width="1" d="M736.5000053718686,217.5000000372529V234.5000000372529L744.5000053718686,234.5000000372529"></path><path id="kity_path_392" fill="none" stroke="rgb(115, 191, 118)" stroke-width="1" d="M708.5000053718686,185.5000000372529V205.5000000372529L716.5000053718686,205.5000000372529"></path><path id="kity_path_413" fill="none" stroke="rgb(115, 191, 118)" stroke-width="1" d="M67.50000537186861,767.5000000372529V787.5000000372529L75.50000537186861,787.5000000372529"></path><path id="kity_path_421" fill="none" stroke="rgb(115, 191, 118)" stroke-width="1" d="M95.50000537186861,799.5000000372529V816.5000000372529L103.50000537186861,816.5000000372529"></path><path id="kity_path_429" fill="none" stroke="rgb(115, 191, 118)" stroke-width="1" d="M1285.5000053718686,143.5000000372529V170.5000000372529L1352.5000053718686,170.5000000372529"></path><path id="kity_path_463" fill="none" stroke="rgb(115, 191, 118)" stroke-width="1" d="M67.50000537186861,509.5000000372529V529.5000000372529L75.50000537186861,529.5000000372529"></path><path id="kity_path_464" fill="none" stroke="rgb(115, 191, 118)" stroke-width="1" d="M95.50000537186861,677.5000000372529V694.5000000372529L103.50000537186861,694.5000000372529"></path><path id="kity_path_465" fill="none" stroke="rgb(115, 191, 118)" stroke-width="1" d="M95.50000537186861,677.5000000372529V720.5000000372529L103.50000537186861,720.5000000372529"></path><path id="kity_path_466" fill="none" stroke="rgb(115, 191, 118)" stroke-width="1" d="M67.50000537186861,509.5000000372529V665.5000000372529L75.50000537186861,665.5000000372529"></path><path id="kity_path_484" fill="none" stroke="rgb(115, 191, 118)" stroke-width="1" d="M95.50000537186861,541.5000000372529V558.5000000372529L103.50000537186861,558.5000000372529"></path><path id="kity_path_485" fill="none" stroke="rgb(115, 191, 118)" stroke-width="1" d="M123.50000537186861,593.5000000372529V610.5000000372529L131.5000053718686,610.5000000372529"></path><path id="kity_path_486" fill="none" stroke="rgb(115, 191, 118)" stroke-width="1" d="M95.50000537186861,541.5000000372529V584.5000000372529L103.50000537186861,584.5000000372529"></path><path id="kity_path_487" fill="none" stroke="rgb(115, 191, 118)" stroke-width="1" d="M95.50000537186861,541.5000000372529V636.5000000372529L103.50000537186861,636.5000000372529"></path><path id="kity_path_497" fill="none" stroke="rgb(115, 191, 118)" stroke-width="1" d="M680.5000053718686,143.5000000372529V318.5000000372529L688.5000053718686,318.5000000372529"></path><path id="kity_path_510" fill="none" stroke="rgb(115, 191, 118)" stroke-width="1" d="M708.5000053718686,333.5000000372529V353.5000000372529L716.5000053718686,353.5000000372529"></path><path id="kity_path_518" fill="none" stroke="rgb(115, 191, 118)" stroke-width="1" d="M736.5000053718686,365.5000000372529V382.5000000372529L744.5000053718686,382.5000000372529"></path><path id="kity_path_526" fill="none" stroke="rgb(115, 191, 118)" stroke-width="1" d="M736.5000053718686,365.5000000372529V408.5000000372529L744.5000053718686,408.5000000372529"></path><path id="kity_path_534" fill="none" stroke="rgb(115, 191, 118)" stroke-width="1" d="M708.5000053718686,333.5000000372529V434.5000000372529L716.5000053718686,434.5000000372529"></path><path id="kity_path_607" fill="none" stroke="rgb(115, 191, 118)" stroke-width="1" d="M1285.5000053718686,143.5000000372529V460.5000000372529L1294.5000053718686,460.5000000372529"></path><path id="kity_path_676" fill="none" stroke="rgb(115, 191, 118)" stroke-width="1" d="M736.5000053718686,217.5000000372529V260.5000000372529L744.5000053718686,260.5000000372529"></path><path id="kity_path_729" fill="none" stroke="rgb(115, 191, 118)" stroke-width="1" d="M1285.5000053718686,143.5000000372529V597.5000000372529L1300.5000053718686,597.5000000372529"></path><path id="kity_path_804" fill="none" stroke="rgb(115, 191, 118)" stroke-width="1" d="M1348.5000053718686,644.5000000372529V661.5000000372529L1356.5000053718686,661.5000000372529"></path><path id="kity_path_805" fill="none" stroke="rgb(115, 191, 118)" stroke-width="1" d="M1320.5000053718686,612.5000000372529V632.5000000372529L1328.5000053718686,632.5000000372529"></path><path id="kity_path_807" fill="none" stroke="rgb(115, 191, 118)" stroke-width="1" d="M1348.5000053718686,644.5000000372529V687.5000000372529L1356.5000053718686,687.5000000372529"></path><path id="kity_path_814" fill="none" stroke="rgb(115, 191, 118)" stroke-width="1" d="M1314.5000053718686,475.5000000372529V495.5000000372529L1322.5000053718686,495.5000000372529"></path><path id="kity_path_815" fill="none" stroke="rgb(115, 191, 118)" stroke-width="1" d="M1314.5000053718686,475.5000000372529V524.5000000372529L1322.5000053718686,524.5000000372529"></path><path id="kity_path_816" fill="none" stroke="rgb(115, 191, 118)" stroke-width="1" d="M1314.5000053718686,475.5000000372529V550.5000000372529L1322.5000053718686,550.5000000372529"></path><path id="kity_path_817" fill="none" stroke="rgb(115, 191, 118)" stroke-width="1" d="M1372.5000053718686,185.5000000372529V202.5000000372529L1380.5000053718686,202.5000000372529"></path><path id="kity_path_818" fill="none" stroke="rgb(115, 191, 118)" stroke-width="1" d="M1400.5000053718686,237.5000000372529V254.5000000372529L1408.5000053718686,254.5000000372529"></path><path id="kity_path_819" fill="none" stroke="rgb(115, 191, 118)" stroke-width="1" d="M1372.5000053718686,185.5000000372529V228.5000000372529L1380.5000053718686,228.5000000372529"></path><path id="kity_path_820" fill="none" stroke="rgb(115, 191, 118)" stroke-width="1" d="M1400.5000053718686,289.5000000372529V306.5000000372529L1408.5000053718686,306.5000000372529"></path><path id="kity_path_821" fill="none" stroke="rgb(115, 191, 118)" stroke-width="1" d="M1372.5000053718686,185.5000000372529V280.5000000372529L1380.5000053718686,280.5000000372529"></path><path id="kity_path_822" fill="none" stroke="rgb(115, 191, 118)" stroke-width="1" d="M1400.5000053718686,347.5000000372529V364.5000000372529L1408.5000053718686,364.5000000372529"></path><path id="kity_path_823" fill="none" stroke="rgb(115, 191, 118)" stroke-width="1" d="M1400.5000053718686,347.5000000372529V390.5000000372529L1408.5000053718686,390.5000000372529"></path><path id="kity_path_824" fill="none" stroke="rgb(115, 191, 118)" stroke-width="1" d="M1372.5000053718686,185.5000000372529V335.5000000372529L1380.5000053718686,335.5000000372529"></path><path id="kity_path_826" fill="none" stroke="rgb(115, 191, 118)" stroke-width="1" d="M1320.5000053718686,612.5000000372529V716.5000000372529L1328.5000053718686,716.5000000372529"></path></g><g id="minder_node1"><path id="node_outline1" fill="#4e6128" stroke="rgb(115, 191, 118)" d="M495.5000053718686,21.500000037252903h398a5,5,0,0,1,5,5v50a5,5,0,0,1,-5,5h-398a5,5,0,0,1,-5,-5v-50a5,5,0,0,1,5,-5z" stroke-width="3"></path><g id="node_text1" fill="white"><text id="kity_text_22" text-rendering="inherit" font-size="48" dy=".8em" y="20.299999929964542" x="502.5000053718686">科技、娱乐与设计 </text></g></g><g id="kity_g_14" display="none"><path id="kity_path_15" fill="rgba(0, 153, 5, 0.5)" stroke="none" d="M1321.5000053718686,348.5000000372529h311v4h-311z"></path><path id="kity_path_16" fill="none" stroke="rgb(0, 128, 4)" d="M1321.5000053718686,352.5000000372529L1632.5000053718686,352.5000000372529" stroke-width="1"></path></g><g id="minder_node9"><g id="node_expander8" style="cursor: pointer;"><path id="kity_path_92" fill="white" stroke="gray" d="M77.49999894946814,92.50000064820051A6,6,0,1,1,65.49999894946814,92.50000064820051A6,6,0,1,1,77.49999894946814,92.50000064820051"></path><path id="kity_path_93" fill="none" stroke="gray" d="M66.99999894946814,92.50000064820051L75.99999894946814,92.50000064820051"></path></g><path id="node_outline9" fill="#76923c" stroke="rgb(115, 191, 118)" d="M22.499998472630978,99.50000108033419h98a3,3,0,0,1,3,3v38a3,3,0,0,1,-3,3h-98a3,3,0,0,1,-3,-3v-38a3,3,0,0,1,3,-3z" stroke-width="1"></path><g id="node_text9" fill="black"><text id="kity_text_89" text-rendering="inherit" font-size="32" dy=".8em" y="100.70000100880861" x="39.49999847263098">科技</text></g></g><g id="minder_node10"><g id="node_expander9" style="cursor: pointer;"><path id="kity_path_100" fill="white" stroke="gray" d="M1323.500017516315,92.50000064820051A6,6,0,1,1,1311.500017516315,92.50000064820051A6,6,0,1,1,1323.500017516315,92.50000064820051"></path><path id="kity_path_101" fill="none" stroke="gray" d="M1313.000017516315,92.50000064820051L1322.000017516315,92.50000064820051"></path></g><path id="node_outline10" fill="#76923c" stroke="rgb(115, 191, 118)" d="M1268.5000170394778,99.50000108033419h98a3,3,0,0,1,3,3v38a3,3,0,0,1,-3,3h-98a3,3,0,0,1,-3,-3v-38a3,3,0,0,1,3,-3z" stroke-width="1"></path><g id="node_text10" fill="black"><text id="kity_text_97" text-rendering="inherit" font-size="32" dy=".8em" y="100.70000100880861" x="1285.5000170394778">设计</text></g><g id="node_priority3" display="none"><path id="kity_path_314" fill="#840023" stroke="none" d="M1261.0000166743994,125.00000093877316c0,3.866,3.134,7,7,7h6c3.866,0,7,-3.134,7,-7V119.00000093877316H1261.0000166743994V125.00000093877316z"></path><path id="kity_path_315" fill="#FF1200" stroke="none" d="M1281.0000166743994,122.00000093877316c0,3.866,-3.134,7,-7,7H1268.0000166743994c-3.866,0,-7,-3.134,-7,-7V119.00000093877316c0,-3.866,3.134,-7,7,-7h6c3.866,0,7,3.134,7,7V122.00000093877316z" opacity="0.8"></path><text id="kity_text_316" text-rendering="geometricPrecision" x="1270.0000166669488" y="121.50000093132257" text-anchor="middle" font-style="italic" font-size="12" fill="white" dy="5">1</text></g></g><g id="minder_node12"><g id="node_expander11" style="cursor: pointer;"><path id="kity_path_116" fill="white" stroke="gray" d="M47.4999985024333,170.50000181049109A6,6,0,1,1,35.4999985024333,170.50000181049109A6,6,0,1,1,47.4999985024333,170.50000181049109"></path><path id="kity_path_117" fill="none" stroke="gray" d="M36.9999985024333,170.50000181049109L45.9999985024333,170.50000181049109"></path></g><path id="node_outline12" fill="#c2d69b" stroke="none" d="M52.4999990388751,155.50000181049109h265a5,5,0,0,1,5,5v20a5,5,0,0,1,-5,5h-265a5,5,0,0,1,-5,-5v-20a5,5,0,0,1,5,-5z" stroke-width="3"></path><g id="node_text12" fill="black"><text id="kity_text_113" text-rendering="inherit" font-size="24" dy=".8em" y="154.9000017568469" x="77.4999990388751">科技在影响我们的生活</text></g><g id="node_priority1"><path id="kity_path_176" fill="#840023" stroke="none" d="M52.999998673796654,174.00000166893005c0,3.866,3.134,7,7,7h6c3.866,0,7,-3.134,7,-7V168.00000166893005H52.999998673796654V174.00000166893005z"></path><path id="kity_path_177" fill="#FF1200" stroke="none" d="M72.99999867379665,171.00000166893005c0,3.866,-3.134,7,-7,7H59.999998673796654c-3.866,0,-7,-3.134,-7,-7V168.00000166893005c0,-3.866,3.134,-7,7,-7h6c3.866,0,7,3.134,7,7V171.00000166893005z" opacity="0.8"></path><text id="kity_text_178" text-rendering="geometricPrecision" x="61.99999866634607" y="170.50000166147947" text-anchor="middle" font-style="italic" font-size="12" fill="white" dy="5">1</text></g></g><g id="minder_node13"><g id="node_expander12" style="cursor: pointer;"><path id="kity_path_124" fill="white" stroke="gray" d="M75.49999891966581,202.50000228732824A6,6,0,1,1,63.49999891966581,202.50000228732824A6,6,0,1,1,75.49999891966581,202.50000228732824"></path><path id="kity_path_125" fill="none" stroke="gray" d="M64.99999891966581,202.50000228732824L73.99999891966581,202.50000228732824"></path></g><path id="node_outline13" fill="none" stroke="none" d="M80.49999908357859,193.50000228732824h133a5,5,0,0,1,5,5v8a5,5,0,0,1,-5,5h-133a5,5,0,0,1,-5,-5v-8a5,5,0,0,1,5,-5z" stroke-width="3"></path><g id="node_text13" fill="black"><text id="kity_text_121" text-rendering="inherit" font-size="12" dy=".8em" y="194.70000226050615" x="80.49999908357859">对亲密关系与社交的态度</text></g></g><g id="minder_node14" opacity="1"><g id="node_expander13" style="cursor: pointer;"><path id="kity_path_132" fill="white" stroke="gray" d="M47.4999985024333,494.5000066384673A6,6,0,1,1,35.4999985024333,494.5000066384673A6,6,0,1,1,47.4999985024333,494.5000066384673"></path><path id="kity_path_133" fill="none" stroke="gray" d="M36.9999985024333,494.5000066384673L45.9999985024333,494.5000066384673"></path></g><path id="node_outline14" fill="#c2d69b" stroke="none" d="M52.4999990388751,479.5000066384673h313a5,5,0,0,1,5,5v20a5,5,0,0,1,-5,5h-313a5,5,0,0,1,-5,-5v-20a5,5,0,0,1,5,-5z" stroke-width="3"></path><g id="node_text14" fill="black"><text id="kity_text_129" text-rendering="inherit" font-size="24" dy=".8em" y="478.90000658482313" x="77.4999990388751">科技公司对此有极大的责任</text></g><g id="node_priority2"><path id="kity_path_181" fill="#01467F" stroke="none" d="M52.999998673796654,498.0000064969063c0,3.866,3.134,7,7,7h6c3.866,0,7,-3.134,7,-7V492.0000064969063H52.999998673796654V498.0000064969063z"></path><path id="kity_path_182" fill="#0074FF" stroke="none" d="M72.99999867379665,495.0000064969063c0,3.866,-3.134,7,-7,7H59.999998673796654c-3.866,0,-7,-3.134,-7,-7V492.0000064969063c0,-3.866,3.134,-7,7,-7h6c3.866,0,7,3.134,7,7V495.0000064969063z" opacity="0.8"></path><text id="kity_text_183" text-rendering="geometricPrecision" x="61.99999866634607" y="494.5000064894557" text-anchor="middle" font-style="italic" font-size="12" fill="white" dy="5">2</text></g></g><g id="minder_node15"><g id="node_expander14" style="cursor: pointer;"><path id="kity_path_140" fill="white" stroke="gray" d="M47.4999985024333,752.5000104829669A6,6,0,1,1,35.4999985024333,752.5000104829669A6,6,0,1,1,47.4999985024333,752.5000104829669"></path><path id="kity_path_141" fill="none" stroke="gray" d="M36.9999985024333,752.5000104829669L45.9999985024333,752.5000104829669"></path></g><path id="node_outline15" fill="#c2d69b" stroke="none" d="M52.4999990388751,737.5000104829669h193a5,5,0,0,1,5,5v20a5,5,0,0,1,-5,5h-193a5,5,0,0,1,-5,-5v-20a5,5,0,0,1,5,-5z" stroke-width="3"></path><g id="node_text15" fill="black"><text id="kity_text_137" text-rendering="inherit" font-size="24" dy=".8em" y="736.9000104293227" x="77.4999990388751">数据对人的影响</text></g><g id="node_priority6"><path id="kity_path_409" fill="#006300" stroke="none" d="M52.999998673796654,756.0000103414059c0,3.866,3.134,7,7,7h6c3.866,0,7,-3.134,7,-7V750.0000103414059H52.999998673796654V756.0000103414059z"></path><path id="kity_path_410" fill="#00AF00" stroke="none" d="M72.99999867379665,753.0000103414059c0,3.866,-3.134,7,-7,7H59.999998673796654c-3.866,0,-7,-3.134,-7,-7V750.0000103414059c0,-3.866,3.134,-7,7,-7h6c3.866,0,7,3.134,7,7V753.0000103414059z" opacity="0.8"></path><text id="kity_text_411" text-rendering="geometricPrecision" x="61.99999866634607" y="752.5000103339553" text-anchor="middle" font-style="italic" font-size="12" fill="white" dy="5">3</text></g></g><g id="minder_node16"><g id="node_expander15" style="cursor: pointer;"><path id="kity_path_148" fill="white" stroke="gray" d="M75.49999891966581,306.500003837049A6,6,0,1,1,63.49999891966581,306.500003837049A6,6,0,1,1,75.49999891966581,306.500003837049"></path><path id="kity_path_149" fill="none" stroke="gray" d="M64.99999891966581,306.500003837049L73.99999891966581,306.500003837049"></path></g><path id="node_outline16" fill="none" stroke="none" d="M80.49999908357859,297.500003837049h121a5,5,0,0,1,5,5v8a5,5,0,0,1,-5,5h-121a5,5,0,0,1,-5,-5v-8a5,5,0,0,1,5,-5z" stroke-width="3"></path><g id="node_text16" fill="black"><text id="kity_text_145" text-rendering="inherit" font-size="12" dy=".8em" y="298.7000038102269" x="80.49999908357859">在影响我们的性别教育</text></g></g><g id="minder_node18"><g id="node_expander17" style="cursor: pointer;"><path id="kity_path_164" fill="white" stroke="gray" d="M75.49999891966581,384.5000049993396A6,6,0,1,1,63.49999891966581,384.5000049993396A6,6,0,1,1,75.49999891966581,384.5000049993396"></path><path id="kity_path_165" fill="none" stroke="gray" d="M64.99999891966581,384.5000049993396L73.99999891966581,384.5000049993396"></path></g><path id="node_outline18" fill="none" stroke="none" d="M80.49999908357859,375.5000049993396h84a5,5,0,0,1,5,5v8a5,5,0,0,1,-5,5h-84a5,5,0,0,1,-5,-5v-8a5,5,0,0,1,5,-5z" stroke-width="3"></path><g id="node_text18" fill="black"><text id="kity_text_161" text-rendering="inherit" font-size="12" dy=".8em" y="376.7000049725175" x="80.49999908357859">改变金钱与贸易</text></g></g><g id="minder_node20"><g id="node_expander19" style="cursor: pointer;" display="none"><path id="kity_path_190" fill="white" stroke="gray" d="M103.49999933689833,254.50000306218863A6,6,0,1,1,91.49999933689833,254.50000306218863A6,6,0,1,1,103.49999933689833,254.50000306218863"></path><path id="kity_path_191" fill="none" stroke="gray"></path></g><path id="node_outline20" fill="none" stroke="none" d="M108.4999995008111,245.50000306218863h241a5,5,0,0,1,5,5v8a5,5,0,0,1,-5,5h-241a5,5,0,0,1,-5,-5v-8a5,5,0,0,1,5,-5z" stroke-width="3"></path><g id="node_text20" fill="black"><text id="kity_text_187" text-rendering="inherit" font-size="12" dy=".8em" y="246.70000303536654" x="108.4999995008111">案例：人们花时间在高高片上，不愿意社交。</text></g></g><g id="minder_node21"><g id="node_expander20" style="cursor: pointer;" display="none"><path id="kity_path_198" fill="white" stroke="gray" d="M103.49999933689833,280.5000034496188A6,6,0,1,1,91.49999933689833,280.5000034496188A6,6,0,1,1,103.49999933689833,280.5000034496188"></path><path id="kity_path_199" fill="none" stroke="gray"></path></g><path id="node_outline21" fill="none" stroke="none" d="M108.4999995008111,271.5000034496188h145a5,5,0,0,1,5,5v8a5,5,0,0,1,-5,5h-145a5,5,0,0,1,-5,-5v-8a5,5,0,0,1,5,-5z" stroke-width="3"></path><g id="node_text21" fill="black"><text id="kity_text_195" text-rendering="inherit" font-size="12" dy=".8em" y="272.7000034227967" x="108.4999995008111">案例：复仇式色情伤害人们</text></g></g><g id="minder_node22"><g id="node_expander21" style="cursor: pointer;" display="none"><path id="kity_path_206" fill="white" stroke="gray" d="M103.49999933689833,410.50000538676977A6,6,0,1,1,91.49999933689833,410.50000538676977A6,6,0,1,1,103.49999933689833,410.50000538676977"></path><path id="kity_path_207" fill="none" stroke="gray"></path></g><path id="node_outline22" fill="none" stroke="none" d="M108.4999995008111,401.50000538676977h73a5,5,0,0,1,5,5v8a5,5,0,0,1,-5,5h-73a5,5,0,0,1,-5,-5v-8a5,5,0,0,1,5,-5z" stroke-width="3"></path><g id="node_text22" fill="black"><text id="kity_text_203" text-rendering="inherit" font-size="12" dy=".8em" y="402.7000053599477" x="108.4999995008111">案例：比特币</text></g></g><g id="minder_node24" opacity="1"><g id="node_expander23" style="cursor: pointer;" display="none"><path id="kity_path_222" fill="white" stroke="gray" d="M103.49999933689833,228.50000267475843A6,6,0,1,1,91.49999933689833,228.50000267475843A6,6,0,1,1,103.49999933689833,228.50000267475843"></path><path id="kity_path_223" fill="none" stroke="gray"></path></g><path id="node_outline24" fill="none" stroke="none" d="M108.4999995008111,219.50000267475843h229a5,5,0,0,1,5,5v8a5,5,0,0,1,-5,5h-229a5,5,0,0,1,-5,-5v-8a5,5,0,0,1,5,-5z" stroke-width="3"></path><g id="node_text24" fill="black"><text id="kity_text_219" text-rendering="inherit" font-size="12" dy=".8em" y="220.70000264793634" x="108.4999995008111">分论点：科技发展使人们更注重隐私保护。</text></g></g><g id="minder_node29"><g id="node_expander28" style="cursor: pointer;" display="none"><path id="kity_path_262" fill="white" stroke="gray" d="M103.49999933689833,332.5000042244792A6,6,0,1,1,91.49999933689833,332.5000042244792A6,6,0,1,1,103.49999933689833,332.5000042244792"></path><path id="kity_path_263" fill="none" stroke="gray"></path></g><path id="node_outline29" fill="none" stroke="none" d="M108.4999995008111,323.5000042244792h216a5,5,0,0,1,5,5v8a5,5,0,0,1,-5,5h-216a5,5,0,0,1,-5,-5v-8a5,5,0,0,1,5,-5z" stroke-width="3"></path><g id="node_text29" fill="black"><text id="kity_text_259" text-rendering="inherit" font-size="12" dy=".8em" y="324.7000041976571" x="108.4999995008111">青少年能轻易接受高强度色情片的刺激。</text></g></g><g id="minder_node30"><g id="node_expander29" style="cursor: pointer;" display="none"><path id="kity_path_270" fill="white" stroke="gray" d="M103.49999933689833,358.5000046119094A6,6,0,1,1,91.49999933689833,358.5000046119094A6,6,0,1,1,103.49999933689833,358.5000046119094"></path><path id="kity_path_271" fill="none" stroke="gray"></path></g><path id="node_outline30" fill="none" stroke="none" d="M108.4999995008111,349.5000046119094h168a5,5,0,0,1,5,5v8a5,5,0,0,1,-5,5h-168a5,5,0,0,1,-5,-5v-8a5,5,0,0,1,5,-5z" stroke-width="3"></path><g id="node_text30" fill="black"><text id="kity_text_267" text-rendering="inherit" font-size="12" dy=".8em" y="350.7000045850873" x="108.4999995008111">互联网或成为青年性启蒙教师。</text></g></g><g id="minder_node34"><g id="node_expander33" style="cursor: pointer;"><path id="kity_path_302" fill="white" stroke="gray" d="M75.49999891966581,436.50000577419996A6,6,0,1,1,63.49999891966581,436.50000577419996A6,6,0,1,1,75.49999891966581,436.50000577419996"></path><path id="kity_path_303" fill="none" stroke="gray" d="M64.99999891966581,436.50000577419996L73.99999891966581,436.50000577419996"></path></g><path id="node_outline34" fill="none" stroke="none" d="M80.49999908357859,427.50000577419996h50a5,5,0,0,1,5,5v8a5,5,0,0,1,-5,5h-50a5,5,0,0,1,-5,-5v-8a5,5,0,0,1,5,-5z" stroke-width="3"></path><g id="node_text34" fill="black"><text id="kity_text_299" text-rendering="inherit" font-size="12" dy=".8em" y="428.7000057473779" x="80.49999908357859">政治独裁</text></g></g><g id="minder_node35"><g id="node_expander34" style="cursor: pointer;" display="none"><path id="kity_path_310" fill="white" stroke="gray" d="M103.49999933689833,462.50000616163015A6,6,0,1,1,91.49999933689833,462.50000616163015A6,6,0,1,1,103.49999933689833,462.50000616163015"></path><path id="kity_path_311" fill="none" stroke="gray"></path></g><path id="node_outline35" fill="none" stroke="none" d="M108.4999995008111,453.50000616163015h325a5,5,0,0,1,5,5v8a5,5,0,0,1,-5,5h-325a5,5,0,0,1,-5,-5v-8a5,5,0,0,1,5,-5z" stroke-width="3"></path><g id="node_text35" fill="black"><text id="kity_text_307" text-rendering="inherit" font-size="12" dy=".8em" y="454.70000613480806" x="108.4999995008111">案例：政府有效率地处理大量的资讯，可能使民主受到影响。</text></g></g><g id="minder_node39"><g id="node_expander38" style="cursor: pointer;"><path id="kity_path_352" fill="white" stroke="gray" d="M718.5000085011125,92.50000064820051A6,6,0,1,1,706.5000085011125,92.50000064820051A6,6,0,1,1,718.5000085011125,92.50000064820051"></path><path id="kity_path_353" fill="none" stroke="gray" d="M708.0000085011125,92.50000064820051L717.0000085011125,92.50000064820051"></path></g><path id="node_outline39" fill="#76923c" stroke="rgb(115, 191, 118)" d="M663.5000080242753,99.50000108033419h98a3,3,0,0,1,3,3v38a3,3,0,0,1,-3,3h-98a3,3,0,0,1,-3,-3v-38a3,3,0,0,1,3,-3z" stroke-width="1"></path><g id="node_text39" fill="black"><text id="kity_text_349" text-rendering="inherit" font-size="32" dy=".8em" y="100.70000100880861" x="680.5000080242753">娱乐</text></g></g><g id="minder_node40"><g id="node_expander41" style="cursor: pointer;"><path id="kity_path_381" fill="white" stroke="gray" d="M688.5000080540776,170.50000181049109A6,6,0,1,1,676.5000080540776,170.50000181049109A6,6,0,1,1,688.5000080540776,170.50000181049109"></path><path id="kity_path_382" fill="none" stroke="gray" d="M678.0000080540776,170.50000181049109L687.0000080540776,170.50000181049109"></path></g><path id="node_outline42" fill="#c2d69b" stroke="none" d="M693.5000085905194,155.50000181049109h361a5,5,0,0,1,5,5v20a5,5,0,0,1,-5,5h-361a5,5,0,0,1,-5,-5v-20a5,5,0,0,1,5,-5z" stroke-width="3"></path><g id="node_text42" fill="black"><text id="kity_text_365" text-rendering="inherit" font-size="24" dy=".8em" y="154.9000017568469" x="718.5000085905194">我们所使用的社交网络在变封闭</text></g><g id="node_priority5"><path id="kity_path_368" fill="#840023" stroke="none" d="M694.000008225441,174.00000166893005c0,3.866,3.134,7,7,7h6c3.866,0,7,-3.134,7,-7V168.00000166893005H694.000008225441V174.00000166893005z"></path><path id="kity_path_369" fill="#FF1200" stroke="none" d="M714.000008225441,171.00000166893005c0,3.866,-3.134,7,-7,7H701.000008225441c-3.866,0,-7,-3.134,-7,-7V168.00000166893005c0,-3.866,3.134,-7,7,-7h6c3.866,0,7,3.134,7,7V171.00000166893005z" opacity="0.8"></path><text id="kity_text_370" text-rendering="geometricPrecision" x="703.0000082179904" y="170.50000166147947" text-anchor="middle" font-style="italic" font-size="12" fill="white" dy="5">1</text></g></g><g id="minder_node41" opacity="1"><g id="node_expander39" style="cursor: pointer;" display="none"><path id="kity_path_375" fill="white" stroke="gray" d="M744.5000088885427,286.5000035390258A6,6,0,1,1,732.5000088885427,286.5000035390258A6,6,0,1,1,744.5000088885427,286.5000035390258"></path><path id="kity_path_376" fill="none" stroke="gray"></path></g><path id="node_outline40" fill="none" stroke="none" d="M749.5000090524554,277.5000035390258h362a5,5,0,0,1,5,5v8a5,5,0,0,1,-5,5h-362a5,5,0,0,1,-5,-5v-8a5,5,0,0,1,5,-5z" stroke-width="3"></path><g id="node_text40" fill="black"><text id="kity_text_361" text-rendering="inherit" font-size="12" dy=".8em" y="278.7000035122037" x="749.5000090524554">案例：网络公司努力为迎合个人喜好而调整其服务如新闻和搜索结果</text></g></g><g id="minder_node42" opacity="1"><g id="node_expander40" style="cursor: pointer;" display="none"><path id="kity_path_378" fill="white" stroke="gray" d="M744.5000088885427,234.5000027641654A6,6,0,1,1,732.5000088885427,234.5000027641654A6,6,0,1,1,744.5000088885427,234.5000027641654"></path><path id="kity_path_379" fill="none" stroke="gray"></path></g><path id="node_outline41" fill="none" stroke="none" d="M749.5000090524554,225.5000027641654h386a5,5,0,0,1,5,5v8a5,5,0,0,1,-5,5h-386a5,5,0,0,1,-5,-5v-8a5,5,0,0,1,5,-5z" stroke-width="3"></path><g id="node_text41" fill="black"><text id="kity_text_363" text-rendering="inherit" font-size="12" dy=".8em" y="226.7000027373433" x="749.5000090524554">解释：我们深陷过滤过的信息中，得不到能挑战或拓展我们世界观的信息</text></g></g><g id="minder_node44"><g id="node_expander43" style="cursor: pointer;"><path id="kity_path_397" fill="white" stroke="gray" d="M716.5000084713101,205.50000233203173A6,6,0,1,1,704.5000084713101,205.50000233203173A6,6,0,1,1,716.5000084713101,205.50000233203173"></path><path id="kity_path_398" fill="none" stroke="gray" d="M706.0000084713101,205.50000233203173L715.0000084713101,205.50000233203173"></path></g><path id="node_outline44" fill="#eaf1dd" stroke="none" d="M721.5000086352229,193.50000233203173h523a5,5,0,0,1,5,5v14a5,5,0,0,1,-5,5h-523a5,5,0,0,1,-5,-5v-14a5,5,0,0,1,5,-5z" stroke-width="3"></path><g id="node_text44" fill="black"><text id="kity_text_394" text-rendering="inherit" font-size="18" dy=".8em" y="193.8000022917986" x="721.5000086352229">分论点：提供信息是媒体的责任，选择阅读哪些才是我们该做的。</text></g></g><g id="minder_node46"><g id="node_expander45" style="cursor: pointer;"><path id="kity_path_418" fill="white" stroke="gray" d="M75.49999891966581,787.5000110045075A6,6,0,1,1,63.49999891966581,787.5000110045075A6,6,0,1,1,75.49999891966581,787.5000110045075"></path><path id="kity_path_419" fill="none" stroke="gray" d="M64.99999891966581,787.5000110045075L73.99999891966581,787.5000110045075"></path></g><path id="node_outline46" fill="#eaf1dd" stroke="none" d="M80.49999908357859,775.5000110045075h325a5,5,0,0,1,5,5v14a5,5,0,0,1,-5,5h-325a5,5,0,0,1,-5,-5v-14a5,5,0,0,1,5,-5z" stroke-width="3"></path><g id="node_text46" fill="black"><text id="kity_text_415" text-rendering="inherit" font-size="18" dy=".8em" y="775.8000109642744" x="80.49999908357859">分论点：数据是我们表达现实所用的工具</text></g></g><g id="minder_node47"><g id="node_expander46" style="cursor: pointer;" display="none"><path id="kity_path_426" fill="white" stroke="gray" d="M103.49999933689833,816.5000114366412A6,6,0,1,1,91.49999933689833,816.5000114366412A6,6,0,1,1,103.49999933689833,816.5000114366412"></path><path id="kity_path_427" fill="none" stroke="gray"></path></g><path id="node_outline47" fill="none" stroke="none" d="M108.4999995008111,807.5000114366412h158a5,5,0,0,1,5,5v8a5,5,0,0,1,-5,5h-158a5,5,0,0,1,-5,-5v-8a5,5,0,0,1,5,-5z" stroke-width="3"></path><g id="node_text47" fill="black"><text id="kity_text_423" text-rendering="inherit" font-size="12" dy=".8em" y="808.7000114098191" x="108.4999995008111">解释：数据是一种总结的工具</text></g></g><g id="minder_node48" opacity="1"><g id="node_expander47" style="cursor: pointer;"><path id="kity_path_434" fill="white" stroke="gray" d="M1352.5000179484487,170.50000181049109A6,6,0,1,1,1340.5000179484487,170.50000181049109A6,6,0,1,1,1352.5000179484487,170.50000181049109"></path><path id="kity_path_435" fill="none" stroke="gray" d="M1342.0000179484487,170.50000181049109L1351.0000179484487,170.50000181049109"></path></g><path id="node_outline48" fill="#c2d69b" stroke="none" d="M1357.5000184848905,155.50000181049109h457a5,5,0,0,1,5,5v20a5,5,0,0,1,-5,5h-457a5,5,0,0,1,-5,-5v-20a5,5,0,0,1,5,-5z" stroke-width="3"></path><g id="node_text48" fill="black"><text id="kity_text_431" text-rendering="inherit" font-size="24" dy=".8em" y="154.9000017568469" x="1382.5000184848905">运用我们的所学用不同的方式去看待未来</text></g><g id="node_priority7"><path id="kity_path_438" fill="#840023" stroke="none" d="M1358.000018119812,174.00000166893005c0,3.866,3.134,7,7,7h6c3.866,0,7,-3.134,7,-7V168.00000166893005H1358.000018119812V174.00000166893005z"></path><path id="kity_path_439" fill="#FF1200" stroke="none" d="M1378.000018119812,171.00000166893005c0,3.866,-3.134,7,-7,7H1365.000018119812c-3.866,0,-7,-3.134,-7,-7V168.00000166893005c0,-3.866,3.134,-7,7,-7h6c3.866,0,7,3.134,7,7V171.00000166893005z" opacity="0.8"></path><text id="kity_text_440" text-rendering="geometricPrecision" x="1367.0000181123614" y="170.50000166147947" text-anchor="middle" font-style="italic" font-size="12" fill="white" dy="5">1</text></g></g><g id="minder_node27" opacity="1"><g id="node_expander26" style="cursor: pointer;"><path id="kity_path_246" fill="white" stroke="gray" d="M75.49999891966581,529.500007160008A6,6,0,1,1,63.49999891966581,529.500007160008A6,6,0,1,1,75.49999891966581,529.500007160008"></path><path id="kity_path_247" fill="none" stroke="gray" d="M64.99999891966581,529.500007160008L73.99999891966581,529.500007160008"></path></g><path id="node_outline27" fill="#eaf1dd" stroke="none" d="M80.49999908357859,517.500007160008h559a5,5,0,0,1,5,5v14a5,5,0,0,1,-5,5h-559a5,5,0,0,1,-5,-5v-14a5,5,0,0,1,5,-5z" stroke-width="3"></path><g id="node_text27" fill="black"><text id="kity_text_243" text-rendering="inherit" font-size="18" dy=".8em" y="517.8000071197748" x="80.49999908357859">分论点：使用大量电子产品占据大量时间，我们却没有因此更加幸福。</text></g></g><g id="minder_node31"><g id="node_expander30" style="cursor: pointer;" display="none"><path id="kity_path_278" fill="white" stroke="gray" d="M103.49999933689833,694.5000096186996A6,6,0,1,1,91.49999933689833,694.5000096186996A6,6,0,1,1,103.49999933689833,694.5000096186996"></path><path id="kity_path_279" fill="none" stroke="gray" d="M92.99999933689833,694.5000096186996L101.99999933689833,694.5000096186996"></path></g><path id="node_outline31" fill="none" stroke="none" d="M108.4999995008111,685.5000096186996h301a5,5,0,0,1,5,5v8a5,5,0,0,1,-5,5h-301a5,5,0,0,1,-5,-5v-8a5,5,0,0,1,5,-5z" stroke-width="3"></path><g id="node_text31" fill="black"><text id="kity_text_275" text-rendering="inherit" font-size="12" dy=".8em" y="686.7000095918775" x="108.4999995008111">解释：机器学习采用的是以前的数据，可能会继续偏见。</text></g></g><g id="minder_node33"><g id="node_expander32" style="cursor: pointer;" display="none"><path id="kity_path_294" fill="white" stroke="gray" d="M103.49999933689833,720.5000100061297A6,6,0,1,1,91.49999933689833,720.5000100061297A6,6,0,1,1,103.49999933689833,720.5000100061297"></path><path id="kity_path_295" fill="none" stroke="gray"></path></g><path id="node_outline33" fill="none" stroke="none" d="M108.4999995008111,711.5000100061297h86a5,5,0,0,1,5,5v8a5,5,0,0,1,-5,5h-86a5,5,0,0,1,-5,-5v-8a5,5,0,0,1,5,-5z" stroke-width="3"></path><g id="node_text33" fill="black"><text id="kity_text_291" text-rendering="inherit" font-size="12" dy=".8em" y="712.7000099793077" x="108.4999995008111">案例：招聘软件</text></g></g><g id="minder_node28"><g id="node_expander27" style="cursor: pointer;"><path id="kity_path_254" fill="white" stroke="gray" d="M75.49999891966581,665.5000091865659A6,6,0,1,1,63.49999891966581,665.5000091865659A6,6,0,1,1,75.49999891966581,665.5000091865659"></path><path id="kity_path_255" fill="none" stroke="gray" d="M64.99999891966581,665.5000091865659L73.99999891966581,665.5000091865659"></path></g><path id="node_outline28" fill="#eaf1dd" stroke="none" d="M80.49999908357859,653.5000091865659h217a5,5,0,0,1,5,5v14a5,5,0,0,1,-5,5h-217a5,5,0,0,1,-5,-5v-14a5,5,0,0,1,5,-5z" stroke-width="3"></path><g id="node_text28" fill="black"><text id="kity_text_251" text-rendering="inherit" font-size="18" dy=".8em" y="653.8000091463327" x="80.49999908357859">分论点：机器是否要责任？</text></g></g><g id="minder_node51" opacity="1"><g id="node_expander50" style="cursor: pointer;" display="none"><path id="kity_path_474" fill="white" stroke="gray" d="M103.49999933689833,558.5000075921416A6,6,0,1,1,91.49999933689833,558.5000075921416A6,6,0,1,1,103.49999933689833,558.5000075921416"></path><path id="kity_path_475" fill="none" stroke="gray"></path></g><path id="node_outline51" fill="none" stroke="none" d="M108.4999995008111,549.5000075921416h349a5,5,0,0,1,5,5v8a5,5,0,0,1,-5,5h-349a5,5,0,0,1,-5,-5v-8a5,5,0,0,1,5,-5z" stroke-width="3"></path><g id="node_text51" fill="black"><text id="kity_text_471" text-rendering="inherit" font-size="12" dy=".8em" y="550.7000075653195" x="108.4999995008111">解释：这些软件的目的是让我们花更多时间，夺走我们的注意力。</text></g></g><g id="minder_node52" opacity="1"><g id="node_expander51" style="cursor: pointer;" display="none"><path id="kity_path_482" fill="white" stroke="gray" d="M131.49999975413084,610.500008367002A6,6,0,1,1,119.49999975413084,610.500008367002A6,6,0,1,1,131.49999975413084,610.500008367002"></path><path id="kity_path_483" fill="none" stroke="gray"></path></g><path id="node_outline52" fill="none" stroke="none" d="M136.4999999180436,601.500008367002h409a5,5,0,0,1,5,5v8a5,5,0,0,1,-5,5h-409a5,5,0,0,1,-5,-5v-8a5,5,0,0,1,5,-5z" stroke-width="3"></path><g id="node_text52" fill="black"><text id="kity_text_479" text-rendering="inherit" font-size="12" dy=".8em" y="602.7000083401799" x="136.4999999180436">案例：吸引你的注意力影响你的情绪，此时我的情绪被触发，不是我的本意。</text></g></g><g id="minder_node50" opacity="1"><g id="node_expander49" style="cursor: pointer;"><path id="kity_path_460" fill="white" stroke="gray" d="M103.49999933689833,584.5000079795718A6,6,0,1,1,91.49999933689833,584.5000079795718A6,6,0,1,1,103.49999933689833,584.5000079795718"></path><path id="kity_path_461" fill="none" stroke="gray" d="M92.99999933689833,584.5000079795718L101.99999933689833,584.5000079795718"></path></g><path id="node_outline50" fill="none" stroke="none" d="M108.4999995008111,575.5000079795718h253a5,5,0,0,1,5,5v8a5,5,0,0,1,-5,5h-253a5,5,0,0,1,-5,-5v-8a5,5,0,0,1,5,-5z" stroke-width="3"></path><g id="node_text50" fill="black"><text id="kity_text_457" text-rendering="inherit" font-size="12" dy=".8em" y="576.7000079527497" x="108.4999995008111">解释：控制室能控制人的情感，左右人的想法。 </text></g></g><g id="minder_node23" opacity="1"><g id="node_expander22" style="cursor: pointer;" display="none"><path id="kity_path_214" fill="white" stroke="gray" d="M103.49999933689833,636.5000087544322A6,6,0,1,1,91.49999933689833,636.5000087544322A6,6,0,1,1,103.49999933689833,636.5000087544322"></path><path id="kity_path_215" fill="none" stroke="gray"></path></g><path id="node_outline23" fill="none" stroke="none" d="M108.4999995008111,627.5000087544322h289a5,5,0,0,1,5,5v8a5,5,0,0,1,-5,5h-289a5,5,0,0,1,-5,-5v-8a5,5,0,0,1,5,-5z" stroke-width="3"></path><g id="node_text23" fill="black"><text id="kity_text_211" text-rendering="inherit" font-size="12" dy=".8em" y="628.7000087276101" x="108.4999995008111">案例：社交软件公司会分析我们的动态，发出的照片。</text></g></g><g id="minder_node54"><g id="node_expander53" style="cursor: pointer;"><path id="kity_path_502" fill="white" stroke="gray" d="M688.5000080540776,318.50000401586294A6,6,0,1,1,676.5000080540776,318.50000401586294A6,6,0,1,1,688.5000080540776,318.50000401586294"></path><path id="kity_path_503" fill="none" stroke="gray" d="M678.0000080540776,318.50000401586294L687.0000080540776,318.50000401586294"></path></g><path id="node_outline54" fill="#c2d69b" stroke="none" d="M693.5000085905194,303.50000401586294h193a5,5,0,0,1,5,5v20a5,5,0,0,1,-5,5h-193a5,5,0,0,1,-5,-5v-20a5,5,0,0,1,5,-5z" stroke-width="3"></path><g id="node_text54" fill="black"><text id="kity_text_499" text-rendering="inherit" font-size="24" dy=".8em" y="302.90000396221876" x="718.5000085905194">对于娱乐的上瘾</text></g><g id="node_priority8"><path id="kity_path_506" fill="#01467F" stroke="none" d="M694.000008225441,322.0000038743019c0,3.866,3.134,7,7,7h6c3.866,0,7,-3.134,7,-7V316.0000038743019H694.000008225441V322.0000038743019z"></path><path id="kity_path_507" fill="#0074FF" stroke="none" d="M714.000008225441,319.0000038743019c0,3.866,-3.134,7,-7,7H701.000008225441c-3.866,0,-7,-3.134,-7,-7V316.0000038743019c0,-3.866,3.134,-7,7,-7h6c3.866,0,7,3.134,7,7V319.0000038743019z" opacity="0.8"></path><text id="kity_text_508" text-rendering="geometricPrecision" x="703.0000082179904" y="318.50000386685133" text-anchor="middle" font-style="italic" font-size="12" fill="white" dy="5">2</text></g></g><g id="minder_node55"><g id="node_expander54" style="cursor: pointer;"><path id="kity_path_515" fill="white" stroke="gray" d="M716.5000084713101,353.5000045374036A6,6,0,1,1,704.5000084713101,353.5000045374036A6,6,0,1,1,716.5000084713101,353.5000045374036"></path><path id="kity_path_516" fill="none" stroke="gray" d="M706.0000084713101,353.5000045374036L715.0000084713101,353.5000045374036"></path></g><path id="node_outline55" fill="#eaf1dd" stroke="none" d="M721.5000086352229,341.5000045374036h451a5,5,0,0,1,5,5v14a5,5,0,0,1,-5,5h-451a5,5,0,0,1,-5,-5v-14a5,5,0,0,1,5,-5z" stroke-width="3"></path><g id="node_text55" fill="black"><text id="kity_text_512" text-rendering="inherit" font-size="18" dy=".8em" y="341.80000449717045" x="721.5000086352229">分论点：上瘾是依赖，是对生活的无奈，与外界的失联。</text></g></g><g id="minder_node56"><g id="node_expander55" style="cursor: pointer;" display="none"><path id="kity_path_523" fill="white" stroke="gray" d="M744.5000088885427,382.50000496953726A6,6,0,1,1,732.5000088885427,382.50000496953726A6,6,0,1,1,744.5000088885427,382.50000496953726"></path><path id="kity_path_524" fill="none" stroke="gray"></path></g><path id="node_outline56" fill="none" stroke="none" d="M749.5000090524554,373.50000496953726h277a5,5,0,0,1,5,5v8a5,5,0,0,1,-5,5h-277a5,5,0,0,1,-5,-5v-8a5,5,0,0,1,5,-5z" stroke-width="3"></path><g id="node_text56" fill="black"><text id="kity_text_520" text-rendering="inherit" font-size="12" dy=".8em" y="374.70000494271517" x="749.5000090524554">案例：吸毒者与社会失去联系，所以才会选择吸毒。</text></g></g><g id="minder_node57"><g id="node_expander56" style="cursor: pointer;" display="none"><path id="kity_path_531" fill="white" stroke="gray" d="M744.5000088885427,408.50000535696745A6,6,0,1,1,732.5000088885427,408.50000535696745A6,6,0,1,1,744.5000088885427,408.50000535696745"></path><path id="kity_path_532" fill="none" stroke="gray"></path></g><path id="node_outline57" fill="none" stroke="none" d="M749.5000090524554,399.50000535696745h265a5,5,0,0,1,5,5v8a5,5,0,0,1,-5,5h-265a5,5,0,0,1,-5,-5v-8a5,5,0,0,1,5,-5z" stroke-width="3"></path><g id="node_text57" fill="black"><text id="kity_text_528" text-rendering="inherit" font-size="12" dy=".8em" y="400.70000533014536" x="749.5000090524554">案例：美国青少年沉迷色情片，缺乏沟通与交流。</text></g></g><g id="minder_node58"><g id="node_expander57" style="cursor: pointer;" display="none"><path id="kity_path_539" fill="white" stroke="gray" d="M716.5000084713101,434.50000574439764A6,6,0,1,1,704.5000084713101,434.50000574439764A6,6,0,1,1,716.5000084713101,434.50000574439764"></path><path id="kity_path_540" fill="none" stroke="gray"></path></g><path id="node_outline58" fill="none" stroke="none" d="M721.5000086352229,425.50000574439764h169a5,5,0,0,1,5,5v8a5,5,0,0,1,-5,5h-169a5,5,0,0,1,-5,-5v-8a5,5,0,0,1,5,-5z" stroke-width="3"></path><g id="node_text58" fill="black"><text id="kity_text_536" text-rendering="inherit" font-size="12" dy=".8em" y="426.70000571757555" x="721.5000086352229">分论点：注意力和时间的损失。</text></g></g><g id="minder_node67" opacity="1"><g id="node_expander66" style="cursor: pointer;"><path id="kity_path_612" fill="white" stroke="gray" d="M1294.5000170841813,460.50000613182783A6,6,0,1,1,1282.5000170841813,460.50000613182783A6,6,0,1,1,1294.5000170841813,460.50000613182783"></path><path id="kity_path_613" fill="none" stroke="gray" d="M1284.0000170841813,460.50000613182783L1293.0000170841813,460.50000613182783"></path></g><path id="node_outline67" fill="#c2d69b" stroke="none" d="M1299.500017620623,445.50000613182783h169a5,5,0,0,1,5,5v20a5,5,0,0,1,-5,5h-169a5,5,0,0,1,-5,-5v-20a5,5,0,0,1,5,-5z" stroke-width="3"></path><g id="node_text67" fill="black"><text id="kity_text_609" text-rendering="inherit" font-size="24" dy=".8em" y="444.90000607818365" x="1324.500017620623">编程改变世界</text></g><g id="node_priority9"><path id="kity_path_616" fill="#01467F" stroke="none" d="M1300.0000172555447,464.0000059902668c0,3.866,3.134,7,7,7h6c3.866,0,7,-3.134,7,-7V458.0000059902668H1300.0000172555447V464.0000059902668z"></path><path id="kity_path_617" fill="#0074FF" stroke="none" d="M1320.0000172555447,461.0000059902668c0,3.866,-3.134,7,-7,7H1307.0000172555447c-3.866,0,-7,-3.134,-7,-7V458.0000059902668c0,-3.866,3.134,-7,7,-7h6c3.866,0,7,3.134,7,7V461.0000059902668z" opacity="0.8"></path><text id="kity_text_618" text-rendering="geometricPrecision" x="1309.000017248094" y="460.5000059828162" text-anchor="middle" font-style="italic" font-size="12" fill="white" dy="5">2</text></g></g><g id="minder_node75"><g id="node_expander74" style="cursor: pointer;" display="none"><path id="kity_path_681" fill="white" stroke="gray" d="M744.5000088885427,260.5000031515956A6,6,0,1,1,732.5000088885427,260.5000031515956A6,6,0,1,1,744.5000088885427,260.5000031515956"></path><path id="kity_path_682" fill="none" stroke="gray"></path></g><path id="node_outline75" fill="none" stroke="none" d="M749.5000090524554,251.5000031515956h181a5,5,0,0,1,5,5v8a5,5,0,0,1,-5,5h-181a5,5,0,0,1,-5,-5v-8a5,5,0,0,1,5,-5z" stroke-width="3"></path><g id="node_text75" fill="black"><text id="kity_text_678" text-rendering="inherit" font-size="12" dy=".8em" y="252.7000031247735" x="749.5000090524554">解释：我们需要去捍卫新闻自由。</text></g></g><g id="minder_node79" opacity="1"><g id="node_expander78" style="cursor: pointer;"><path id="kity_path_734" fill="white" stroke="gray" d="M1300.5000171735883,597.5000081732869A6,6,0,1,1,1288.5000171735883,597.5000081732869A6,6,0,1,1,1300.5000171735883,597.5000081732869"></path><path id="kity_path_735" fill="none" stroke="gray" d="M1290.0000171735883,597.5000081732869L1299.0000171735883,597.5000081732869"></path></g><path id="node_outline79" fill="#c2d69b" stroke="none" d="M1305.50001771003,582.5000081732869h193a5,5,0,0,1,5,5v20a5,5,0,0,1,-5,5h-193a5,5,0,0,1,-5,-5v-20a5,5,0,0,1,5,-5z" stroke-width="3"></path><g id="node_text79" fill="black"><text id="kity_text_731" text-rendering="inherit" font-size="24" dy=".8em" y="581.9000081196427" x="1330.50001771003">关于情绪的设计</text></g><g id="node_priority10"><path id="kity_path_738" fill="#006300" stroke="none" d="M1306.0000173449516,601.0000080317259c0,3.866,3.134,7,7,7h6c3.866,0,7,-3.134,7,-7V595.0000080317259H1306.0000173449516V601.0000080317259z"></path><path id="kity_path_739" fill="#00AF00" stroke="none" d="M1326.0000173449516,598.0000080317259c0,3.866,-3.134,7,-7,7H1313.0000173449516c-3.866,0,-7,-3.134,-7,-7V595.0000080317259c0,-3.866,3.134,-7,7,-7h6c3.866,0,7,3.134,7,7V598.0000080317259z" opacity="0.8"></path><text id="kity_text_740" text-rendering="geometricPrecision" x="1315.000017337501" y="597.5000080242753" text-anchor="middle" font-style="italic" font-size="12" fill="white" dy="5">3</text></g></g><g id="kity_g_12" display="none"><path id="kity_path_13" fill="none" stroke="rgb(66, 112, 68)" d="M1354.5000053718686,277.5000000372529h469a5,5,0,0,1,5,5v8a5,5,0,0,1,-5,5h-469a5,5,0,0,1,-5,-5v-8a5,5,0,0,1,5,-5z" stroke-width="5"></path></g><g id="minder_node86"><g id="node_expander85" style="cursor: pointer;" display="none"><path id="kity_path_802" fill="white" stroke="gray" d="M1356.5000180080533,661.5000091269612A6,6,0,1,1,1344.5000180080533,661.5000091269612A6,6,0,1,1,1356.5000180080533,661.5000091269612"></path><path id="kity_path_803" fill="none" stroke="gray"></path></g><path id="node_outline86" fill="none" stroke="none" d="M1361.500018171966,652.5000091269612h301a5,5,0,0,1,5,5v8a5,5,0,0,1,-5,5h-301a5,5,0,0,1,-5,-5v-8a5,5,0,0,1,5,-5z" stroke-width="3"></path><g id="node_text86" fill="black"><text id="kity_text_799" text-rendering="inherit" font-size="12" dy=".8em" y="653.7000091001391" x="1361.500018171966">解释：我们要为自己的情绪负责，拥抱并接纳这些责任。</text></g></g><g id="minder_node80"><g id="node_expander79" style="cursor: pointer;"><path id="kity_path_747" fill="white" stroke="gray" d="M1328.5000175908208,632.5000086948276A6,6,0,1,1,1316.5000175908208,632.5000086948276A6,6,0,1,1,1328.5000175908208,632.5000086948276"></path><path id="kity_path_748" fill="none" stroke="gray" d="M1318.0000175908208,632.5000086948276L1327.0000175908208,632.5000086948276"></path></g><path id="node_outline80" fill="#eaf1dd" stroke="none" d="M1333.5000177547336,620.5000086948276h253a5,5,0,0,1,5,5v14a5,5,0,0,1,-5,5h-253a5,5,0,0,1,-5,-5v-14a5,5,0,0,1,5,-5z" stroke-width="3"></path><g id="node_text80" fill="black"><text id="kity_text_744" text-rendering="inherit" font-size="18" dy=".8em" y="620.8000086545944" x="1333.5000177547336">分论点：情绪不是无法控制的。</text></g></g><g id="minder_node87"><g id="node_expander86" style="cursor: pointer;" display="none"><path id="kity_path_812" fill="white" stroke="gray" d="M1356.5000180080533,687.5000095143914A6,6,0,1,1,1344.5000180080533,687.5000095143914A6,6,0,1,1,1356.5000180080533,687.5000095143914"></path><path id="kity_path_813" fill="none" stroke="gray"></path></g><path id="node_outline87" fill="none" stroke="none" d="M1361.500018171966,678.5000095143914h283a5,5,0,0,1,5,5v8a5,5,0,0,1,-5,5h-283a5,5,0,0,1,-5,-5v-8a5,5,0,0,1,5,-5z" stroke-width="3"></path><g id="node_text87" fill="black"><text id="kity_text_809" text-rendering="inherit" font-size="12" dy=".8em" y="679.7000094875693" x="1361.500018171966">案例: 有勇气并不是没有恐惧，勇气是在恐惧中行走。</text></g></g><g id="minder_node68"><g id="node_expander67" style="cursor: pointer;" display="none"><path id="kity_path_625" fill="white" stroke="gray" d="M1322.5000175014138,495.5000066533685A6,6,0,1,1,1310.5000175014138,495.5000066533685A6,6,0,1,1,1322.5000175014138,495.5000066533685"></path><path id="kity_path_626" fill="none" stroke="gray" d="M1312.0000175014138,495.5000066533685L1321.0000175014138,495.5000066533685"></path></g><path id="node_outline68" fill="#eaf1dd" stroke="none" d="M1327.5000176653266,483.5000066533685h235a5,5,0,0,1,5,5v14a5,5,0,0,1,-5,5h-235a5,5,0,0,1,-5,-5v-14a5,5,0,0,1,5,-5z" stroke-width="3"></path><g id="node_text68" fill="black"><text id="kity_text_622" text-rendering="inherit" font-size="18" dy=".8em" y="483.80000661313534" x="1327.5000176653266">分论点：编码改善更好的政府</text></g></g><g id="minder_node69"><g id="node_expander68" style="cursor: pointer;" display="none"><path id="kity_path_633" fill="white" stroke="gray" d="M1322.5000175014138,524.5000070855021A6,6,0,1,1,1310.5000175014138,524.5000070855021A6,6,0,1,1,1322.5000175014138,524.5000070855021"></path><path id="kity_path_634" fill="none" stroke="gray"></path></g><path id="node_outline69" fill="none" stroke="none" d="M1327.5000176653266,515.5000070855021h242a5,5,0,0,1,5,5v8a5,5,0,0,1,-5,5h-242a5,5,0,0,1,-5,-5v-8a5,5,0,0,1,5,-5z" stroke-width="3"></path><g id="node_text69" fill="black"><text id="kity_text_630" text-rendering="inherit" font-size="12" dy=".8em" y="516.7000070586801" x="1327.5000176653266">解释：公民编程项目用编程来改变自己的生活</text></g></g><g id="minder_node71"><g id="node_expander70" style="cursor: pointer;" display="none"><path id="kity_path_649" fill="white" stroke="gray" d="M1322.5000175014138,550.5000074729323A6,6,0,1,1,1310.5000175014138,550.5000074729323A6,6,0,1,1,1322.5000175014138,550.5000074729323"></path><path id="kity_path_650" fill="none" stroke="gray"></path></g><path id="node_outline71" fill="none" stroke="none" d="M1327.5000176653266,541.5000074729323h326a5,5,0,0,1,5,5v8a5,5,0,0,1,-5,5h-326a5,5,0,0,1,-5,-5v-8a5,5,0,0,1,5,-5z" stroke-width="3"></path><g id="node_text71" fill="black"><text id="kity_text_646" text-rendering="inherit" font-size="12" dy=".8em" y="542.7000074461102" x="1327.5000176653266">案例：领养一个消防栓的游戏，呼吁人们铲雪，爱护城市环境</text></g></g><g id="minder_node49" opacity="1"><g id="node_expander48" style="cursor: pointer;" display="none"><path id="kity_path_447" fill="white" stroke="gray" d="M1380.5000183656812,202.50000228732824A6,6,0,1,1,1368.5000183656812,202.50000228732824A6,6,0,1,1,1380.5000183656812,202.50000228732824"></path><path id="kity_path_448" fill="none" stroke="gray" d="M1370.0000183656812,202.50000228732824L1379.0000183656812,202.50000228732824"></path></g><path id="node_outline49" fill="none" stroke="none" d="M1385.500018529594,193.50000228732824h290a5,5,0,0,1,5,5v8a5,5,0,0,1,-5,5h-290a5,5,0,0,1,-5,-5v-8a5,5,0,0,1,5,-5z" stroke-width="3"></path><g id="node_text49" fill="black"><text id="kity_text_444" text-rendering="inherit" font-size="12" dy=".8em" y="194.70000226050615" x="1385.500018529594">案例：出门所带的东西是自身对科技掌握的一种的理解</text></g></g><g id="minder_node84"><g id="node_expander83" style="cursor: pointer;" display="none"><path id="kity_path_786" fill="white" stroke="gray" d="M1408.5000187829137,254.50000306218863A6,6,0,1,1,1396.5000187829137,254.50000306218863A6,6,0,1,1,1408.5000187829137,254.50000306218863"></path><path id="kity_path_787" fill="none" stroke="gray"></path></g><path id="node_outline84" fill="none" stroke="none" d="M1413.5000189468265,245.50000306218863h265a5,5,0,0,1,5,5v8a5,5,0,0,1,-5,5h-265a5,5,0,0,1,-5,-5v-8a5,5,0,0,1,5,-5z" stroke-width="3"></path><g id="node_text84" fill="black"><text id="kity_text_783" text-rendering="inherit" font-size="12" dy=".8em" y="246.70000303536654" x="1413.5000189468265">再多尝试也无法修补破裂的系统，要从社会下手。</text></g></g><g id="minder_node76" opacity="1"><g id="node_expander75" style="cursor: pointer;"><path id="kity_path_699" fill="white" stroke="gray" d="M1380.5000183656812,228.50000267475843A6,6,0,1,1,1368.5000183656812,228.50000267475843A6,6,0,1,1,1380.5000183656812,228.50000267475843"></path><path id="kity_path_700" fill="none" stroke="gray" d="M1370.0000183656812,228.50000267475843L1379.0000183656812,228.50000267475843"></path></g><path id="node_outline76" fill="none" stroke="none" d="M1385.500018529594,219.50000267475843h289a5,5,0,0,1,5,5v8a5,5,0,0,1,-5,5h-289a5,5,0,0,1,-5,-5v-8a5,5,0,0,1,5,-5z" stroke-width="3"></path><g id="node_text76" fill="black"><text id="kity_text_696" text-rendering="inherit" font-size="12" dy=".8em" y="220.70000264793634" x="1385.500018529594">案例：社会告诉女孩应该做什么，而不是自己想做的。</text></g></g><g id="minder_node66"><g id="node_expander65" style="cursor: pointer;" display="none"><path id="kity_path_604" fill="white" stroke="gray" d="M1408.5000187829137,306.500003837049A6,6,0,1,1,1396.5000187829137,306.500003837049A6,6,0,1,1,1408.5000187829137,306.500003837049"></path><path id="kity_path_605" fill="none" stroke="gray"></path></g><path id="node_outline66" fill="none" stroke="none" d="M1413.5000189468265,297.500003837049h242a5,5,0,0,1,5,5v8a5,5,0,0,1,-5,5h-242a5,5,0,0,1,-5,-5v-8a5,5,0,0,1,5,-5z" stroke-width="3"></path><g id="node_text66" fill="black"><text id="kity_text_601" text-rendering="inherit" font-size="12" dy=".8em" y="298.7000038102269" x="1413.5000189468265">解释：要用更多关心和更多爱来改变这个状况</text></g></g><g id="minder_node59" opacity="1"><g id="node_expander58" style="cursor: pointer;"><path id="kity_path_548" fill="white" stroke="gray" d="M1380.5000183656812,280.5000034496188A6,6,0,1,1,1368.5000183656812,280.5000034496188A6,6,0,1,1,1380.5000183656812,280.5000034496188"></path><path id="kity_path_549" fill="none" stroke="gray" d="M1370.0000183656812,280.5000034496188L1379.0000183656812,280.5000034496188"></path></g><path id="node_outline59" fill="none" stroke="none" d="M1385.500018529594,271.5000034496188h301a5,5,0,0,1,5,5v8a5,5,0,0,1,-5,5h-301a5,5,0,0,1,-5,-5v-8a5,5,0,0,1,5,-5z" stroke-width="3"></path><g id="node_text59" fill="black"><text id="kity_text_545" text-rendering="inherit" font-size="12" dy=".8em" y="272.7000034227967" x="1385.500018529594">解释：患精神疾病也很正常，社会不愿意去接纳这些人。</text></g></g><g id="minder_node62"><g id="node_expander61" style="cursor: pointer;" display="none"><path id="kity_path_572" fill="white" stroke="gray" d="M1408.5000187829137,364.50000470131636A6,6,0,1,1,1396.5000187829137,364.50000470131636A6,6,0,1,1,1408.5000187829137,364.50000470131636"></path><path id="kity_path_573" fill="none" stroke="gray"></path></g><path id="node_outline62" fill="none" stroke="none" d="M1413.5000189468265,355.50000470131636h337a5,5,0,0,1,5,5v8a5,5,0,0,1,-5,5h-337a5,5,0,0,1,-5,-5v-8a5,5,0,0,1,5,-5z" stroke-width="3"></path><g id="node_text62" fill="black"><text id="kity_text_569" text-rendering="inherit" font-size="12" dy=".8em" y="356.70000467449427" x="1413.5000189468265">案例：政府独裁的趋势增加，民主政府也在加强镇压持异议者。</text></g></g><g id="minder_node83"><g id="node_expander82" style="cursor: pointer;" display="none"><path id="kity_path_778" fill="white" stroke="gray" d="M1408.5000187829137,390.50000508874655A6,6,0,1,1,1396.5000187829137,390.50000508874655A6,6,0,1,1,1408.5000187829137,390.50000508874655"></path><path id="kity_path_779" fill="none" stroke="gray"></path></g><path id="node_outline83" fill="none" stroke="none" d="M1413.5000189468265,381.50000508874655h469a5,5,0,0,1,5,5v8a5,5,0,0,1,-5,5h-469a5,5,0,0,1,-5,-5v-8a5,5,0,0,1,5,-5z" stroke-width="3"></path><g id="node_text83" fill="black"><text id="kity_text_775" text-rendering="inherit" font-size="12" dy=".8em" y="382.70000506192446" x="1413.5000189468265">案例：我们在争取公众使用强加密的权利，否则意见相左的新闻和调查性报导难以传播。</text></g></g><g id="minder_node61"><g id="node_expander60" style="cursor: pointer;"><path id="kity_path_564" fill="white" stroke="gray" d="M1380.5000183656812,335.5000042691827A6,6,0,1,1,1368.5000183656812,335.5000042691827A6,6,0,1,1,1380.5000183656812,335.5000042691827"></path><path id="kity_path_565" fill="none" stroke="gray" d="M1370.0000183656812,335.5000042691827L1379.0000183656812,335.5000042691827"></path></g><path id="node_outline61" fill="#eaf1dd" stroke="none" d="M1385.500018529594,323.5000042691827h236a5,5,0,0,1,5,5v14a5,5,0,0,1,-5,5h-236a5,5,0,0,1,-5,-5v-14a5,5,0,0,1,5,-5z" stroke-width="3"></path><g id="node_text61" fill="black"><text id="kity_text_561" text-rendering="inherit" font-size="18" dy=".8em" y="323.80000422894955" x="1385.500018529594">分论点：政府的设计需要改变</text></g></g><g id="minder_node88"><g id="node_expander87" style="cursor: pointer;" display="none"><path id="kity_path_831" fill="white" stroke="gray" d="M1328.5000175908208,716.5000099465251A6,6,0,1,1,1316.5000175908208,716.5000099465251A6,6,0,1,1,1328.5000175908208,716.5000099465251"></path><path id="kity_path_832" fill="none" stroke="gray"></path></g><path id="node_outline88" fill="#eaf1dd" stroke="none" d="M1333.5000177547336,704.5000099465251h523a5,5,0,0,1,5,5v14a5,5,0,0,1,-5,5h-523a5,5,0,0,1,-5,-5v-14a5,5,0,0,1,5,-5z" stroke-width="3"></path><g id="node_text88" fill="black"><text id="kity_text_828" text-rendering="inherit" font-size="18" dy=".8em" y="704.800009906292" x="1333.5000177547336">分论点：行为设计之本质就是要让使用者感到一切都在掌控之中。</text></g></g></g></g></svg>
