<svg id="kity_svg_6" xmlns="http://www.w3.org/2000/svg" xmlns:xlink="http://www.w3.org/1999/xlink" version="1.1" width="1932" height="942" style="background: rgb(251, 251, 251); visibility: visible;" viewBox="0 0 1932 942"><defs id="kity_defs_7"><linearGradient id="kity_linearGradient_17" x1="0" y1="0" x2="0" y2="1"><stop id="kity_stop_18" offset="0" stop-color="rgb(255, 255, 255)"></stop><stop id="kity_stop_19" offset="1" stop-color="rgb(204, 204, 204)"></stop></linearGradient><marker id="kity_marker_2" orient="auto" refX="6" refY="0" viewBox="-7 -7 14 14" markerWidth="7" markerHeight="7" markerUnits="userSpaceOnUse"><path id="kity_path_3" fill="rgb(115, 161, 191)" stroke="none" d="M6,0A6,6,0,1,1,-6,0A6,6,0,1,1,6,0"></path></marker></defs><g id="kity_g_8"><g id="minder1" text-rendering="geometricPrecision"><g id="minder_connect_group1"><path id="kity_path_87" fill="none" stroke="rgb(115, 191, 118)" stroke-width="1" d="M720.5000080093741,48.500000678002834v10h-647.5V66.50000067800283"></path><path id="kity_path_111" fill="none" stroke="rgb(115, 191, 118)" stroke-width="1" d="M40.50000800937414,110.50000067800283V267.50000067800283L48.50000800937414,267.50000067800283"></path><path id="kity_path_119" fill="none" stroke="rgb(115, 191, 118)" stroke-width="1" d="M68.50000800937414,282.50000067800283V299.50000067800283L76.50000800937414,299.50000067800283"></path><path id="kity_path_127" fill="none" stroke="rgb(115, 191, 118)" stroke-width="1" d="M40.50000800937414,110.50000067800283V591.5000006780028L48.50000800937414,591.5000006780028"></path><path id="kity_path_135" fill="none" stroke="rgb(115, 191, 118)" stroke-width="1" d="M40.50000800937414,110.50000067800283V849.5000006780028L48.50000800937414,849.5000006780028"></path><path id="kity_path_143" fill="none" stroke="rgb(115, 191, 118)" stroke-width="1" d="M68.50000800937414,282.50000067800283V403.50000067800283L76.50000800937414,403.50000067800283"></path><path id="kity_path_159" fill="none" stroke="rgb(115, 191, 118)" stroke-width="1" d="M68.50000800937414,282.50000067800283V481.50000067800283L76.50000800937414,481.50000067800283"></path><path id="kity_path_185" fill="none" stroke="rgb(115, 191, 118)" stroke-width="1" d="M96.50000800937414,308.50000067800283V351.50000067800283L104.50000800937414,351.50000067800283"></path><path id="kity_path_193" fill="none" stroke="rgb(115, 191, 118)" stroke-width="1" d="M96.50000800937414,308.50000067800283V377.50000067800283L104.50000800937414,377.50000067800283"></path><path id="kity_path_201" fill="none" stroke="rgb(115, 191, 118)" stroke-width="1" d="M96.50000800937414,490.50000067800283V507.50000067800283L104.50000800937414,507.50000067800283"></path><path id="kity_path_217" fill="none" stroke="rgb(115, 191, 118)" stroke-width="1" d="M96.50000800937414,308.50000067800283V325.50000067800283L104.50000800937414,325.50000067800283"></path><path id="kity_path_257" fill="none" stroke="rgb(115, 191, 118)" stroke-width="1" d="M96.50000800937414,412.50000067800283V429.50000067800283L104.50000800937414,429.50000067800283"></path><path id="kity_path_265" fill="none" stroke="rgb(115, 191, 118)" stroke-width="1" d="M96.50000800937414,412.50000067800283V455.50000067800283L104.50000800937414,455.50000067800283"></path><path id="kity_path_297" fill="none" stroke="rgb(115, 191, 118)" stroke-width="1" d="M68.50000800937414,282.50000067800283V533.5000006780028L76.50000800937414,533.5000006780028"></path><path id="kity_path_305" fill="none" stroke="rgb(115, 191, 118)" stroke-width="1" d="M96.50000800937414,542.5000006780028V559.5000006780028L104.50000800937414,559.5000006780028"></path><path id="kity_path_347" fill="none" stroke="rgb(115, 191, 118)" stroke-width="1" d="M720.5000080093741,48.500000678002834v10h-6.5V66.50000067800283"></path><path id="kity_path_355" fill="none" stroke="rgb(115, 191, 118)" stroke-width="1" d="M681.5000080093741,110.50000067800283V241.50000067800283L689.5000080093741,241.50000067800283"></path><path id="kity_path_357" fill="none" stroke="rgb(115, 191, 118)" stroke-width="1" d="M737.5000080093741,288.50000067800283V357.50000067800283L745.5000080093741,357.50000067800283"></path><path id="kity_path_359" fill="none" stroke="rgb(115, 191, 118)" stroke-width="1" d="M737.5000080093741,288.50000067800283V305.50000067800283L745.5000080093741,305.50000067800283"></path><path id="kity_path_392" fill="none" stroke="rgb(115, 191, 118)" stroke-width="1" d="M709.5000080093741,256.50000067800283V276.50000067800283L717.5000080093741,276.50000067800283"></path><path id="kity_path_413" fill="none" stroke="rgb(115, 191, 118)" stroke-width="1" d="M68.50000800937414,864.5000006780028V884.5000006780028L76.50000800937414,884.5000006780028"></path><path id="kity_path_421" fill="none" stroke="rgb(115, 191, 118)" stroke-width="1" d="M96.50000800937414,896.5000006780028V913.5000006780028L104.50000800937414,913.5000006780028"></path><path id="kity_path_463" fill="none" stroke="rgb(115, 191, 118)" stroke-width="1" d="M68.50000800937414,606.5000006780028V626.5000006780028L76.50000800937414,626.5000006780028"></path><path id="kity_path_464" fill="none" stroke="rgb(115, 191, 118)" stroke-width="1" d="M96.50000800937414,774.5000006780028V791.5000006780028L104.50000800937414,791.5000006780028"></path><path id="kity_path_465" fill="none" stroke="rgb(115, 191, 118)" stroke-width="1" d="M96.50000800937414,774.5000006780028V817.5000006780028L104.50000800937414,817.5000006780028"></path><path id="kity_path_466" fill="none" stroke="rgb(115, 191, 118)" stroke-width="1" d="M68.50000800937414,606.5000006780028V762.5000006780028L76.50000800937414,762.5000006780028"></path><path id="kity_path_484" fill="none" stroke="rgb(115, 191, 118)" stroke-width="1" d="M96.50000800937414,638.5000006780028V655.5000006780028L104.50000800937414,655.5000006780028"></path><path id="kity_path_485" fill="none" stroke="rgb(115, 191, 118)" stroke-width="1" d="M124.50000800937414,690.5000006780028V707.5000006780028L132.50000800937414,707.5000006780028"></path><path id="kity_path_486" fill="none" stroke="rgb(115, 191, 118)" stroke-width="1" d="M96.50000800937414,638.5000006780028V681.5000006780028L104.50000800937414,681.5000006780028"></path><path id="kity_path_487" fill="none" stroke="rgb(115, 191, 118)" stroke-width="1" d="M96.50000800937414,638.5000006780028V733.5000006780028L104.50000800937414,733.5000006780028"></path><path id="kity_path_497" fill="none" stroke="rgb(115, 191, 118)" stroke-width="1" d="M681.5000080093741,110.50000067800283V389.50000067800283L689.5000080093741,389.50000067800283"></path><path id="kity_path_510" fill="none" stroke="rgb(115, 191, 118)" stroke-width="1" d="M709.5000080093741,404.50000067800283V424.50000067800283L717.5000080093741,424.50000067800283"></path><path id="kity_path_518" fill="none" stroke="rgb(115, 191, 118)" stroke-width="1" d="M737.5000080093741,436.50000067800283V453.50000067800283L745.5000080093741,453.50000067800283"></path><path id="kity_path_526" fill="none" stroke="rgb(115, 191, 118)" stroke-width="1" d="M737.5000080093741,436.50000067800283V479.50000067800283L745.5000080093741,479.50000067800283"></path><path id="kity_path_534" fill="none" stroke="rgb(115, 191, 118)" stroke-width="1" d="M709.5000080093741,404.50000067800283V508.50000067800283L717.5000080093741,508.50000067800283"></path><path id="kity_path_676" fill="none" stroke="rgb(115, 191, 118)" stroke-width="1" d="M737.5000080093741,288.50000067800283V331.50000067800283L745.5000080093741,331.50000067800283"></path><path id="kity_path_869" fill="none" stroke="rgb(115, 191, 118)" stroke-width="1" d="M40.50000800937414,110.50000067800283V131.50000067800283L48.50000800937414,131.50000067800283"></path><path id="kity_path_877" fill="none" stroke="rgb(115, 191, 118)" stroke-width="1" d="M40.50000800937414,110.50000067800283V157.50000067800283L48.50000800937414,157.50000067800283"></path><path id="kity_path_885" fill="none" stroke="rgb(115, 191, 118)" stroke-width="1" d="M40.50000800937414,110.50000067800283V209.50000067800283L48.50000800937414,209.50000067800283"></path><path id="kity_path_893" fill="none" stroke="rgb(115, 191, 118)" stroke-width="1" d="M40.50000800937414,110.50000067800283V183.50000067800283L48.50000800937414,183.50000067800283"></path><path id="kity_path_901" fill="none" stroke="rgb(115, 191, 118)" stroke-width="1" d="M720.5000080093741,48.500000678002834v10h648.5V66.50000067800283"></path><path id="kity_path_909" fill="none" stroke="rgb(115, 191, 118)" stroke-width="1" d="M1336.5000080093741,110.50000067800283V285.50000067800283L1344.5000080093741,285.50000067800283"></path><path id="kity_path_911" fill="none" stroke="rgb(115, 191, 118)" stroke-width="1" d="M1364.5000080093741,300.50000067800283V317.50000067800283L1372.5000080093741,317.50000067800283"></path><path id="kity_path_913" fill="none" stroke="rgb(115, 191, 118)" stroke-width="1" d="M1364.5000080093741,300.50000067800283V343.50000067800283L1372.5000080093741,343.50000067800283"></path><path id="kity_path_915" fill="none" stroke="rgb(115, 191, 118)" stroke-width="1" d="M1392.5000080093741,352.50000067800283V369.50000067800283L1400.5000080093741,369.50000067800283"></path><path id="kity_path_917" fill="none" stroke="rgb(115, 191, 118)" stroke-width="1" d="M1364.5000080093741,300.50000067800283V395.50000067800283L1372.5000080093741,395.50000067800283"></path><path id="kity_path_919" fill="none" stroke="rgb(115, 191, 118)" stroke-width="1" d="M1392.5000080093741,404.50000067800283V421.50000067800283L1400.5000080093741,421.50000067800283"></path><path id="kity_path_921" fill="none" stroke="rgb(115, 191, 118)" stroke-width="1" d="M1364.5000080093741,300.50000067800283V450.50000067800283L1372.5000080093741,450.50000067800283"></path><path id="kity_path_923" fill="none" stroke="rgb(115, 191, 118)" stroke-width="1" d="M1392.5000080093741,462.50000067800283V479.50000067800283L1400.5000080093741,479.50000067800283"></path><path id="kity_path_925" fill="none" stroke="rgb(115, 191, 118)" stroke-width="1" d="M1392.5000080093741,462.50000067800283V505.50000067800283L1400.5000080093741,505.50000067800283"></path><path id="kity_path_986" fill="none" stroke="rgb(115, 191, 118)" stroke-width="1" d="M1336.5000080093741,110.50000067800283V712.5000006780028L1351.5000080093741,712.5000006780028"></path><path id="kity_path_988" fill="none" stroke="rgb(115, 191, 118)" stroke-width="1" d="M1371.5000080093741,727.5000006780028V747.5000006780028L1379.5000080093741,747.5000006780028"></path><path id="kity_path_990" fill="none" stroke="rgb(115, 191, 118)" stroke-width="1" d="M1399.5000080093741,759.5000006780028V776.5000006780028L1407.5000080093741,776.5000006780028"></path><path id="kity_path_992" fill="none" stroke="rgb(115, 191, 118)" stroke-width="1" d="M1399.5000080093741,759.5000006780028V802.5000006780028L1407.5000080093741,802.5000006780028"></path><path id="kity_path_994" fill="none" stroke="rgb(115, 191, 118)" stroke-width="1" d="M1371.5000080093741,727.5000006780028V831.5000006780028L1379.5000080093741,831.5000006780028"></path><path id="kity_path_1031" fill="none" stroke="rgb(115, 191, 118)" stroke-width="1" d="M1336.5000080093741,110.50000067800283V575.5000006780028L1345.5000080093741,575.5000006780028"></path><path id="kity_path_1033" fill="none" stroke="rgb(115, 191, 118)" stroke-width="1" d="M1365.5000080093741,590.5000006780028V610.5000006780028L1373.5000080093741,610.5000006780028"></path><path id="kity_path_1035" fill="none" stroke="rgb(115, 191, 118)" stroke-width="1" d="M1365.5000080093741,590.5000006780028V639.5000006780028L1373.5000080093741,639.5000006780028"></path><path id="kity_path_1037" fill="none" stroke="rgb(115, 191, 118)" stroke-width="1" d="M1365.5000080093741,590.5000006780028V665.5000006780028L1373.5000080093741,665.5000006780028"></path><path id="kity_path_1068" fill="none" stroke="rgb(115, 191, 118)" stroke-width="1" d="M681.5000080093741,110.50000067800283V131.50000067800283L689.5000080093741,131.50000067800283"></path><path id="kity_path_1076" fill="none" stroke="rgb(115, 191, 118)" stroke-width="1" d="M681.5000080093741,110.50000067800283V183.50000067800283L689.5000080093741,183.50000067800283"></path><path id="kity_path_1084" fill="none" stroke="rgb(115, 191, 118)" stroke-width="1" d="M681.5000080093741,110.50000067800283V157.50000067800283L689.5000080093741,157.50000067800283"></path><path id="kity_path_1092" fill="none" stroke="rgb(115, 191, 118)" stroke-width="1" d="M681.5000080093741,110.50000067800283V209.50000067800283L689.5000080093741,209.50000067800283"></path><path id="kity_path_1116" fill="none" stroke="rgb(115, 191, 118)" stroke-width="1" d="M1336.5000080093741,110.50000067800283V131.50000067800283L1344.5000080093741,131.50000067800283"></path><path id="kity_path_1124" fill="none" stroke="rgb(115, 191, 118)" stroke-width="1" d="M1336.5000080093741,110.50000067800283V227.50000067800283L1344.5000080093741,227.50000067800283"></path><path id="kity_path_1132" fill="none" stroke="rgb(115, 191, 118)" stroke-width="1" d="M1336.5000080093741,110.50000067800283V192.50000067800283L1344.5000080093741,192.50000067800283"></path><path id="kity_path_1140" fill="none" stroke="rgb(115, 191, 118)" stroke-width="1" d="M1336.5000080093741,110.50000067800283V157.50000067800283L1344.5000080093741,157.50000067800283"></path><path id="kity_path_1149" fill="none" stroke="rgb(115, 191, 118)" stroke-width="1" d="M1336.5000080093741,110.50000067800283V253.50000067800283L1344.5000080093741,253.50000067800283"></path><path id="kity_path_1157" fill="none" stroke="rgb(115, 191, 118)" stroke-width="1" d="M40.50000800937414,110.50000067800283V235.50000067800283L48.50000800937414,235.50000067800283"></path></g><g id="minder_node1"><path id="node_outline1" fill="#4e6128" stroke="rgb(115, 191, 118)" d="M482.50000800937414,20.500000678002834h475a5,5,0,0,1,5,5v18a5,5,0,0,1,-5,5h-475a5,5,0,0,1,-5,-5v-18a5,5,0,0,1,5,-5z" stroke-width="3"></path><g id="node_text1" fill="white"><text id="kity_text_22" text-rendering="inherit" font-size="16" dy=".8em" y="24.100000642240047" x="489.50000800937414">科技、娱乐与设计https://liuyu19.github.io/TED/mindmap.svg</text></g><a id="kity_a_865" xlink:href="https://liuyu19.github.io/TED/mindmap.svg" target="_blank" xlink:title="https://liuyu19.github.io/TED/mindmap.svg" style="cursor: pointer;" display="none"><path id="kity_path_867" fill="rgba(255, 255, 255, 0)" stroke="none" d="M491.50000800937414,28.500000678002834h16a4,4,0,0,1,4,4v14a4,4,0,0,1,-4,4h-16a4,4,0,0,1,-4,-4v-14a4,4,0,0,1,4,-4z"></path><path id="kity_path_866" fill="#666" stroke="none" d="M506.1140080093741,44.72400067800284h-1.278c-1.668,0,-3.07,-1.07,-3.599,-2.556h4.877c0.707,0,1.278,-0.571,1.278,-1.278V38.33400067800284c0,-0.707,-0.571,-1.278,-1.278,-1.278h-4.877C501.76600800937416,35.57100067800283,503.16800800937415,34.500000678002834,504.83600800937415,34.500000678002834h1.278c2.116,0,3.834,1.716,3.834,3.834V40.890000678002835C509.9480080093741,43.00800067800283,508.23000800937416,44.72400067800284,506.1140080093741,44.72400067800284zM494.61200800937416,39.612000678002836c0,-0.707,0.573,-1.278,1.278,-1.278h7.668c0.707,0,1.278,0.571,1.278,1.278S504.2650080093741,40.890000678002835,503.55800800937413,40.890000678002835H495.8900080093741C495.18500800937414,40.890000678002835,494.61200800937416,40.31900067800284,494.61200800937416,39.612000678002836zM492.0560080093741,38.33400067800284V40.890000678002835c0,0.707,0.573,1.278,1.278,1.278h4.877c-0.528,1.486,-1.932,2.556,-3.599,2.556H493.33400800937414C491.21600800937415,44.72400067800284,489.50000800937414,43.00800067800283,489.50000800937414,40.890000678002835V38.33400067800284C489.50000800937414,36.216000678002835,491.21600800937415,34.500000678002834,493.33400800937414,34.500000678002834h1.278c1.667,0,3.071,1.071,3.599,2.556H493.33400800937414C492.62900800937416,37.05600067800283,492.0560080093741,37.62700067800284,492.0560080093741,38.33400067800284z"></path></a></g><g id="kity_g_14" display="none"><path id="kity_path_15" fill="rgba(0, 153, 5, 0.5)" stroke="none" d="M1378.5000080093741,115.50000067800283h467v4h-467z"></path><path id="kity_path_16" fill="none" stroke="rgb(0, 128, 4)" d="M1378.5000080093741,119.50000067800283L1845.5000080093741,119.50000067800283" stroke-width="1"></path></g><g id="minder_node9"><g id="node_expander8" style="cursor: pointer;"><path id="kity_path_92" fill="white" stroke="gray" d="M78.50000179558992,59.500001050531864A6,6,0,1,1,66.50000179558992,59.500001050531864A6,6,0,1,1,78.50000179558992,59.500001050531864"></path><path id="kity_path_93" fill="none" stroke="gray" d="M68.00000179558992,59.500001050531864L77.00000179558992,59.500001050531864"></path></g><path id="node_outline9" fill="#76923c" stroke="rgb(115, 191, 118)" d="M23.500001318752766,66.50000148266554h98a3,3,0,0,1,3,3v38a3,3,0,0,1,-3,3h-98a3,3,0,0,1,-3,-3v-38a3,3,0,0,1,3,-3z" stroke-width="1"></path><g id="node_text9" fill="black"><text id="kity_text_89" text-rendering="inherit" font-size="32" dy=".8em" y="67.70000141113997" x="40.500001318752766">科技</text></g></g><g id="minder_node12"><g id="node_expander11" style="cursor: pointer;"><path id="kity_path_116" fill="white" stroke="gray" d="M48.50000134855509,267.5000041499734A6,6,0,1,1,36.50000134855509,267.5000041499734A6,6,0,1,1,48.50000134855509,267.5000041499734"></path><path id="kity_path_117" fill="none" stroke="gray" d="M38.00000134855509,267.5000041499734L47.00000134855509,267.5000041499734"></path></g><path id="node_outline12" fill="#c2d69b" stroke="none" d="M53.50000188499689,252.5000041499734h265a5,5,0,0,1,5,5v20a5,5,0,0,1,-5,5h-265a5,5,0,0,1,-5,-5v-20a5,5,0,0,1,5,-5z" stroke-width="3"></path><g id="node_text12" fill="black"><text id="kity_text_113" text-rendering="inherit" font-size="24" dy=".8em" y="251.9000040963292" x="78.50000188499689">科技在影响我们的生活</text></g><g id="node_priority1"><path id="kity_path_176" fill="#840023" stroke="none" d="M54.00000151991844,271.00000400841236c0,3.866,3.134,7,7,7h6c3.866,0,7,-3.134,7,-7V265.00000400841236H54.00000151991844V271.00000400841236z"></path><path id="kity_path_177" fill="#FF1200" stroke="none" d="M74.00000151991844,268.00000400841236c0,3.866,-3.134,7,-7,7H61.00000151991844c-3.866,0,-7,-3.134,-7,-7V265.00000400841236c0,-3.866,3.134,-7,7,-7h6c3.866,0,7,3.134,7,7V268.00000400841236z" opacity="0.8"></path><text id="kity_text_178" text-rendering="geometricPrecision" x="63.00000151246786" y="267.5000040009618" text-anchor="middle" font-style="italic" font-size="12" fill="white" dy="5">1</text></g></g><g id="minder_node13"><g id="node_expander12" style="cursor: pointer;"><path id="kity_path_124" fill="white" stroke="gray" d="M76.5000017657876,299.50000462681055A6,6,0,1,1,64.5000017657876,299.50000462681055A6,6,0,1,1,76.5000017657876,299.50000462681055"></path><path id="kity_path_125" fill="none" stroke="gray" d="M66.0000017657876,299.50000462681055L75.0000017657876,299.50000462681055"></path></g><path id="node_outline13" fill="none" stroke="none" d="M81.50000192970037,290.50000462681055h133a5,5,0,0,1,5,5v8a5,5,0,0,1,-5,5h-133a5,5,0,0,1,-5,-5v-8a5,5,0,0,1,5,-5z" stroke-width="3"></path><g id="node_text13" fill="black"><text id="kity_text_121" text-rendering="inherit" font-size="12" dy=".8em" y="291.70000459998846" x="81.50000192970037">对亲密关系与社交的态度</text></g></g><g id="minder_node14" opacity="1"><g id="node_expander13" style="cursor: pointer;"><path id="kity_path_132" fill="white" stroke="gray" d="M48.50000134855509,591.5000089779496A6,6,0,1,1,36.50000134855509,591.5000089779496A6,6,0,1,1,48.50000134855509,591.5000089779496"></path><path id="kity_path_133" fill="none" stroke="gray" d="M38.00000134855509,591.5000089779496L47.00000134855509,591.5000089779496"></path></g><path id="node_outline14" fill="#c2d69b" stroke="none" d="M53.50000188499689,576.5000089779496h313a5,5,0,0,1,5,5v20a5,5,0,0,1,-5,5h-313a5,5,0,0,1,-5,-5v-20a5,5,0,0,1,5,-5z" stroke-width="3"></path><g id="node_text14" fill="black"><text id="kity_text_129" text-rendering="inherit" font-size="24" dy=".8em" y="575.9000089243054" x="78.50000188499689">科技公司对此有极大的责任</text></g><g id="node_priority2"><path id="kity_path_181" fill="#01467F" stroke="none" d="M54.00000151991844,595.0000088363886c0,3.866,3.134,7,7,7h6c3.866,0,7,-3.134,7,-7V589.0000088363886H54.00000151991844V595.0000088363886z"></path><path id="kity_path_182" fill="#0074FF" stroke="none" d="M74.00000151991844,592.0000088363886c0,3.866,-3.134,7,-7,7H61.00000151991844c-3.866,0,-7,-3.134,-7,-7V589.0000088363886c0,-3.866,3.134,-7,7,-7h6c3.866,0,7,3.134,7,7V592.0000088363886z" opacity="0.8"></path><text id="kity_text_183" text-rendering="geometricPrecision" x="63.00000151246786" y="591.500008828938" text-anchor="middle" font-style="italic" font-size="12" fill="white" dy="5">2</text></g></g><g id="minder_node15"><g id="node_expander14" style="cursor: pointer;"><path id="kity_path_140" fill="white" stroke="gray" d="M48.50000134855509,849.5000128224492A6,6,0,1,1,36.50000134855509,849.5000128224492A6,6,0,1,1,48.50000134855509,849.5000128224492"></path><path id="kity_path_141" fill="none" stroke="gray" d="M38.00000134855509,849.5000128224492L47.00000134855509,849.5000128224492"></path></g><path id="node_outline15" fill="#c2d69b" stroke="none" d="M53.50000188499689,834.5000128224492h193a5,5,0,0,1,5,5v20a5,5,0,0,1,-5,5h-193a5,5,0,0,1,-5,-5v-20a5,5,0,0,1,5,-5z" stroke-width="3"></path><g id="node_text15" fill="black"><text id="kity_text_137" text-rendering="inherit" font-size="24" dy=".8em" y="833.900012768805" x="78.50000188499689">数据对人的影响</text></g><g id="node_priority6"><path id="kity_path_409" fill="#006300" stroke="none" d="M54.00000151991844,853.0000126808882c0,3.866,3.134,7,7,7h6c3.866,0,7,-3.134,7,-7V847.0000126808882H54.00000151991844V853.0000126808882z"></path><path id="kity_path_410" fill="#00AF00" stroke="none" d="M74.00000151991844,850.0000126808882c0,3.866,-3.134,7,-7,7H61.00000151991844c-3.866,0,-7,-3.134,-7,-7V847.0000126808882c0,-3.866,3.134,-7,7,-7h6c3.866,0,7,3.134,7,7V850.0000126808882z" opacity="0.8"></path><text id="kity_text_411" text-rendering="geometricPrecision" x="63.00000151246786" y="849.5000126734376" text-anchor="middle" font-style="italic" font-size="12" fill="white" dy="5">3</text></g></g><g id="minder_node16"><g id="node_expander15" style="cursor: pointer;"><path id="kity_path_148" fill="white" stroke="gray" d="M76.5000017657876,403.5000061765313A6,6,0,1,1,64.5000017657876,403.5000061765313A6,6,0,1,1,76.5000017657876,403.5000061765313"></path><path id="kity_path_149" fill="none" stroke="gray" d="M66.0000017657876,403.5000061765313L75.0000017657876,403.5000061765313"></path></g><path id="node_outline16" fill="none" stroke="none" d="M81.50000192970037,394.5000061765313h121a5,5,0,0,1,5,5v8a5,5,0,0,1,-5,5h-121a5,5,0,0,1,-5,-5v-8a5,5,0,0,1,5,-5z" stroke-width="3"></path><g id="node_text16" fill="black"><text id="kity_text_145" text-rendering="inherit" font-size="12" dy=".8em" y="395.7000061497092" x="81.50000192970037">在影响我们的性别教育</text></g></g><g id="minder_node18"><g id="node_expander17" style="cursor: pointer;"><path id="kity_path_164" fill="white" stroke="gray" d="M76.5000017657876,481.5000073388219A6,6,0,1,1,64.5000017657876,481.5000073388219A6,6,0,1,1,76.5000017657876,481.5000073388219"></path><path id="kity_path_165" fill="none" stroke="gray" d="M66.0000017657876,481.5000073388219L75.0000017657876,481.5000073388219"></path></g><path id="node_outline18" fill="none" stroke="none" d="M81.50000192970037,472.5000073388219h84a5,5,0,0,1,5,5v8a5,5,0,0,1,-5,5h-84a5,5,0,0,1,-5,-5v-8a5,5,0,0,1,5,-5z" stroke-width="3"></path><g id="node_text18" fill="black"><text id="kity_text_161" text-rendering="inherit" font-size="12" dy=".8em" y="473.7000073119998" x="81.50000192970037">改变金钱与贸易</text></g></g><g id="minder_node20"><g id="node_expander19" style="cursor: pointer;" display="none"><path id="kity_path_190" fill="white" stroke="gray" d="M104.50000218302011,351.50000540167093A6,6,0,1,1,92.50000218302011,351.50000540167093A6,6,0,1,1,104.50000218302011,351.50000540167093"></path><path id="kity_path_191" fill="none" stroke="gray"></path></g><path id="node_outline20" fill="none" stroke="none" d="M109.50000234693289,342.50000540167093h241a5,5,0,0,1,5,5v8a5,5,0,0,1,-5,5h-241a5,5,0,0,1,-5,-5v-8a5,5,0,0,1,5,-5z" stroke-width="3"></path><g id="node_text20" fill="black"><text id="kity_text_187" text-rendering="inherit" font-size="12" dy=".8em" y="343.70000537484884" x="109.50000234693289">案例：人们花时间在高高片上，不愿意社交。</text></g></g><g id="minder_node21"><g id="node_expander20" style="cursor: pointer;" display="none"><path id="kity_path_198" fill="white" stroke="gray" d="M104.50000218302011,377.5000057891011A6,6,0,1,1,92.50000218302011,377.5000057891011A6,6,0,1,1,104.50000218302011,377.5000057891011"></path><path id="kity_path_199" fill="none" stroke="gray"></path></g><path id="node_outline21" fill="none" stroke="none" d="M109.50000234693289,368.5000057891011h145a5,5,0,0,1,5,5v8a5,5,0,0,1,-5,5h-145a5,5,0,0,1,-5,-5v-8a5,5,0,0,1,5,-5z" stroke-width="3"></path><g id="node_text21" fill="black"><text id="kity_text_195" text-rendering="inherit" font-size="12" dy=".8em" y="369.70000576227903" x="109.50000234693289">案例：复仇式色情伤害人们</text></g></g><g id="minder_node22"><g id="node_expander21" style="cursor: pointer;" display="none"><path id="kity_path_206" fill="white" stroke="gray" d="M104.50000218302011,507.5000077262521A6,6,0,1,1,92.50000218302011,507.5000077262521A6,6,0,1,1,104.50000218302011,507.5000077262521"></path><path id="kity_path_207" fill="none" stroke="gray"></path></g><path id="node_outline22" fill="none" stroke="none" d="M109.50000234693289,498.5000077262521h73a5,5,0,0,1,5,5v8a5,5,0,0,1,-5,5h-73a5,5,0,0,1,-5,-5v-8a5,5,0,0,1,5,-5z" stroke-width="3"></path><g id="node_text22" fill="black"><text id="kity_text_203" text-rendering="inherit" font-size="12" dy=".8em" y="499.70000769943" x="109.50000234693289">案例：比特币</text></g></g><g id="minder_node24" opacity="1"><g id="node_expander23" style="cursor: pointer;" display="none"><path id="kity_path_222" fill="white" stroke="gray" d="M104.50000218302011,325.50000501424074A6,6,0,1,1,92.50000218302011,325.50000501424074A6,6,0,1,1,104.50000218302011,325.50000501424074"></path><path id="kity_path_223" fill="none" stroke="gray"></path></g><path id="node_outline24" fill="none" stroke="none" d="M109.50000234693289,316.50000501424074h229a5,5,0,0,1,5,5v8a5,5,0,0,1,-5,5h-229a5,5,0,0,1,-5,-5v-8a5,5,0,0,1,5,-5z" stroke-width="3"></path><g id="node_text24" fill="black"><text id="kity_text_219" text-rendering="inherit" font-size="12" dy=".8em" y="317.70000498741865" x="109.50000234693289">分论点：科技发展使人们更注重隐私保护。</text></g></g><g id="minder_node29"><g id="node_expander28" style="cursor: pointer;" display="none"><path id="kity_path_262" fill="white" stroke="gray" d="M104.50000218302011,429.5000065639615A6,6,0,1,1,92.50000218302011,429.5000065639615A6,6,0,1,1,104.50000218302011,429.5000065639615"></path><path id="kity_path_263" fill="none" stroke="gray"></path></g><path id="node_outline29" fill="none" stroke="none" d="M109.50000234693289,420.5000065639615h216a5,5,0,0,1,5,5v8a5,5,0,0,1,-5,5h-216a5,5,0,0,1,-5,-5v-8a5,5,0,0,1,5,-5z" stroke-width="3"></path><g id="node_text29" fill="black"><text id="kity_text_259" text-rendering="inherit" font-size="12" dy=".8em" y="421.7000065371394" x="109.50000234693289">青少年能轻易接受高强度色情片的刺激。</text></g></g><g id="minder_node30"><g id="node_expander29" style="cursor: pointer;" display="none"><path id="kity_path_270" fill="white" stroke="gray" d="M104.50000218302011,455.5000069513917A6,6,0,1,1,92.50000218302011,455.5000069513917A6,6,0,1,1,104.50000218302011,455.5000069513917"></path><path id="kity_path_271" fill="none" stroke="gray"></path></g><path id="node_outline30" fill="none" stroke="none" d="M109.50000234693289,446.5000069513917h168a5,5,0,0,1,5,5v8a5,5,0,0,1,-5,5h-168a5,5,0,0,1,-5,-5v-8a5,5,0,0,1,5,-5z" stroke-width="3"></path><g id="node_text30" fill="black"><text id="kity_text_267" text-rendering="inherit" font-size="12" dy=".8em" y="447.7000069245696" x="109.50000234693289">互联网或成为青年性启蒙教师。</text></g></g><g id="minder_node34"><g id="node_expander33" style="cursor: pointer;"><path id="kity_path_302" fill="white" stroke="gray" d="M76.5000017657876,533.5000081136823A6,6,0,1,1,64.5000017657876,533.5000081136823A6,6,0,1,1,76.5000017657876,533.5000081136823"></path><path id="kity_path_303" fill="none" stroke="gray" d="M66.0000017657876,533.5000081136823L75.0000017657876,533.5000081136823"></path></g><path id="node_outline34" fill="none" stroke="none" d="M81.50000192970037,524.5000081136823h50a5,5,0,0,1,5,5v8a5,5,0,0,1,-5,5h-50a5,5,0,0,1,-5,-5v-8a5,5,0,0,1,5,-5z" stroke-width="3"></path><g id="node_text34" fill="black"><text id="kity_text_299" text-rendering="inherit" font-size="12" dy=".8em" y="525.7000080868602" x="81.50000192970037">政治独裁</text></g></g><g id="minder_node35"><g id="node_expander34" style="cursor: pointer;" display="none"><path id="kity_path_310" fill="white" stroke="gray" d="M104.50000218302011,559.5000085011125A6,6,0,1,1,92.50000218302011,559.5000085011125A6,6,0,1,1,104.50000218302011,559.5000085011125"></path><path id="kity_path_311" fill="none" stroke="gray"></path></g><path id="node_outline35" fill="none" stroke="none" d="M109.50000234693289,550.5000085011125h325a5,5,0,0,1,5,5v8a5,5,0,0,1,-5,5h-325a5,5,0,0,1,-5,-5v-8a5,5,0,0,1,5,-5z" stroke-width="3"></path><g id="node_text35" fill="black"><text id="kity_text_307" text-rendering="inherit" font-size="12" dy=".8em" y="551.7000084742904" x="109.50000234693289">案例：政府有效率地处理大量的资讯，可能使民主受到影响。</text></g></g><g id="minder_node39"><g id="node_expander38" style="cursor: pointer;"><path id="kity_path_352" fill="white" stroke="gray" d="M719.5000113472342,59.500001050531864A6,6,0,1,1,707.5000113472342,59.500001050531864A6,6,0,1,1,719.5000113472342,59.500001050531864"></path><path id="kity_path_353" fill="none" stroke="gray" d="M709.0000113472342,59.500001050531864L718.0000113472342,59.500001050531864"></path></g><path id="node_outline39" fill="#76923c" stroke="rgb(115, 191, 118)" d="M664.5000108703971,66.50000148266554h98a3,3,0,0,1,3,3v38a3,3,0,0,1,-3,3h-98a3,3,0,0,1,-3,-3v-38a3,3,0,0,1,3,-3z" stroke-width="1"></path><g id="node_text39" fill="black"><text id="kity_text_349" text-rendering="inherit" font-size="32" dy=".8em" y="67.70000141113997" x="681.5000108703971">娱乐</text></g></g><g id="minder_node40"><g id="node_expander41" style="cursor: pointer;"><path id="kity_path_381" fill="white" stroke="gray" d="M689.5000109001994,241.5000037625432A6,6,0,1,1,677.5000109001994,241.5000037625432A6,6,0,1,1,689.5000109001994,241.5000037625432"></path><path id="kity_path_382" fill="none" stroke="gray" d="M679.0000109001994,241.5000037625432L688.0000109001994,241.5000037625432"></path></g><path id="node_outline42" fill="#c2d69b" stroke="none" d="M694.5000114366412,226.5000037625432h361a5,5,0,0,1,5,5v20a5,5,0,0,1,-5,5h-361a5,5,0,0,1,-5,-5v-20a5,5,0,0,1,5,-5z" stroke-width="3"></path><g id="node_text42" fill="black"><text id="kity_text_365" text-rendering="inherit" font-size="24" dy=".8em" y="225.90000370889902" x="719.5000114366412">我们所使用的社交网络在变封闭</text></g><g id="node_priority5"><path id="kity_path_368" fill="#840023" stroke="none" d="M695.0000110715628,245.00000362098217c0,3.866,3.134,7,7,7h6c3.866,0,7,-3.134,7,-7V239.00000362098217H695.0000110715628V245.00000362098217z"></path><path id="kity_path_369" fill="#FF1200" stroke="none" d="M715.0000110715628,242.00000362098217c0,3.866,-3.134,7,-7,7H702.0000110715628c-3.866,0,-7,-3.134,-7,-7V239.00000362098217c0,-3.866,3.134,-7,7,-7h6c3.866,0,7,3.134,7,7V242.00000362098217z" opacity="0.8"></path><text id="kity_text_370" text-rendering="geometricPrecision" x="704.0000110641122" y="241.5000036135316" text-anchor="middle" font-style="italic" font-size="12" fill="white" dy="5">1</text></g></g><g id="minder_node41" opacity="1"><g id="node_expander39" style="cursor: pointer;" display="none"><path id="kity_path_375" fill="white" stroke="gray" d="M745.5000117346644,357.5000054910779A6,6,0,1,1,733.5000117346644,357.5000054910779A6,6,0,1,1,745.5000117346644,357.5000054910779"></path><path id="kity_path_376" fill="none" stroke="gray"></path></g><path id="node_outline40" fill="none" stroke="none" d="M750.5000118985772,348.5000054910779h362a5,5,0,0,1,5,5v8a5,5,0,0,1,-5,5h-362a5,5,0,0,1,-5,-5v-8a5,5,0,0,1,5,-5z" stroke-width="3"></path><g id="node_text40" fill="black"><text id="kity_text_361" text-rendering="inherit" font-size="12" dy=".8em" y="349.7000054642558" x="750.5000118985772">案例：网络公司努力为迎合个人喜好而调整其服务如新闻和搜索结果</text></g></g><g id="minder_node42" opacity="1"><g id="node_expander40" style="cursor: pointer;" display="none"><path id="kity_path_378" fill="white" stroke="gray" d="M745.5000117346644,305.5000047162175A6,6,0,1,1,733.5000117346644,305.5000047162175A6,6,0,1,1,745.5000117346644,305.5000047162175"></path><path id="kity_path_379" fill="none" stroke="gray"></path></g><path id="node_outline41" fill="none" stroke="none" d="M750.5000118985772,296.5000047162175h386a5,5,0,0,1,5,5v8a5,5,0,0,1,-5,5h-386a5,5,0,0,1,-5,-5v-8a5,5,0,0,1,5,-5z" stroke-width="3"></path><g id="node_text41" fill="black"><text id="kity_text_363" text-rendering="inherit" font-size="12" dy=".8em" y="297.7000046893954" x="750.5000118985772">解释：我们深陷过滤过的信息中，得不到能挑战或拓展我们世界观的信息</text></g></g><g id="minder_node44"><g id="node_expander43" style="cursor: pointer;"><path id="kity_path_397" fill="white" stroke="gray" d="M717.5000113174319,276.50000428408384A6,6,0,1,1,705.5000113174319,276.50000428408384A6,6,0,1,1,717.5000113174319,276.50000428408384"></path><path id="kity_path_398" fill="none" stroke="gray" d="M707.0000113174319,276.50000428408384L716.0000113174319,276.50000428408384"></path></g><path id="node_outline44" fill="#eaf1dd" stroke="none" d="M722.5000114813447,264.50000428408384h523a5,5,0,0,1,5,5v14a5,5,0,0,1,-5,5h-523a5,5,0,0,1,-5,-5v-14a5,5,0,0,1,5,-5z" stroke-width="3"></path><g id="node_text44" fill="black"><text id="kity_text_394" text-rendering="inherit" font-size="18" dy=".8em" y="264.8000042438507" x="722.5000114813447">分论点：提供信息是媒体的责任，选择阅读哪些才是我们该做的。</text></g></g><g id="minder_node46"><g id="node_expander45" style="cursor: pointer;"><path id="kity_path_418" fill="white" stroke="gray" d="M76.5000017657876,884.5000133439898A6,6,0,1,1,64.5000017657876,884.5000133439898A6,6,0,1,1,76.5000017657876,884.5000133439898"></path><path id="kity_path_419" fill="none" stroke="gray" d="M66.0000017657876,884.5000133439898L75.0000017657876,884.5000133439898"></path></g><path id="node_outline46" fill="#eaf1dd" stroke="none" d="M81.50000192970037,872.5000133439898h325a5,5,0,0,1,5,5v14a5,5,0,0,1,-5,5h-325a5,5,0,0,1,-5,-5v-14a5,5,0,0,1,5,-5z" stroke-width="3"></path><g id="node_text46" fill="black"><text id="kity_text_415" text-rendering="inherit" font-size="18" dy=".8em" y="872.8000133037567" x="81.50000192970037">分论点：数据是我们表达现实所用的工具</text></g></g><g id="minder_node47"><g id="node_expander46" style="cursor: pointer;" display="none"><path id="kity_path_426" fill="white" stroke="gray" d="M104.50000218302011,913.5000137761235A6,6,0,1,1,92.50000218302011,913.5000137761235A6,6,0,1,1,104.50000218302011,913.5000137761235"></path><path id="kity_path_427" fill="none" stroke="gray"></path></g><path id="node_outline47" fill="none" stroke="none" d="M109.50000234693289,904.5000137761235h158a5,5,0,0,1,5,5v8a5,5,0,0,1,-5,5h-158a5,5,0,0,1,-5,-5v-8a5,5,0,0,1,5,-5z" stroke-width="3"></path><g id="node_text47" fill="black"><text id="kity_text_423" text-rendering="inherit" font-size="12" dy=".8em" y="905.7000137493014" x="109.50000234693289">解释：数据是一种总结的工具</text></g></g><g id="minder_node27" opacity="1"><g id="node_expander26" style="cursor: pointer;"><path id="kity_path_246" fill="white" stroke="gray" d="M76.5000017657876,626.5000094994903A6,6,0,1,1,64.5000017657876,626.5000094994903A6,6,0,1,1,76.5000017657876,626.5000094994903"></path><path id="kity_path_247" fill="none" stroke="gray" d="M66.0000017657876,626.5000094994903L75.0000017657876,626.5000094994903"></path></g><path id="node_outline27" fill="#eaf1dd" stroke="none" d="M81.50000192970037,614.5000094994903h559a5,5,0,0,1,5,5v14a5,5,0,0,1,-5,5h-559a5,5,0,0,1,-5,-5v-14a5,5,0,0,1,5,-5z" stroke-width="3"></path><g id="node_text27" fill="black"><text id="kity_text_243" text-rendering="inherit" font-size="18" dy=".8em" y="614.8000094592571" x="81.50000192970037">分论点：使用大量电子产品占据大量时间，我们却没有因此更加幸福。</text></g></g><g id="minder_node31"><g id="node_expander30" style="cursor: pointer;" display="none"><path id="kity_path_278" fill="white" stroke="gray" d="M104.50000218302011,791.5000119581819A6,6,0,1,1,92.50000218302011,791.5000119581819A6,6,0,1,1,104.50000218302011,791.5000119581819"></path><path id="kity_path_279" fill="none" stroke="gray" d="M94.00000218302011,791.5000119581819L103.00000218302011,791.5000119581819"></path></g><path id="node_outline31" fill="none" stroke="none" d="M109.50000234693289,782.5000119581819h301a5,5,0,0,1,5,5v8a5,5,0,0,1,-5,5h-301a5,5,0,0,1,-5,-5v-8a5,5,0,0,1,5,-5z" stroke-width="3"></path><g id="node_text31" fill="black"><text id="kity_text_275" text-rendering="inherit" font-size="12" dy=".8em" y="783.7000119313598" x="109.50000234693289">解释：机器学习采用的是以前的数据，可能会继续偏见。</text></g></g><g id="minder_node33"><g id="node_expander32" style="cursor: pointer;" display="none"><path id="kity_path_294" fill="white" stroke="gray" d="M104.50000218302011,817.500012345612A6,6,0,1,1,92.50000218302011,817.500012345612A6,6,0,1,1,104.50000218302011,817.500012345612"></path><path id="kity_path_295" fill="none" stroke="gray"></path></g><path id="node_outline33" fill="none" stroke="none" d="M109.50000234693289,808.500012345612h86a5,5,0,0,1,5,5v8a5,5,0,0,1,-5,5h-86a5,5,0,0,1,-5,-5v-8a5,5,0,0,1,5,-5z" stroke-width="3"></path><g id="node_text33" fill="black"><text id="kity_text_291" text-rendering="inherit" font-size="12" dy=".8em" y="809.70001231879" x="109.50000234693289">案例：招聘软件</text></g></g><g id="minder_node28"><g id="node_expander27" style="cursor: pointer;"><path id="kity_path_254" fill="white" stroke="gray" d="M76.5000017657876,762.5000115260482A6,6,0,1,1,64.5000017657876,762.5000115260482A6,6,0,1,1,76.5000017657876,762.5000115260482"></path><path id="kity_path_255" fill="none" stroke="gray" d="M66.0000017657876,762.5000115260482L75.0000017657876,762.5000115260482"></path></g><path id="node_outline28" fill="#eaf1dd" stroke="none" d="M81.50000192970037,750.5000115260482h217a5,5,0,0,1,5,5v14a5,5,0,0,1,-5,5h-217a5,5,0,0,1,-5,-5v-14a5,5,0,0,1,5,-5z" stroke-width="3"></path><g id="node_text28" fill="black"><text id="kity_text_251" text-rendering="inherit" font-size="18" dy=".8em" y="750.800011485815" x="81.50000192970037">分论点：机器是否要责任？</text></g></g><g id="minder_node51" opacity="1"><g id="node_expander50" style="cursor: pointer;" display="none"><path id="kity_path_474" fill="white" stroke="gray" d="M104.50000218302011,655.5000099316239A6,6,0,1,1,92.50000218302011,655.5000099316239A6,6,0,1,1,104.50000218302011,655.5000099316239"></path><path id="kity_path_475" fill="none" stroke="gray"></path></g><path id="node_outline51" fill="none" stroke="none" d="M109.50000234693289,646.5000099316239h349a5,5,0,0,1,5,5v8a5,5,0,0,1,-5,5h-349a5,5,0,0,1,-5,-5v-8a5,5,0,0,1,5,-5z" stroke-width="3"></path><g id="node_text51" fill="black"><text id="kity_text_471" text-rendering="inherit" font-size="12" dy=".8em" y="647.7000099048018" x="109.50000234693289">解释：这些软件的目的是让我们花更多时间，夺走我们的注意力。</text></g></g><g id="minder_node52" opacity="1"><g id="node_expander51" style="cursor: pointer;" display="none"><path id="kity_path_482" fill="white" stroke="gray" d="M132.50000260025263,707.5000107064843A6,6,0,1,1,120.50000260025263,707.5000107064843A6,6,0,1,1,132.50000260025263,707.5000107064843"></path><path id="kity_path_483" fill="none" stroke="gray"></path></g><path id="node_outline52" fill="none" stroke="none" d="M137.5000027641654,698.5000107064843h409a5,5,0,0,1,5,5v8a5,5,0,0,1,-5,5h-409a5,5,0,0,1,-5,-5v-8a5,5,0,0,1,5,-5z" stroke-width="3"></path><g id="node_text52" fill="black"><text id="kity_text_479" text-rendering="inherit" font-size="12" dy=".8em" y="699.7000106796622" x="137.5000027641654">案例：吸引你的注意力影响你的情绪，此时我的情绪被触发，不是我的本意。</text></g></g><g id="minder_node50" opacity="1"><g id="node_expander49" style="cursor: pointer;"><path id="kity_path_460" fill="white" stroke="gray" d="M104.50000218302011,681.5000103190541A6,6,0,1,1,92.50000218302011,681.5000103190541A6,6,0,1,1,104.50000218302011,681.5000103190541"></path><path id="kity_path_461" fill="none" stroke="gray" d="M94.00000218302011,681.5000103190541L103.00000218302011,681.5000103190541"></path></g><path id="node_outline50" fill="none" stroke="none" d="M109.50000234693289,672.5000103190541h253a5,5,0,0,1,5,5v8a5,5,0,0,1,-5,5h-253a5,5,0,0,1,-5,-5v-8a5,5,0,0,1,5,-5z" stroke-width="3"></path><g id="node_text50" fill="black"><text id="kity_text_457" text-rendering="inherit" font-size="12" dy=".8em" y="673.700010292232" x="109.50000234693289">解释：控制室能控制人的情感，左右人的想法。 </text></g></g><g id="minder_node23" opacity="1"><g id="node_expander22" style="cursor: pointer;" display="none"><path id="kity_path_214" fill="white" stroke="gray" d="M104.50000218302011,733.5000110939145A6,6,0,1,1,92.50000218302011,733.5000110939145A6,6,0,1,1,104.50000218302011,733.5000110939145"></path><path id="kity_path_215" fill="none" stroke="gray"></path></g><path id="node_outline23" fill="none" stroke="none" d="M109.50000234693289,724.5000110939145h289a5,5,0,0,1,5,5v8a5,5,0,0,1,-5,5h-289a5,5,0,0,1,-5,-5v-8a5,5,0,0,1,5,-5z" stroke-width="3"></path><g id="node_text23" fill="black"><text id="kity_text_211" text-rendering="inherit" font-size="12" dy=".8em" y="725.7000110670924" x="109.50000234693289">案例：社交软件公司会分析我们的动态，发出的照片。</text></g></g><g id="minder_node54"><g id="node_expander53" style="cursor: pointer;"><path id="kity_path_502" fill="white" stroke="gray" d="M689.5000109001994,389.50000596791506A6,6,0,1,1,677.5000109001994,389.50000596791506A6,6,0,1,1,689.5000109001994,389.50000596791506"></path><path id="kity_path_503" fill="none" stroke="gray" d="M679.0000109001994,389.50000596791506L688.0000109001994,389.50000596791506"></path></g><path id="node_outline54" fill="#c2d69b" stroke="none" d="M694.5000114366412,374.50000596791506h193a5,5,0,0,1,5,5v20a5,5,0,0,1,-5,5h-193a5,5,0,0,1,-5,-5v-20a5,5,0,0,1,5,-5z" stroke-width="3"></path><g id="node_text54" fill="black"><text id="kity_text_499" text-rendering="inherit" font-size="24" dy=".8em" y="373.9000059142709" x="719.5000114366412">对于娱乐的上瘾</text></g><g id="node_priority8"><path id="kity_path_506" fill="#01467F" stroke="none" d="M695.0000110715628,393.000005826354c0,3.866,3.134,7,7,7h6c3.866,0,7,-3.134,7,-7V387.000005826354H695.0000110715628V393.000005826354z"></path><path id="kity_path_507" fill="#0074FF" stroke="none" d="M715.0000110715628,390.000005826354c0,3.866,-3.134,7,-7,7H702.0000110715628c-3.866,0,-7,-3.134,-7,-7V387.000005826354c0,-3.866,3.134,-7,7,-7h6c3.866,0,7,3.134,7,7V390.000005826354z" opacity="0.8"></path><text id="kity_text_508" text-rendering="geometricPrecision" x="704.0000110641122" y="389.50000581890345" text-anchor="middle" font-style="italic" font-size="12" fill="white" dy="5">2</text></g></g><g id="minder_node55"><g id="node_expander54" style="cursor: pointer;"><path id="kity_path_515" fill="white" stroke="gray" d="M717.5000113174319,424.5000064894557A6,6,0,1,1,705.5000113174319,424.5000064894557A6,6,0,1,1,717.5000113174319,424.5000064894557"></path><path id="kity_path_516" fill="none" stroke="gray" d="M707.0000113174319,424.5000064894557L716.0000113174319,424.5000064894557"></path></g><path id="node_outline55" fill="#eaf1dd" stroke="none" d="M722.5000114813447,412.5000064894557h451a5,5,0,0,1,5,5v14a5,5,0,0,1,-5,5h-451a5,5,0,0,1,-5,-5v-14a5,5,0,0,1,5,-5z" stroke-width="3"></path><g id="node_text55" fill="black"><text id="kity_text_512" text-rendering="inherit" font-size="18" dy=".8em" y="412.80000644922256" x="722.5000114813447">分论点：上瘾是依赖，是对生活的无奈，与外界的失联。</text></g></g><g id="minder_node56"><g id="node_expander55" style="cursor: pointer;" display="none"><path id="kity_path_523" fill="white" stroke="gray" d="M745.5000117346644,453.5000069215894A6,6,0,1,1,733.5000117346644,453.5000069215894A6,6,0,1,1,745.5000117346644,453.5000069215894"></path><path id="kity_path_524" fill="none" stroke="gray"></path></g><path id="node_outline56" fill="none" stroke="none" d="M750.5000118985772,444.5000069215894h277a5,5,0,0,1,5,5v8a5,5,0,0,1,-5,5h-277a5,5,0,0,1,-5,-5v-8a5,5,0,0,1,5,-5z" stroke-width="3"></path><g id="node_text56" fill="black"><text id="kity_text_520" text-rendering="inherit" font-size="12" dy=".8em" y="445.7000068947673" x="750.5000118985772">案例：吸毒者与社会失去联系，所以才会选择吸毒。</text></g></g><g id="minder_node57"><g id="node_expander56" style="cursor: pointer;" display="none"><path id="kity_path_531" fill="white" stroke="gray" d="M745.5000117346644,479.50000730901957A6,6,0,1,1,733.5000117346644,479.50000730901957A6,6,0,1,1,745.5000117346644,479.50000730901957"></path><path id="kity_path_532" fill="none" stroke="gray"></path></g><path id="node_outline57" fill="none" stroke="none" d="M750.5000118985772,470.50000730901957h265a5,5,0,0,1,5,5v8a5,5,0,0,1,-5,5h-265a5,5,0,0,1,-5,-5v-8a5,5,0,0,1,5,-5z" stroke-width="3"></path><g id="node_text57" fill="black"><text id="kity_text_528" text-rendering="inherit" font-size="12" dy=".8em" y="471.7000072821975" x="750.5000118985772">案例：美国青少年沉迷色情片，缺乏沟通与交流。</text></g></g><g id="minder_node58"><g id="node_expander57" style="cursor: pointer;" display="none"><path id="kity_path_539" fill="white" stroke="gray" d="M717.5000113174319,508.50000774115324A6,6,0,1,1,705.5000113174319,508.50000774115324A6,6,0,1,1,717.5000113174319,508.50000774115324"></path><path id="kity_path_540" fill="none" stroke="gray"></path></g><path id="node_outline58" fill="#eaf1dd" stroke="none" d="M722.5000114813447,496.50000774115324h253a5,5,0,0,1,5,5v14a5,5,0,0,1,-5,5h-253a5,5,0,0,1,-5,-5v-14a5,5,0,0,1,5,-5z" stroke-width="3"></path><g id="node_text58" fill="black"><text id="kity_text_536" text-rendering="inherit" font-size="18" dy=".8em" y="496.8000077009201" x="722.5000114813447">分论点：注意力和时间的损失。</text></g></g><g id="minder_node75"><g id="node_expander74" style="cursor: pointer;" display="none"><path id="kity_path_681" fill="white" stroke="gray" d="M745.5000117346644,331.5000051036477A6,6,0,1,1,733.5000117346644,331.5000051036477A6,6,0,1,1,745.5000117346644,331.5000051036477"></path><path id="kity_path_682" fill="none" stroke="gray"></path></g><path id="node_outline75" fill="none" stroke="none" d="M750.5000118985772,322.5000051036477h181a5,5,0,0,1,5,5v8a5,5,0,0,1,-5,5h-181a5,5,0,0,1,-5,-5v-8a5,5,0,0,1,5,-5z" stroke-width="3"></path><g id="node_text75" fill="black"><text id="kity_text_678" text-rendering="inherit" font-size="12" dy=".8em" y="323.7000050768256" x="750.5000118985772">解释：我们需要去捍卫新闻自由。</text></g></g><g id="minder_node93" opacity="1"><g id="node_expander92" style="cursor: pointer;" display="none"><path id="kity_path_874" fill="white" stroke="gray" d="M48.50000134855509,131.50000212341547A6,6,0,1,1,36.50000134855509,131.50000212341547A6,6,0,1,1,48.50000134855509,131.50000212341547"></path><path id="kity_path_875" fill="none" stroke="gray"></path></g><path id="node_outline93" fill="none" stroke="none" d="M53.50000151246786,122.50000212341547h385a5,5,0,0,1,5,5v8a5,5,0,0,1,-5,5h-385a5,5,0,0,1,-5,-5v-8a5,5,0,0,1,5,-5z" stroke-width="3"></path><g id="node_text93" fill="black"><text id="kity_text_871" text-rendering="inherit" font-size="12" dy=".8em" y="123.70000209659338" x="53.50000151246786">机器学习：给机器数据让机器分析提取，给与反馈，从而达到“学习”。</text></g></g><g id="minder_node94"><g id="node_expander93" style="cursor: pointer;" display="none"><path id="kity_path_882" fill="white" stroke="gray" d="M48.50000134855509,157.50000251084566A6,6,0,1,1,36.50000134855509,157.50000251084566A6,6,0,1,1,48.50000134855509,157.50000251084566"></path><path id="kity_path_883" fill="none" stroke="gray"></path></g><path id="node_outline94" fill="none" stroke="none" d="M53.50000151246786,148.50000251084566h185a5,5,0,0,1,5,5v8a5,5,0,0,1,-5,5h-185a5,5,0,0,1,-5,-5v-8a5,5,0,0,1,5,-5z" stroke-width="3"></path><g id="node_text94" fill="black"><text id="kity_text_879" text-rendering="inherit" font-size="12" dy=".8em" y="149.70000248402357" x="53.50000151246786">数字屑 ：人们上网时留下的足迹。</text></g></g><g id="minder_node95"><g id="node_expander94" style="cursor: pointer;" display="none"><path id="kity_path_890" fill="white" stroke="gray" d="M48.50000134855509,209.50000328570604A6,6,0,1,1,36.50000134855509,209.50000328570604A6,6,0,1,1,48.50000134855509,209.50000328570604"></path><path id="kity_path_891" fill="none" stroke="gray"></path></g><path id="node_outline95" fill="none" stroke="none" d="M53.50000151246786,200.50000328570604h289a5,5,0,0,1,5,5v8a5,5,0,0,1,-5,5h-289a5,5,0,0,1,-5,-5v-8a5,5,0,0,1,5,-5z" stroke-width="3"></path><g id="node_text95" fill="black"><text id="kity_text_887" text-rendering="inherit" font-size="12" dy=".8em" y="201.70000325888395" x="53.50000151246786">复仇式色情：例如隐私部位照片被偷拍并传上网等行为</text></g></g><g id="minder_node96"><g id="node_expander95" style="cursor: pointer;" display="none"><path id="kity_path_898" fill="white" stroke="gray" d="M48.50000134855509,183.50000289827585A6,6,0,1,1,36.50000134855509,183.50000289827585A6,6,0,1,1,48.50000134855509,183.50000289827585"></path><path id="kity_path_899" fill="none" stroke="gray"></path></g><path id="node_outline96" fill="none" stroke="none" d="M53.50000151246786,174.50000289827585h266a5,5,0,0,1,5,5v8a5,5,0,0,1,-5,5h-266a5,5,0,0,1,-5,-5v-8a5,5,0,0,1,5,-5z" stroke-width="3"></path><g id="node_text96" fill="black"><text id="kity_text_895" text-rendering="inherit" font-size="12" dy=".8em" y="175.70000287145376" x="53.50000151246786">大数据3C: Crumbs, Capacity and Communities.</text></g></g><g id="minder_node97"><g id="node_expander96" style="cursor: pointer;"><path id="kity_path_906" fill="white" stroke="gray" d="M1374.5000211074948,59.500001050531864A6,6,0,1,1,1362.5000211074948,59.500001050531864A6,6,0,1,1,1374.5000211074948,59.500001050531864"></path><path id="kity_path_907" fill="none" stroke="gray" d="M1364.0000211074948,59.500001050531864L1373.0000211074948,59.500001050531864"></path></g><path id="node_outline97" fill="#76923c" stroke="rgb(115, 191, 118)" d="M1319.5000206306577,66.50000148266554h98a3,3,0,0,1,3,3v38a3,3,0,0,1,-3,3h-98a3,3,0,0,1,-3,-3v-38a3,3,0,0,1,3,-3z" stroke-width="1"></path><g id="node_text97" fill="black"><text id="kity_text_903" text-rendering="inherit" font-size="32" dy=".8em" y="67.70000141113997" x="1336.5000206306577">设计</text></g></g><g id="minder_node98"><g id="node_expander105" style="cursor: pointer;"><path id="kity_path_983" fill="white" stroke="gray" d="M1344.50002066046,285.5000044181943A6,6,0,1,1,1332.50002066046,285.5000044181943A6,6,0,1,1,1344.50002066046,285.5000044181943"></path><path id="kity_path_984" fill="none" stroke="gray" d="M1334.00002066046,285.5000044181943L1343.00002066046,285.5000044181943"></path></g><path id="node_outline106" fill="#c2d69b" stroke="none" d="M1349.5000211969018,270.5000044181943h457a5,5,0,0,1,5,5v20a5,5,0,0,1,-5,5h-457a5,5,0,0,1,-5,-5v-20a5,5,0,0,1,5,-5z" stroke-width="3"></path><g id="node_text106" fill="black"><text id="kity_text_943" text-rendering="inherit" font-size="24" dy=".8em" y="269.9000043645501" x="1374.5000211969018">运用我们的所学用不同的方式去看待未来</text></g><g id="node_priority11"><path id="kity_path_946" fill="#840023" stroke="none" d="M1350.0000208318233,289.00000427663326c0,3.866,3.134,7,7,7h6c3.866,0,7,-3.134,7,-7V283.00000427663326H1350.0000208318233V289.00000427663326z"></path><path id="kity_path_947" fill="#FF1200" stroke="none" d="M1370.0000208318233,286.00000427663326c0,3.866,-3.134,7,-7,7H1357.0000208318233c-3.866,0,-7,-3.134,-7,-7V283.00000427663326c0,-3.866,3.134,-7,7,-7h6c3.866,0,7,3.134,7,7V286.00000427663326z" opacity="0.8"></path><text id="kity_text_948" text-rendering="geometricPrecision" x="1359.0000208243728" y="285.5000042691827" text-anchor="middle" font-style="italic" font-size="12" fill="white" dy="5">1</text></g></g><g id="minder_node99"><g id="node_expander97" style="cursor: pointer;" display="none"><path id="kity_path_959" fill="white" stroke="gray" d="M1372.5000210776925,317.50000489503145A6,6,0,1,1,1360.5000210776925,317.50000489503145A6,6,0,1,1,1372.5000210776925,317.50000489503145"></path><path id="kity_path_960" fill="none" stroke="gray"></path></g><path id="node_outline98" fill="none" stroke="none" d="M1377.5000212416053,308.50000489503145h290a5,5,0,0,1,5,5v8a5,5,0,0,1,-5,5h-290a5,5,0,0,1,-5,-5v-8a5,5,0,0,1,5,-5z"></path><g id="node_text98" fill="black"><text id="kity_text_927" text-rendering="inherit" font-size="12" dy=".8em" y="309.70000486820936" x="1377.5000212416053">案例：出门所带的东西是自身对科技掌握的一种的理解</text></g></g><g id="minder_node100"><g id="node_expander99" style="cursor: pointer;"><path id="kity_path_965" fill="white" stroke="gray" d="M1372.5000210776925,343.50000528246164A6,6,0,1,1,1360.5000210776925,343.50000528246164A6,6,0,1,1,1372.5000210776925,343.50000528246164"></path><path id="kity_path_966" fill="none" stroke="gray" d="M1362.0000210776925,343.50000528246164L1371.0000210776925,343.50000528246164"></path></g><path id="node_outline100" fill="none" stroke="none" d="M1377.5000212416053,334.50000528246164h289a5,5,0,0,1,5,5v8a5,5,0,0,1,-5,5h-289a5,5,0,0,1,-5,-5v-8a5,5,0,0,1,5,-5z"></path><g id="node_text100" fill="black"><text id="kity_text_931" text-rendering="inherit" font-size="12" dy=".8em" y="335.70000525563955" x="1377.5000212416053">案例：社会告诉女孩应该做什么，而不是自己想做的。</text></g></g><g id="minder_node101"><g id="node_expander98" style="cursor: pointer;" display="none"><path id="kity_path_962" fill="white" stroke="gray" d="M1400.500021494925,369.50000566989183A6,6,0,1,1,1388.500021494925,369.50000566989183A6,6,0,1,1,1400.500021494925,369.50000566989183"></path><path id="kity_path_963" fill="none" stroke="gray"></path></g><path id="node_outline99" fill="none" stroke="none" d="M1405.5000216588378,360.50000566989183h265a5,5,0,0,1,5,5v8a5,5,0,0,1,-5,5h-265a5,5,0,0,1,-5,-5v-8a5,5,0,0,1,5,-5z"></path><g id="node_text99" fill="black"><text id="kity_text_929" text-rendering="inherit" font-size="12" dy=".8em" y="361.70000564306974" x="1405.5000216588378">再多尝试也无法修补破裂的系统，要从社会下手。</text></g></g><g id="minder_node102"><g id="node_expander101" style="cursor: pointer;"><path id="kity_path_971" fill="white" stroke="gray" d="M1372.5000210776925,395.500006057322A6,6,0,1,1,1360.5000210776925,395.500006057322A6,6,0,1,1,1372.5000210776925,395.500006057322"></path><path id="kity_path_972" fill="none" stroke="gray" d="M1362.0000210776925,395.500006057322L1371.0000210776925,395.500006057322"></path></g><path id="node_outline102" fill="none" stroke="none" d="M1377.5000212416053,386.500006057322h301a5,5,0,0,1,5,5v8a5,5,0,0,1,-5,5h-301a5,5,0,0,1,-5,-5v-8a5,5,0,0,1,5,-5z"></path><g id="node_text102" fill="black"><text id="kity_text_935" text-rendering="inherit" font-size="12" dy=".8em" y="387.70000603049994" x="1377.5000212416053">解释：患精神疾病也很正常，社会不愿意去接纳这些人。</text></g></g><g id="minder_node103"><g id="node_expander100" style="cursor: pointer;" display="none"><path id="kity_path_968" fill="white" stroke="gray" d="M1400.500021494925,421.5000064447522A6,6,0,1,1,1388.500021494925,421.5000064447522A6,6,0,1,1,1400.500021494925,421.5000064447522"></path><path id="kity_path_969" fill="none" stroke="gray"></path></g><path id="node_outline101" fill="none" stroke="none" d="M1405.5000216588378,412.5000064447522h242a5,5,0,0,1,5,5v8a5,5,0,0,1,-5,5h-242a5,5,0,0,1,-5,-5v-8a5,5,0,0,1,5,-5z"></path><g id="node_text101" fill="black"><text id="kity_text_933" text-rendering="inherit" font-size="12" dy=".8em" y="413.7000064179301" x="1405.5000216588378">解释：要用更多关心和更多爱来改变这个状况</text></g></g><g id="minder_node104"><g id="node_expander104" style="cursor: pointer;"><path id="kity_path_980" fill="white" stroke="gray" d="M1372.5000210776925,450.5000068768859A6,6,0,1,1,1360.5000210776925,450.5000068768859A6,6,0,1,1,1372.5000210776925,450.5000068768859"></path><path id="kity_path_981" fill="none" stroke="gray" d="M1362.0000210776925,450.5000068768859L1371.0000210776925,450.5000068768859"></path></g><path id="node_outline105" fill="#eaf1dd" stroke="none" d="M1377.5000212416053,438.5000068768859h236a5,5,0,0,1,5,5v14a5,5,0,0,1,-5,5h-236a5,5,0,0,1,-5,-5v-14a5,5,0,0,1,5,-5z"></path><g id="node_text105" fill="black"><text id="kity_text_941" text-rendering="inherit" font-size="18" dy=".8em" y="438.80000683665276" x="1377.5000212416053">分论点：政府的设计需要改变</text></g></g><g id="minder_node105"><g id="node_expander102" style="cursor: pointer;" display="none"><path id="kity_path_974" fill="white" stroke="gray" d="M1400.500021494925,479.50000730901957A6,6,0,1,1,1388.500021494925,479.50000730901957A6,6,0,1,1,1400.500021494925,479.50000730901957"></path><path id="kity_path_975" fill="none" stroke="gray"></path></g><path id="node_outline103" fill="none" stroke="none" d="M1405.5000216588378,470.50000730901957h337a5,5,0,0,1,5,5v8a5,5,0,0,1,-5,5h-337a5,5,0,0,1,-5,-5v-8a5,5,0,0,1,5,-5z"></path><g id="node_text103" fill="black"><text id="kity_text_937" text-rendering="inherit" font-size="12" dy=".8em" y="471.7000072821975" x="1405.5000216588378">案例：政府独裁的趋势增加，民主政府也在加强镇压持异议者。</text></g></g><g id="minder_node106"><g id="node_expander103" style="cursor: pointer;" display="none"><path id="kity_path_977" fill="white" stroke="gray" d="M1400.500021494925,505.50000769644976A6,6,0,1,1,1388.500021494925,505.50000769644976A6,6,0,1,1,1400.500021494925,505.50000769644976"></path><path id="kity_path_978" fill="none" stroke="gray"></path></g><path id="node_outline104" fill="none" stroke="none" d="M1405.5000216588378,496.50000769644976h469a5,5,0,0,1,5,5v8a5,5,0,0,1,-5,5h-469a5,5,0,0,1,-5,-5v-8a5,5,0,0,1,5,-5z"></path><g id="node_text104" fill="black"><text id="kity_text_939" text-rendering="inherit" font-size="12" dy=".8em" y="497.70000766962767" x="1405.5000216588378">案例：我们在争取公众使用强加密的权利，否则意见相左的新闻和调查性报导难以传播。</text></g></g><g id="minder_node107"><g id="node_expander110" style="cursor: pointer;"><path id="kity_path_1028" fill="white" stroke="gray" d="M1351.5000207647681,712.5000107809901A6,6,0,1,1,1339.5000207647681,712.5000107809901A6,6,0,1,1,1351.5000207647681,712.5000107809901"></path><path id="kity_path_1029" fill="none" stroke="gray" d="M1341.0000207647681,712.5000107809901L1350.0000207647681,712.5000107809901"></path></g><path id="node_outline111" fill="#c2d69b" stroke="none" d="M1356.50002130121,697.5000107809901h193a5,5,0,0,1,5,5v20a5,5,0,0,1,-5,5h-193a5,5,0,0,1,-5,-5v-20a5,5,0,0,1,5,-5z" stroke-width="3"></path><g id="node_text111" fill="black"><text id="kity_text_1004" text-rendering="inherit" font-size="24" dy=".8em" y="696.900010727346" x="1381.50002130121">关于情绪的设计</text></g><g id="node_priority12"><path id="kity_path_1007" fill="#006300" stroke="none" d="M1357.0000209361315,716.0000106394291c0,3.866,3.134,7,7,7h6c3.866,0,7,-3.134,7,-7V710.0000106394291H1357.0000209361315V716.0000106394291z"></path><path id="kity_path_1008" fill="#00AF00" stroke="none" d="M1377.0000209361315,713.0000106394291c0,3.866,-3.134,7,-7,7H1364.0000209361315c-3.866,0,-7,-3.134,-7,-7V710.0000106394291c0,-3.866,3.134,-7,7,-7h6c3.866,0,7,3.134,7,7V713.0000106394291z" opacity="0.8"></path><text id="kity_text_1009" text-rendering="geometricPrecision" x="1366.000020928681" y="712.5000106319785" text-anchor="middle" font-style="italic" font-size="12" fill="white" dy="5">3</text></g></g><g id="minder_node108"><g id="node_expander108" style="cursor: pointer;"><path id="kity_path_1022" fill="white" stroke="gray" d="M1379.5000211820006,747.5000113025308A6,6,0,1,1,1367.5000211820006,747.5000113025308A6,6,0,1,1,1379.5000211820006,747.5000113025308"></path><path id="kity_path_1023" fill="none" stroke="gray" d="M1369.0000211820006,747.5000113025308L1378.0000211820006,747.5000113025308"></path></g><path id="node_outline109" fill="#eaf1dd" stroke="none" d="M1384.5000213459134,735.5000113025308h253a5,5,0,0,1,5,5v14a5,5,0,0,1,-5,5h-253a5,5,0,0,1,-5,-5v-14a5,5,0,0,1,5,-5z"></path><g id="node_text109" fill="black"><text id="kity_text_1000" text-rendering="inherit" font-size="18" dy=".8em" y="735.8000112622976" x="1384.5000213459134">分论点：情绪不是无法控制的。</text></g></g><g id="minder_node109"><g id="node_expander106" style="cursor: pointer;" display="none"><path id="kity_path_1016" fill="white" stroke="gray" d="M1407.5000215992332,776.5000117346644A6,6,0,1,1,1395.5000215992332,776.5000117346644A6,6,0,1,1,1407.5000215992332,776.5000117346644"></path><path id="kity_path_1017" fill="none" stroke="gray"></path></g><path id="node_outline107" fill="none" stroke="none" d="M1412.500021763146,767.5000117346644h301a5,5,0,0,1,5,5v8a5,5,0,0,1,-5,5h-301a5,5,0,0,1,-5,-5v-8a5,5,0,0,1,5,-5z"></path><g id="node_text107" fill="black"><text id="kity_text_996" text-rendering="inherit" font-size="12" dy=".8em" y="768.7000117078424" x="1412.500021763146">解释：我们要为自己的情绪负责，拥抱并接纳这些责任。</text></g></g><g id="minder_node110"><g id="node_expander107" style="cursor: pointer;" display="none"><path id="kity_path_1019" fill="white" stroke="gray" d="M1407.5000215992332,802.5000121220946A6,6,0,1,1,1395.5000215992332,802.5000121220946A6,6,0,1,1,1407.5000215992332,802.5000121220946"></path><path id="kity_path_1020" fill="none" stroke="gray"></path></g><path id="node_outline108" fill="none" stroke="none" d="M1412.500021763146,793.5000121220946h283a5,5,0,0,1,5,5v8a5,5,0,0,1,-5,5h-283a5,5,0,0,1,-5,-5v-8a5,5,0,0,1,5,-5z"></path><g id="node_text108" fill="black"><text id="kity_text_998" text-rendering="inherit" font-size="12" dy=".8em" y="794.7000120952725" x="1412.500021763146">案例: 有勇气并不是没有恐惧，勇气是在恐惧中行走。</text></g></g><g id="minder_node111"><g id="node_expander109" style="cursor: pointer;" display="none"><path id="kity_path_1025" fill="white" stroke="gray" d="M1379.5000211820006,831.5000125542283A6,6,0,1,1,1367.5000211820006,831.5000125542283A6,6,0,1,1,1379.5000211820006,831.5000125542283"></path><path id="kity_path_1026" fill="none" stroke="gray"></path></g><path id="node_outline110" fill="#eaf1dd" stroke="none" d="M1384.5000213459134,819.5000125542283h523a5,5,0,0,1,5,5v14a5,5,0,0,1,-5,5h-523a5,5,0,0,1,-5,-5v-14a5,5,0,0,1,5,-5z"></path><g id="node_text110" fill="black"><text id="kity_text_1002" text-rendering="inherit" font-size="18" dy=".8em" y="819.8000125139952" x="1384.5000213459134">分论点：行为设计之本质就是要让使用者感到一切都在掌控之中。</text></g></g><g id="minder_node112"><g id="node_expander114" style="cursor: pointer;"><path id="kity_path_1065" fill="white" stroke="gray" d="M1345.5000206753612,575.500008739531A6,6,0,1,1,1333.5000206753612,575.500008739531A6,6,0,1,1,1345.5000206753612,575.500008739531"></path><path id="kity_path_1066" fill="none" stroke="gray" d="M1335.0000206753612,575.500008739531L1344.0000206753612,575.500008739531"></path></g><path id="node_outline115" fill="#c2d69b" stroke="none" d="M1350.500021211803,560.500008739531h169a5,5,0,0,1,5,5v20a5,5,0,0,1,-5,5h-169a5,5,0,0,1,-5,-5v-20a5,5,0,0,1,5,-5z" stroke-width="3"></path><g id="node_text115" fill="black"><text id="kity_text_1045" text-rendering="inherit" font-size="24" dy=".8em" y="559.9000086858869" x="1375.500021211803">编程改变世界</text></g><g id="node_priority13"><path id="kity_path_1048" fill="#01467F" stroke="none" d="M1351.0000208467245,579.00000859797c0,3.866,3.134,7,7,7h6c3.866,0,7,-3.134,7,-7V573.00000859797H1351.0000208467245V579.00000859797z"></path><path id="kity_path_1049" fill="#0074FF" stroke="none" d="M1371.0000208467245,576.00000859797c0,3.866,-3.134,7,-7,7H1358.0000208467245c-3.866,0,-7,-3.134,-7,-7V573.00000859797c0,-3.866,3.134,-7,7,-7h6c3.866,0,7,3.134,7,7V576.00000859797z" opacity="0.8"></path><text id="kity_text_1050" text-rendering="geometricPrecision" x="1360.000020839274" y="575.5000085905194" text-anchor="middle" font-style="italic" font-size="12" fill="white" dy="5">2</text></g></g><g id="minder_node113"><g id="node_expander111" style="cursor: pointer;" display="none"><path id="kity_path_1056" fill="white" stroke="gray" d="M1373.5000210925937,610.5000092610717A6,6,0,1,1,1361.5000210925937,610.5000092610717A6,6,0,1,1,1373.5000210925937,610.5000092610717"></path><path id="kity_path_1057" fill="none" stroke="gray"></path></g><path id="node_outline112" fill="#eaf1dd" stroke="none" d="M1378.5000212565064,598.5000092610717h235a5,5,0,0,1,5,5v14a5,5,0,0,1,-5,5h-235a5,5,0,0,1,-5,-5v-14a5,5,0,0,1,5,-5z"></path><g id="node_text112" fill="black"><text id="kity_text_1039" text-rendering="inherit" font-size="18" dy=".8em" y="598.8000092208385" x="1378.5000212565064">分论点：编码改善更好的政府</text></g></g><g id="minder_node114"><g id="node_expander112" style="cursor: pointer;" display="none"><path id="kity_path_1059" fill="white" stroke="gray" d="M1373.5000210925937,639.5000096932054A6,6,0,1,1,1361.5000210925937,639.5000096932054A6,6,0,1,1,1373.5000210925937,639.5000096932054"></path><path id="kity_path_1060" fill="none" stroke="gray"></path></g><path id="node_outline113" fill="none" stroke="none" d="M1378.5000212565064,630.5000096932054h242a5,5,0,0,1,5,5v8a5,5,0,0,1,-5,5h-242a5,5,0,0,1,-5,-5v-8a5,5,0,0,1,5,-5z"></path><g id="node_text113" fill="black"><text id="kity_text_1041" text-rendering="inherit" font-size="12" dy=".8em" y="631.7000096663833" x="1378.5000212565064">解释：公民编程项目用编程来改变自己的生活</text></g></g><g id="minder_node115"><g id="node_expander113" style="cursor: pointer;" display="none"><path id="kity_path_1062" fill="white" stroke="gray" d="M1373.5000210925937,665.5000100806355A6,6,0,1,1,1361.5000210925937,665.5000100806355A6,6,0,1,1,1373.5000210925937,665.5000100806355"></path><path id="kity_path_1063" fill="none" stroke="gray"></path></g><path id="node_outline114" fill="none" stroke="none" d="M1378.5000212565064,656.5000100806355h326a5,5,0,0,1,5,5v8a5,5,0,0,1,-5,5h-326a5,5,0,0,1,-5,-5v-8a5,5,0,0,1,5,-5z"></path><g id="node_text114" fill="black"><text id="kity_text_1043" text-rendering="inherit" font-size="12" dy=".8em" y="657.7000100538135" x="1378.5000212565064">案例：领养一个消防栓的游戏，呼吁人们铲雪，爱护城市环境</text></g></g><g id="minder_node116" opacity="1"><g id="node_expander115" style="cursor: pointer;" display="none"><path id="kity_path_1073" fill="white" stroke="gray" d="M689.5000109001994,131.50000212341547A6,6,0,1,1,677.5000109001994,131.50000212341547A6,6,0,1,1,689.5000109001994,131.50000212341547"></path><path id="kity_path_1074" fill="none" stroke="gray"></path></g><path id="node_outline116" fill="none" stroke="none" d="M694.5000110641122,122.50000212341547h204a5,5,0,0,1,5,5v8a5,5,0,0,1,-5,5h-204a5,5,0,0,1,-5,-5v-8a5,5,0,0,1,5,-5z" stroke-width="3"></path><g id="node_text116" fill="black"><text id="kity_text_1070" text-rendering="inherit" font-size="12" dy=".8em" y="123.70000209659338" x="694.5000110641122">“过滤泡沫”：被算法筛选过的信息。</text></g></g><g id="minder_node117"><g id="node_expander116" style="cursor: pointer;" display="none"><path id="kity_path_1081" fill="white" stroke="gray" d="M689.5000109001994,183.50000289827585A6,6,0,1,1,677.5000109001994,183.50000289827585A6,6,0,1,1,689.5000109001994,183.50000289827585"></path><path id="kity_path_1082" fill="none" stroke="gray"></path></g><path id="node_outline117" fill="none" stroke="none" d="M694.5000110641122,174.50000289827585h194a5,5,0,0,1,5,5v8a5,5,0,0,1,-5,5h-194a5,5,0,0,1,-5,-5v-8a5,5,0,0,1,5,-5z" stroke-width="3"></path><g id="node_text117" fill="black"><text id="kity_text_1078" text-rendering="inherit" font-size="12" dy=".8em" y="175.70000287145376" x="694.5000110641122">成瘾机制：大脑持续亢奋，成瘾循环</text></g></g><g id="minder_node118"><g id="node_expander117" style="cursor: pointer;" display="none"><path id="kity_path_1089" fill="white" stroke="gray" d="M689.5000109001994,157.50000251084566A6,6,0,1,1,677.5000109001994,157.50000251084566A6,6,0,1,1,689.5000109001994,157.50000251084566"></path><path id="kity_path_1090" fill="none" stroke="gray"></path></g><path id="node_outline118" fill="none" stroke="none" d="M694.5000110641122,148.50000251084566h205a5,5,0,0,1,5,5v8a5,5,0,0,1,-5,5h-205a5,5,0,0,1,-5,-5v-8a5,5,0,0,1,5,-5z" stroke-width="3"></path><g id="node_text118" fill="black"><text id="kity_text_1086" text-rendering="inherit" font-size="12" dy=".8em" y="149.70000248402357" x="694.5000110641122">“同温层”：信息被影响，封闭的网络</text></g></g><g id="minder_node119"><g id="node_expander118" style="cursor: pointer;" display="none"><path id="kity_path_1097" fill="white" stroke="gray" d="M689.5000109001994,209.50000328570604A6,6,0,1,1,677.5000109001994,209.50000328570604A6,6,0,1,1,689.5000109001994,209.50000328570604"></path><path id="kity_path_1098" fill="none" stroke="gray"></path></g><path id="node_outline119" fill="none" stroke="none" d="M694.5000110641122,200.50000328570604h601a5,5,0,0,1,5,5v8a5,5,0,0,1,-5,5h-601a5,5,0,0,1,-5,-5v-8a5,5,0,0,1,5,-5z" stroke-width="3"></path><g id="node_text119" fill="black"><text id="kity_text_1094" text-rendering="inherit" font-size="12" dy=".8em" y="201.70000325888395" x="694.5000110641122">人工智能：它是研究、开发用于模拟、延伸和扩展人的智能的理论、方法、技术及应用系统的一门新的技术科学。</text></g></g><g id="minder_node122" opacity="1"><g id="node_expander121" style="cursor: pointer;" display="none"><path id="kity_path_1121" fill="white" stroke="gray" d="M1344.50002066046,131.50000212341547A6,6,0,1,1,1332.50002066046,131.50000212341547A6,6,0,1,1,1344.50002066046,131.50000212341547"></path><path id="kity_path_1122" fill="none" stroke="gray"></path></g><path id="node_outline122" fill="none" stroke="none" d="M1349.5000208243728,122.50000212341547h182a5,5,0,0,1,5,5v8a5,5,0,0,1,-5,5h-182a5,5,0,0,1,-5,-5v-8a5,5,0,0,1,5,-5z" stroke-width="3"></path><g id="node_text122" fill="black"><text id="kity_text_1118" text-rendering="inherit" font-size="12" dy=".8em" y="123.70000209659338" x="1349.5000208243728">编程：让计算机代为解决某个问题</text></g></g><g id="kity_g_12" display="none"><path id="kity_path_13" fill="none" stroke="rgb(66, 112, 68)" d="M1294.5000080093741,66.50000067800283h98a3,3,0,0,1,3,3v38a3,3,0,0,1,-3,3h-98a3,3,0,0,1,-3,-3v-38a3,3,0,0,1,3,-3z" stroke-width="5"></path></g><g id="minder_node123"><g id="node_expander122" style="cursor: pointer;" display="none"><path id="kity_path_1129" fill="white" stroke="gray" d="M1344.50002066046,227.50000355392694A6,6,0,1,1,1332.50002066046,227.50000355392694A6,6,0,1,1,1344.50002066046,227.50000355392694"></path><path id="kity_path_1130" fill="none" stroke="gray"></path></g><path id="node_outline123" fill="none" stroke="none" d="M1349.5000208243728,218.50000355392694h170a5,5,0,0,1,5,5v8a5,5,0,0,1,-5,5h-170a5,5,0,0,1,-5,-5v-8a5,5,0,0,1,5,-5z" stroke-width="3"></path><g id="node_text123" fill="black"><text id="kity_text_1126" text-rendering="inherit" font-size="12" dy=".8em" y="219.70000352710485" x="1349.5000208243728">情感线索：以情感为标准的线索</text></g></g><g id="minder_node124"><g id="node_expander123" style="cursor: pointer;" display="none"><path id="kity_path_1137" fill="white" stroke="gray" d="M1344.50002066046,192.5000030323863A6,6,0,1,1,1332.50002066046,192.5000030323863A6,6,0,1,1,1344.50002066046,192.5000030323863"></path><path id="kity_path_1138" fill="none" stroke="gray"></path></g><path id="node_outline124" fill="none" stroke="none" d="M1349.5000208243728,174.5000030323863h253a5,5,0,0,1,5,5v26a5,5,0,0,1,-5,5h-253a5,5,0,0,1,-5,-5v-26a5,5,0,0,1,5,-5z" stroke-width="3"></path><g id="node_text124" fill="black"><text id="kity_text_1134" text-rendering="inherit" font-size="12" dy=".8em" y="175.7000030055642" x="1349.5000208243728">积极心理学：采用科学的原则和方法来研究幸福</text><text id="kity_text_1147" text-rendering="inherit" font-size="12" dy=".8em" y="193.7000030055642" x="1349.5000208243728">，倡导心理学的积极取向。</text></g></g><g id="minder_node125"><g id="node_expander124" style="cursor: pointer;" display="none"><path id="kity_path_1145" fill="white" stroke="gray" d="M1344.50002066046,157.50000251084566A6,6,0,1,1,1332.50002066046,157.50000251084566A6,6,0,1,1,1344.50002066046,157.50000251084566"></path><path id="kity_path_1146" fill="none" stroke="gray"></path></g><path id="node_outline125" fill="none" stroke="none" d="M1349.5000208243728,148.50000251084566h217a5,5,0,0,1,5,5v8a5,5,0,0,1,-5,5h-217a5,5,0,0,1,-5,-5v-8a5,5,0,0,1,5,-5z" stroke-width="3"></path><g id="node_text125" fill="black"><text id="kity_text_1142" text-rendering="inherit" font-size="12" dy=".8em" y="149.70000248402357" x="1349.5000208243728">骇客：闯入计算机系统或者网络系统者。</text></g></g><g id="minder_node126"><g id="node_expander125" style="cursor: pointer;" display="none"><path id="kity_path_1154" fill="white" stroke="gray" d="M1344.50002066046,253.50000394135714A6,6,0,1,1,1332.50002066046,253.50000394135714A6,6,0,1,1,1344.50002066046,253.50000394135714"></path><path id="kity_path_1155" fill="none" stroke="gray"></path></g><path id="node_outline126" fill="none" stroke="none" d="M1349.5000208243728,244.50000394135714h397a5,5,0,0,1,5,5v8a5,5,0,0,1,-5,5h-397a5,5,0,0,1,-5,-5v-8a5,5,0,0,1,5,-5z" stroke-width="3"></path><g id="node_text126" fill="black"><text id="kity_text_1151" text-rendering="inherit" font-size="12" dy=".8em" y="245.70000391453505" x="1349.5000208243728">信息可视化：利用图形图像方面的技术与方法，帮助人们理解和分析数据。</text></g></g><g id="minder_node127"><g id="node_expander126" style="cursor: pointer;" display="none"><path id="kity_path_1162" fill="white" stroke="gray" d="M48.50000134855509,235.50000367313623A6,6,0,1,1,36.50000134855509,235.50000367313623A6,6,0,1,1,48.50000134855509,235.50000367313623"></path><path id="kity_path_1163" fill="none" stroke="gray"></path></g><path id="node_outline127" fill="none" stroke="none" d="M53.50000151246786,226.50000367313623h504a5,5,0,0,1,5,5v8a5,5,0,0,1,-5,5h-504a5,5,0,0,1,-5,-5v-8a5,5,0,0,1,5,-5z" stroke-width="3"></path><g id="node_text127" fill="black"><text id="kity_text_1159" text-rendering="inherit" font-size="12" dy=".8em" y="227.70000364631414" x="53.50000151246786">区块链：是分布式数据存储、点对点传输、共识机制、加密算法等计算机技术的新型应用模式。</text></g></g></g></g></svg>