<svg id="kity_svg_6" xmlns="http://www.w3.org/2000/svg" xmlns:xlink="http://www.w3.org/1999/xlink" version="1.1" width="1809" height="1359" style="background: rgb(251, 251, 251); visibility: visible;" viewBox="0 0 1809 1359"><defs id="kity_defs_7"><linearGradient id="kity_linearGradient_17" x1="0" y1="0" x2="0" y2="1"><stop id="kity_stop_18" offset="0" stop-color="rgb(255, 255, 255)"></stop><stop id="kity_stop_19" offset="1" stop-color="rgb(204, 204, 204)"></stop></linearGradient><marker id="kity_marker_2" orient="auto" refX="6" refY="0" viewBox="-7 -7 14 14" markerWidth="7" markerHeight="7" markerUnits="userSpaceOnUse"><path id="kity_path_3" fill="rgb(115, 161, 191)" stroke="none" d="M6,0A6,6,0,1,1,-6,0A6,6,0,1,1,6,0"></path></marker></defs><g id="kity_g_8"><g id="minder1" text-rendering="geometricPrecision"><g id="minder_connect_group1"><path id="kity_path_31" fill="none" stroke="rgb(115, 191, 118)" stroke-width="1" d="M686.5000075921416,54.49999267607927v10h-613.5V72.49999267607927"></path><path id="kity_path_33" fill="none" stroke="rgb(115, 191, 118)" stroke-width="1" d="M40.50000759214163,116.49999267607927V143.49999267607927L48.50000759214163,143.49999267607927"></path><path id="kity_path_35" fill="none" stroke="rgb(115, 191, 118)" stroke-width="1" d="M96.50000759214163,262.4999926760793V357.4999926760793L104.50000759214163,357.4999926760793"></path><path id="kity_path_37" fill="none" stroke="rgb(115, 191, 118)" stroke-width="1" d="M68.50000759214163,158.49999267607927V175.49999267607927L76.50000759214163,175.49999267607927"></path><path id="kity_path_39" fill="none" stroke="rgb(115, 191, 118)" stroke-width="1" d="M96.50000759214163,184.49999267607927V201.49999267607927L104.50000759214163,201.49999267607927"></path><path id="kity_path_41" fill="none" stroke="rgb(115, 191, 118)" stroke-width="1" d="M96.50000759214163,184.49999267607927V227.49999267607927L104.50000759214163,227.49999267607927"></path><path id="kity_path_43" fill="none" stroke="rgb(115, 191, 118)" stroke-width="1" d="M68.50000759214163,158.49999267607927V253.49999267607927L76.50000759214163,253.49999267607927"></path><path id="kity_path_45" fill="none" stroke="rgb(115, 191, 118)" stroke-width="1" d="M96.50000759214163,262.4999926760793V279.4999926760793L104.50000759214163,279.4999926760793"></path><path id="kity_path_47" fill="none" stroke="rgb(115, 191, 118)" stroke-width="1" d="M96.50000759214163,262.4999926760793V305.4999926760793L104.50000759214163,305.4999926760793"></path><path id="kity_path_49" fill="none" stroke="rgb(115, 191, 118)" stroke-width="1" d="M96.50000759214163,262.4999926760793V331.4999926760793L104.50000759214163,331.4999926760793"></path><path id="kity_path_51" fill="none" stroke="rgb(115, 191, 118)" stroke-width="1" d="M68.50000759214163,158.49999267607927V383.4999926760793L76.50000759214163,383.4999926760793"></path><path id="kity_path_53" fill="none" stroke="rgb(115, 191, 118)" stroke-width="1" d="M96.50000759214163,392.4999926760793V409.4999926760793L104.50000759214163,409.4999926760793"></path><path id="kity_path_55" fill="none" stroke="rgb(115, 191, 118)" stroke-width="1" d="M40.50000759214163,116.49999267607927V441.4999926760793L48.50000759214163,441.4999926760793"></path><path id="kity_path_57" fill="none" stroke="rgb(115, 191, 118)" stroke-width="1" d="M68.50000759214163,456.4999926760793V476.4999926760793L76.50000759214163,476.4999926760793"></path><path id="kity_path_59" fill="none" stroke="rgb(115, 191, 118)" stroke-width="1" d="M96.50000759214163,488.4999926760793V505.4999926760793L104.50000759214163,505.4999926760793"></path><path id="kity_path_61" fill="none" stroke="rgb(115, 191, 118)" stroke-width="1" d="M124.50000759214163,514.4999926760793V531.4999926760793L132.50000759214163,531.4999926760793"></path><path id="kity_path_63" fill="none" stroke="rgb(115, 191, 118)" stroke-width="1" d="M152.50000759214163,540.4999926760793V557.4999926760793L160.50000759214163,557.4999926760793"></path><path id="kity_path_65" fill="none" stroke="rgb(115, 191, 118)" stroke-width="1" d="M180.50000759214163,566.4999926760793V583.4999926760793L188.50000759214163,583.4999926760793"></path><path id="kity_path_67" fill="none" stroke="rgb(115, 191, 118)" stroke-width="1" d="M96.50000759214163,488.4999926760793V609.4999926760793L104.50000759214163,609.4999926760793"></path><path id="kity_path_69" fill="none" stroke="rgb(115, 191, 118)" stroke-width="1" d="M40.50000759214163,116.49999267607927V641.4999926760793L48.50000759214163,641.4999926760793"></path><path id="kity_path_71" fill="none" stroke="rgb(115, 191, 118)" stroke-width="1" d="M68.50000759214163,656.4999926760793V676.4999926760793L76.50000759214163,676.4999926760793"></path><path id="kity_path_73" fill="none" stroke="rgb(115, 191, 118)" stroke-width="1" d="M96.50000759214163,688.4999926760793V705.4999926760793L104.50000759214163,705.4999926760793"></path><path id="kity_path_75" fill="none" stroke="rgb(115, 191, 118)" stroke-width="1" d="M96.50000759214163,688.4999926760793V731.4999926760793L104.50000759214163,731.4999926760793"></path><path id="kity_path_77" fill="none" stroke="rgb(115, 191, 118)" stroke-width="1" d="M40.50000759214163,116.49999267607927V763.4999926760793L48.50000759214163,763.4999926760793"></path><path id="kity_path_79" fill="none" stroke="rgb(115, 191, 118)" stroke-width="1" d="M68.50000759214163,778.4999926760793V798.4999926760793L76.50000759214163,798.4999926760793"></path><path id="kity_path_81" fill="none" stroke="rgb(115, 191, 118)" stroke-width="1" d="M96.50000759214163,810.4999926760793V827.4999926760793L104.50000759214163,827.4999926760793"></path><path id="kity_path_83" fill="none" stroke="rgb(115, 191, 118)" stroke-width="1" d="M124.50000759214163,836.4999926760793V853.4999926760793L132.50000759214163,853.4999926760793"></path><path id="kity_path_85" fill="none" stroke="rgb(115, 191, 118)" stroke-width="1" d="M96.50000759214163,810.4999926760793V879.4999926760793L104.50000759214163,879.4999926760793"></path><path id="kity_path_87" fill="none" stroke="rgb(115, 191, 118)" stroke-width="1" d="M124.50000759214163,888.4999926760793V905.4999926760793L132.50000759214163,905.4999926760793"></path><path id="kity_path_89" fill="none" stroke="rgb(115, 191, 118)" stroke-width="1" d="M96.50000759214163,810.4999926760793V931.4999926760793L104.50000759214163,931.4999926760793"></path><path id="kity_path_91" fill="none" stroke="rgb(115, 191, 118)" stroke-width="1" d="M686.5000075921416,54.49999267607927v10h8.5V72.49999267607927"></path><path id="kity_path_93" fill="none" stroke="rgb(115, 191, 118)" stroke-width="1" d="M662.5000075921416,116.49999267607927V143.49999267607927L670.5000075921416,143.49999267607927"></path><path id="kity_path_95" fill="none" stroke="rgb(115, 191, 118)" stroke-width="1" d="M690.5000075921416,158.49999267607927V260.4999926760793L709.5000075921416,260.4999926760793"></path><path id="kity_path_97" fill="none" stroke="rgb(115, 191, 118)" stroke-width="1" d="M729.5000075921416,272.4999926760793V289.4999926760793L737.5000075921416,289.4999926760793"></path><path id="kity_path_99" fill="none" stroke="rgb(115, 191, 118)" stroke-width="1" d="M729.5000075921416,272.4999926760793V315.4999926760793L737.5000075921416,315.4999926760793"></path><path id="kity_path_101" fill="none" stroke="rgb(115, 191, 118)" stroke-width="1" d="M690.5000075921416,158.49999267607927V174.49999267607927L699.5000075921416,174.49999267607927"></path><path id="kity_path_103" fill="none" stroke="rgb(115, 191, 118)" stroke-width="1" d="M719.5000075921416,183.49999267607927V200.49999267607927L727.5000075921416,200.49999267607927"></path><path id="kity_path_105" fill="none" stroke="rgb(115, 191, 118)" stroke-width="1" d="M719.5000075921416,183.49999267607927V226.49999267607927L727.5000075921416,226.49999267607927"></path><path id="kity_path_107" fill="none" stroke="rgb(115, 191, 118)" stroke-width="1" d="M662.5000075921416,116.49999267607927V384.4999926760793L672.5000075921416,384.4999926760793"></path><path id="kity_path_109" fill="none" stroke="rgb(115, 191, 118)" stroke-width="1" d="M692.5000075921416,399.4999926760793V416.4999926760793L700.5000075921416,416.4999926760793"></path><path id="kity_path_111" fill="none" stroke="rgb(115, 191, 118)" stroke-width="1" d="M720.5000075921416,425.4999926760793V442.4999926760793L728.5000075921416,442.4999926760793"></path><path id="kity_path_113" fill="none" stroke="rgb(115, 191, 118)" stroke-width="1" d="M692.5000075921416,399.4999926760793V471.4999926760793L700.5000075921416,471.4999926760793"></path><path id="kity_path_115" fill="none" stroke="rgb(115, 191, 118)" stroke-width="1" d="M720.5000075921416,483.4999926760793V500.4999926760793L728.5000075921416,500.4999926760793"></path><path id="kity_path_117" fill="none" stroke="rgb(115, 191, 118)" stroke-width="1" d="M720.5000075921416,483.4999926760793V526.4999926760793L728.5000075921416,526.4999926760793"></path><path id="kity_path_119" fill="none" stroke="rgb(115, 191, 118)" stroke-width="1" d="M692.5000075921416,399.4999926760793V575.4999926760793L699.5000075921416,575.4999926760793"></path><path id="kity_path_121" fill="none" stroke="rgb(115, 191, 118)" stroke-width="1" d="M719.5000075921416,587.4999926760793V604.4999926760793L727.5000075921416,604.4999926760793"></path><path id="kity_path_123" fill="none" stroke="rgb(115, 191, 118)" stroke-width="1" d="M719.5000075921416,587.4999926760793V630.4999926760793L727.5000075921416,630.4999926760793"></path><path id="kity_path_125" fill="none" stroke="rgb(115, 191, 118)" stroke-width="1" d="M662.5000075921416,116.49999267607927V680.4999926760793L664.5000075921416,680.4999926760793"></path><path id="kity_path_127" fill="none" stroke="rgb(115, 191, 118)" stroke-width="1" d="M684.5000075921416,695.4999926760793V712.4999926760793L692.5000075921416,712.4999926760793"></path><path id="kity_path_129" fill="none" stroke="rgb(115, 191, 118)" stroke-width="1" d="M712.5000075921416,721.4999926760793V738.4999926760793L720.5000075921416,738.4999926760793"></path><path id="kity_path_131" fill="none" stroke="rgb(115, 191, 118)" stroke-width="1" d="M684.5000075921416,695.4999926760793V764.4999926760793L692.5000075921416,764.4999926760793"></path><path id="kity_path_133" fill="none" stroke="rgb(115, 191, 118)" stroke-width="1" d="M712.5000075921416,773.4999926760793V790.4999926760793L720.5000075921416,790.4999926760793"></path><path id="kity_path_135" fill="none" stroke="rgb(115, 191, 118)" stroke-width="1" d="M740.5000075921416,799.4999926760793V816.4999926760793L748.5000075921416,816.4999926760793"></path><path id="kity_path_137" fill="none" stroke="rgb(115, 191, 118)" stroke-width="1" d="M662.5000075921416,116.49999267607927V873.4999926760793L675.5000075921416,873.4999926760793"></path><path id="kity_path_139" fill="none" stroke="rgb(115, 191, 118)" stroke-width="1" d="M695.5000075921416,888.4999926760793V905.4999926760793L703.5000075921416,905.4999926760793"></path><path id="kity_path_141" fill="none" stroke="rgb(115, 191, 118)" stroke-width="1" d="M695.5000075921416,888.4999926760793V931.4999926760793L703.5000075921416,931.4999926760793"></path><path id="kity_path_143" fill="none" stroke="rgb(115, 191, 118)" stroke-width="1" d="M695.5000075921416,888.4999926760793V957.4999926760793L703.5000075921416,957.4999926760793"></path><path id="kity_path_145" fill="none" stroke="rgb(115, 191, 118)" stroke-width="1" d="M686.5000075921416,54.49999267607927v10h613.5V72.49999267607927"></path><path id="kity_path_147" fill="none" stroke="rgb(115, 191, 118)" stroke-width="1" d="M1267.5000075921416,116.49999267607927V137.49999267607927L1275.5000075921416,137.49999267607927"></path><path id="kity_path_149" fill="none" stroke="rgb(115, 191, 118)" stroke-width="1" d="M1267.5000075921416,116.49999267607927V169.49999267607927L1275.5000075921416,169.49999267607927"></path><path id="kity_path_151" fill="none" stroke="rgb(115, 191, 118)" stroke-width="1" d="M1295.5000075921416,184.49999267607927V201.49999267607927L1303.5000075921416,201.49999267607927"></path><path id="kity_path_153" fill="none" stroke="rgb(115, 191, 118)" stroke-width="1" d="M1295.5000075921416,184.49999267607927V227.49999267607927L1303.5000075921416,227.49999267607927"></path><path id="kity_path_155" fill="none" stroke="rgb(115, 191, 118)" stroke-width="1" d="M1323.5000075921416,236.49999267607927V253.49999267607927L1331.5000075921416,253.49999267607927"></path><path id="kity_path_157" fill="none" stroke="rgb(115, 191, 118)" stroke-width="1" d="M1351.5000075921416,262.4999926760793V279.4999926760793L1359.5000075921416,279.4999926760793"></path><path id="kity_path_159" fill="none" stroke="rgb(115, 191, 118)" stroke-width="1" d="M1295.5000075921416,184.49999267607927V305.4999926760793L1303.5000075921416,305.4999926760793"></path><path id="kity_path_161" fill="none" stroke="rgb(115, 191, 118)" stroke-width="1" d="M1323.5000075921416,314.4999926760793V331.4999926760793L1331.5000075921416,331.4999926760793"></path><path id="kity_path_163" fill="none" stroke="rgb(115, 191, 118)" stroke-width="1" d="M1267.5000075921416,116.49999267607927V845.4999926760793L1289.5000075921416,845.4999926760793"></path><path id="kity_path_165" fill="none" stroke="rgb(115, 191, 118)" stroke-width="1" d="M1309.5000075921416,860.4999926760793V877.4999926760793L1317.5000075921416,877.4999926760793"></path><path id="kity_path_167" fill="none" stroke="rgb(115, 191, 118)" stroke-width="1" d="M1337.5000075921416,886.4999926760793V906.4999926760793L1345.5000075921416,906.4999926760793"></path><path id="kity_path_169" fill="none" stroke="rgb(115, 191, 118)" stroke-width="1" d="M1365.5000075921416,918.4999926760793V935.4999926760793L1373.5000075921416,935.4999926760793"></path><path id="kity_path_171" fill="none" stroke="rgb(115, 191, 118)" stroke-width="1" d="M1365.5000075921416,918.4999926760793V961.4999926760793L1373.5000075921416,961.4999926760793"></path><path id="kity_path_173" fill="none" stroke="rgb(115, 191, 118)" stroke-width="1" d="M1309.5000075921416,860.4999926760793V990.4999926760793L1317.5000075921416,990.4999926760793"></path><path id="kity_path_175" fill="none" stroke="rgb(115, 191, 118)" stroke-width="1" d="M1337.5000075921416,1002.4999926760793V1019.4999926760793L1345.5000075921416,1019.4999926760793"></path><path id="kity_path_177" fill="none" stroke="rgb(115, 191, 118)" stroke-width="1" d="M1267.5000075921416,116.49999267607927V635.4999926760793L1276.5000075921416,635.4999926760793"></path><path id="kity_path_179" fill="none" stroke="rgb(115, 191, 118)" stroke-width="1" d="M1296.5000075921416,650.4999926760793V667.4999926760793L1304.5000075921416,667.4999926760793"></path><path id="kity_path_181" fill="none" stroke="rgb(115, 191, 118)" stroke-width="1" d="M1296.5000075921416,650.4999926760793V693.4999926760793L1304.5000075921416,693.4999926760793"></path><path id="kity_path_183" fill="none" stroke="rgb(115, 191, 118)" stroke-width="1" d="M1324.5000075921416,702.4999926760793V719.4999926760793L1332.5000075921416,719.4999926760793"></path><path id="kity_path_185" fill="none" stroke="rgb(115, 191, 118)" stroke-width="1" d="M1352.5000075921416,728.4999926760793V745.4999926760793L1360.5000075921416,745.4999926760793"></path><path id="kity_path_187" fill="none" stroke="rgb(115, 191, 118)" stroke-width="1" d="M1352.5000075921416,728.4999926760793V771.4999926760793L1360.5000075921416,771.4999926760793"></path><path id="kity_path_189" fill="none" stroke="rgb(115, 191, 118)" stroke-width="1" d="M1352.5000075921416,728.4999926760793V797.4999926760793L1360.5000075921416,797.4999926760793"></path><path id="kity_path_191" fill="none" stroke="rgb(115, 191, 118)" stroke-width="1" d="M1267.5000075921416,116.49999267607927V1156.4999926760793L1254.5000075921416,1156.4999926760793"></path><path id="kity_path_193" fill="none" stroke="rgb(115, 191, 118)" stroke-width="1" d="M1274.5000075921416,1171.4999926760793V1191.4999926760793L1282.5000075921416,1191.4999926760793"></path><path id="kity_path_195" fill="none" stroke="rgb(115, 191, 118)" stroke-width="1" d="M1302.5000075921416,1203.4999926760793V1220.4999926760793L1310.5000075921416,1220.4999926760793"></path><path id="kity_path_197" fill="none" stroke="rgb(115, 191, 118)" stroke-width="1" d="M1302.5000075921416,1203.4999926760793V1246.4999926760793L1310.5000075921416,1246.4999926760793"></path><path id="kity_path_199" fill="none" stroke="rgb(115, 191, 118)" stroke-width="1" d="M1274.5000075921416,1171.4999926760793V1275.4999926760793L1282.5000075921416,1275.4999926760793"></path><path id="kity_path_201" fill="none" stroke="rgb(115, 191, 118)" stroke-width="1" d="M1302.5000075921416,1287.4999926760793V1304.4999926760793L1310.5000075921416,1304.4999926760793"></path><path id="kity_path_203" fill="none" stroke="rgb(115, 191, 118)" stroke-width="1" d="M1302.5000075921416,1287.4999926760793V1330.4999926760793L1310.5000075921416,1330.4999926760793"></path><path id="kity_path_790" fill="none" stroke="rgb(115, 191, 118)" stroke-width="1" d="M1295.5000075921416,184.49999267607927V357.4999926760793L1303.5000075921416,357.4999926760793"></path><path id="kity_path_798" fill="none" stroke="rgb(115, 191, 118)" stroke-width="1" d="M1323.5000075921416,366.4999926760793V383.4999926760793L1331.5000075921416,383.4999926760793"></path><path id="kity_path_806" fill="none" stroke="rgb(115, 191, 118)" stroke-width="1" d="M1323.5000075921416,366.4999926760793V409.4999926760793L1331.5000075921416,409.4999926760793"></path><path id="kity_path_814" fill="none" stroke="rgb(115, 191, 118)" stroke-width="1" d="M1323.5000075921416,366.4999926760793V435.4999926760793L1331.5000075921416,435.4999926760793"></path><path id="kity_path_822" fill="none" stroke="rgb(115, 191, 118)" stroke-width="1" d="M1295.5000075921416,184.49999267607927V461.4999926760793L1303.5000075921416,461.4999926760793"></path><path id="kity_path_830" fill="none" stroke="rgb(115, 191, 118)" stroke-width="1" d="M1323.5000075921416,470.4999926760793V487.4999926760793L1331.5000075921416,487.4999926760793"></path><path id="kity_path_838" fill="none" stroke="rgb(115, 191, 118)" stroke-width="1" d="M1351.5000075921416,496.4999926760793V513.4999926760793L1359.5000075921416,513.4999926760793"></path></g><g id="minder_node1"><path id="node_outline1" fill="#4e6128" stroke="rgb(115, 191, 118)" d="M420.5000075921416,20.499992676079273h531a5,5,0,0,1,5,5v24a5,5,0,0,1,-5,5h-531a5,5,0,0,1,-5,-5v-24a5,5,0,0,1,5,-5z" stroke-width="3"></path><g id="node_text1" fill="white"><text id="kity_text_22" text-rendering="inherit" font-size="16" dy=".8em" y="27.099992640316486" x="427.5000075921416">科技、娱乐与设计https://liuyu19.github.io/TED/mindmap1.1.svg</text></g><a id="kity_a_438" xlink:href="https://liuyu19.github.io/TED/mindmap1.1.svg" target="_blank" xlink:title="https://liuyu19.github.io/TED/mindmap1.1.svg" style="cursor: pointer;"><path id="kity_path_440" fill="rgba(255, 255, 255, 0)" stroke="none" d="M924.5000149682164,26.499992601573467h16a4,4,0,0,1,4,4v14a4,4,0,0,1,-4,4h-16a4,4,0,0,1,-4,-4v-14a4,4,0,0,1,4,-4z"></path><path id="kity_path_439" fill="#666" stroke="none" d="M939.1140149682165,42.72399260157347h-1.278c-1.668,0,-3.07,-1.07,-3.599,-2.556h4.877c0.707,0,1.278,-0.571,1.278,-1.278V36.33399260157347c0,-0.707,-0.571,-1.278,-1.278,-1.278h-4.877C934.7660149682164,33.570992601573465,936.1680149682164,32.49999260157347,937.8360149682164,32.49999260157347h1.278c2.116,0,3.834,1.716,3.834,3.834V38.88999260157347C942.9480149682164,41.00799260157346,941.2300149682164,42.72399260157347,939.1140149682165,42.72399260157347zM927.6120149682164,37.61199260157347c0,-0.707,0.573,-1.278,1.278,-1.278h7.668c0.707,0,1.278,0.571,1.278,1.278S937.2650149682164,38.88999260157347,936.5580149682164,38.88999260157347H928.8900149682164C928.1850149682164,38.88999260157347,927.6120149682164,38.31899260157347,927.6120149682164,37.61199260157347zM925.0560149682165,36.33399260157347V38.88999260157347c0,0.707,0.573,1.278,1.278,1.278h4.877c-0.528,1.486,-1.932,2.556,-3.599,2.556H926.3340149682164C924.2160149682164,42.72399260157347,922.5000149682164,41.00799260157346,922.5000149682164,38.88999260157347V36.33399260157347C922.5000149682164,34.21599260157347,924.2160149682164,32.49999260157347,926.3340149682164,32.49999260157347h1.278c1.667,0,3.071,1.071,3.599,2.556H926.3340149682164C925.6290149682164,35.055992601573465,925.0560149682165,35.62699260157347,925.0560149682165,36.33399260157347z"></path></a></g><g id="kity_g_14" display="none"><path id="kity_path_15" fill="rgba(0, 153, 5, 0.5)" stroke="none" d="M76.50000759214163,265.4999926760793h35v4h-35z"></path><path id="kity_path_16" fill="none" stroke="rgb(0, 128, 4)" d="M76.50000759214163,265.4999926760793L111.50000759214163,265.4999926760793" stroke-width="1"></path></g><g id="minder_node2"><g id="node_expander30" style="cursor: pointer;"><path id="kity_path_616" fill="white" stroke="gray" d="M78.5000023022294,65.49999309331179A6,6,0,1,1,66.5000023022294,65.49999309331179A6,6,0,1,1,78.5000023022294,65.49999309331179"></path><path id="kity_path_617" fill="none" stroke="gray" d="M68.0000023022294,65.49999309331179L77.0000023022294,65.49999309331179"></path></g><path id="node_outline31" fill="#76923c" stroke="rgb(115, 191, 118)" d="M23.500001825392246,72.49999352544546h98a3,3,0,0,1,3,3v38a3,3,0,0,1,-3,3h-98a3,3,0,0,1,-3,-3v-38a3,3,0,0,1,3,-3z" stroke-width="1"></path><g id="node_text31" fill="#ffffff"><text id="kity_text_263" text-rendering="inherit" font-size="32" dy=".8em" y="73.69999345391989" x="40.500001825392246">科技</text></g></g><g id="minder_node3"><g id="node_expander11" style="cursor: pointer;"><path id="kity_path_559" fill="white" stroke="gray" d="M48.50000185519457,143.49999425560236A6,6,0,1,1,36.50000185519457,143.49999425560236A6,6,0,1,1,48.50000185519457,143.49999425560236"></path><path id="kity_path_560" fill="none" stroke="gray" d="M38.00000185519457,143.49999425560236L47.00000185519457,143.49999425560236"></path></g><path id="node_outline12" fill="#c2d69b" stroke="none" d="M53.50000239163637,128.49999425560236h121a5,5,0,0,1,5,5v20a5,5,0,0,1,-5,5h-121a5,5,0,0,1,-5,-5v-20a5,5,0,0,1,5,-5z" stroke-width="3"></path><g id="node_text12" fill="white"><text id="kity_text_225" text-rendering="inherit" font-size="24" dy=".8em" y="127.89999420195818" x="78.50000239163637">影响生活</text></g><g id="node_priority1"><path id="kity_path_380" fill="#840023" stroke="none" d="M54.00000202655792,146.99999411404133c0,3.866,3.134,7,7,7h6c3.866,0,7,-3.134,7,-7V140.99999411404133H54.00000202655792V146.99999411404133z"></path><path id="kity_path_381" fill="#FF1200" stroke="none" d="M74.00000202655792,143.99999411404133c0,3.866,-3.134,7,-7,7H61.00000202655792c-3.866,0,-7,-3.134,-7,-7V140.99999411404133c0,-3.866,3.134,-7,7,-7h6c3.866,0,7,3.134,7,7V143.99999411404133z" opacity="0.8"></path><text id="kity_text_382" text-rendering="geometricPrecision" x="63.00000201910734" y="143.49999410659075" text-anchor="middle" font-style="italic" font-size="12" fill="white" dy="5">1</text></g></g><g id="minder_node4" opacity="1"><g id="node_expander1" style="cursor: pointer;" display="none"><path id="kity_path_529" fill="white" stroke="gray" d="M104.5000026896596,357.49999744445086A6,6,0,1,1,92.5000026896596,357.49999744445086A6,6,0,1,1,104.5000026896596,357.49999744445086"></path><path id="kity_path_530" fill="none" stroke="gray"></path></g><path id="node_outline2" fill="#eaf1dd" stroke="none" d="M109.50000285357237,348.49999744445086h40a5,5,0,0,1,5,5v8a5,5,0,0,1,-5,5h-40a5,5,0,0,1,-5,-5v-8a5,5,0,0,1,5,-5z" stroke-width="3"></path><g id="node_text2" fill="black"><text id="kity_text_205" text-rendering="inherit" font-size="12" dy=".8em" y="349.69999741762877" x="109.50000285357237">数字屑&#xa0;</text></g></g><g id="minder_node5"><g id="node_expander4" style="cursor: pointer;"><path id="kity_path_538" fill="white" stroke="gray" d="M76.50000227242708,175.49999473243952A6,6,0,1,1,64.50000227242708,175.49999473243952A6,6,0,1,1,76.50000227242708,175.49999473243952"></path><path id="kity_path_539" fill="none" stroke="gray" d="M66.00000227242708,175.49999473243952L75.00000227242708,175.49999473243952"></path></g><path id="node_outline5" fill="#eaf1dd" stroke="none" d="M81.50000243633986,166.49999473243952h49a5,5,0,0,1,5,5v8a5,5,0,0,1,-5,5h-49a5,5,0,0,1,-5,-5v-8a5,5,0,0,1,5,-5z"></path><g id="node_text5" fill="black"><text id="kity_text_211" text-rendering="inherit" font-size="12" dy=".8em" y="167.69999470561743" x="81.50000243633986">性别教育</text></g></g><g id="minder_node6"><g id="node_expander2" style="cursor: pointer;" display="none"><path id="kity_path_532" fill="white" stroke="gray" d="M104.5000026896596,201.4999951198697A6,6,0,1,1,92.5000026896596,201.4999951198697A6,6,0,1,1,104.5000026896596,201.4999951198697"></path><path id="kity_path_533" fill="none" stroke="gray"></path></g><path id="node_outline3" fill="#eaf1dd" stroke="none" d="M109.50000285357237,192.4999951198697h253a5,5,0,0,1,5,5v8a5,5,0,0,1,-5,5h-253a5,5,0,0,1,-5,-5v-8a5,5,0,0,1,5,-5z"></path><g id="node_text3" fill="black"><text id="kity_text_207" text-rendering="inherit" font-size="12" dy=".8em" y="193.69999509304762" x="109.50000285357237">论点：青少年能轻易接受高强度色情片的刺激。</text></g></g><g id="minder_node7"><g id="node_expander3" style="cursor: pointer;" display="none"><path id="kity_path_535" fill="white" stroke="gray" d="M104.5000026896596,227.4999955072999A6,6,0,1,1,92.5000026896596,227.4999955072999A6,6,0,1,1,104.5000026896596,227.4999955072999"></path><path id="kity_path_536" fill="none" stroke="gray"></path></g><path id="node_outline4" fill="none" stroke="none" d="M109.50000285357237,218.4999955072999h205a5,5,0,0,1,5,5v8a5,5,0,0,1,-5,5h-205a5,5,0,0,1,-5,-5v-8a5,5,0,0,1,5,-5z"></path><g id="node_text4" fill="black"><text id="kity_text_209" text-rendering="inherit" font-size="12" dy=".8em" y="219.6999954804778" x="109.50000285357237">案例：互联网或成为青年性启蒙教师。</text></g></g><g id="minder_node8"><g id="node_expander8" style="cursor: pointer;"><path id="kity_path_550" fill="white" stroke="gray" d="M76.50000227242708,253.4999958947301A6,6,0,1,1,64.50000227242708,253.4999958947301A6,6,0,1,1,76.50000227242708,253.4999958947301"></path><path id="kity_path_551" fill="none" stroke="gray" d="M66.00000227242708,253.4999958947301L75.00000227242708,253.4999958947301"></path></g><path id="node_outline9" fill="#eaf1dd" stroke="none" d="M81.50000243633986,244.4999958947301h25a5,5,0,0,1,5,5v8a5,5,0,0,1,-5,5h-25a5,5,0,0,1,-5,-5v-8a5,5,0,0,1,5,-5z"></path><g id="node_text9" fill="black"><text id="kity_text_219" text-rendering="inherit" font-size="12" dy=".8em" y="245.699995867908" x="81.50000243633986">改变</text></g></g><g id="minder_node9"><g id="node_expander5" style="cursor: pointer;" display="none"><path id="kity_path_541" fill="white" stroke="gray" d="M104.5000026896596,279.4999962821603A6,6,0,1,1,92.5000026896596,279.4999962821603A6,6,0,1,1,104.5000026896596,279.4999962821603"></path><path id="kity_path_542" fill="none" stroke="gray"></path></g><path id="node_outline6" fill="none" stroke="none" d="M109.50000285357237,270.4999962821603h26a5,5,0,0,1,5,5v8a5,5,0,0,1,-5,5h-26a5,5,0,0,1,-5,-5v-8a5,5,0,0,1,5,-5z"></path><g id="node_text6" fill="black"><text id="kity_text_213" text-rendering="inherit" font-size="12" dy=".8em" y="271.6999962553382" x="109.50000285357237">金钱</text></g></g><g id="minder_node10"><g id="node_expander6" style="cursor: pointer;" display="none"><path id="kity_path_544" fill="white" stroke="gray" d="M104.5000026896596,305.4999966695905A6,6,0,1,1,92.5000026896596,305.4999966695905A6,6,0,1,1,104.5000026896596,305.4999966695905"></path><path id="kity_path_545" fill="none" stroke="gray"></path></g><path id="node_outline7" fill="none" stroke="none" d="M109.50000285357237,296.4999966695905h24a5,5,0,0,1,5,5v8a5,5,0,0,1,-5,5h-24a5,5,0,0,1,-5,-5v-8a5,5,0,0,1,5,-5z"></path><g id="node_text7" fill="black"><text id="kity_text_215" text-rendering="inherit" font-size="12" dy=".8em" y="297.6999966427684" x="109.50000285357237">贸易</text></g></g><g id="minder_node11"><g id="node_expander7" style="cursor: pointer;" display="none"><path id="kity_path_547" fill="white" stroke="gray" d="M104.5000026896596,331.49999705702066A6,6,0,1,1,92.5000026896596,331.49999705702066A6,6,0,1,1,104.5000026896596,331.49999705702066"></path><path id="kity_path_548" fill="none" stroke="gray"></path></g><path id="node_outline8" fill="none" stroke="none" d="M109.50000285357237,322.49999705702066h37a5,5,0,0,1,5,5v8a5,5,0,0,1,-5,5h-37a5,5,0,0,1,-5,-5v-8a5,5,0,0,1,5,-5z"></path><g id="node_text8" fill="black"><text id="kity_text_217" text-rendering="inherit" font-size="12" dy=".8em" y="323.6999970301986" x="109.50000285357237">区块链</text></g></g><g id="minder_node12"><g id="node_expander10" style="cursor: pointer;"><path id="kity_path_556" fill="white" stroke="gray" d="M76.50000227242708,383.49999783188105A6,6,0,1,1,64.50000227242708,383.49999783188105A6,6,0,1,1,76.50000227242708,383.49999783188105"></path><path id="kity_path_557" fill="none" stroke="gray" d="M66.00000227242708,383.49999783188105L75.00000227242708,383.49999783188105"></path></g><path id="node_outline11" fill="#eaf1dd" stroke="none" d="M81.50000243633986,374.49999783188105h50a5,5,0,0,1,5,5v8a5,5,0,0,1,-5,5h-50a5,5,0,0,1,-5,-5v-8a5,5,0,0,1,5,-5z"></path><g id="node_text11" fill="black"><text id="kity_text_223" text-rendering="inherit" font-size="12" dy=".8em" y="375.69999780505896" x="81.50000243633986">政治独裁</text></g></g><g id="minder_node13"><g id="node_expander9" style="cursor: pointer;" display="none"><path id="kity_path_553" fill="white" stroke="gray" d="M104.5000026896596,409.49999821931124A6,6,0,1,1,92.5000026896596,409.49999821931124A6,6,0,1,1,104.5000026896596,409.49999821931124"></path><path id="kity_path_554" fill="none" stroke="gray"></path></g><path id="node_outline10" fill="none" stroke="none" d="M109.50000285357237,400.49999821931124h325a5,5,0,0,1,5,5v8a5,5,0,0,1,-5,5h-325a5,5,0,0,1,-5,-5v-8a5,5,0,0,1,5,-5z"></path><g id="node_text10" fill="black"><text id="kity_text_221" text-rendering="inherit" font-size="12" dy=".8em" y="401.69999819248915" x="109.50000285357237">案例：政府有效率地处理大量的资讯，可能使民主受到影响。</text></g></g><g id="minder_node14"><g id="node_expander18" style="cursor: pointer;"><path id="kity_path_580" fill="white" stroke="gray" d="M48.50000185519457,441.4999986961484A6,6,0,1,1,36.50000185519457,441.4999986961484A6,6,0,1,1,48.50000185519457,441.4999986961484"></path><path id="kity_path_581" fill="none" stroke="gray" d="M38.00000185519457,441.4999986961484L47.00000185519457,441.4999986961484"></path></g><path id="node_outline19" fill="#c2d69b" stroke="none" d="M53.50000239163637,426.4999986961484h73a5,5,0,0,1,5,5v20a5,5,0,0,1,-5,5h-73a5,5,0,0,1,-5,-5v-20a5,5,0,0,1,5,-5z" stroke-width="3"></path><g id="node_text19" fill="white"><text id="kity_text_239" text-rendering="inherit" font-size="24" dy=".8em" y="425.8999986425042" x="78.50000239163637">责任</text></g><g id="node_priority2"><path id="kity_path_385" fill="#01467F" stroke="none" d="M54.00000202655792,444.99999855458736c0,3.866,3.134,7,7,7h6c3.866,0,7,-3.134,7,-7V438.99999855458736H54.00000202655792V444.99999855458736z"></path><path id="kity_path_386" fill="#0074FF" stroke="none" d="M74.00000202655792,441.99999855458736c0,3.866,-3.134,7,-7,7H61.00000202655792c-3.866,0,-7,-3.134,-7,-7V438.99999855458736c0,-3.866,3.134,-7,7,-7h6c3.866,0,7,3.134,7,7V441.99999855458736z" opacity="0.8"></path><text id="kity_text_387" text-rendering="geometricPrecision" x="63.00000201910734" y="441.4999985471368" text-anchor="middle" font-style="italic" font-size="12" fill="white" dy="5">2</text></g></g><g id="minder_node15"><g id="node_expander17" style="cursor: pointer;"><path id="kity_path_577" fill="white" stroke="gray" d="M76.50000227242708,476.49999921768904A6,6,0,1,1,64.50000227242708,476.49999921768904A6,6,0,1,1,76.50000227242708,476.49999921768904"></path><path id="kity_path_578" fill="none" stroke="gray" d="M66.00000227242708,476.49999921768904L75.00000227242708,476.49999921768904"></path></g><path id="node_outline18" fill="#eaf1dd" stroke="none" d="M81.50000243633986,464.49999921768904h216a5,5,0,0,1,5,5v14a5,5,0,0,1,-5,5h-216a5,5,0,0,1,-5,-5v-14a5,5,0,0,1,5,-5z"></path><g id="node_text18" fill="black"><text id="kity_text_237" text-rendering="inherit" font-size="18" dy=".8em" y="464.7999991774559" x="81.50000243633986">论点：机器是否要负责任？</text></g></g><g id="minder_node16"><g id="node_expander15" style="cursor: pointer;"><path id="kity_path_571" fill="white" stroke="gray" d="M104.5000026896596,505.4999996498227A6,6,0,1,1,92.5000026896596,505.4999996498227A6,6,0,1,1,104.5000026896596,505.4999996498227"></path><path id="kity_path_572" fill="none" stroke="gray" d="M94.0000026896596,505.4999996498227L103.0000026896596,505.4999996498227"></path></g><path id="node_outline16" fill="none" stroke="none" d="M109.50000285357237,496.4999996498227h49a5,5,0,0,1,5,5v8a5,5,0,0,1,-5,5h-49a5,5,0,0,1,-5,-5v-8a5,5,0,0,1,5,-5z"></path><g id="node_text16" fill="black"><text id="kity_text_233" text-rendering="inherit" font-size="12" dy=".8em" y="497.6999996230006" x="109.50000285357237">机器学习</text></g></g><g id="minder_node17"><g id="node_expander14" style="cursor: pointer;"><path id="kity_path_568" fill="white" stroke="gray" d="M132.5000031068921,531.5000000372529A6,6,0,1,1,120.50000310689211,531.5000000372529A6,6,0,1,1,132.5000031068921,531.5000000372529"></path><path id="kity_path_569" fill="none" stroke="gray" d="M122.00000310689211,531.5000000372529L131.0000031068921,531.5000000372529"></path></g><path id="node_outline15" fill="none" stroke="none" d="M137.50000327080488,522.5000000372529h40a5,5,0,0,1,5,5v8a5,5,0,0,1,-5,5h-40a5,5,0,0,1,-5,-5v-8a5,5,0,0,1,5,-5z"></path><g id="node_text15" fill="black"><text id="kity_text_231" text-rendering="inherit" font-size="12" dy=".8em" y="523.7000000104308" x="137.50000327080488">大数据.</text></g></g><g id="minder_node18"><g id="node_expander13" style="cursor: pointer;"><path id="kity_path_565" fill="white" stroke="gray" d="M160.50000352412462,557.5000004246831A6,6,0,1,1,148.50000352412462,557.5000004246831A6,6,0,1,1,160.50000352412462,557.5000004246831"></path><path id="kity_path_566" fill="none" stroke="gray" d="M150.00000352412462,557.5000004246831L159.00000352412462,557.5000004246831"></path></g><path id="node_outline14" fill="#eaf1dd" stroke="none" d="M165.5000036880374,548.5000004246831h61a5,5,0,0,1,5,5v8a5,5,0,0,1,-5,5h-61a5,5,0,0,1,-5,-5v-8a5,5,0,0,1,5,-5z"></path><g id="node_text14" fill="black"><text id="kity_text_229" text-rendering="inherit" font-size="12" dy=".8em" y="549.700000397861" x="165.5000036880374">以前的数据</text></g></g><g id="minder_node19"><g id="node_expander12" style="cursor: pointer;" display="none"><path id="kity_path_562" fill="white" stroke="gray" d="M188.50000394135714,583.5000008121133A6,6,0,1,1,176.50000394135714,583.5000008121133A6,6,0,1,1,188.50000394135714,583.5000008121133"></path><path id="kity_path_563" fill="none" stroke="gray"></path></g><path id="node_outline13" fill="none" stroke="none" d="M193.5000041052699,574.5000008121133h49a5,5,0,0,1,5,5v8a5,5,0,0,1,-5,5h-49a5,5,0,0,1,-5,-5v-8a5,5,0,0,1,5,-5z"></path><g id="node_text13" fill="black"><text id="kity_text_227" text-rendering="inherit" font-size="12" dy=".8em" y="575.7000007852912" x="193.5000041052699">继续偏见</text></g></g><g id="minder_node20"><g id="node_expander16" style="cursor: pointer;" display="none"><path id="kity_path_574" fill="white" stroke="gray" d="M104.5000026896596,609.5000011995435A6,6,0,1,1,92.5000026896596,609.5000011995435A6,6,0,1,1,104.5000026896596,609.5000011995435"></path><path id="kity_path_575" fill="none" stroke="gray"></path></g><path id="node_outline17" fill="none" stroke="none" d="M109.50000285357237,600.5000011995435h86a5,5,0,0,1,5,5v8a5,5,0,0,1,-5,5h-86a5,5,0,0,1,-5,-5v-8a5,5,0,0,1,5,-5z"></path><g id="node_text17" fill="black"><text id="kity_text_235" text-rendering="inherit" font-size="12" dy=".8em" y="601.7000011727214" x="109.50000285357237">案例：招聘软件</text></g></g><g id="minder_node21"><g id="node_expander22" style="cursor: pointer;"><path id="kity_path_592" fill="white" stroke="gray" d="M48.50000185519457,641.5000016763806A6,6,0,1,1,36.50000185519457,641.5000016763806A6,6,0,1,1,48.50000185519457,641.5000016763806"></path><path id="kity_path_593" fill="none" stroke="gray" d="M38.00000185519457,641.5000016763806L47.00000185519457,641.5000016763806"></path></g><path id="node_outline23" fill="#c2d69b" stroke="none" d="M53.50000239163637,626.5000016763806h73a5,5,0,0,1,5,5v20a5,5,0,0,1,-5,5h-73a5,5,0,0,1,-5,-5v-20a5,5,0,0,1,5,-5z" stroke-width="3"></path><g id="node_text23" fill="white"><text id="kity_text_247" text-rendering="inherit" font-size="24" dy=".8em" y="625.9000016227365" x="78.50000239163637">数据</text></g><g id="node_priority3"><path id="kity_path_390" fill="#006300" stroke="none" d="M54.00000202655792,645.0000015348196c0,3.866,3.134,7,7,7h6c3.866,0,7,-3.134,7,-7V639.0000015348196H54.00000202655792V645.0000015348196z"></path><path id="kity_path_391" fill="#00AF00" stroke="none" d="M74.00000202655792,642.0000015348196c0,3.866,-3.134,7,-7,7H61.00000202655792c-3.866,0,-7,-3.134,-7,-7V639.0000015348196c0,-3.866,3.134,-7,7,-7h6c3.866,0,7,3.134,7,7V642.0000015348196z" opacity="0.8"></path><text id="kity_text_392" text-rendering="geometricPrecision" x="63.00000201910734" y="641.500001527369" text-anchor="middle" font-style="italic" font-size="12" fill="white" dy="5">3</text></g></g><g id="minder_node22"><g id="node_expander21" style="cursor: pointer;"><path id="kity_path_589" fill="white" stroke="gray" d="M76.50000227242708,676.5000021979213A6,6,0,1,1,64.50000227242708,676.5000021979213A6,6,0,1,1,76.50000227242708,676.5000021979213"></path><path id="kity_path_590" fill="none" stroke="gray" d="M66.00000227242708,676.5000021979213L75.00000227242708,676.5000021979213"></path></g><path id="node_outline22" fill="#eaf1dd" stroke="none" d="M81.50000243633986,664.5000021979213h325a5,5,0,0,1,5,5v14a5,5,0,0,1,-5,5h-325a5,5,0,0,1,-5,-5v-14a5,5,0,0,1,5,-5z"></path><g id="node_text22" fill="black"><text id="kity_text_245" text-rendering="inherit" font-size="18" dy=".8em" y="664.8000021576881" x="81.50000243633986">分论点：数据是我们表达现实所用的工具</text></g></g><g id="minder_node23"><g id="node_expander19" style="cursor: pointer;" display="none"><path id="kity_path_583" fill="white" stroke="gray" d="M104.5000026896596,705.500002630055A6,6,0,1,1,92.5000026896596,705.500002630055A6,6,0,1,1,104.5000026896596,705.500002630055"></path><path id="kity_path_584" fill="none" stroke="gray"></path></g><path id="node_outline20" fill="none" stroke="none" d="M109.50000285357237,696.500002630055h48a5,5,0,0,1,5,5v8a5,5,0,0,1,-5,5h-48a5,5,0,0,1,-5,-5v-8a5,5,0,0,1,5,-5z"></path><g id="node_text20" fill="black"><text id="kity_text_241" text-rendering="inherit" font-size="12" dy=".8em" y="697.7000026032329" x="109.50000285357237">用于总结</text></g></g><g id="minder_node24"><g id="node_expander20" style="cursor: pointer;" display="none"><path id="kity_path_586" fill="white" stroke="gray" d="M104.5000026896596,731.5000030174851A6,6,0,1,1,92.5000026896596,731.5000030174851A6,6,0,1,1,104.5000026896596,731.5000030174851"></path><path id="kity_path_587" fill="none" stroke="gray"></path></g><path id="node_outline21" fill="none" stroke="none" d="M109.50000285357237,722.5000030174851h62a5,5,0,0,1,5,5v8a5,5,0,0,1,-5,5h-62a5,5,0,0,1,-5,-5v-8a5,5,0,0,1,5,-5z"></path><g id="node_text21" fill="black"><text id="kity_text_243" text-rendering="inherit" font-size="12" dy=".8em" y="723.700002990663" x="109.50000285357237">信息可视化</text></g></g><g id="minder_node25"><g id="node_expander29" style="cursor: pointer;"><path id="kity_path_613" fill="white" stroke="gray" d="M48.50000185519457,763.5000034943223A6,6,0,1,1,36.50000185519457,763.5000034943223A6,6,0,1,1,48.50000185519457,763.5000034943223"></path><path id="kity_path_614" fill="none" stroke="gray" d="M38.00000185519457,763.5000034943223L47.00000185519457,763.5000034943223"></path></g><path id="node_outline30" fill="#c2d69b" stroke="none" d="M53.50000239163637,748.5000034943223h73a5,5,0,0,1,5,5v20a5,5,0,0,1,-5,5h-73a5,5,0,0,1,-5,-5v-20a5,5,0,0,1,5,-5z" stroke-width="3"></path><g id="node_text30" fill="white"><text id="kity_text_261" text-rendering="inherit" font-size="24" dy=".8em" y="747.9000034406781" x="78.50000239163637">时间</text></g><g id="node_priority4"><path id="kity_path_395" fill="#B25000" stroke="none" d="M54.00000202655792,767.0000033527613c0,3.866,3.134,7,7,7h6c3.866,0,7,-3.134,7,-7V761.0000033527613H54.00000202655792V767.0000033527613z"></path><path id="kity_path_396" fill="#FF962E" stroke="none" d="M74.00000202655792,764.0000033527613c0,3.866,-3.134,7,-7,7H61.00000202655792c-3.866,0,-7,-3.134,-7,-7V761.0000033527613c0,-3.866,3.134,-7,7,-7h6c3.866,0,7,3.134,7,7V764.0000033527613z" opacity="0.8"></path><text id="kity_text_397" text-rendering="geometricPrecision" x="63.00000201910734" y="763.5000033453107" text-anchor="middle" font-style="italic" font-size="12" fill="white" dy="5">4</text></g></g><g id="minder_node26"><g id="node_expander28" style="cursor: pointer;"><path id="kity_path_610" fill="white" stroke="gray" d="M76.50000227242708,798.5000040158629A6,6,0,1,1,64.50000227242708,798.5000040158629A6,6,0,1,1,76.50000227242708,798.5000040158629"></path><path id="kity_path_611" fill="none" stroke="gray" d="M66.00000227242708,798.5000040158629L75.00000227242708,798.5000040158629"></path></g><path id="node_outline29" fill="#eaf1dd" stroke="none" d="M81.50000243633986,786.5000040158629h540a5,5,0,0,1,5,5v14a5,5,0,0,1,-5,5h-540a5,5,0,0,1,-5,-5v-14a5,5,0,0,1,5,-5z" stroke-width="3"></path><g id="node_text29" fill="black"><text id="kity_text_259" text-rendering="inherit" font-size="18" dy=".8em" y="786.8000039756298" x="81.50000243633986">论点：使用大量电子产品占据大量时间，我们却没有因此更加幸福。</text></g></g><g id="minder_node27"><g id="node_expander24" style="cursor: pointer;"><path id="kity_path_598" fill="white" stroke="gray" d="M104.5000026896596,827.5000044479966A6,6,0,1,1,92.5000026896596,827.5000044479966A6,6,0,1,1,104.5000026896596,827.5000044479966"></path><path id="kity_path_599" fill="none" stroke="gray" d="M94.0000026896596,827.5000044479966L103.0000026896596,827.5000044479966"></path></g><path id="node_outline25" fill="#eaf1dd" stroke="none" d="M109.50000285357237,818.5000044479966h37a5,5,0,0,1,5,5v8a5,5,0,0,1,-5,5h-37a5,5,0,0,1,-5,-5v-8a5,5,0,0,1,5,-5z"></path><g id="node_text25" fill="black"><text id="kity_text_251" text-rendering="inherit" font-size="12" dy=".8em" y="819.7000044211745" x="109.50000285357237">注意力</text></g></g><g id="minder_node28"><g id="node_expander23" style="cursor: pointer;" display="none"><path id="kity_path_595" fill="white" stroke="gray" d="M132.5000031068921,853.5000048354268A6,6,0,1,1,120.50000310689211,853.5000048354268A6,6,0,1,1,132.5000031068921,853.5000048354268"></path><path id="kity_path_596" fill="none" stroke="gray"></path></g><path id="node_outline24" fill="none" stroke="none" d="M137.50000327080488,844.5000048354268h98a5,5,0,0,1,5,5v8a5,5,0,0,1,-5,5h-98a5,5,0,0,1,-5,-5v-8a5,5,0,0,1,5,-5z"></path><g id="node_text24" fill="black"><text id="kity_text_249" text-rendering="inherit" font-size="12" dy=".8em" y="845.7000048086047" x="137.50000327080488">成为被争抢的对象</text></g></g><g id="minder_node29"><g id="node_expander26" style="cursor: pointer;"><path id="kity_path_604" fill="white" stroke="gray" d="M104.5000026896596,879.500005222857A6,6,0,1,1,92.5000026896596,879.500005222857A6,6,0,1,1,104.5000026896596,879.500005222857"></path><path id="kity_path_605" fill="none" stroke="gray" d="M94.0000026896596,879.500005222857L103.0000026896596,879.500005222857"></path></g><path id="node_outline27" fill="#eaf1dd" stroke="none" d="M109.50000285357237,870.500005222857h37a5,5,0,0,1,5,5v8a5,5,0,0,1,-5,5h-37a5,5,0,0,1,-5,-5v-8a5,5,0,0,1,5,-5z"></path><g id="node_text27" fill="black"><text id="kity_text_255" text-rendering="inherit" font-size="12" dy=".8em" y="871.7000051960349" x="109.50000285357237">控制室</text></g></g><g id="minder_node30"><g id="node_expander25" style="cursor: pointer;" display="none"><path id="kity_path_601" fill="white" stroke="gray" d="M132.5000031068921,905.5000056102872A6,6,0,1,1,120.50000310689211,905.5000056102872A6,6,0,1,1,132.5000031068921,905.5000056102872"></path><path id="kity_path_602" fill="none" stroke="gray"></path></g><path id="node_outline26" fill="none" stroke="none" d="M137.50000327080488,896.5000056102872h409a5,5,0,0,1,5,5v8a5,5,0,0,1,-5,5h-409a5,5,0,0,1,-5,-5v-8a5,5,0,0,1,5,-5z"></path><g id="node_text26" fill="black"><text id="kity_text_253" text-rendering="inherit" font-size="12" dy=".8em" y="897.7000055834651" x="137.50000327080488">案例：吸引你的注意力影响你的情绪，此时我的情绪被触发，不是我的本意。</text></g></g><g id="minder_node31"><g id="node_expander27" style="cursor: pointer;" display="none"><path id="kity_path_607" fill="white" stroke="gray" d="M104.5000026896596,931.5000059977174A6,6,0,1,1,92.5000026896596,931.5000059977174A6,6,0,1,1,104.5000026896596,931.5000059977174"></path><path id="kity_path_608" fill="none" stroke="gray"></path></g><path id="node_outline28" fill="none" stroke="none" d="M109.50000285357237,922.5000059977174h289a5,5,0,0,1,5,5v8a5,5,0,0,1,-5,5h-289a5,5,0,0,1,-5,-5v-8a5,5,0,0,1,5,-5z"></path><g id="node_text28" fill="black"><text id="kity_text_257" text-rendering="inherit" font-size="12" dy=".8em" y="923.7000059708953" x="109.50000285357237">案例：社交软件公司会分析我们的动态，发出的照片。</text></g></g><g id="minder_node32"><g id="node_expander57" style="cursor: pointer;"><path id="kity_path_697" fill="white" stroke="gray" d="M700.5000115707517,65.49999309331179A6,6,0,1,1,688.5000115707517,65.49999309331179A6,6,0,1,1,700.5000115707517,65.49999309331179"></path><path id="kity_path_698" fill="none" stroke="gray" d="M690.0000115707517,65.49999309331179L699.0000115707517,65.49999309331179"></path></g><path id="node_outline58" fill="#76923c" stroke="rgb(115, 191, 118)" d="M645.5000110939145,72.49999352544546h98a3,3,0,0,1,3,3v38a3,3,0,0,1,-3,3h-98a3,3,0,0,1,-3,-3v-38a3,3,0,0,1,3,-3z" stroke-width="1"></path><g id="node_text58" fill="#ffffff"><text id="kity_text_317" text-rendering="inherit" font-size="32" dy=".8em" y="73.69999345391989" x="662.5000110939145">娱乐</text></g></g><g id="minder_node33"><g id="node_expander37" style="cursor: pointer;"><path id="kity_path_637" fill="white" stroke="gray" d="M670.5000111237168,143.49999425560236A6,6,0,1,1,658.5000111237168,143.49999425560236A6,6,0,1,1,670.5000111237168,143.49999425560236"></path><path id="kity_path_638" fill="none" stroke="gray" d="M660.0000111237168,143.49999425560236L669.0000111237168,143.49999425560236"></path></g><path id="node_outline38" fill="#c2d69b" stroke="none" d="M675.5000116601586,128.49999425560236h121a5,5,0,0,1,5,5v20a5,5,0,0,1,-5,5h-121a5,5,0,0,1,-5,-5v-20a5,5,0,0,1,5,-5z" stroke-width="3"></path><g id="node_text38" fill="white"><text id="kity_text_277" text-rendering="inherit" font-size="24" dy=".8em" y="127.89999420195818" x="700.5000116601586">社交网络</text></g><g id="node_priority5"><path id="kity_path_400" fill="#840023" stroke="none" d="M676.0000112950802,146.99999411404133c0,3.866,3.134,7,7,7h6c3.866,0,7,-3.134,7,-7V140.99999411404133H676.0000112950802V146.99999411404133z"></path><path id="kity_path_401" fill="#FF1200" stroke="none" d="M696.0000112950802,143.99999411404133c0,3.866,-3.134,7,-7,7H683.0000112950802c-3.866,0,-7,-3.134,-7,-7V140.99999411404133c0,-3.866,3.134,-7,7,-7h6c3.866,0,7,3.134,7,7V143.99999411404133z" opacity="0.8"></path><text id="kity_text_402" text-rendering="geometricPrecision" x="685.0000112876296" y="143.49999410659075" text-anchor="middle" font-style="italic" font-size="12" fill="white" dy="5">1</text></g></g><g id="minder_node34"><g id="node_expander33" style="cursor: pointer;"><path id="kity_path_625" fill="white" stroke="gray" d="M709.5000117048621,260.4999959990382A6,6,0,1,1,697.5000117048621,260.4999959990382A6,6,0,1,1,709.5000117048621,260.4999959990382"></path><path id="kity_path_626" fill="none" stroke="gray" d="M699.0000117048621,260.4999959990382L708.0000117048621,260.4999959990382"></path></g><path id="node_outline34" fill="#eaf1dd" stroke="none" d="M714.5000118687749,248.49999599903822h523a5,5,0,0,1,5,5v14a5,5,0,0,1,-5,5h-523a5,5,0,0,1,-5,-5v-14a5,5,0,0,1,5,-5z"></path><g id="node_text34" fill="black"><text id="kity_text_269" text-rendering="inherit" font-size="18" dy=".8em" y="248.79999595880508" x="714.5000118687749">分论点：提供信息是媒体的责任，选择阅读哪些才是我们该做的。</text></g></g><g id="minder_node35"><g id="node_expander31" style="cursor: pointer;" display="none"><path id="kity_path_619" fill="white" stroke="gray" d="M737.5000121220946,289.4999964311719A6,6,0,1,1,725.5000121220946,289.4999964311719A6,6,0,1,1,737.5000121220946,289.4999964311719"></path><path id="kity_path_620" fill="none" stroke="gray"></path></g><path id="node_outline32" fill="none" stroke="none" d="M742.5000122860074,280.4999964311719h386a5,5,0,0,1,5,5v8a5,5,0,0,1,-5,5h-386a5,5,0,0,1,-5,-5v-8a5,5,0,0,1,5,-5z"></path><g id="node_text32" fill="black"><text id="kity_text_265" text-rendering="inherit" font-size="12" dy=".8em" y="281.6999964043498" x="742.5000122860074">解释：我们深陷过滤过的信息中，得不到能挑战或拓展我们世界观的信息</text></g></g><g id="minder_node36"><g id="node_expander32" style="cursor: pointer;" display="none"><path id="kity_path_622" fill="white" stroke="gray" d="M737.5000121220946,315.4999968186021A6,6,0,1,1,725.5000121220946,315.4999968186021A6,6,0,1,1,737.5000121220946,315.4999968186021"></path><path id="kity_path_623" fill="none" stroke="gray"></path></g><path id="node_outline33" fill="none" stroke="none" d="M742.5000122860074,306.4999968186021h362a5,5,0,0,1,5,5v8a5,5,0,0,1,-5,5h-362a5,5,0,0,1,-5,-5v-8a5,5,0,0,1,5,-5z"></path><g id="node_text33" fill="black"><text id="kity_text_267" text-rendering="inherit" font-size="12" dy=".8em" y="307.69999679178" x="742.5000122860074">案例：网络公司努力为迎合个人喜好而调整其服务如新闻和搜索结果</text></g></g><g id="minder_node37"><g id="node_expander36" style="cursor: pointer;"><path id="kity_path_634" fill="white" stroke="gray" d="M699.5000115558505,174.49999471753836A6,6,0,1,1,687.5000115558505,174.49999471753836A6,6,0,1,1,699.5000115558505,174.49999471753836"></path><path id="kity_path_635" fill="none" stroke="gray" d="M689.0000115558505,174.49999471753836L698.0000115558505,174.49999471753836"></path></g><path id="node_outline37" fill="none" stroke="none" d="M704.5000117197633,165.49999471753836h60a5,5,0,0,1,5,5v8a5,5,0,0,1,-5,5h-60a5,5,0,0,1,-5,-5v-8a5,5,0,0,1,5,-5z"></path><g id="node_text37" fill="black"><text id="kity_text_275" text-rendering="inherit" font-size="12" dy=".8em" y="166.69999469071627" x="704.5000117197633">“同温层”</text></g></g><g id="minder_node38"><g id="node_expander34" style="cursor: pointer;" display="none"><path id="kity_path_628" fill="white" stroke="gray" d="M727.500011973083,200.49999510496855A6,6,0,1,1,715.500011973083,200.49999510496855A6,6,0,1,1,727.500011973083,200.49999510496855"></path><path id="kity_path_629" fill="none" stroke="gray"></path></g><path id="node_outline35" fill="none" stroke="none" d="M732.5000121369958,191.49999510496855h72a5,5,0,0,1,5,5v8a5,5,0,0,1,-5,5h-72a5,5,0,0,1,-5,-5v-8a5,5,0,0,1,5,-5z"></path><g id="node_text35" fill="black"><text id="kity_text_271" text-rendering="inherit" font-size="12" dy=".8em" y="192.69999507814646" x="732.5000121369958">“过滤泡沫”</text></g></g><g id="minder_node39"><g id="node_expander35" style="cursor: pointer;" display="none"><path id="kity_path_631" fill="white" stroke="gray" d="M727.500011973083,226.49999549239874A6,6,0,1,1,715.500011973083,226.49999549239874A6,6,0,1,1,727.500011973083,226.49999549239874"></path><path id="kity_path_632" fill="none" stroke="gray"></path></g><path id="node_outline36" fill="none" stroke="none" d="M732.5000121369958,217.49999549239874h49a5,5,0,0,1,5,5v8a5,5,0,0,1,-5,5h-49a5,5,0,0,1,-5,-5v-8a5,5,0,0,1,5,-5z"></path><g id="node_text36" fill="black"><text id="kity_text_273" text-rendering="inherit" font-size="12" dy=".8em" y="218.69999546557665" x="732.5000121369958">新闻自由</text></g></g><g id="minder_node40"><g id="node_expander46" style="cursor: pointer;"><path id="kity_path_664" fill="white" stroke="gray" d="M672.5000111535192,384.4999978467822A6,6,0,1,1,660.5000111535192,384.4999978467822A6,6,0,1,1,672.5000111535192,384.4999978467822"></path><path id="kity_path_665" fill="none" stroke="gray" d="M662.0000111535192,384.4999978467822L671.0000111535192,384.4999978467822"></path></g><path id="node_outline47" fill="#c2d69b" stroke="none" d="M677.500011689961,369.4999978467822h74a5,5,0,0,1,5,5v20a5,5,0,0,1,-5,5h-74a5,5,0,0,1,-5,-5v-20a5,5,0,0,1,5,-5z" stroke-width="3"></path><g id="node_text47" fill="white"><text id="kity_text_295" text-rendering="inherit" font-size="24" dy=".8em" y="368.899997793138" x="702.500011689961">成瘾</text></g><g id="node_priority6"><path id="kity_path_405" fill="#01467F" stroke="none" d="M678.0000113248825,387.9999977052212c0,3.866,3.134,7,7,7h6c3.866,0,7,-3.134,7,-7V381.9999977052212H678.0000113248825V387.9999977052212z"></path><path id="kity_path_406" fill="#0074FF" stroke="none" d="M698.0000113248825,384.9999977052212c0,3.866,-3.134,7,-7,7H685.0000113248825c-3.866,0,-7,-3.134,-7,-7V381.9999977052212c0,-3.866,3.134,-7,7,-7h6c3.866,0,7,3.134,7,7V384.9999977052212z" opacity="0.8"></path><text id="kity_text_407" text-rendering="geometricPrecision" x="687.0000113174319" y="384.4999976977706" text-anchor="middle" font-style="italic" font-size="12" fill="white" dy="5">2</text></g></g><g id="minder_node41"><g id="node_expander39" style="cursor: pointer;"><path id="kity_path_643" fill="white" stroke="gray" d="M700.5000115707517,416.49999832361937A6,6,0,1,1,688.5000115707517,416.49999832361937A6,6,0,1,1,700.5000115707517,416.49999832361937"></path><path id="kity_path_644" fill="none" stroke="gray" d="M690.0000115707517,416.49999832361937L699.0000115707517,416.49999832361937"></path></g><path id="node_outline40" fill="none" stroke="none" d="M705.5000117346644,407.49999832361937h49a5,5,0,0,1,5,5v8a5,5,0,0,1,-5,5h-49a5,5,0,0,1,-5,-5v-8a5,5,0,0,1,5,-5z"></path><g id="node_text40" fill="black"><text id="kity_text_281" text-rendering="inherit" font-size="12" dy=".8em" y="408.6999982967973" x="705.5000117346644">成瘾机制</text></g></g><g id="minder_node42"><g id="node_expander38" style="cursor: pointer;" display="none"><path id="kity_path_640" fill="white" stroke="gray" d="M728.5000119879842,442.49999871104956A6,6,0,1,1,716.5000119879842,442.49999871104956A6,6,0,1,1,728.5000119879842,442.49999871104956"></path><path id="kity_path_641" fill="none" stroke="gray"></path></g><path id="node_outline39" fill="none" stroke="none" d="M733.500012151897,433.49999871104956h74a5,5,0,0,1,5,5v8a5,5,0,0,1,-5,5h-74a5,5,0,0,1,-5,-5v-8a5,5,0,0,1,5,-5z"></path><g id="node_text39" fill="black"><text id="kity_text_279" text-rendering="inherit" font-size="12" dy=".8em" y="434.69999868422747" x="733.500012151897">大脑持续亢奋</text></g></g><g id="minder_node43"><g id="node_expander42" style="cursor: pointer;"><path id="kity_path_652" fill="white" stroke="gray" d="M700.5000115707517,471.49999914318323A6,6,0,1,1,688.5000115707517,471.49999914318323A6,6,0,1,1,700.5000115707517,471.49999914318323"></path><path id="kity_path_653" fill="none" stroke="gray" d="M690.0000115707517,471.49999914318323L699.0000115707517,471.49999914318323"></path></g><path id="node_outline43" fill="#eaf1dd" stroke="none" d="M705.5000117346644,459.49999914318323h234a5,5,0,0,1,5,5v14a5,5,0,0,1,-5,5h-234a5,5,0,0,1,-5,-5v-14a5,5,0,0,1,5,-5z"></path><g id="node_text43" fill="black"><text id="kity_text_287" text-rendering="inherit" font-size="18" dy=".8em" y="459.7999991029501" x="705.5000117346644">论点：成瘾会消耗大量注意力</text></g></g><g id="minder_node44"><g id="node_expander40" style="cursor: pointer;" display="none"><path id="kity_path_646" fill="white" stroke="gray" d="M728.5000119879842,500.4999995753169A6,6,0,1,1,716.5000119879842,500.4999995753169A6,6,0,1,1,728.5000119879842,500.4999995753169"></path><path id="kity_path_647" fill="none" stroke="gray"></path></g><path id="node_outline41" fill="none" stroke="none" d="M733.500012151897,491.4999995753169h24a5,5,0,0,1,5,5v8a5,5,0,0,1,-5,5h-24a5,5,0,0,1,-5,-5v-8a5,5,0,0,1,5,-5z"></path><g id="node_text41" fill="black"><text id="kity_text_283" text-rendering="inherit" font-size="12" dy=".8em" y="492.6999995484948" x="733.500012151897">时间</text></g></g><g id="minder_node45"><g id="node_expander41" style="cursor: pointer;" display="none"><path id="kity_path_649" fill="white" stroke="gray" d="M728.5000119879842,526.4999999627471A6,6,0,1,1,716.5000119879842,526.4999999627471A6,6,0,1,1,728.5000119879842,526.4999999627471"></path><path id="kity_path_650" fill="none" stroke="gray"></path></g><path id="node_outline42" fill="none" stroke="none" d="M733.500012151897,517.4999999627471h26a5,5,0,0,1,5,5v8a5,5,0,0,1,-5,5h-26a5,5,0,0,1,-5,-5v-8a5,5,0,0,1,5,-5z"></path><g id="node_text42" fill="black"><text id="kity_text_285" text-rendering="inherit" font-size="12" dy=".8em" y="518.699999935925" x="733.500012151897">金钱</text></g></g><g id="minder_node46"><g id="node_expander45" style="cursor: pointer;"><path id="kity_path_661" fill="white" stroke="gray" d="M699.5000115558505,575.500000692904A6,6,0,1,1,687.5000115558505,575.500000692904A6,6,0,1,1,699.5000115558505,575.500000692904"></path><path id="kity_path_662" fill="none" stroke="gray" d="M689.0000115558505,575.500000692904L698.0000115558505,575.500000692904"></path></g><path id="node_outline46" fill="#eaf1dd" stroke="none" d="M704.5000117197633,563.500000692904h451a5,5,0,0,1,5,5v14a5,5,0,0,1,-5,5h-451a5,5,0,0,1,-5,-5v-14a5,5,0,0,1,5,-5z"></path><g id="node_text46" fill="black"><text id="kity_text_293" text-rendering="inherit" font-size="18" dy=".8em" y="563.8000006526709" x="704.5000117197633">分论点：上瘾是依赖，是对生活的无奈，与外界的失联。</text></g></g><g id="minder_node47"><g id="node_expander43" style="cursor: pointer;" display="none"><path id="kity_path_655" fill="white" stroke="gray" d="M727.500011973083,604.5000011250377A6,6,0,1,1,715.500011973083,604.5000011250377A6,6,0,1,1,727.500011973083,604.5000011250377"></path><path id="kity_path_656" fill="none" stroke="gray"></path></g><path id="node_outline44" fill="none" stroke="none" d="M732.5000121369958,595.5000011250377h277a5,5,0,0,1,5,5v8a5,5,0,0,1,-5,5h-277a5,5,0,0,1,-5,-5v-8a5,5,0,0,1,5,-5z" stroke-width="3"></path><g id="node_text44" fill="black"><text id="kity_text_289" text-rendering="inherit" font-size="12" dy=".8em" y="596.7000010982156" x="732.5000121369958">案例：吸毒者与社会失去联系，所以才会选择吸毒。</text></g></g><g id="minder_node48"><g id="node_expander44" style="cursor: pointer;" display="none"><path id="kity_path_658" fill="white" stroke="gray" d="M727.500011973083,630.5000015124679A6,6,0,1,1,715.500011973083,630.5000015124679A6,6,0,1,1,727.500011973083,630.5000015124679"></path><path id="kity_path_659" fill="none" stroke="gray"></path></g><path id="node_outline45" fill="none" stroke="none" d="M732.5000121369958,621.5000015124679h265a5,5,0,0,1,5,5v8a5,5,0,0,1,-5,5h-265a5,5,0,0,1,-5,-5v-8a5,5,0,0,1,5,-5z" stroke-width="3"></path><g id="node_text45" fill="black"><text id="kity_text_291" text-rendering="inherit" font-size="12" dy=".8em" y="622.7000014856458" x="732.5000121369958">案例：美国青少年沉迷色情片，缺乏沟通与交流。</text></g></g><g id="minder_node49"><g id="node_expander52" style="cursor: pointer;"><path id="kity_path_682" fill="white" stroke="gray" d="M664.5000110343099,680.5000022575259A6,6,0,1,1,652.5000110343099,680.5000022575259A6,6,0,1,1,664.5000110343099,680.5000022575259"></path><path id="kity_path_683" fill="none" stroke="gray" d="M654.0000110343099,680.5000022575259L663.0000110343099,680.5000022575259"></path></g><path id="node_outline53" fill="#c2d69b" stroke="none" d="M669.5000115707517,665.5000022575259h121a5,5,0,0,1,5,5v20a5,5,0,0,1,-5,5h-121a5,5,0,0,1,-5,-5v-20a5,5,0,0,1,5,-5z" stroke-width="3"></path><g id="node_text53" fill="white"><text id="kity_text_307" text-rendering="inherit" font-size="24" dy=".8em" y="664.9000022038817" x="694.5000115707517">情感线索</text></g><g id="node_priority7"><path id="kity_path_410" fill="#006300" stroke="none" d="M670.0000112056732,684.0000021159649c0,3.866,3.134,7,7,7h6c3.866,0,7,-3.134,7,-7V678.0000021159649H670.0000112056732V684.0000021159649z"></path><path id="kity_path_411" fill="#00AF00" stroke="none" d="M690.0000112056732,681.0000021159649c0,3.866,-3.134,7,-7,7H677.0000112056732c-3.866,0,-7,-3.134,-7,-7V678.0000021159649c0,-3.866,3.134,-7,7,-7h6c3.866,0,7,3.134,7,7V681.0000021159649z" opacity="0.8"></path><text id="kity_text_412" text-rendering="geometricPrecision" x="679.0000111982226" y="680.5000021085143" text-anchor="middle" font-style="italic" font-size="12" fill="white" dy="5">3</text></g></g><g id="minder_node50"><g id="node_expander48" style="cursor: pointer;"><path id="kity_path_670" fill="white" stroke="gray" d="M692.5000114515424,712.5000027343631A6,6,0,1,1,680.5000114515424,712.5000027343631A6,6,0,1,1,692.5000114515424,712.5000027343631"></path><path id="kity_path_671" fill="none" stroke="gray" d="M682.0000114515424,712.5000027343631L691.0000114515424,712.5000027343631"></path></g><path id="node_outline49" fill="none" stroke="none" d="M697.5000116154552,703.5000027343631h25a5,5,0,0,1,5,5v8a5,5,0,0,1,-5,5h-25a5,5,0,0,1,-5,-5v-8a5,5,0,0,1,5,-5z"></path><g id="node_text49" fill="black"><text id="kity_text_299" text-rendering="inherit" font-size="12" dy=".8em" y="704.700002707541" x="697.5000116154552">压抑</text></g></g><g id="minder_node51"><g id="node_expander47" style="cursor: pointer;" display="none"><path id="kity_path_667" fill="white" stroke="gray" d="M720.5000118687749,738.5000031217933A6,6,0,1,1,708.5000118687749,738.5000031217933A6,6,0,1,1,720.5000118687749,738.5000031217933"></path><path id="kity_path_668" fill="none" stroke="gray"></path></g><path id="node_outline48" fill="none" stroke="none" d="M725.5000120326877,729.5000031217933h25a5,5,0,0,1,5,5v8a5,5,0,0,1,-5,5h-25a5,5,0,0,1,-5,-5v-8a5,5,0,0,1,5,-5z"></path><g id="node_text48" fill="black"><text id="kity_text_297" text-rendering="inherit" font-size="12" dy=".8em" y="730.7000030949712" x="725.5000120326877">无效</text></g></g><g id="minder_node52"><g id="node_expander51" style="cursor: pointer;"><path id="kity_path_679" fill="white" stroke="gray" d="M692.5000114515424,764.5000035092235A6,6,0,1,1,680.5000114515424,764.5000035092235A6,6,0,1,1,692.5000114515424,764.5000035092235"></path><path id="kity_path_680" fill="none" stroke="gray" d="M682.0000114515424,764.5000035092235L691.0000114515424,764.5000035092235"></path></g><path id="node_outline52" fill="none" stroke="none" d="M697.5000116154552,755.5000035092235h25a5,5,0,0,1,5,5v8a5,5,0,0,1,-5,5h-25a5,5,0,0,1,-5,-5v-8a5,5,0,0,1,5,-5z"></path><g id="node_text52" fill="black"><text id="kity_text_305" text-rendering="inherit" font-size="12" dy=".8em" y="756.7000034824014" x="697.5000116154552">情绪</text></g></g><g id="minder_node53"><g id="node_expander50" style="cursor: pointer;"><path id="kity_path_676" fill="white" stroke="gray" d="M720.5000118687749,790.5000038966537A6,6,0,1,1,708.5000118687749,790.5000038966537A6,6,0,1,1,720.5000118687749,790.5000038966537"></path><path id="kity_path_677" fill="none" stroke="gray" d="M710.0000118687749,790.5000038966537L719.0000118687749,790.5000038966537"></path></g><path id="node_outline51" fill="none" stroke="none" d="M725.5000120326877,781.5000038966537h62a5,5,0,0,1,5,5v8a5,5,0,0,1,-5,5h-62a5,5,0,0,1,-5,-5v-8a5,5,0,0,1,5,-5z"></path><g id="node_text51" fill="black"><text id="kity_text_303" text-rendering="inherit" font-size="12" dy=".8em" y="782.7000038698316" x="725.5000120326877">过去的经验</text></g></g><g id="minder_node54"><g id="node_expander49" style="cursor: pointer;" display="none"><path id="kity_path_673" fill="white" stroke="gray" d="M748.5000122860074,816.5000042840838A6,6,0,1,1,736.5000122860074,816.5000042840838A6,6,0,1,1,748.5000122860074,816.5000042840838"></path><path id="kity_path_674" fill="none" stroke="gray"></path></g><path id="node_outline50" fill="none" stroke="none" d="M753.5000124499202,807.5000042840838h337a5,5,0,0,1,5,5v8a5,5,0,0,1,-5,5h-337a5,5,0,0,1,-5,-5v-8a5,5,0,0,1,5,-5z"></path><g id="node_text50" fill="black"><text id="kity_text_301" text-rendering="inherit" font-size="12" dy=".8em" y="808.7000042572618" x="753.5000124499202">解释：当我想推测别人的情绪，其实一部分情绪来自我的脑袋。</text></g></g><g id="minder_node55"><g id="node_expander56" style="cursor: pointer;"><path id="kity_path_694" fill="white" stroke="gray" d="M675.5000111982226,873.50000513345A6,6,0,1,1,663.5000111982226,873.50000513345A6,6,0,1,1,675.5000111982226,873.50000513345"></path><path id="kity_path_695" fill="none" stroke="gray" d="M665.0000111982226,873.50000513345L674.0000111982226,873.50000513345"></path></g><path id="node_outline57" fill="#c2d69b" stroke="none" d="M680.5000117346644,858.50000513345h73a5,5,0,0,1,5,5v20a5,5,0,0,1,-5,5h-73a5,5,0,0,1,-5,-5v-20a5,5,0,0,1,5,-5z" stroke-width="3"></path><g id="node_text57" fill="white"><text id="kity_text_315" text-rendering="inherit" font-size="24" dy=".8em" y="857.9000050798059" x="705.5000117346644">态度</text></g><g id="node_priority8"><path id="kity_path_415" fill="#B25000" stroke="none" d="M681.000011369586,877.000004991889c0,3.866,3.134,7,7,7h6c3.866,0,7,-3.134,7,-7V871.000004991889H681.000011369586V877.000004991889z"></path><path id="kity_path_416" fill="#FF962E" stroke="none" d="M701.000011369586,874.000004991889c0,3.866,-3.134,7,-7,7H688.000011369586c-3.866,0,-7,-3.134,-7,-7V871.000004991889c0,-3.866,3.134,-7,7,-7h6c3.866,0,7,3.134,7,7V874.000004991889z" opacity="0.8"></path><text id="kity_text_417" text-rendering="geometricPrecision" x="690.0000113621354" y="873.5000049844384" text-anchor="middle" font-style="italic" font-size="12" fill="white" dy="5">4</text></g></g><g id="minder_node56"><g id="node_expander53" style="cursor: pointer;" display="none"><path id="kity_path_685" fill="white" stroke="gray" d="M703.5000116154552,905.5000056102872A6,6,0,1,1,691.5000116154552,905.5000056102872A6,6,0,1,1,703.5000116154552,905.5000056102872"></path><path id="kity_path_686" fill="none" stroke="gray"></path></g><path id="node_outline54" fill="#eaf1dd" stroke="none" d="M708.5000117793679,896.5000056102872h217a5,5,0,0,1,5,5v8a5,5,0,0,1,-5,5h-217a5,5,0,0,1,-5,-5v-8a5,5,0,0,1,5,-5z"></path><g id="node_text54" fill="black"><text id="kity_text_309" text-rendering="inherit" font-size="12" dy=".8em" y="897.7000055834651" x="708.5000117793679">论点：科技发展使人们更注重隐私保护。</text></g></g><g id="minder_node57"><g id="node_expander54" style="cursor: pointer;" display="none"><path id="kity_path_688" fill="white" stroke="gray" d="M703.5000116154552,931.5000059977174A6,6,0,1,1,691.5000116154552,931.5000059977174A6,6,0,1,1,703.5000116154552,931.5000059977174"></path><path id="kity_path_689" fill="none" stroke="gray"></path></g><path id="node_outline55" fill="none" stroke="none" d="M708.5000117793679,922.5000059977174h62a5,5,0,0,1,5,5v8a5,5,0,0,1,-5,5h-62a5,5,0,0,1,-5,-5v-8a5,5,0,0,1,5,-5z"></path><g id="node_text55" fill="black"><text id="kity_text_311" text-rendering="inherit" font-size="12" dy=".8em" y="923.7000059708953" x="708.5000117793679">复仇式色情</text></g></g><g id="minder_node58"><g id="node_expander55" style="cursor: pointer;" display="none"><path id="kity_path_691" fill="white" stroke="gray" d="M703.5000116154552,957.5000063851476A6,6,0,1,1,691.5000116154552,957.5000063851476A6,6,0,1,1,703.5000116154552,957.5000063851476"></path><path id="kity_path_692" fill="none" stroke="gray"></path></g><path id="node_outline56" fill="none" stroke="none" d="M708.5000117793679,948.5000063851476h241a5,5,0,0,1,5,5v8a5,5,0,0,1,-5,5h-241a5,5,0,0,1,-5,-5v-8a5,5,0,0,1,5,-5z"></path><g id="node_text56" fill="black"><text id="kity_text_313" text-rendering="inherit" font-size="12" dy=".8em" y="949.7000063583255" x="708.5000117793679">案例：人们花时间在色情片上，不愿意社交。</text></g></g><g id="minder_node59"><g id="node_expander87" style="cursor: pointer;"><path id="kity_path_787" fill="white" stroke="gray" d="M1305.5000205859542,65.49999309331179A6,6,0,1,1,1293.5000205859542,65.49999309331179A6,6,0,1,1,1305.5000205859542,65.49999309331179"></path><path id="kity_path_788" fill="none" stroke="gray" d="M1295.0000205859542,65.49999309331179L1304.0000205859542,65.49999309331179"></path></g><path id="node_outline88" fill="#76923c" stroke="rgb(115, 191, 118)" d="M1250.500020109117,72.49999352544546h98a3,3,0,0,1,3,3v38a3,3,0,0,1,-3,3h-98a3,3,0,0,1,-3,-3v-38a3,3,0,0,1,3,-3z" stroke-width="1"></path><g id="node_text88" fill="#ffffff"><text id="kity_text_377" text-rendering="inherit" font-size="32" dy=".8em" y="73.69999345391989" x="1267.500020109117">设计</text></g></g><g id="minder_node60"><g id="node_expander58" style="cursor: pointer;" display="none"><path id="kity_path_700" fill="white" stroke="gray" d="M1275.5000201389194,137.4999941661954A6,6,0,1,1,1263.5000201389194,137.4999941661954A6,6,0,1,1,1275.5000201389194,137.4999941661954"></path><path id="kity_path_701" fill="none" stroke="gray"></path></g><path id="node_outline59" fill="none" stroke="none" d="M1280.5000203028321,128.4999941661954h182a5,5,0,0,1,5,5v8a5,5,0,0,1,-5,5h-182a5,5,0,0,1,-5,-5v-8a5,5,0,0,1,5,-5z"></path><g id="node_text59" fill="black"><text id="kity_text_319" text-rendering="inherit" font-size="12" dy=".8em" y="129.6999941393733" x="1280.5000203028321">编程：让计算机代为解决某个问题</text></g></g><g id="minder_node61"><g id="node_expander65" style="cursor: pointer;"><path id="kity_path_721" fill="white" stroke="gray" d="M1275.5000201389194,169.49999464303255A6,6,0,1,1,1263.5000201389194,169.49999464303255A6,6,0,1,1,1275.5000201389194,169.49999464303255"></path><path id="kity_path_722" fill="none" stroke="gray" d="M1265.0000201389194,169.49999464303255L1274.0000201389194,169.49999464303255"></path></g><path id="node_outline66" fill="#c2d69b" stroke="none" d="M1280.5000206753612,154.49999464303255h121a5,5,0,0,1,5,5v20a5,5,0,0,1,-5,5h-121a5,5,0,0,1,-5,-5v-20a5,5,0,0,1,5,-5z" stroke-width="3"></path><g id="node_text66" fill="white"><text id="kity_text_333" text-rendering="inherit" font-size="24" dy=".8em" y="153.89999458938837" x="1305.5000206753612">看待未来</text></g><g id="node_priority9"><path id="kity_path_420" fill="#840023" stroke="none" d="M1281.0000203102827,172.99999450147152c0,3.866,3.134,7,7,7h6c3.866,0,7,-3.134,7,-7V166.99999450147152H1281.0000203102827V172.99999450147152z"></path><path id="kity_path_421" fill="#FF1200" stroke="none" d="M1301.0000203102827,169.99999450147152c0,3.866,-3.134,7,-7,7H1288.0000203102827c-3.866,0,-7,-3.134,-7,-7V166.99999450147152c0,-3.866,3.134,-7,7,-7h6c3.866,0,7,3.134,7,7V169.99999450147152z" opacity="0.8"></path><text id="kity_text_422" text-rendering="geometricPrecision" x="1290.0000203028321" y="169.49999449402094" text-anchor="middle" font-style="italic" font-size="12" fill="white" dy="5">1</text></g></g><g id="minder_node62"><g id="node_expander59" style="cursor: pointer;" display="none"><path id="kity_path_703" fill="white" stroke="gray" d="M1303.5000205561519,201.4999951198697A6,6,0,1,1,1291.5000205561519,201.4999951198697A6,6,0,1,1,1303.5000205561519,201.4999951198697"></path><path id="kity_path_704" fill="none" stroke="gray"></path></g><path id="node_outline60" fill="none" stroke="none" d="M1308.5000207200646,192.4999951198697h290a5,5,0,0,1,5,5v8a5,5,0,0,1,-5,5h-290a5,5,0,0,1,-5,-5v-8a5,5,0,0,1,5,-5z"></path><g id="node_text60" fill="black"><text id="kity_text_321" text-rendering="inherit" font-size="12" dy=".8em" y="193.69999509304762" x="1308.5000207200646">案例：出门所带的东西是自身对科技掌握的一种的理解</text></g></g><g id="minder_node63"><g id="node_expander62" style="cursor: pointer;"><path id="kity_path_712" fill="white" stroke="gray" d="M1303.5000205561519,227.4999955072999A6,6,0,1,1,1291.5000205561519,227.4999955072999A6,6,0,1,1,1303.5000205561519,227.4999955072999"></path><path id="kity_path_713" fill="none" stroke="gray" d="M1293.0000205561519,227.4999955072999L1302.0000205561519,227.4999955072999"></path></g><path id="node_outline63" fill="none" stroke="none" d="M1308.5000207200646,218.4999955072999h289a5,5,0,0,1,5,5v8a5,5,0,0,1,-5,5h-289a5,5,0,0,1,-5,-5v-8a5,5,0,0,1,5,-5z"></path><g id="node_text63" fill="black"><text id="kity_text_327" text-rendering="inherit" font-size="12" dy=".8em" y="219.6999954804778" x="1308.5000207200646">案例：社会告诉女孩应该做什么，而不是自己想做的。</text></g></g><g id="minder_node64"><g id="node_expander61" style="cursor: pointer;"><path id="kity_path_709" fill="white" stroke="gray" d="M1331.5000209733844,253.4999958947301A6,6,0,1,1,1319.5000209733844,253.4999958947301A6,6,0,1,1,1331.5000209733844,253.4999958947301"></path><path id="kity_path_710" fill="none" stroke="gray" d="M1321.0000209733844,253.4999958947301L1330.0000209733844,253.4999958947301"></path></g><path id="node_outline62" fill="none" stroke="none" d="M1336.5000211372972,244.4999958947301h62a5,5,0,0,1,5,5v8a5,5,0,0,1,-5,5h-62a5,5,0,0,1,-5,-5v-8a5,5,0,0,1,5,-5z"></path><g id="node_text62" fill="black"><text id="kity_text_325" text-rendering="inherit" font-size="12" dy=".8em" y="245.699995867908" x="1336.5000211372972">破裂的系统</text></g></g><g id="minder_node65"><g id="node_expander60" style="cursor: pointer;" display="none"><path id="kity_path_706" fill="white" stroke="gray" d="M1359.500021390617,279.4999962821603A6,6,0,1,1,1347.500021390617,279.4999962821603A6,6,0,1,1,1359.500021390617,279.4999962821603"></path><path id="kity_path_707" fill="none" stroke="gray"></path></g><path id="node_outline61" fill="none" stroke="none" d="M1364.5000215545297,270.4999962821603h50a5,5,0,0,1,5,5v8a5,5,0,0,1,-5,5h-50a5,5,0,0,1,-5,-5v-8a5,5,0,0,1,5,-5z"></path><g id="node_text61" fill="black"><text id="kity_text_323" text-rendering="inherit" font-size="12" dy=".8em" y="271.6999962553382" x="1364.5000215545297">更多尝试</text></g></g><g id="minder_node66"><g id="node_expander64" style="cursor: pointer;"><path id="kity_path_718" fill="white" stroke="gray" d="M1303.5000205561519,305.4999966695905A6,6,0,1,1,1291.5000205561519,305.4999966695905A6,6,0,1,1,1303.5000205561519,305.4999966695905"></path><path id="kity_path_719" fill="none" stroke="gray" d="M1293.0000205561519,305.4999966695905L1302.0000205561519,305.4999966695905"></path></g><path id="node_outline65" fill="none" stroke="none" d="M1308.5000207200646,296.4999966695905h301a5,5,0,0,1,5,5v8a5,5,0,0,1,-5,5h-301a5,5,0,0,1,-5,-5v-8a5,5,0,0,1,5,-5z"></path><g id="node_text65" fill="black"><text id="kity_text_331" text-rendering="inherit" font-size="12" dy=".8em" y="297.6999966427684" x="1308.5000207200646">解释：患精神疾病也很正常，社会不愿意去接纳这些人。</text></g></g><g id="minder_node67"><g id="node_expander63" style="cursor: pointer;" display="none"><path id="kity_path_715" fill="white" stroke="gray" d="M1331.5000209733844,331.49999705702066A6,6,0,1,1,1319.5000209733844,331.49999705702066A6,6,0,1,1,1331.5000209733844,331.49999705702066"></path><path id="kity_path_716" fill="none" stroke="gray"></path></g><path id="node_outline64" fill="none" stroke="none" d="M1336.5000211372972,322.49999705702066h241a5,5,0,0,1,5,5v8a5,5,0,0,1,-5,5h-241a5,5,0,0,1,-5,-5v-8a5,5,0,0,1,5,-5z"></path><g id="node_text64" fill="black"><text id="kity_text_329" text-rendering="inherit" font-size="12" dy=".8em" y="323.6999970301986" x="1336.5000211372972">解释：要用更多关心和更多爱来改变这个状况</text></g></g><g id="minder_node68"><g id="node_expander72" style="cursor: pointer;"><path id="kity_path_742" fill="white" stroke="gray" d="M1289.5000203475356,845.5000047162175A6,6,0,1,1,1277.5000203475356,845.5000047162175A6,6,0,1,1,1289.5000203475356,845.5000047162175"></path><path id="kity_path_743" fill="none" stroke="gray" d="M1279.0000203475356,845.5000047162175L1288.0000203475356,845.5000047162175"></path></g><path id="node_outline73" fill="#c2d69b" stroke="none" d="M1294.5000208839774,830.5000047162175h73a5,5,0,0,1,5,5v20a5,5,0,0,1,-5,5h-73a5,5,0,0,1,-5,-5v-20a5,5,0,0,1,5,-5z" stroke-width="3"></path><g id="node_text73" fill="white"><text id="kity_text_347" text-rendering="inherit" font-size="24" dy=".8em" y="829.9000046625733" x="1319.5000208839774">情绪</text></g><g id="node_priority10"><path id="kity_path_425" fill="#006300" stroke="none" d="M1295.000020518899,849.0000045746565c0,3.866,3.134,7,7,7h6c3.866,0,7,-3.134,7,-7V843.0000045746565H1295.000020518899V849.0000045746565z"></path><path id="kity_path_426" fill="#00AF00" stroke="none" d="M1315.000020518899,846.0000045746565c0,3.866,-3.134,7,-7,7H1302.000020518899c-3.866,0,-7,-3.134,-7,-7V843.0000045746565c0,-3.866,3.134,-7,7,-7h6c3.866,0,7,3.134,7,7V846.0000045746565z" opacity="0.8"></path><text id="kity_text_427" text-rendering="geometricPrecision" x="1304.0000205114484" y="845.5000045672059" text-anchor="middle" font-style="italic" font-size="12" fill="white" dy="5">3</text></g></g><g id="minder_node69"><g id="node_expander69" style="cursor: pointer;"><path id="kity_path_733" fill="white" stroke="gray" d="M1317.5000207647681,877.5000051930547A6,6,0,1,1,1305.5000207647681,877.5000051930547A6,6,0,1,1,1317.5000207647681,877.5000051930547"></path><path id="kity_path_734" fill="none" stroke="gray" d="M1307.0000207647681,877.5000051930547L1316.0000207647681,877.5000051930547"></path></g><path id="node_outline70" fill="#eaf1dd" stroke="none" d="M1322.500020928681,868.5000051930547h61a5,5,0,0,1,5,5v8a5,5,0,0,1,-5,5h-61a5,5,0,0,1,-5,-5v-8a5,5,0,0,1,5,-5z"></path><g id="node_text70" fill="black"><text id="kity_text_341" text-rendering="inherit" font-size="12" dy=".8em" y="869.7000051662326" x="1322.500020928681">积极心理学</text></g></g><g id="minder_node70"><g id="node_expander68" style="cursor: pointer;"><path id="kity_path_730" fill="white" stroke="gray" d="M1345.5000211820006,906.5000056251884A6,6,0,1,1,1333.5000211820006,906.5000056251884A6,6,0,1,1,1345.5000211820006,906.5000056251884"></path><path id="kity_path_731" fill="none" stroke="gray" d="M1335.0000211820006,906.5000056251884L1344.0000211820006,906.5000056251884"></path></g><path id="node_outline69" fill="#eaf1dd" stroke="none" d="M1350.5000213459134,894.5000056251884h253a5,5,0,0,1,5,5v14a5,5,0,0,1,-5,5h-253a5,5,0,0,1,-5,-5v-14a5,5,0,0,1,5,-5z"></path><g id="node_text69" fill="black"><text id="kity_text_339" text-rendering="inherit" font-size="18" dy=".8em" y="894.8000055849552" x="1350.5000213459134">分论点：情绪不是无法控制的。</text></g></g><g id="minder_node71"><g id="node_expander66" style="cursor: pointer;" display="none"><path id="kity_path_724" fill="white" stroke="gray" d="M1373.5000215992332,935.500006057322A6,6,0,1,1,1361.5000215992332,935.500006057322A6,6,0,1,1,1373.5000215992332,935.500006057322"></path><path id="kity_path_725" fill="none" stroke="gray"></path></g><path id="node_outline67" fill="none" stroke="none" d="M1378.500021763146,926.500006057322h301a5,5,0,0,1,5,5v8a5,5,0,0,1,-5,5h-301a5,5,0,0,1,-5,-5v-8a5,5,0,0,1,5,-5z"></path><g id="node_text67" fill="black"><text id="kity_text_335" text-rendering="inherit" font-size="12" dy=".8em" y="927.7000060304999" x="1378.500021763146">解释：我们要为自己的情绪负责，拥抱并接纳这些责任。</text></g></g><g id="minder_node72"><g id="node_expander67" style="cursor: pointer;" display="none"><path id="kity_path_727" fill="white" stroke="gray" d="M1373.5000215992332,961.5000064447522A6,6,0,1,1,1361.5000215992332,961.5000064447522A6,6,0,1,1,1373.5000215992332,961.5000064447522"></path><path id="kity_path_728" fill="none" stroke="gray"></path></g><path id="node_outline68" fill="none" stroke="none" d="M1378.500021763146,952.5000064447522h283a5,5,0,0,1,5,5v8a5,5,0,0,1,-5,5h-283a5,5,0,0,1,-5,-5v-8a5,5,0,0,1,5,-5z"></path><g id="node_text68" fill="black"><text id="kity_text_337" text-rendering="inherit" font-size="12" dy=".8em" y="953.7000064179301" x="1378.500021763146">案例: 有勇气并不是没有恐惧，勇气是在恐惧中行走。</text></g></g><g id="minder_node73"><g id="node_expander71" style="cursor: pointer;"><path id="kity_path_739" fill="white" stroke="gray" d="M1317.5000207647681,990.5000068768859A6,6,0,1,1,1305.5000207647681,990.5000068768859A6,6,0,1,1,1317.5000207647681,990.5000068768859"></path><path id="kity_path_740" fill="none" stroke="gray" d="M1307.0000207647681,990.5000068768859L1316.0000207647681,990.5000068768859"></path></g><path id="node_outline72" fill="#eaf1dd" stroke="none" d="M1322.500020928681,978.5000068768859h72a5,5,0,0,1,5,5v14a5,5,0,0,1,-5,5h-72a5,5,0,0,1,-5,-5v-14a5,5,0,0,1,5,-5z"></path><g id="node_text72" fill="black"><text id="kity_text_345" text-rendering="inherit" font-size="18" dy=".8em" y="978.8000068366528" x="1322.500020928681">行为设计</text></g></g><g id="minder_node74"><g id="node_expander70" style="cursor: pointer;" display="none"><path id="kity_path_736" fill="white" stroke="gray" d="M1345.5000211820006,1019.5000073090196A6,6,0,1,1,1333.5000211820006,1019.5000073090196A6,6,0,1,1,1345.5000211820006,1019.5000073090196"></path><path id="kity_path_737" fill="none" stroke="gray"></path></g><path id="node_outline71" fill="none" stroke="none" d="M1350.5000213459134,1010.5000073090196h37a5,5,0,0,1,5,5v8a5,5,0,0,1,-5,5h-37a5,5,0,0,1,-5,-5v-8a5,5,0,0,1,5,-5z"></path><g id="node_text71" fill="black"><text id="kity_text_343" text-rendering="inherit" font-size="12" dy=".8em" y="1011.7000072821975" x="1350.5000213459134">掌控感</text></g></g><g id="minder_node75"><g id="node_expander79" style="cursor: pointer;"><path id="kity_path_763" fill="white" stroke="gray" d="M1276.5000201538205,635.5000015869737A6,6,0,1,1,1264.5000201538205,635.5000015869737A6,6,0,1,1,1276.5000201538205,635.5000015869737"></path><path id="kity_path_764" fill="none" stroke="gray" d="M1266.0000201538205,635.5000015869737L1275.0000201538205,635.5000015869737"></path></g><path id="node_outline80" fill="#c2d69b" stroke="none" d="M1281.5000206902623,620.5000015869737h73a5,5,0,0,1,5,5v20a5,5,0,0,1,-5,5h-73a5,5,0,0,1,-5,-5v-20a5,5,0,0,1,5,-5z" stroke-width="3"></path><g id="node_text80" fill="white"><text id="kity_text_361" text-rendering="inherit" font-size="24" dy=".8em" y="619.9000015333295" x="1306.5000206902623">编程</text></g><g id="node_priority11"><path id="kity_path_430" fill="#01467F" stroke="none" d="M1282.0000203251839,639.0000014454126c0,3.866,3.134,7,7,7h6c3.866,0,7,-3.134,7,-7V633.0000014454126H1282.0000203251839V639.0000014454126z"></path><path id="kity_path_431" fill="#0074FF" stroke="none" d="M1302.0000203251839,636.0000014454126c0,3.866,-3.134,7,-7,7H1289.0000203251839c-3.866,0,-7,-3.134,-7,-7V633.0000014454126c0,-3.866,3.134,-7,7,-7h6c3.866,0,7,3.134,7,7V636.0000014454126z" opacity="0.8"></path><text id="kity_text_432" text-rendering="geometricPrecision" x="1291.0000203177333" y="635.500001437962" text-anchor="middle" font-style="italic" font-size="12" fill="white" dy="5">2</text></g></g><g id="minder_node76"><g id="node_expander73" style="cursor: pointer;" display="none"><path id="kity_path_745" fill="white" stroke="gray" d="M1304.500020571053,667.5000020638108A6,6,0,1,1,1292.500020571053,667.5000020638108A6,6,0,1,1,1304.500020571053,667.5000020638108"></path><path id="kity_path_746" fill="none" stroke="gray"></path></g><path id="node_outline74" fill="#eaf1dd" stroke="none" d="M1309.5000207349658,658.5000020638108h26a5,5,0,0,1,5,5v8a5,5,0,0,1,-5,5h-26a5,5,0,0,1,-5,-5v-8a5,5,0,0,1,5,-5z"></path><g id="node_text74" fill="black"><text id="kity_text_349" text-rendering="inherit" font-size="12" dy=".8em" y="659.7000020369887" x="1309.5000207349658">骇客</text></g></g><g id="minder_node77"><g id="node_expander78" style="cursor: pointer;"><path id="kity_path_760" fill="white" stroke="gray" d="M1304.500020571053,693.500002451241A6,6,0,1,1,1292.500020571053,693.500002451241A6,6,0,1,1,1304.500020571053,693.500002451241"></path><path id="kity_path_761" fill="none" stroke="gray" d="M1294.000020571053,693.500002451241L1303.000020571053,693.500002451241"></path></g><path id="node_outline79" fill="none" stroke="none" d="M1309.5000207349658,684.500002451241h26a5,5,0,0,1,5,5v8a5,5,0,0,1,-5,5h-26a5,5,0,0,1,-5,-5v-8a5,5,0,0,1,5,-5z"></path><g id="node_text79" fill="black"><text id="kity_text_359" text-rendering="inherit" font-size="12" dy=".8em" y="685.7000024244189" x="1309.5000207349658">编程</text></g></g><g id="minder_node78"><g id="node_expander77" style="cursor: pointer;"><path id="kity_path_757" fill="white" stroke="gray" d="M1332.5000209882855,719.5000028386712A6,6,0,1,1,1320.5000209882855,719.5000028386712A6,6,0,1,1,1332.5000209882855,719.5000028386712"></path><path id="kity_path_758" fill="none" stroke="gray" d="M1322.0000209882855,719.5000028386712L1331.0000209882855,719.5000028386712"></path></g><path id="node_outline78" fill="none" stroke="none" d="M1337.5000211521983,710.5000028386712h25a5,5,0,0,1,5,5v8a5,5,0,0,1,-5,5h-25a5,5,0,0,1,-5,-5v-8a5,5,0,0,1,5,-5z"></path><g id="node_text78" fill="black"><text id="kity_text_357" text-rendering="inherit" font-size="12" dy=".8em" y="711.7000028118491" x="1337.5000211521983">影响</text></g></g><g id="minder_node79"><g id="node_expander74" style="cursor: pointer;" display="none"><path id="kity_path_748" fill="white" stroke="gray" d="M1360.500021405518,745.5000032261014A6,6,0,1,1,1348.500021405518,745.5000032261014A6,6,0,1,1,1360.500021405518,745.5000032261014"></path><path id="kity_path_749" fill="none" stroke="gray"></path></g><path id="node_outline75" fill="none" stroke="none" d="M1365.5000215694308,736.5000032261014h62a5,5,0,0,1,5,5v8a5,5,0,0,1,-5,5h-62a5,5,0,0,1,-5,-5v-8a5,5,0,0,1,5,-5z"></path><g id="node_text75" fill="black"><text id="kity_text_351" text-rendering="inherit" font-size="12" dy=".8em" y="737.7000031992793" x="1365.5000215694308">未来的孩子</text></g></g><g id="minder_node80"><g id="node_expander75" style="cursor: pointer;" display="none"><path id="kity_path_751" fill="white" stroke="gray" d="M1360.500021405518,771.5000036135316A6,6,0,1,1,1348.500021405518,771.5000036135316A6,6,0,1,1,1360.500021405518,771.5000036135316"></path><path id="kity_path_752" fill="none" stroke="gray"></path></g><path id="node_outline76" fill="none" stroke="none" d="M1365.5000215694308,762.5000036135316h50a5,5,0,0,1,5,5v8a5,5,0,0,1,-5,5h-50a5,5,0,0,1,-5,-5v-8a5,5,0,0,1,5,-5z"></path><g id="node_text76" fill="black"><text id="kity_text_353" text-rendering="inherit" font-size="12" dy=".8em" y="763.7000035867095" x="1365.5000215694308">社会发展</text></g></g><g id="minder_node81"><g id="node_expander76" style="cursor: pointer;" display="none"><path id="kity_path_754" fill="white" stroke="gray" d="M1360.500021405518,797.5000040009618A6,6,0,1,1,1348.500021405518,797.5000040009618A6,6,0,1,1,1360.500021405518,797.5000040009618"></path><path id="kity_path_755" fill="none" stroke="gray"></path></g><path id="node_outline77" fill="none" stroke="none" d="M1365.5000215694308,788.5000040009618h25a5,5,0,0,1,5,5v8a5,5,0,0,1,-5,5h-25a5,5,0,0,1,-5,-5v-8a5,5,0,0,1,5,-5z"></path><g id="node_text77" fill="black"><text id="kity_text_355" text-rendering="inherit" font-size="12" dy=".8em" y="789.7000039741397" x="1365.5000215694308">偏见</text></g></g><g id="minder_node82"><g id="node_expander86" style="cursor: pointer;"><path id="kity_path_784" fill="white" stroke="gray" d="M1254.500019825995,1156.5000093504786A6,6,0,1,1,1242.500019825995,1156.5000093504786A6,6,0,1,1,1254.500019825995,1156.5000093504786"></path><path id="kity_path_785" fill="none" stroke="gray" d="M1244.000019825995,1156.5000093504786L1253.000019825995,1156.5000093504786"></path></g><path id="node_outline87" fill="#c2d69b" stroke="none" d="M1259.5000203624368,1141.5000093504786h73a5,5,0,0,1,5,5v20a5,5,0,0,1,-5,5h-73a5,5,0,0,1,-5,-5v-20a5,5,0,0,1,5,-5z" stroke-width="3"></path><g id="node_text87" fill="white"><text id="kity_text_375" text-rendering="inherit" font-size="24" dy=".8em" y="1140.9000092968345" x="1284.5000203624368">政府</text></g><g id="node_priority12"><path id="kity_path_435" fill="#B25000" stroke="none" d="M1260.0000199973583,1160.0000092089176c0,3.866,3.134,7,7,7h6c3.866,0,7,-3.134,7,-7V1154.0000092089176H1260.0000199973583V1160.0000092089176z"></path><path id="kity_path_436" fill="#FF962E" stroke="none" d="M1280.0000199973583,1157.0000092089176c0,3.866,-3.134,7,-7,7H1267.0000199973583c-3.866,0,-7,-3.134,-7,-7V1154.0000092089176c0,-3.866,3.134,-7,7,-7h6c3.866,0,7,3.134,7,7V1157.0000092089176z" opacity="0.8"></path><text id="kity_text_437" text-rendering="geometricPrecision" x="1269.0000199899077" y="1156.500009201467" text-anchor="middle" font-style="italic" font-size="12" fill="white" dy="5">4</text></g></g><g id="minder_node83"><g id="node_expander82" style="cursor: pointer;"><path id="kity_path_772" fill="white" stroke="gray" d="M1282.5000202432275,1191.5000098720193A6,6,0,1,1,1270.5000202432275,1191.5000098720193A6,6,0,1,1,1282.5000202432275,1191.5000098720193"></path><path id="kity_path_773" fill="none" stroke="gray" d="M1272.0000202432275,1191.5000098720193L1281.0000202432275,1191.5000098720193"></path></g><path id="node_outline83" fill="#eaf1dd" stroke="none" d="M1287.5000204071403,1179.5000098720193h235a5,5,0,0,1,5,5v14a5,5,0,0,1,-5,5h-235a5,5,0,0,1,-5,-5v-14a5,5,0,0,1,5,-5z"></path><g id="node_text83" fill="black"><text id="kity_text_367" text-rendering="inherit" font-size="18" dy=".8em" y="1179.8000098317862" x="1287.5000204071403">分论点：编码改善更好的政府</text></g></g><g id="minder_node84"><g id="node_expander80" style="cursor: pointer;" display="none"><path id="kity_path_766" fill="white" stroke="gray" d="M1310.50002066046,1220.500010304153A6,6,0,1,1,1298.50002066046,1220.500010304153A6,6,0,1,1,1310.50002066046,1220.500010304153"></path><path id="kity_path_767" fill="none" stroke="gray"></path></g><path id="node_outline81" fill="none" stroke="none" d="M1315.5000208243728,1211.500010304153h242a5,5,0,0,1,5,5v8a5,5,0,0,1,-5,5h-242a5,5,0,0,1,-5,-5v-8a5,5,0,0,1,5,-5z"></path><g id="node_text81" fill="black"><text id="kity_text_363" text-rendering="inherit" font-size="12" dy=".8em" y="1212.7000102773309" x="1315.5000208243728">解释：公民编程项目用编程来改变自己的生活</text></g></g><g id="minder_node85"><g id="node_expander81" style="cursor: pointer;" display="none"><path id="kity_path_769" fill="white" stroke="gray" d="M1310.50002066046,1246.5000106915832A6,6,0,1,1,1298.50002066046,1246.5000106915832A6,6,0,1,1,1310.50002066046,1246.5000106915832"></path><path id="kity_path_770" fill="none" stroke="gray"></path></g><path id="node_outline82" fill="none" stroke="none" d="M1315.5000208243728,1237.5000106915832h326a5,5,0,0,1,5,5v8a5,5,0,0,1,-5,5h-326a5,5,0,0,1,-5,-5v-8a5,5,0,0,1,5,-5z"></path><g id="node_text82" fill="black"><text id="kity_text_365" text-rendering="inherit" font-size="12" dy=".8em" y="1238.700010664761" x="1315.5000208243728">案例：领养一个消防栓的游戏，呼吁人们铲雪，爱护城市环境</text></g></g><g id="minder_node86"><g id="node_expander85" style="cursor: pointer;"><path id="kity_path_781" fill="white" stroke="gray" d="M1282.5000202432275,1275.5000111237168A6,6,0,1,1,1270.5000202432275,1275.5000111237168A6,6,0,1,1,1282.5000202432275,1275.5000111237168"></path><path id="kity_path_782" fill="none" stroke="gray" d="M1272.0000202432275,1275.5000111237168L1281.0000202432275,1275.5000111237168"></path></g><path id="node_outline86" fill="#eaf1dd" stroke="none" d="M1287.5000204071403,1263.5000111237168h235a5,5,0,0,1,5,5v14a5,5,0,0,1,-5,5h-235a5,5,0,0,1,-5,-5v-14a5,5,0,0,1,5,-5z"></path><g id="node_text86" fill="black"><text id="kity_text_373" text-rendering="inherit" font-size="18" dy=".8em" y="1263.8000110834837" x="1287.5000204071403">分论点：政府的设计需要改变</text></g></g><g id="minder_node87"><g id="node_expander83" style="cursor: pointer;" display="none"><path id="kity_path_775" fill="white" stroke="gray" d="M1310.50002066046,1304.5000115558505A6,6,0,1,1,1298.50002066046,1304.5000115558505A6,6,0,1,1,1310.50002066046,1304.5000115558505"></path><path id="kity_path_776" fill="none" stroke="gray"></path></g><path id="node_outline84" fill="none" stroke="none" d="M1315.5000208243728,1295.5000115558505h337a5,5,0,0,1,5,5v8a5,5,0,0,1,-5,5h-337a5,5,0,0,1,-5,-5v-8a5,5,0,0,1,5,-5z"></path><g id="node_text84" fill="black"><text id="kity_text_369" text-rendering="inherit" font-size="12" dy=".8em" y="1296.7000115290284" x="1315.5000208243728">案例：政府独裁的趋势增加，民主政府也在加强镇压持异议者。</text></g></g><g id="minder_node88"><g id="node_expander84" style="cursor: pointer;" display="none"><path id="kity_path_778" fill="white" stroke="gray" d="M1310.50002066046,1330.5000119432807A6,6,0,1,1,1298.50002066046,1330.5000119432807A6,6,0,1,1,1310.50002066046,1330.5000119432807"></path><path id="kity_path_779" fill="none" stroke="gray"></path></g><path id="node_outline85" fill="none" stroke="none" d="M1315.5000208243728,1321.5000119432807h469a5,5,0,0,1,5,5v8a5,5,0,0,1,-5,5h-469a5,5,0,0,1,-5,-5v-8a5,5,0,0,1,5,-5z"></path><g id="node_text85" fill="black"><text id="kity_text_371" text-rendering="inherit" font-size="12" dy=".8em" y="1322.7000119164586" x="1315.5000208243728">案例：我们在争取公众使用强加密的权利，否则意见相左的新闻和调查性报导难以传播。</text></g></g><g id="kity_g_12" display="none"><path id="kity_path_13" fill="none" stroke="rgb(66, 112, 68)" d="M81.50000759214163,244.49999267607927h25a5,5,0,0,1,5,5v8a5,5,0,0,1,-5,5h-25a5,5,0,0,1,-5,-5v-8a5,5,0,0,1,5,-5z" stroke-width="5"></path></g><g id="minder_node89"><g id="node_expander88" style="cursor: pointer;"><path id="kity_path_795" fill="white" stroke="gray" d="M1303.5000205561519,357.49999744445086A6,6,0,1,1,1291.5000205561519,357.49999744445086A6,6,0,1,1,1303.5000205561519,357.49999744445086"></path><path id="kity_path_796" fill="none" stroke="gray" d="M1293.0000205561519,357.49999744445086L1302.0000205561519,357.49999744445086"></path></g><path id="node_outline89" fill="none" stroke="none" d="M1308.5000207200646,348.49999744445086h26a5,5,0,0,1,5,5v8a5,5,0,0,1,-5,5h-26a5,5,0,0,1,-5,-5v-8a5,5,0,0,1,5,-5z" stroke-width="3"></path><g id="node_text89" fill="black"><text id="kity_text_792" text-rendering="inherit" font-size="12" dy=".8em" y="349.69999741762877" x="1308.5000207200646">偏见</text></g></g><g id="minder_node90"><g id="node_expander89" style="cursor: pointer;" display="none"><path id="kity_path_803" fill="white" stroke="gray" d="M1331.5000209733844,383.49999783188105A6,6,0,1,1,1319.5000209733844,383.49999783188105A6,6,0,1,1,1331.5000209733844,383.49999783188105"></path><path id="kity_path_804" fill="none" stroke="gray"></path></g><path id="node_outline90" fill="none" stroke="none" d="M1336.5000211372972,374.49999783188105h73a5,5,0,0,1,5,5v8a5,5,0,0,1,-5,5h-73a5,5,0,0,1,-5,-5v-8a5,5,0,0,1,5,-5z" stroke-width="3"></path><g id="node_text90" fill="black"><text id="kity_text_800" text-rendering="inherit" font-size="12" dy=".8em" y="375.69999780505896" x="1336.5000211372972">国家内部差异</text></g></g><g id="minder_node91"><g id="node_expander90" style="cursor: pointer;" display="none"><path id="kity_path_811" fill="white" stroke="gray" d="M1331.5000209733844,409.49999821931124A6,6,0,1,1,1319.5000209733844,409.49999821931124A6,6,0,1,1,1331.5000209733844,409.49999821931124"></path><path id="kity_path_812" fill="none" stroke="gray"></path></g><path id="node_outline91" fill="none" stroke="none" d="M1336.5000211372972,400.49999821931124h26a5,5,0,0,1,5,5v8a5,5,0,0,1,-5,5h-26a5,5,0,0,1,-5,-5v-8a5,5,0,0,1,5,-5z" stroke-width="3"></path><g id="node_text91" fill="black"><text id="kity_text_808" text-rendering="inherit" font-size="12" dy=".8em" y="401.69999819248915" x="1336.5000211372972">媒体</text></g></g><g id="minder_node92"><g id="node_expander91" style="cursor: pointer;" display="none"><path id="kity_path_819" fill="white" stroke="gray" d="M1331.5000209733844,435.4999986067414A6,6,0,1,1,1319.5000209733844,435.4999986067414A6,6,0,1,1,1331.5000209733844,435.4999986067414"></path><path id="kity_path_820" fill="none" stroke="gray"></path></g><path id="node_outline92" fill="none" stroke="none" d="M1336.5000211372972,426.4999986067414h48a5,5,0,0,1,5,5v8a5,5,0,0,1,-5,5h-48a5,5,0,0,1,-5,-5v-8a5,5,0,0,1,5,-5z" stroke-width="3"></path><g id="node_text92" fill="black"><text id="kity_text_816" text-rendering="inherit" font-size="12" dy=".8em" y="427.69999857991934" x="1336.5000211372972">国际援助</text></g></g><g id="minder_node93"><g id="node_expander92" style="cursor: pointer;"><path id="kity_path_827" fill="white" stroke="gray" d="M1303.5000205561519,461.4999989941716A6,6,0,1,1,1291.5000205561519,461.4999989941716A6,6,0,1,1,1303.5000205561519,461.4999989941716"></path><path id="kity_path_828" fill="none" stroke="gray" d="M1293.0000205561519,461.4999989941716L1302.0000205561519,461.4999989941716"></path></g><path id="node_outline93" fill="none" stroke="none" d="M1308.5000207200646,452.4999989941716h26a5,5,0,0,1,5,5v8a5,5,0,0,1,-5,5h-26a5,5,0,0,1,-5,-5v-8a5,5,0,0,1,5,-5z" stroke-width="3"></path><g id="node_text93" fill="black"><text id="kity_text_824" text-rendering="inherit" font-size="12" dy=".8em" y="453.69999896734953" x="1308.5000207200646">环境</text></g></g><g id="minder_node94"><g id="node_expander93" style="cursor: pointer;"><path id="kity_path_835" fill="white" stroke="gray" d="M1331.5000209733844,487.4999993816018A6,6,0,1,1,1319.5000209733844,487.4999993816018A6,6,0,1,1,1331.5000209733844,487.4999993816018"></path><path id="kity_path_836" fill="none" stroke="gray" d="M1321.0000209733844,487.4999993816018L1330.0000209733844,487.4999993816018"></path></g><path id="node_outline94" fill="none" stroke="none" d="M1336.5000211372972,478.4999993816018h62a5,5,0,0,1,5,5v8a5,5,0,0,1,-5,5h-62a5,5,0,0,1,-5,-5v-8a5,5,0,0,1,5,-5z" stroke-width="3"></path><g id="node_text94" fill="black"><text id="kity_text_832" text-rendering="inherit" font-size="12" dy=".8em" y="479.6999993547797" x="1336.5000211372972">可持续发展</text></g></g><g id="minder_node95"><g id="node_expander94" style="cursor: pointer;" display="none"><path id="kity_path_843" fill="white" stroke="gray" d="M1359.500021390617,513.499999769032A6,6,0,1,1,1347.500021390617,513.499999769032A6,6,0,1,1,1359.500021390617,513.499999769032"></path><path id="kity_path_844" fill="none" stroke="gray"></path></g><path id="node_outline95" fill="none" stroke="none" d="M1364.5000215545297,504.499999769032h74a5,5,0,0,1,5,5v8a5,5,0,0,1,-5,5h-74a5,5,0,0,1,-5,-5v-8a5,5,0,0,1,5,-5z" stroke-width="3"></path><g id="node_text95" fill="black"><text id="kity_text_840" text-rendering="inherit" font-size="12" dy=".8em" y="505.6999997422099" x="1364.5000215545297">环境影响公式</text></g></g></g></g></svg>