<svg id="kity_svg_6" xmlns="http://www.w3.org/2000/svg" xmlns:xlink="http://www.w3.org/1999/xlink" version="1.1" width="1277" height="733" style="background: rgb(251, 251, 251); visibility: visible;" viewBox="0 0 1277 733"><defs id="kity_defs_7"><linearGradient id="kity_linearGradient_17" x1="0" y1="0" x2="0" y2="1"><stop id="kity_stop_18" offset="0" stop-color="rgb(255, 255, 255)"></stop><stop id="kity_stop_19" offset="1" stop-color="rgb(204, 204, 204)"></stop></linearGradient><marker id="kity_marker_2" orient="auto" refX="6" refY="0" viewBox="-7 -7 14 14" markerWidth="7" markerHeight="7" markerUnits="userSpaceOnUse"><path id="kity_path_3" fill="rgb(115, 161, 191)" stroke="none" d="M6,0A6,6,0,1,1,-6,0A6,6,0,1,1,6,0"></path></marker></defs><g id="kity_g_8"><g id="minder1" text-rendering="optimize-speed"><g id="minder_connect_group1"><path id="kity_path_31" fill="none" stroke="rgb(115, 161, 191)" stroke-width="1" d="M571.5000114366412,60.50000201910734v30h-502V110.50000201910734"></path><path id="kity_path_33" fill="none" stroke="rgb(115, 161, 191)" stroke-width="1" d="M40.500011436641216,136.50000201910734V182.50000201910734L60.500011436641216,182.50000201910734"></path><path id="kity_path_35" fill="none" stroke="rgb(115, 161, 191)" stroke-width="1" d="M80.50001143664122,193.50000201910734V234.50000201910734L100.50001143664122,234.50000201910734"></path><path id="kity_path_37" fill="none" stroke="rgb(115, 161, 191)" stroke-width="1" d="M80.50001143664122,193.50000201910734V286.50000201910734L100.50001143664122,286.50000201910734"></path><path id="kity_path_39" fill="none" stroke="rgb(115, 161, 191)" stroke-width="1" d="M80.50001143664122,193.50000201910734V338.50000201910734L100.50001143664122,338.50000201910734"></path><path id="kity_path_41" fill="none" stroke="rgb(115, 161, 191)" stroke-width="1" d="M40.500011436641216,136.50000201910734V390.50000201910734L60.500011436641216,390.50000201910734"></path><path id="kity_path_43" fill="none" stroke="rgb(115, 161, 191)" stroke-width="1" d="M80.50001143664122,401.50000201910734V442.50000201910734L100.50001143664122,442.50000201910734"></path><path id="kity_path_45" fill="none" stroke="rgb(115, 161, 191)" stroke-width="1" d="M80.50001143664122,401.50000201910734V494.50000201910734L100.50001143664122,494.50000201910734"></path><path id="kity_path_47" fill="none" stroke="rgb(115, 161, 191)" stroke-width="1" d="M80.50001143664122,401.50000201910734V546.5000020191073L100.50001143664122,546.5000020191073"></path><path id="kity_path_49" fill="none" stroke="rgb(115, 161, 191)" stroke-width="1" d="M80.50001143664122,401.50000201910734V598.5000020191073L100.50001143664122,598.5000020191073"></path><path id="kity_path_51" fill="none" stroke="rgb(115, 161, 191)" stroke-width="1" d="M80.50001143664122,401.50000201910734V650.5000020191073L100.50001143664122,650.5000020191073"></path><path id="kity_path_53" fill="none" stroke="rgb(115, 161, 191)" stroke-width="1" d="M80.50001143664122,401.50000201910734V702.5000020191073L100.50001143664122,702.5000020191073"></path><path id="kity_path_55" fill="none" stroke="rgb(115, 161, 191)" stroke-width="1" d="M571.5000114366412,60.50000201910734v30h-177.5V110.50000201910734"></path><path id="kity_path_57" fill="none" stroke="rgb(115, 161, 191)" stroke-width="1" d="M365.5000114366412,136.50000201910734V182.50000201910734L385.5000114366412,182.50000201910734"></path><path id="kity_path_59" fill="none" stroke="rgb(115, 161, 191)" stroke-width="1" d="M405.5000114366412,193.50000201910734V234.50000201910734L425.5000114366412,234.50000201910734"></path><path id="kity_path_61" fill="none" stroke="rgb(115, 161, 191)" stroke-width="1" d="M405.5000114366412,193.50000201910734V286.50000201910734L425.5000114366412,286.50000201910734"></path><path id="kity_path_63" fill="none" stroke="rgb(115, 161, 191)" stroke-width="1" d="M445.5000114366412,297.50000201910734V338.50000201910734L465.5000114366412,338.50000201910734"></path><path id="kity_path_65" fill="none" stroke="rgb(115, 161, 191)" stroke-width="1" d="M365.5000114366412,136.50000201910734V390.50000201910734L385.5000114366412,390.50000201910734"></path><path id="kity_path_67" fill="none" stroke="rgb(115, 161, 191)" stroke-width="1" d="M405.5000114366412,401.50000201910734V442.50000201910734L425.5000114366412,442.50000201910734"></path><path id="kity_path_69" fill="none" stroke="rgb(115, 161, 191)" stroke-width="1" d="M405.5000114366412,401.50000201910734V494.50000201910734L425.5000114366412,494.50000201910734"></path><path id="kity_path_71" fill="none" stroke="rgb(115, 161, 191)" stroke-width="1" d="M405.5000114366412,401.50000201910734V546.5000020191073L425.5000114366412,546.5000020191073"></path><path id="kity_path_73" fill="none" stroke="rgb(115, 161, 191)" stroke-width="1" d="M405.5000114366412,401.50000201910734V598.5000020191073L425.5000114366412,598.5000020191073"></path><path id="kity_path_75" fill="none" stroke="rgb(115, 161, 191)" stroke-width="1" d="M571.5000114366412,60.50000201910734v30h195V110.50000201910734"></path><path id="kity_path_77" fill="none" stroke="rgb(115, 161, 191)" stroke-width="1" d="M738.5000114366412,136.50000201910734V182.50000201910734L758.5000114366412,182.50000201910734"></path><path id="kity_path_79" fill="none" stroke="rgb(115, 161, 191)" stroke-width="1" d="M778.5000114366412,193.50000201910734V234.50000201910734L798.5000114366412,234.50000201910734"></path><path id="kity_path_81" fill="none" stroke="rgb(115, 161, 191)" stroke-width="1" d="M778.5000114366412,193.50000201910734V286.50000201910734L798.5000114366412,286.50000201910734"></path><path id="kity_path_83" fill="none" stroke="rgb(115, 161, 191)" stroke-width="1" d="M778.5000114366412,193.50000201910734V338.50000201910734L798.5000114366412,338.50000201910734"></path><path id="kity_path_85" fill="none" stroke="rgb(115, 161, 191)" stroke-width="1" d="M778.5000114366412,193.50000201910734V390.50000201910734L798.5000114366412,390.50000201910734"></path><path id="kity_path_87" fill="none" stroke="rgb(115, 161, 191)" stroke-width="1" d="M571.5000114366412,60.50000201910734v30h504V110.50000201910734"></path><path id="kity_path_89" fill="none" stroke="rgb(115, 161, 191)" stroke-width="1" d="M1047.5000114366412,136.50000201910734V182.50000201910734L1067.5000114366412,182.50000201910734"></path><path id="kity_path_91" fill="none" stroke="rgb(115, 161, 191)" stroke-width="1" d="M1087.5000114366412,193.50000201910734V234.50000201910734L1107.5000114366412,234.50000201910734"></path><path id="kity_path_93" fill="none" stroke="rgb(115, 161, 191)" stroke-width="1" d="M1087.5000114366412,193.50000201910734V286.50000201910734L1107.5000114366412,286.50000201910734"></path><path id="kity_path_95" fill="none" stroke="rgb(115, 161, 191)" stroke-width="1" d="M1087.5000114366412,193.50000201910734V338.50000201910734L1107.5000114366412,338.50000201910734"></path><path id="kity_path_97" fill="none" stroke="rgb(115, 161, 191)" stroke-width="1" d="M1087.5000114366412,193.50000201910734V390.50000201910734L1107.5000114366412,390.50000201910734"></path></g><g id="minder_node1"><path id="node_outline1" fill="#17365d" stroke="rgb(115, 161, 191)" d="M295.5000114366412,20.50000201910734h552a5,5,0,0,1,5,5v30a5,5,0,0,1,-5,5h-552a5,5,0,0,1,-5,-5v-30a5,5,0,0,1,5,-5z" stroke-width="3"></path><g id="node_text1" fill="white"><text id="kity_text_22" text-rendering="inherit" font-size="16" dy=".8em" y="30.100001983344555" x="314.5000114366412">科技、娱乐与设计https://liuyu19.github.io/TED/TEDmindmap1.4.svg</text></g></g><g id="kity_g_12"><path id="kity_path_13" fill="none" stroke="none" d="M314.5000114366412,40.50000201910734h0v0h0z"></path></g><g id="kity_g_14"><path id="kity_path_15" fill="none" stroke="none" d="M314.5000114366412,40.50000201910734h0v0h0z"></path><path id="kity_path_16" fill="none" stroke="none"></path></g><g id="minder_node2"><g id="node_expander12" style="cursor: pointer;"><path id="kity_path_234" fill="white" stroke="gray" d="M75.50000778585672,103.5000029578805A6,6,0,1,1,63.500007785856724,103.5000029578805A6,6,0,1,1,75.50000778585672,103.5000029578805"></path><path id="kity_path_235" fill="none" stroke="gray" d="M65.00000778585672,103.5000029578805L74.00000778585672,103.5000029578805"></path></g><path id="node_outline13" fill="#548dd4" stroke="rgb(115, 161, 191)" d="M23.50000735372305,110.50000325590372h92a3,3,0,0,1,3,3v20a3,3,0,0,1,-3,3h-92a3,3,0,0,1,-3,-3v-20a3,3,0,0,1,3,-3z" stroke-width="1"></path><g id="node_text13" fill="white"><text id="kity_text_121" text-rendering="inherit" font-size="14" dy=".8em" y="114.40000322461128" x="40.50000735372305">利用数据</text></g></g><g id="minder_node3"><g id="node_expander4" style="cursor: pointer;"><path id="kity_path_210" fill="white" stroke="gray" d="M60.500007562339306,182.50000413507223A6,6,0,1,1,48.500007562339306,182.50000413507223A6,6,0,1,1,60.500007562339306,182.50000413507223"></path><path id="kity_path_211" fill="none" stroke="gray" d="M50.000007562339306,182.50000413507223L59.000007562339306,182.50000413507223"></path></g><path id="node_outline5" fill="#dbe5f1" stroke="none" d="M65.50000780075788,171.50000413507223h235a5,5,0,0,1,5,5v12a5,5,0,0,1,-5,5h-235a5,5,0,0,1,-5,-5v-12a5,5,0,0,1,5,-5z"></path><g id="node_text5" fill="black"><text id="kity_text_105" text-rendering="inherit" font-size="12" dy=".8em" y="174.70000410825014" x="70.50000780075788">论点1：可视化的开放性数据能帮助许多人</text></g></g><g id="minder_node4"><g id="node_expander1" style="cursor: pointer;" display="none"><path id="kity_path_201" fill="white" stroke="gray" d="M100.50000815838575,234.5000049099326A6,6,0,1,1,88.50000815838575,234.5000049099326A6,6,0,1,1,100.50000815838575,234.5000049099326"></path><path id="kity_path_202" fill="none" stroke="gray"></path></g><path id="node_outline2" fill="none" stroke="none" d="M105.50000839680433,223.5000049099326h106a5,5,0,0,1,5,5v12a5,5,0,0,1,-5,5h-106a5,5,0,0,1,-5,-5v-12a5,5,0,0,1,5,-5z"></path><g id="node_text2" fill="black"><text id="kity_text_99" text-rendering="inherit" font-size="12" dy=".8em" y="226.70000488311052" x="110.50000839680433">改变对别国的偏见</text></g></g><g id="minder_node5"><g id="node_expander2" style="cursor: pointer;" display="none"><path id="kity_path_204" fill="white" stroke="gray" d="M100.50000815838575,286.500005684793A6,6,0,1,1,88.50000815838575,286.500005684793A6,6,0,1,1,100.50000815838575,286.500005684793"></path><path id="kity_path_205" fill="none" stroke="gray"></path></g><path id="node_outline3" fill="none" stroke="none" d="M105.50000839680433,275.500005684793h83a5,5,0,0,1,5,5v12a5,5,0,0,1,-5,5h-83a5,5,0,0,1,-5,-5v-12a5,5,0,0,1,5,-5z"></path><g id="node_text3" fill="black"><text id="kity_text_101" text-rendering="inherit" font-size="12" dy=".8em" y="278.7000056579709" x="110.50000839680433">掌控日常生活</text></g></g><g id="minder_node6"><g id="node_expander3" style="cursor: pointer;" display="none"><path id="kity_path_207" fill="white" stroke="gray" d="M100.50000815838575,338.5000064596534A6,6,0,1,1,88.50000815838575,338.5000064596534A6,6,0,1,1,100.50000815838575,338.5000064596534"></path><path id="kity_path_208" fill="none" stroke="gray"></path></g><path id="node_outline4" fill="none" stroke="none" d="M105.50000839680433,327.5000064596534h58a5,5,0,0,1,5,5v12a5,5,0,0,1,-5,5h-58a5,5,0,0,1,-5,-5v-12a5,5,0,0,1,5,-5z"></path><g id="node_text4" fill="black"><text id="kity_text_103" text-rendering="inherit" font-size="12" dy=".8em" y="330.7000064328313" x="110.50000839680433">国际援助</text></g></g><g id="minder_node7"><g id="node_expander11" style="cursor: pointer;"><path id="kity_path_231" fill="white" stroke="gray" d="M60.500007562339306,390.50000723451376A6,6,0,1,1,48.500007562339306,390.50000723451376A6,6,0,1,1,60.500007562339306,390.50000723451376"></path><path id="kity_path_232" fill="none" stroke="gray" d="M50.000007562339306,390.50000723451376L59.000007562339306,390.50000723451376"></path></g><path id="node_outline12" fill="#dbe5f1" stroke="none" d="M65.50000780075788,379.50000723451376h211a5,5,0,0,1,5,5v12a5,5,0,0,1,-5,5h-211a5,5,0,0,1,-5,-5v-12a5,5,0,0,1,5,-5z"></path><g id="node_text12" fill="black"><text id="kity_text_119" text-rendering="inherit" font-size="12" dy=".8em" y="382.70000720769167" x="70.50000780075788">论点2：数据利用不当会伤害民众利益</text></g></g><g id="minder_node8"><g id="node_expander5" style="cursor: pointer;" display="none"><path id="kity_path_213" fill="white" stroke="gray" d="M100.50000815838575,442.50000800937414A6,6,0,1,1,88.50000815838575,442.50000800937414A6,6,0,1,1,100.50000815838575,442.50000800937414"></path><path id="kity_path_214" fill="none" stroke="gray"></path></g><path id="node_outline6" fill="none" stroke="none" d="M105.50000839680433,431.50000800937414h179a5,5,0,0,1,5,5v12a5,5,0,0,1,-5,5h-179a5,5,0,0,1,-5,-5v-12a5,5,0,0,1,5,-5z"></path><g id="node_text6" fill="black"><text id="kity_text_107" text-rendering="inherit" font-size="12" dy=".8em" y="434.70000798255205" x="110.50000839680433">利用过去的数据可能会强化偏见</text></g></g><g id="minder_node9"><g id="node_expander6" style="cursor: pointer;" display="none"><path id="kity_path_216" fill="white" stroke="gray" d="M100.50000815838575,494.5000087842345A6,6,0,1,1,88.50000815838575,494.5000087842345A6,6,0,1,1,100.50000815838575,494.5000087842345"></path><path id="kity_path_217" fill="none" stroke="gray"></path></g><path id="node_outline7" fill="none" stroke="none" d="M105.50000839680433,483.5000087842345h143a5,5,0,0,1,5,5v12a5,5,0,0,1,-5,5h-143a5,5,0,0,1,-5,-5v-12a5,5,0,0,1,5,-5z"></path><g id="node_text7" fill="black"><text id="kity_text_109" text-rendering="inherit" font-size="12" dy=".8em" y="486.70000875741243" x="110.50000839680433">数字屑被二次利用以牟利</text></g></g><g id="minder_node10"><g id="node_expander7" style="cursor: pointer;" display="none"><path id="kity_path_219" fill="white" stroke="gray" d="M100.50000815838575,546.5000095590949A6,6,0,1,1,88.50000815838575,546.5000095590949A6,6,0,1,1,100.50000815838575,546.5000095590949"></path><path id="kity_path_220" fill="none" stroke="gray"></path></g><path id="node_outline8" fill="none" stroke="none" d="M105.50000839680433,535.5000095590949h130a5,5,0,0,1,5,5v12a5,5,0,0,1,-5,5h-130a5,5,0,0,1,-5,-5v-12a5,5,0,0,1,5,-5z"></path><g id="node_text8" fill="black"><text id="kity_text_111" text-rendering="inherit" font-size="12" dy=".8em" y="538.7000095322728" x="110.50000839680433">互联网使人沉迷的机制</text></g></g><g id="minder_node11"><g id="node_expander8" style="cursor: pointer;" display="none"><path id="kity_path_222" fill="white" stroke="gray" d="M100.50000815838575,598.5000103339553A6,6,0,1,1,88.50000815838575,598.5000103339553A6,6,0,1,1,100.50000815838575,598.5000103339553"></path><path id="kity_path_223" fill="none" stroke="gray"></path></g><path id="node_outline9" fill="none" stroke="none" d="M105.50000839680433,587.5000103339553h119a5,5,0,0,1,5,5v12a5,5,0,0,1,-5,5h-119a5,5,0,0,1,-5,-5v-12a5,5,0,0,1,5,-5z"></path><g id="node_text9" fill="black"><text id="kity_text_113" text-rendering="inherit" font-size="12" dy=".8em" y="590.7000103071332" x="110.50000839680433">“算法”替人做决定</text></g></g><g id="minder_node12"><g id="node_expander9" style="cursor: pointer;" display="none"><path id="kity_path_225" fill="white" stroke="gray" d="M100.50000815838575,650.5000111088157A6,6,0,1,1,88.50000815838575,650.5000111088157A6,6,0,1,1,100.50000815838575,650.5000111088157"></path><path id="kity_path_226" fill="none" stroke="gray"></path></g><path id="node_outline10" fill="none" stroke="none" d="M105.50000839680433,639.5000111088157h83a5,5,0,0,1,5,5v12a5,5,0,0,1,-5,5h-83a5,5,0,0,1,-5,-5v-12a5,5,0,0,1,5,-5z"></path><g id="node_text10" fill="black"><text id="kity_text_115" text-rendering="inherit" font-size="12" dy=".8em" y="642.7000110819936" x="110.50000839680433">隐私泄露问题</text></g></g><g id="minder_node13"><g id="node_expander10" style="cursor: pointer;" display="none"><path id="kity_path_228" fill="white" stroke="gray" d="M100.50000815838575,702.500011883676A6,6,0,1,1,88.50000815838575,702.500011883676A6,6,0,1,1,100.50000815838575,702.500011883676"></path><path id="kity_path_229" fill="none" stroke="gray"></path></g><path id="node_outline11" fill="none" stroke="none" d="M105.50000839680433,691.500011883676h82a5,5,0,0,1,5,5v12a5,5,0,0,1,-5,5h-82a5,5,0,0,1,-5,-5v-12a5,5,0,0,1,5,-5z"></path><g id="node_text11" fill="black"><text id="kity_text_117" text-rendering="inherit" font-size="12" dy=".8em" y="694.700011856854" x="110.50000839680433">“过滤气泡”</text></g></g><g id="minder_node14"><g id="node_expander22" style="cursor: pointer;"><path id="kity_path_264" fill="white" stroke="gray" d="M400.00001262128353,103.5000029578805A6,6,0,1,1,388.00001262128353,103.5000029578805A6,6,0,1,1,400.00001262128353,103.5000029578805"></path><path id="kity_path_265" fill="none" stroke="gray" d="M389.50001262128353,103.5000029578805L398.50001262128353,103.5000029578805"></path></g><path id="node_outline23" fill="#548dd4" stroke="rgb(115, 161, 191)" d="M348.50001219660044,110.50000325590372h91a3,3,0,0,1,3,3v20a3,3,0,0,1,-3,3h-91a3,3,0,0,1,-3,-3v-20a3,3,0,0,1,3,-3z" stroke-width="1"></path><g id="node_text23" fill="white"><text id="kity_text_141" text-rendering="inherit" font-size="14" dy=".8em" y="114.40000322461128" x="365.50001219660044">改善社会 </text></g></g><g id="minder_node15"><g id="node_expander16" style="cursor: pointer;"><path id="kity_path_246" fill="white" stroke="gray" d="M385.5000124052167,182.50000413507223A6,6,0,1,1,373.5000124052167,182.50000413507223A6,6,0,1,1,385.5000124052167,182.50000413507223"></path><path id="kity_path_247" fill="none" stroke="gray" d="M375.0000124052167,182.50000413507223L384.0000124052167,182.50000413507223"></path></g><path id="node_outline17" fill="#dbe5f1" stroke="none" d="M390.5000126436353,171.50000413507223h223a5,5,0,0,1,5,5v12a5,5,0,0,1,-5,5h-223a5,5,0,0,1,-5,-5v-12a5,5,0,0,1,5,-5z"></path><g id="node_text17" fill="black"><text id="kity_text_129" text-rendering="inherit" font-size="12" dy=".8em" y="174.70000410825014" x="395.5000126436353">论点1：生态化设计有助于改善自然环境</text></g></g><g id="minder_node16"><g id="node_expander13" style="cursor: pointer;" display="none"><path id="kity_path_237" fill="white" stroke="gray" d="M425.50001300126314,234.5000049099326A6,6,0,1,1,413.50001300126314,234.5000049099326A6,6,0,1,1,425.50001300126314,234.5000049099326"></path><path id="kity_path_238" fill="none" stroke="gray"></path></g><path id="node_outline14" fill="none" stroke="none" d="M430.5000132396817,223.5000049099326h71a5,5,0,0,1,5,5v12a5,5,0,0,1,-5,5h-71a5,5,0,0,1,-5,-5v-12a5,5,0,0,1,5,-5z"></path><g id="node_text14" fill="black"><text id="kity_text_123" text-rendering="inherit" font-size="12" dy=".8em" y="226.70000488311052" x="435.5000132396817">地球承载力</text></g></g><g id="minder_node17"><g id="node_expander15" style="cursor: pointer;"><path id="kity_path_243" fill="white" stroke="gray" d="M425.50001300126314,286.500005684793A6,6,0,1,1,413.50001300126314,286.500005684793A6,6,0,1,1,425.50001300126314,286.500005684793"></path><path id="kity_path_244" fill="none" stroke="gray" d="M415.00001300126314,286.500005684793L424.00001300126314,286.500005684793"></path></g><path id="node_outline16" fill="#ffffff" stroke="none" d="M430.5000132396817,275.500005684793h95a5,5,0,0,1,5,5v12a5,5,0,0,1,-5,5h-95a5,5,0,0,1,-5,-5v-12a5,5,0,0,1,5,-5z"></path><g id="node_text16" fill="black"><text id="kity_text_127" text-rendering="inherit" font-size="12" dy=".8em" y="278.7000056579709" x="435.5000132396817">商业可持续发展</text></g></g><g id="minder_node18"><g id="node_expander14" style="cursor: pointer;" display="none"><path id="kity_path_240" fill="white" stroke="gray" d="M465.5000135973096,338.5000064596534A6,6,0,1,1,453.5000135973096,338.5000064596534A6,6,0,1,1,465.5000135973096,338.5000064596534"></path><path id="kity_path_241" fill="none" stroke="gray"></path></g><path id="node_outline15" fill="none" stroke="none" d="M470.50001383572817,327.5000064596534h141a5,5,0,0,1,5,5v12a5,5,0,0,1,-5,5h-141a5,5,0,0,1,-5,-5v-12a5,5,0,0,1,5,-5z"></path><g id="node_text15" fill="black"><text id="kity_text_125" text-rendering="inherit" font-size="12" dy=".8em" y="330.7000064328313" x="475.50001383572817">环境影响公式：I=P*A*T</text></g></g><g id="minder_node19"><g id="node_expander21" style="cursor: pointer;"><path id="kity_path_261" fill="white" stroke="gray" d="M385.5000124052167,390.50000723451376A6,6,0,1,1,373.5000124052167,390.50000723451376A6,6,0,1,1,385.5000124052167,390.50000723451376"></path><path id="kity_path_262" fill="none" stroke="gray" d="M375.0000124052167,390.50000723451376L384.0000124052167,390.50000723451376"></path></g><path id="node_outline22" fill="#dbe5f1" stroke="none" d="M390.5000126436353,379.50000723451376h283a5,5,0,0,1,5,5v12a5,5,0,0,1,-5,5h-283a5,5,0,0,1,-5,-5v-12a5,5,0,0,1,5,-5z"></path><g id="node_text22" fill="black"><text id="kity_text_139" text-rendering="inherit" font-size="12" dy=".8em" y="382.70000720769167" x="395.5000126436353">论点2：要对情绪和疾病有科学的认识并且给与理解</text></g></g><g id="minder_node20"><g id="node_expander17" style="cursor: pointer;" display="none"><path id="kity_path_249" fill="white" stroke="gray" d="M425.50001300126314,442.50000800937414A6,6,0,1,1,413.50001300126314,442.50000800937414A6,6,0,1,1,425.50001300126314,442.50000800937414"></path><path id="kity_path_250" fill="none" stroke="gray"></path></g><path id="node_outline18" fill="none" stroke="none" d="M430.5000132396817,431.50000800937414h107a5,5,0,0,1,5,5v12a5,5,0,0,1,-5,5h-107a5,5,0,0,1,-5,-5v-12a5,5,0,0,1,5,-5z"></path><g id="node_text18" fill="black"><text id="kity_text_131" text-rendering="inherit" font-size="12" dy=".8em" y="434.70000798255205" x="435.5000132396817">对待自身负面情绪</text></g></g><g id="minder_node21"><g id="node_expander18" style="cursor: pointer;" display="none"><path id="kity_path_252" fill="white" stroke="gray" d="M425.50001300126314,494.5000087842345A6,6,0,1,1,413.50001300126314,494.5000087842345A6,6,0,1,1,425.50001300126314,494.5000087842345"></path><path id="kity_path_253" fill="none" stroke="gray"></path></g><path id="node_outline19" fill="none" stroke="none" d="M430.5000132396817,483.5000087842345h95a5,5,0,0,1,5,5v12a5,5,0,0,1,-5,5h-95a5,5,0,0,1,-5,-5v-12a5,5,0,0,1,5,-5z"></path><g id="node_text19" fill="black"><text id="kity_text_133" text-rendering="inherit" font-size="12" dy=".8em" y="486.70000875741243" x="435.5000132396817">对毒品等成瘾者</text></g></g><g id="minder_node22"><g id="node_expander19" style="cursor: pointer;" display="none"><path id="kity_path_255" fill="white" stroke="gray" d="M425.50001300126314,546.5000095590949A6,6,0,1,1,413.50001300126314,546.5000095590949A6,6,0,1,1,425.50001300126314,546.5000095590949"></path><path id="kity_path_256" fill="none" stroke="gray"></path></g><path id="node_outline20" fill="none" stroke="none" d="M430.5000132396817,535.5000095590949h71a5,5,0,0,1,5,5v12a5,5,0,0,1,-5,5h-71a5,5,0,0,1,-5,-5v-12a5,5,0,0,1,5,-5z"></path><g id="node_text20" fill="black"><text id="kity_text_135" text-rendering="inherit" font-size="12" dy=".8em" y="538.7000095322728" x="435.5000132396817">精神病患者</text></g></g><g id="minder_node23"><g id="node_expander20" style="cursor: pointer;" display="none"><path id="kity_path_258" fill="white" stroke="gray" d="M425.50001300126314,598.5000103339553A6,6,0,1,1,413.50001300126314,598.5000103339553A6,6,0,1,1,425.50001300126314,598.5000103339553"></path><path id="kity_path_259" fill="none" stroke="gray"></path></g><path id="node_outline21" fill="none" stroke="none" d="M430.5000132396817,587.5000103339553h71a5,5,0,0,1,5,5v12a5,5,0,0,1,-5,5h-71a5,5,0,0,1,-5,-5v-12a5,5,0,0,1,5,-5z"></path><g id="node_text21" fill="black"><text id="kity_text_137" text-rendering="inherit" font-size="12" dy=".8em" y="590.7000103071332" x="435.5000132396817">积极心理学</text></g></g><g id="minder_node24"><g id="node_expander28" style="cursor: pointer;"><path id="kity_path_282" fill="white" stroke="gray" d="M772.5000181719661,103.5000029578805A6,6,0,1,1,760.5000181719661,103.5000029578805A6,6,0,1,1,772.5000181719661,103.5000029578805"></path><path id="kity_path_283" fill="none" stroke="gray" d="M762.0000181719661,103.5000029578805L771.0000181719661,103.5000029578805"></path></g><path id="node_outline29" fill="#548dd4" stroke="rgb(115, 161, 191)" d="M721.5000177547336,110.50000325590372h90a3,3,0,0,1,3,3v20a3,3,0,0,1,-3,3h-90a3,3,0,0,1,-3,-3v-20a3,3,0,0,1,3,-3z" stroke-width="1"></path><g id="node_text29" fill="white"><text id="kity_text_153" text-rendering="inherit" font-size="14" dy=".8em" y="114.40000322461128" x="738.5000177547336">改善政府</text></g></g><g id="minder_node25"><g id="node_expander27" style="cursor: pointer;"><path id="kity_path_279" fill="white" stroke="gray" d="M758.5000179633498,182.50000413507223A6,6,0,1,1,746.5000179633498,182.50000413507223A6,6,0,1,1,758.5000179633498,182.50000413507223"></path><path id="kity_path_280" fill="none" stroke="gray" d="M748.0000179633498,182.50000413507223L757.0000179633498,182.50000413507223"></path></g><path id="node_outline28" fill="#dbe5f1" stroke="none" d="M763.5000182017684,171.50000413507223h158a5,5,0,0,1,5,5v12a5,5,0,0,1,-5,5h-158a5,5,0,0,1,-5,-5v-12a5,5,0,0,1,5,-5z"></path><g id="node_text28" fill="black"><text id="kity_text_151" text-rendering="inherit" font-size="12" dy=".8em" y="174.70000410825014" x="768.5000182017684">&#xa0;论点：骇客构成更好的政府</text></g></g><g id="minder_node26"><g id="node_expander23" style="cursor: pointer;" display="none"><path id="kity_path_267" fill="white" stroke="gray" d="M798.5000185593963,234.5000049099326A6,6,0,1,1,786.5000185593963,234.5000049099326A6,6,0,1,1,798.5000185593963,234.5000049099326"></path><path id="kity_path_268" fill="none" stroke="gray"></path></g><path id="node_outline24" fill="none" stroke="none" d="M803.5000187978148,223.5000049099326h179a5,5,0,0,1,5,5v12a5,5,0,0,1,-5,5h-179a5,5,0,0,1,-5,-5v-12a5,5,0,0,1,5,-5z"></path><g id="node_text24" fill="black"><text id="kity_text_143" text-rendering="inherit" font-size="12" dy=".8em" y="226.70000488311052" x="808.5000187978148">民众用编程等方式参与政府事务</text></g></g><g id="minder_node27"><g id="node_expander24" style="cursor: pointer;" display="none"><path id="kity_path_270" fill="white" stroke="gray" d="M798.5000185593963,286.500005684793A6,6,0,1,1,786.5000185593963,286.500005684793A6,6,0,1,1,798.5000185593963,286.500005684793"></path><path id="kity_path_271" fill="none" stroke="gray"></path></g><path id="node_outline25" fill="none" stroke="none" d="M803.5000187978148,275.500005684793h166a5,5,0,0,1,5,5v12a5,5,0,0,1,-5,5h-166a5,5,0,0,1,-5,-5v-12a5,5,0,0,1,5,-5z"></path><g id="node_text25" fill="black"><text id="kity_text_145" text-rendering="inherit" font-size="12" dy=".8em" y="278.7000056579709" x="808.5000187978148">民众应和政府一样有加密权力</text></g></g><g id="minder_node28"><g id="node_expander25" style="cursor: pointer;" display="none"><path id="kity_path_273" fill="white" stroke="gray" d="M798.5000185593963,338.5000064596534A6,6,0,1,1,786.5000185593963,338.5000064596534A6,6,0,1,1,798.5000185593963,338.5000064596534"></path><path id="kity_path_274" fill="none" stroke="gray"></path></g><path id="node_outline26" fill="none" stroke="none" d="M803.5000187978148,327.5000064596534h131a5,5,0,0,1,5,5v12a5,5,0,0,1,-5,5h-131a5,5,0,0,1,-5,-5v-12a5,5,0,0,1,5,-5z"></path><g id="node_text26" fill="black"><text id="kity_text_147" text-rendering="inherit" font-size="12" dy=".8em" y="330.7000064328313" x="808.5000187978148">资本主义类似操作系统</text></g></g><g id="minder_node29"><g id="node_expander26" style="cursor: pointer;" display="none"><path id="kity_path_276" fill="white" stroke="gray" d="M798.5000185593963,390.50000723451376A6,6,0,1,1,786.5000185593963,390.50000723451376A6,6,0,1,1,798.5000185593963,390.50000723451376"></path><path id="kity_path_277" fill="none" stroke="gray"></path></g><path id="node_outline27" fill="none" stroke="none" d="M803.5000187978148,379.50000723451376h108a5,5,0,0,1,5,5v12a5,5,0,0,1,-5,5h-108a5,5,0,0,1,-5,-5v-12a5,5,0,0,1,5,-5z"></path><g id="node_text27" fill="black"><text id="kity_text_149" text-rendering="inherit" font-size="12" dy=".8em" y="382.70000720769167" x="808.5000187978148">共同对抗恐怖主义</text></g></g><g id="minder_node30"><g id="node_expander34" style="cursor: pointer;"><path id="kity_path_300" fill="white" stroke="gray" d="M1081.5000227764249,103.5000029578805A6,6,0,1,1,1069.5000227764249,103.5000029578805A6,6,0,1,1,1081.5000227764249,103.5000029578805"></path><path id="kity_path_301" fill="none" stroke="gray" d="M1071.0000227764249,103.5000029578805L1080.0000227764249,103.5000029578805"></path></g><path id="node_outline35" fill="#548dd4" stroke="rgb(115, 161, 191)" d="M1030.5000223591924,110.50000325590372h90a3,3,0,0,1,3,3v20a3,3,0,0,1,-3,3h-90a3,3,0,0,1,-3,-3v-20a3,3,0,0,1,3,-3z" stroke-width="1"></path><g id="node_text35" fill="white"><text id="kity_text_165" text-rendering="inherit" font-size="14" dy=".8em" y="114.40000322461128" x="1047.5000223591924">男女平等</text></g></g><g id="minder_node31"><g id="node_expander33" style="cursor: pointer;"><path id="kity_path_297" fill="white" stroke="gray" d="M1067.5000225678086,182.50000413507223A6,6,0,1,1,1055.5000225678086,182.50000413507223A6,6,0,1,1,1067.5000225678086,182.50000413507223"></path><path id="kity_path_298" fill="none" stroke="gray" d="M1057.0000225678086,182.50000413507223L1066.0000225678086,182.50000413507223"></path></g><path id="node_outline34" fill="#dbe5f1" stroke="none" d="M1072.5000228062272,171.50000413507223h180a5,5,0,0,1,5,5v12a5,5,0,0,1,-5,5h-180a5,5,0,0,1,-5,-5v-12a5,5,0,0,1,5,-5z"></path><g id="node_text34" fill="black"><text id="kity_text_163" text-rendering="inherit" font-size="12" dy=".8em" y="174.70000410825014" x="1077.5000228062272">论点：男女性在各方面都该平等</text></g></g><g id="minder_node32"><g id="node_expander29" style="cursor: pointer;" display="none"><path id="kity_path_285" fill="white" stroke="gray" d="M1107.500023163855,234.5000049099326A6,6,0,1,1,1095.500023163855,234.5000049099326A6,6,0,1,1,1107.500023163855,234.5000049099326"></path><path id="kity_path_286" fill="none" stroke="gray"></path></g><path id="node_outline30" fill="none" stroke="none" d="M1112.5000234022737,223.5000049099326h131a5,5,0,0,1,5,5v12a5,5,0,0,1,-5,5h-131a5,5,0,0,1,-5,-5v-12a5,5,0,0,1,5,-5z"></path><g id="node_text30" fill="black"><text id="kity_text_155" text-rendering="inherit" font-size="12" dy=".8em" y="226.70000488311052" x="1117.5000234022737">男女在色情片中的分配</text></g></g><g id="minder_node33"><g id="node_expander30" style="cursor: pointer;" display="none"><path id="kity_path_288" fill="white" stroke="gray" d="M1107.500023163855,286.500005684793A6,6,0,1,1,1095.500023163855,286.500005684793A6,6,0,1,1,1107.500023163855,286.500005684793"></path><path id="kity_path_289" fill="none" stroke="gray"></path></g><path id="node_outline31" fill="none" stroke="none" d="M1112.5000234022737,275.500005684793h119a5,5,0,0,1,5,5v12a5,5,0,0,1,-5,5h-119a5,5,0,0,1,-5,-5v-12a5,5,0,0,1,5,-5z"></path><g id="node_text31" fill="black"><text id="kity_text_157" text-rendering="inherit" font-size="12" dy=".8em" y="278.7000056579709" x="1117.5000234022737">鼓励女性编程就业等</text></g></g><g id="minder_node34"><g id="node_expander31" style="cursor: pointer;" display="none"><path id="kity_path_291" fill="white" stroke="gray" d="M1107.500023163855,338.5000064596534A6,6,0,1,1,1095.500023163855,338.5000064596534A6,6,0,1,1,1107.500023163855,338.5000064596534"></path><path id="kity_path_292" fill="none" stroke="gray"></path></g><path id="node_outline32" fill="none" stroke="none" d="M1112.5000234022737,327.5000064596534h107a5,5,0,0,1,5,5v12a5,5,0,0,1,-5,5h-107a5,5,0,0,1,-5,-5v-12a5,5,0,0,1,5,-5z"></path><g id="node_text32" fill="black"><text id="kity_text_159" text-rendering="inherit" font-size="12" dy=".8em" y="330.7000064328313" x="1117.5000234022737">调整社会性别认知</text></g></g><g id="minder_node35"><g id="node_expander32" style="cursor: pointer;" display="none"><path id="kity_path_294" fill="white" stroke="gray" d="M1107.500023163855,390.50000723451376A6,6,0,1,1,1095.500023163855,390.50000723451376A6,6,0,1,1,1107.500023163855,390.50000723451376"></path><path id="kity_path_295" fill="none" stroke="gray"></path></g><path id="node_outline33" fill="none" stroke="none" d="M1112.5000234022737,379.50000723451376h96a5,5,0,0,1,5,5v12a5,5,0,0,1,-5,5h-96a5,5,0,0,1,-5,-5v-12a5,5,0,0,1,5,-5z"></path><g id="node_text33" fill="black"><text id="kity_text_161" text-rendering="inherit" font-size="12" dy=".8em" y="382.70000720769167" x="1117.5000234022737">联合国发展目标</text></g></g></g></g></svg>