<svg id="kity_svg_6" xmlns="http://www.w3.org/2000/svg" xmlns:xlink="http://www.w3.org/1999/xlink" version="1.1" width="1908" height="812" style="background: rgb(251, 251, 251); visibility: visible;" viewBox="0 0 1908 812"><defs id="kity_defs_7"><linearGradient id="kity_linearGradient_17" x1="0" y1="0" x2="0" y2="1"><stop id="kity_stop_18" offset="0" stop-color="rgb(255, 255, 255)"></stop><stop id="kity_stop_19" offset="1" stop-color="rgb(204, 204, 204)"></stop></linearGradient><marker id="kity_marker_2" orient="auto" refX="6" refY="0" viewBox="-7 -7 14 14" markerWidth="7" markerHeight="7" markerUnits="userSpaceOnUse"><path id="kity_path_3" fill="rgb(115, 161, 191)" stroke="none" d="M6,0A6,6,0,1,1,-6,0A6,6,0,1,1,6,0"></path></marker></defs><g id="kity_g_8"><g id="minder1" text-rendering="geometricPrecision"><g id="minder_connect_group1"><path id="kity_path_87" fill="none" stroke="rgb(115, 191, 118)" stroke-width="1" d="M694.5000042542815,47.50000033527613v10h-622.5V65.50000033527613"></path><path id="kity_path_95" fill="none" stroke="rgb(115, 191, 118)" stroke-width="1" d="M694.5000042542815,47.50000033527613v10h623.5V65.50000033527613"></path><path id="kity_path_111" fill="none" stroke="rgb(115, 191, 118)" stroke-width="1" d="M39.50000425428152,109.50000033527613V136.50000033527613L47.50000425428152,136.50000033527613"></path><path id="kity_path_119" fill="none" stroke="rgb(115, 191, 118)" stroke-width="1" d="M67.50000425428152,151.50000033527613V168.50000033527613L75.50000425428152,168.50000033527613"></path><path id="kity_path_127" fill="none" stroke="rgb(115, 191, 118)" stroke-width="1" d="M39.50000425428152,109.50000033527613V460.5000003352761L47.50000425428152,460.5000003352761"></path><path id="kity_path_135" fill="none" stroke="rgb(115, 191, 118)" stroke-width="1" d="M39.50000425428152,109.50000033527613V718.5000003352761L47.50000425428152,718.5000003352761"></path><path id="kity_path_143" fill="none" stroke="rgb(115, 191, 118)" stroke-width="1" d="M67.50000425428152,151.50000033527613V272.5000003352761L75.50000425428152,272.5000003352761"></path><path id="kity_path_159" fill="none" stroke="rgb(115, 191, 118)" stroke-width="1" d="M67.50000425428152,151.50000033527613V350.5000003352761L75.50000425428152,350.5000003352761"></path><path id="kity_path_185" fill="none" stroke="rgb(115, 191, 118)" stroke-width="1" d="M95.50000425428152,177.50000033527613V220.50000033527613L103.50000425428152,220.50000033527613"></path><path id="kity_path_193" fill="none" stroke="rgb(115, 191, 118)" stroke-width="1" d="M95.50000425428152,177.50000033527613V246.50000033527613L103.50000425428152,246.50000033527613"></path><path id="kity_path_201" fill="none" stroke="rgb(115, 191, 118)" stroke-width="1" d="M95.50000425428152,359.5000003352761V376.5000003352761L103.50000425428152,376.5000003352761"></path><path id="kity_path_217" fill="none" stroke="rgb(115, 191, 118)" stroke-width="1" d="M95.50000425428152,177.50000033527613V194.50000033527613L103.50000425428152,194.50000033527613"></path><path id="kity_path_257" fill="none" stroke="rgb(115, 191, 118)" stroke-width="1" d="M95.50000425428152,281.5000003352761V298.5000003352761L103.50000425428152,298.5000003352761"></path><path id="kity_path_265" fill="none" stroke="rgb(115, 191, 118)" stroke-width="1" d="M95.50000425428152,281.5000003352761V324.5000003352761L103.50000425428152,324.5000003352761"></path><path id="kity_path_297" fill="none" stroke="rgb(115, 191, 118)" stroke-width="1" d="M67.50000425428152,151.50000033527613V402.5000003352761L75.50000425428152,402.5000003352761"></path><path id="kity_path_305" fill="none" stroke="rgb(115, 191, 118)" stroke-width="1" d="M95.50000425428152,411.5000003352761V428.5000003352761L103.50000425428152,428.5000003352761"></path><path id="kity_path_347" fill="none" stroke="rgb(115, 191, 118)" stroke-width="1" d="M694.5000042542815,47.50000033527613v10h18.5V65.50000033527613"></path><path id="kity_path_355" fill="none" stroke="rgb(115, 191, 118)" stroke-width="1" d="M680.5000042542815,109.50000033527613V136.50000033527613L688.5000042542815,136.50000033527613"></path><path id="kity_path_357" fill="none" stroke="rgb(115, 191, 118)" stroke-width="1" d="M736.5000042542815,183.50000033527613V252.50000033527613L744.5000042542815,252.50000033527613"></path><path id="kity_path_359" fill="none" stroke="rgb(115, 191, 118)" stroke-width="1" d="M736.5000042542815,183.50000033527613V200.50000033527613L744.5000042542815,200.50000033527613"></path><path id="kity_path_392" fill="none" stroke="rgb(115, 191, 118)" stroke-width="1" d="M708.5000042542815,151.50000033527613V171.50000033527613L716.5000042542815,171.50000033527613"></path><path id="kity_path_413" fill="none" stroke="rgb(115, 191, 118)" stroke-width="1" d="M67.50000425428152,733.5000003352761V753.5000003352761L75.50000425428152,753.5000003352761"></path><path id="kity_path_421" fill="none" stroke="rgb(115, 191, 118)" stroke-width="1" d="M95.50000425428152,765.5000003352761V782.5000003352761L103.50000425428152,782.5000003352761"></path><path id="kity_path_429" fill="none" stroke="rgb(115, 191, 118)" stroke-width="1" d="M1285.5000042542815,109.50000033527613V136.50000033527613L1352.5000042542815,136.50000033527613"></path><path id="kity_path_463" fill="none" stroke="rgb(115, 191, 118)" stroke-width="1" d="M67.50000425428152,475.5000003352761V495.5000003352761L75.50000425428152,495.5000003352761"></path><path id="kity_path_464" fill="none" stroke="rgb(115, 191, 118)" stroke-width="1" d="M95.50000425428152,643.5000003352761V660.5000003352761L103.50000425428152,660.5000003352761"></path><path id="kity_path_465" fill="none" stroke="rgb(115, 191, 118)" stroke-width="1" d="M95.50000425428152,643.5000003352761V686.5000003352761L103.50000425428152,686.5000003352761"></path><path id="kity_path_466" fill="none" stroke="rgb(115, 191, 118)" stroke-width="1" d="M67.50000425428152,475.5000003352761V631.5000003352761L75.50000425428152,631.5000003352761"></path><path id="kity_path_484" fill="none" stroke="rgb(115, 191, 118)" stroke-width="1" d="M95.50000425428152,507.5000003352761V524.5000003352761L103.50000425428152,524.5000003352761"></path><path id="kity_path_485" fill="none" stroke="rgb(115, 191, 118)" stroke-width="1" d="M123.50000425428152,559.5000003352761V576.5000003352761L131.50000425428152,576.5000003352761"></path><path id="kity_path_486" fill="none" stroke="rgb(115, 191, 118)" stroke-width="1" d="M95.50000425428152,507.5000003352761V550.5000003352761L103.50000425428152,550.5000003352761"></path><path id="kity_path_487" fill="none" stroke="rgb(115, 191, 118)" stroke-width="1" d="M95.50000425428152,507.5000003352761V602.5000003352761L103.50000425428152,602.5000003352761"></path><path id="kity_path_497" fill="none" stroke="rgb(115, 191, 118)" stroke-width="1" d="M680.5000042542815,109.50000033527613V284.5000003352761L688.5000042542815,284.5000003352761"></path><path id="kity_path_510" fill="none" stroke="rgb(115, 191, 118)" stroke-width="1" d="M708.5000042542815,299.5000003352761V319.5000003352761L716.5000042542815,319.5000003352761"></path><path id="kity_path_518" fill="none" stroke="rgb(115, 191, 118)" stroke-width="1" d="M736.5000042542815,331.5000003352761V348.5000003352761L744.5000042542815,348.5000003352761"></path><path id="kity_path_526" fill="none" stroke="rgb(115, 191, 118)" stroke-width="1" d="M736.5000042542815,331.5000003352761V374.5000003352761L744.5000042542815,374.5000003352761"></path><path id="kity_path_534" fill="none" stroke="rgb(115, 191, 118)" stroke-width="1" d="M708.5000042542815,299.5000003352761V403.5000003352761L716.5000042542815,403.5000003352761"></path><path id="kity_path_607" fill="none" stroke="rgb(115, 191, 118)" stroke-width="1" d="M1285.5000042542815,109.50000033527613V426.5000003352761L1294.5000042542815,426.5000003352761"></path><path id="kity_path_676" fill="none" stroke="rgb(115, 191, 118)" stroke-width="1" d="M736.5000042542815,183.50000033527613V226.50000033527613L744.5000042542815,226.50000033527613"></path><path id="kity_path_729" fill="none" stroke="rgb(115, 191, 118)" stroke-width="1" d="M1285.5000042542815,109.50000033527613V563.5000003352761L1300.5000042542815,563.5000003352761"></path><path id="kity_path_804" fill="none" stroke="rgb(115, 191, 118)" stroke-width="1" d="M1348.5000042542815,610.5000003352761V627.5000003352761L1356.5000042542815,627.5000003352761"></path><path id="kity_path_805" fill="none" stroke="rgb(115, 191, 118)" stroke-width="1" d="M1320.5000042542815,578.5000003352761V598.5000003352761L1328.5000042542815,598.5000003352761"></path><path id="kity_path_807" fill="none" stroke="rgb(115, 191, 118)" stroke-width="1" d="M1348.5000042542815,610.5000003352761V653.5000003352761L1356.5000042542815,653.5000003352761"></path><path id="kity_path_814" fill="none" stroke="rgb(115, 191, 118)" stroke-width="1" d="M1314.5000042542815,441.5000003352761V461.5000003352761L1322.5000042542815,461.5000003352761"></path><path id="kity_path_815" fill="none" stroke="rgb(115, 191, 118)" stroke-width="1" d="M1314.5000042542815,441.5000003352761V490.5000003352761L1322.5000042542815,490.5000003352761"></path><path id="kity_path_816" fill="none" stroke="rgb(115, 191, 118)" stroke-width="1" d="M1314.5000042542815,441.5000003352761V516.5000003352761L1322.5000042542815,516.5000003352761"></path><path id="kity_path_817" fill="none" stroke="rgb(115, 191, 118)" stroke-width="1" d="M1372.5000042542815,151.50000033527613V168.50000033527613L1380.5000042542815,168.50000033527613"></path><path id="kity_path_818" fill="none" stroke="rgb(115, 191, 118)" stroke-width="1" d="M1400.5000042542815,203.50000033527613V220.50000033527613L1408.5000042542815,220.50000033527613"></path><path id="kity_path_819" fill="none" stroke="rgb(115, 191, 118)" stroke-width="1" d="M1372.5000042542815,151.50000033527613V194.50000033527613L1380.5000042542815,194.50000033527613"></path><path id="kity_path_820" fill="none" stroke="rgb(115, 191, 118)" stroke-width="1" d="M1400.5000042542815,255.50000033527613V272.5000003352761L1408.5000042542815,272.5000003352761"></path><path id="kity_path_821" fill="none" stroke="rgb(115, 191, 118)" stroke-width="1" d="M1372.5000042542815,151.50000033527613V246.50000033527613L1380.5000042542815,246.50000033527613"></path><path id="kity_path_822" fill="none" stroke="rgb(115, 191, 118)" stroke-width="1" d="M1400.5000042542815,313.5000003352761V330.5000003352761L1408.5000042542815,330.5000003352761"></path><path id="kity_path_823" fill="none" stroke="rgb(115, 191, 118)" stroke-width="1" d="M1400.5000042542815,313.5000003352761V356.5000003352761L1408.5000042542815,356.5000003352761"></path><path id="kity_path_824" fill="none" stroke="rgb(115, 191, 118)" stroke-width="1" d="M1372.5000042542815,151.50000033527613V301.5000003352761L1380.5000042542815,301.5000003352761"></path><path id="kity_path_826" fill="none" stroke="rgb(115, 191, 118)" stroke-width="1" d="M1320.5000042542815,578.5000003352761V682.5000003352761L1328.5000042542815,682.5000003352761"></path></g><g id="minder_node1"><path id="node_outline1" fill="#4e6128" stroke="rgb(115, 191, 118)" d="M456.5000042542815,19.500000335276127h475a5,5,0,0,1,5,5v18a5,5,0,0,1,-5,5h-475a5,5,0,0,1,-5,-5v-18a5,5,0,0,1,5,-5z" stroke-width="3"></path><g id="node_text1" fill="white"><text id="kity_text_22" text-rendering="inherit" font-size="16" dy=".8em" y="23.10000029951334" x="463.5000042542815">科技、娱乐与设计https://liuyu19.github.io/TED/mindmap.svg</text></g><a id="kity_a_865" xlink:href="https://liuyu19.github.io/TED/mindmap.svg" target="_blank" xlink:title="https://liuyu19.github.io/TED/mindmap.svg" style="cursor: pointer;" display="none"><path id="kity_path_867" fill="rgba(255, 255, 255, 0)" stroke="none" d="M465.5000042542815,27.500000335276127h16a4,4,0,0,1,4,4v14a4,4,0,0,1,-4,4h-16a4,4,0,0,1,-4,-4v-14a4,4,0,0,1,4,-4z"></path><path id="kity_path_866" fill="#666" stroke="none" d="M480.1140042542815,43.72400033527613h-1.278c-1.668,0,-3.07,-1.07,-3.599,-2.556h4.877c0.707,0,1.278,-0.571,1.278,-1.278V37.33400033527613c0,-0.707,-0.571,-1.278,-1.278,-1.278h-4.877C475.76600425428154,34.571000335276125,477.1680042542815,33.50000033527613,478.83600425428153,33.50000033527613h1.278c2.116,0,3.834,1.716,3.834,3.834V39.89000033527613C483.9480042542815,42.00800033527612,482.23000425428154,43.72400033527613,480.1140042542815,43.72400033527613zM468.61200425428154,38.61200033527613c0,-0.707,0.573,-1.278,1.278,-1.278h7.668c0.707,0,1.278,0.571,1.278,1.278S478.2650042542815,39.89000033527613,477.5580042542815,39.89000033527613H469.8900042542815C469.1850042542815,39.89000033527613,468.61200425428154,39.31900033527613,468.61200425428154,38.61200033527613zM466.0560042542815,37.33400033527613V39.89000033527613c0,0.707,0.573,1.278,1.278,1.278h4.877c-0.528,1.486,-1.932,2.556,-3.599,2.556H467.3340042542815C465.21600425428153,43.72400033527613,463.5000042542815,42.00800033527612,463.5000042542815,39.89000033527613V37.33400033527613C463.5000042542815,35.21600033527613,465.21600425428153,33.50000033527613,467.3340042542815,33.50000033527613h1.278c1.667,0,3.071,1.071,3.599,2.556H467.3340042542815C466.62900425428154,36.056000335276124,466.0560042542815,36.62700033527613,466.0560042542815,37.33400033527613z"></path></a></g><g id="kity_g_14" display="none"><path id="kity_path_15" fill="rgba(0, 153, 5, 0.5)" stroke="none" d="M914.5000042542815,81.50000033527613h8v44h-8z"></path><path id="kity_path_16" fill="none" stroke="rgb(0, 128, 4)" d="M922.5000042542815,81.50000033527613L922.5000042542815,125.50000033527613" stroke-width="1"></path></g><g id="minder_node9"><g id="node_expander8" style="cursor: pointer;"><path id="kity_path_92" fill="white" stroke="gray" d="M77.49999841302633,58.50000070780516A6,6,0,1,1,65.49999841302633,58.50000070780516A6,6,0,1,1,77.49999841302633,58.50000070780516"></path><path id="kity_path_93" fill="none" stroke="gray" d="M66.99999841302633,58.50000070780516L75.99999841302633,58.50000070780516"></path></g><path id="node_outline9" fill="#76923c" stroke="rgb(115, 191, 118)" d="M22.499997936189175,65.50000113993883h98a3,3,0,0,1,3,3v38a3,3,0,0,1,-3,3h-98a3,3,0,0,1,-3,-3v-38a3,3,0,0,1,3,-3z" stroke-width="1"></path><g id="node_text9" fill="black"><text id="kity_text_89" text-rendering="inherit" font-size="32" dy=".8em" y="66.70000106841326" x="39.499997936189175">科技</text></g></g><g id="minder_node10"><g id="node_expander9" style="cursor: pointer;"><path id="kity_path_100" fill="white" stroke="gray" d="M1323.5000169798732,58.50000070780516A6,6,0,1,1,1311.5000169798732,58.50000070780516A6,6,0,1,1,1323.5000169798732,58.50000070780516"></path><path id="kity_path_101" fill="none" stroke="gray" d="M1313.0000169798732,58.50000070780516L1322.0000169798732,58.50000070780516"></path></g><path id="node_outline10" fill="#76923c" stroke="rgb(115, 191, 118)" d="M1268.500016503036,65.50000113993883h98a3,3,0,0,1,3,3v38a3,3,0,0,1,-3,3h-98a3,3,0,0,1,-3,-3v-38a3,3,0,0,1,3,-3z" stroke-width="1"></path><g id="node_text10" fill="black"><text id="kity_text_97" text-rendering="inherit" font-size="32" dy=".8em" y="66.70000106841326" x="1285.500016503036">设计</text></g><g id="node_priority3" display="none"><path id="kity_path_314" fill="#840023" stroke="none" d="M1261.0000161379576,91.0000009983778c0,3.866,3.134,7,7,7h6c3.866,0,7,-3.134,7,-7V85.0000009983778H1261.0000161379576V91.0000009983778z"></path><path id="kity_path_315" fill="#FF1200" stroke="none" d="M1281.0000161379576,88.0000009983778c0,3.866,-3.134,7,-7,7H1268.0000161379576c-3.866,0,-7,-3.134,-7,-7V85.0000009983778c0,-3.866,3.134,-7,7,-7h6c3.866,0,7,3.134,7,7V88.0000009983778z" opacity="0.8"></path><text id="kity_text_316" text-rendering="geometricPrecision" x="1270.000016130507" y="87.50000099092722" text-anchor="middle" font-style="italic" font-size="12" fill="white" dy="5">1</text></g></g><g id="minder_node12"><g id="node_expander11" style="cursor: pointer;"><path id="kity_path_116" fill="white" stroke="gray" d="M47.4999979659915,136.50000187009573A6,6,0,1,1,35.4999979659915,136.50000187009573A6,6,0,1,1,47.4999979659915,136.50000187009573"></path><path id="kity_path_117" fill="none" stroke="gray" d="M36.9999979659915,136.50000187009573L45.9999979659915,136.50000187009573"></path></g><path id="node_outline12" fill="#c2d69b" stroke="none" d="M52.4999985024333,121.50000187009573h265a5,5,0,0,1,5,5v20a5,5,0,0,1,-5,5h-265a5,5,0,0,1,-5,-5v-20a5,5,0,0,1,5,-5z" stroke-width="3"></path><g id="node_text12" fill="black"><text id="kity_text_113" text-rendering="inherit" font-size="24" dy=".8em" y="120.90000181645155" x="77.4999985024333">科技在影响我们的生活</text></g><g id="node_priority1"><path id="kity_path_176" fill="#840023" stroke="none" d="M52.99999813735485,140.0000017285347c0,3.866,3.134,7,7,7h6c3.866,0,7,-3.134,7,-7V134.0000017285347H52.99999813735485V140.0000017285347z"></path><path id="kity_path_177" fill="#FF1200" stroke="none" d="M72.99999813735485,137.0000017285347c0,3.866,-3.134,7,-7,7H59.99999813735485c-3.866,0,-7,-3.134,-7,-7V134.0000017285347c0,-3.866,3.134,-7,7,-7h6c3.866,0,7,3.134,7,7V137.0000017285347z" opacity="0.8"></path><text id="kity_text_178" text-rendering="geometricPrecision" x="61.99999812990427" y="136.50000172108412" text-anchor="middle" font-style="italic" font-size="12" fill="white" dy="5">1</text></g></g><g id="minder_node13"><g id="node_expander12" style="cursor: pointer;"><path id="kity_path_124" fill="white" stroke="gray" d="M75.49999838322401,168.5000023469329A6,6,0,1,1,63.49999838322401,168.5000023469329A6,6,0,1,1,75.49999838322401,168.5000023469329"></path><path id="kity_path_125" fill="none" stroke="gray" d="M64.99999838322401,168.5000023469329L73.99999838322401,168.5000023469329"></path></g><path id="node_outline13" fill="none" stroke="none" d="M80.49999854713678,159.5000023469329h133a5,5,0,0,1,5,5v8a5,5,0,0,1,-5,5h-133a5,5,0,0,1,-5,-5v-8a5,5,0,0,1,5,-5z" stroke-width="3"></path><g id="node_text13" fill="black"><text id="kity_text_121" text-rendering="inherit" font-size="12" dy=".8em" y="160.7000023201108" x="80.49999854713678">对亲密关系与社交的态度</text></g></g><g id="minder_node14" opacity="1"><g id="node_expander13" style="cursor: pointer;"><path id="kity_path_132" fill="white" stroke="gray" d="M47.4999979659915,460.50000669807196A6,6,0,1,1,35.4999979659915,460.50000669807196A6,6,0,1,1,47.4999979659915,460.50000669807196"></path><path id="kity_path_133" fill="none" stroke="gray" d="M36.9999979659915,460.50000669807196L45.9999979659915,460.50000669807196"></path></g><path id="node_outline14" fill="#c2d69b" stroke="none" d="M52.4999985024333,445.50000669807196h313a5,5,0,0,1,5,5v20a5,5,0,0,1,-5,5h-313a5,5,0,0,1,-5,-5v-20a5,5,0,0,1,5,-5z" stroke-width="3"></path><g id="node_text14" fill="black"><text id="kity_text_129" text-rendering="inherit" font-size="24" dy=".8em" y="444.9000066444278" x="77.4999985024333">科技公司对此有极大的责任</text></g><g id="node_priority2"><path id="kity_path_181" fill="#01467F" stroke="none" d="M52.99999813735485,464.0000065565109c0,3.866,3.134,7,7,7h6c3.866,0,7,-3.134,7,-7V458.0000065565109H52.99999813735485V464.0000065565109z"></path><path id="kity_path_182" fill="#0074FF" stroke="none" d="M72.99999813735485,461.0000065565109c0,3.866,-3.134,7,-7,7H59.99999813735485c-3.866,0,-7,-3.134,-7,-7V458.0000065565109c0,-3.866,3.134,-7,7,-7h6c3.866,0,7,3.134,7,7V461.0000065565109z" opacity="0.8"></path><text id="kity_text_183" text-rendering="geometricPrecision" x="61.99999812990427" y="460.50000654906034" text-anchor="middle" font-style="italic" font-size="12" fill="white" dy="5">2</text></g></g><g id="minder_node15"><g id="node_expander14" style="cursor: pointer;"><path id="kity_path_140" fill="white" stroke="gray" d="M47.4999979659915,718.5000105425715A6,6,0,1,1,35.4999979659915,718.5000105425715A6,6,0,1,1,47.4999979659915,718.5000105425715"></path><path id="kity_path_141" fill="none" stroke="gray" d="M36.9999979659915,718.5000105425715L45.9999979659915,718.5000105425715"></path></g><path id="node_outline15" fill="#c2d69b" stroke="none" d="M52.4999985024333,703.5000105425715h193a5,5,0,0,1,5,5v20a5,5,0,0,1,-5,5h-193a5,5,0,0,1,-5,-5v-20a5,5,0,0,1,5,-5z" stroke-width="3"></path><g id="node_text15" fill="black"><text id="kity_text_137" text-rendering="inherit" font-size="24" dy=".8em" y="702.9000104889274" x="77.4999985024333">数据对人的影响</text></g><g id="node_priority6"><path id="kity_path_409" fill="#006300" stroke="none" d="M52.99999813735485,722.0000104010105c0,3.866,3.134,7,7,7h6c3.866,0,7,-3.134,7,-7V716.0000104010105H52.99999813735485V722.0000104010105z"></path><path id="kity_path_410" fill="#00AF00" stroke="none" d="M72.99999813735485,719.0000104010105c0,3.866,-3.134,7,-7,7H59.99999813735485c-3.866,0,-7,-3.134,-7,-7V716.0000104010105c0,-3.866,3.134,-7,7,-7h6c3.866,0,7,3.134,7,7V719.0000104010105z" opacity="0.8"></path><text id="kity_text_411" text-rendering="geometricPrecision" x="61.99999812990427" y="718.5000103935599" text-anchor="middle" font-style="italic" font-size="12" fill="white" dy="5">3</text></g></g><g id="minder_node16"><g id="node_expander15" style="cursor: pointer;"><path id="kity_path_148" fill="white" stroke="gray" d="M75.49999838322401,272.50000389665365A6,6,0,1,1,63.49999838322401,272.50000389665365A6,6,0,1,1,75.49999838322401,272.50000389665365"></path><path id="kity_path_149" fill="none" stroke="gray" d="M64.99999838322401,272.50000389665365L73.99999838322401,272.50000389665365"></path></g><path id="node_outline16" fill="none" stroke="none" d="M80.49999854713678,263.50000389665365h121a5,5,0,0,1,5,5v8a5,5,0,0,1,-5,5h-121a5,5,0,0,1,-5,-5v-8a5,5,0,0,1,5,-5z" stroke-width="3"></path><g id="node_text16" fill="black"><text id="kity_text_145" text-rendering="inherit" font-size="12" dy=".8em" y="264.70000386983156" x="80.49999854713678">在影响我们的性别教育</text></g></g><g id="minder_node18"><g id="node_expander17" style="cursor: pointer;"><path id="kity_path_164" fill="white" stroke="gray" d="M75.49999838322401,350.5000050589442A6,6,0,1,1,63.49999838322401,350.5000050589442A6,6,0,1,1,75.49999838322401,350.5000050589442"></path><path id="kity_path_165" fill="none" stroke="gray" d="M64.99999838322401,350.5000050589442L73.99999838322401,350.5000050589442"></path></g><path id="node_outline18" fill="none" stroke="none" d="M80.49999854713678,341.5000050589442h84a5,5,0,0,1,5,5v8a5,5,0,0,1,-5,5h-84a5,5,0,0,1,-5,-5v-8a5,5,0,0,1,5,-5z" stroke-width="3"></path><g id="node_text18" fill="black"><text id="kity_text_161" text-rendering="inherit" font-size="12" dy=".8em" y="342.70000503212214" x="80.49999854713678">改变金钱与贸易</text></g></g><g id="minder_node20"><g id="node_expander19" style="cursor: pointer;" display="none"><path id="kity_path_190" fill="white" stroke="gray" d="M103.49999880045652,220.50000312179327A6,6,0,1,1,91.49999880045652,220.50000312179327A6,6,0,1,1,103.49999880045652,220.50000312179327"></path><path id="kity_path_191" fill="none" stroke="gray"></path></g><path id="node_outline20" fill="none" stroke="none" d="M108.4999989643693,211.50000312179327h241a5,5,0,0,1,5,5v8a5,5,0,0,1,-5,5h-241a5,5,0,0,1,-5,-5v-8a5,5,0,0,1,5,-5z" stroke-width="3"></path><g id="node_text20" fill="black"><text id="kity_text_187" text-rendering="inherit" font-size="12" dy=".8em" y="212.70000309497118" x="108.4999989643693">案例：人们花时间在高高片上，不愿意社交。</text></g></g><g id="minder_node21"><g id="node_expander20" style="cursor: pointer;" display="none"><path id="kity_path_198" fill="white" stroke="gray" d="M103.49999880045652,246.50000350922346A6,6,0,1,1,91.49999880045652,246.50000350922346A6,6,0,1,1,103.49999880045652,246.50000350922346"></path><path id="kity_path_199" fill="none" stroke="gray"></path></g><path id="node_outline21" fill="none" stroke="none" d="M108.4999989643693,237.50000350922346h145a5,5,0,0,1,5,5v8a5,5,0,0,1,-5,5h-145a5,5,0,0,1,-5,-5v-8a5,5,0,0,1,5,-5z" stroke-width="3"></path><g id="node_text21" fill="black"><text id="kity_text_195" text-rendering="inherit" font-size="12" dy=".8em" y="238.70000348240137" x="108.4999989643693">案例：复仇式色情伤害人们</text></g></g><g id="minder_node22"><g id="node_expander21" style="cursor: pointer;" display="none"><path id="kity_path_206" fill="white" stroke="gray" d="M103.49999880045652,376.5000054463744A6,6,0,1,1,91.49999880045652,376.5000054463744A6,6,0,1,1,103.49999880045652,376.5000054463744"></path><path id="kity_path_207" fill="none" stroke="gray"></path></g><path id="node_outline22" fill="none" stroke="none" d="M108.4999989643693,367.5000054463744h73a5,5,0,0,1,5,5v8a5,5,0,0,1,-5,5h-73a5,5,0,0,1,-5,-5v-8a5,5,0,0,1,5,-5z" stroke-width="3"></path><g id="node_text22" fill="black"><text id="kity_text_203" text-rendering="inherit" font-size="12" dy=".8em" y="368.7000054195523" x="108.4999989643693">案例：比特币</text></g></g><g id="minder_node24" opacity="1"><g id="node_expander23" style="cursor: pointer;" display="none"><path id="kity_path_222" fill="white" stroke="gray" d="M103.49999880045652,194.50000273436308A6,6,0,1,1,91.49999880045652,194.50000273436308A6,6,0,1,1,103.49999880045652,194.50000273436308"></path><path id="kity_path_223" fill="none" stroke="gray"></path></g><path id="node_outline24" fill="none" stroke="none" d="M108.4999989643693,185.50000273436308h229a5,5,0,0,1,5,5v8a5,5,0,0,1,-5,5h-229a5,5,0,0,1,-5,-5v-8a5,5,0,0,1,5,-5z" stroke-width="3"></path><g id="node_text24" fill="black"><text id="kity_text_219" text-rendering="inherit" font-size="12" dy=".8em" y="186.700002707541" x="108.4999989643693">分论点：科技发展使人们更注重隐私保护。</text></g></g><g id="minder_node29"><g id="node_expander28" style="cursor: pointer;" display="none"><path id="kity_path_262" fill="white" stroke="gray" d="M103.49999880045652,298.50000428408384A6,6,0,1,1,91.49999880045652,298.50000428408384A6,6,0,1,1,103.49999880045652,298.50000428408384"></path><path id="kity_path_263" fill="none" stroke="gray"></path></g><path id="node_outline29" fill="none" stroke="none" d="M108.4999989643693,289.50000428408384h216a5,5,0,0,1,5,5v8a5,5,0,0,1,-5,5h-216a5,5,0,0,1,-5,-5v-8a5,5,0,0,1,5,-5z" stroke-width="3"></path><g id="node_text29" fill="black"><text id="kity_text_259" text-rendering="inherit" font-size="12" dy=".8em" y="290.70000425726175" x="108.4999989643693">青少年能轻易接受高强度色情片的刺激。</text></g></g><g id="minder_node30"><g id="node_expander29" style="cursor: pointer;" display="none"><path id="kity_path_270" fill="white" stroke="gray" d="M103.49999880045652,324.50000467151403A6,6,0,1,1,91.49999880045652,324.50000467151403A6,6,0,1,1,103.49999880045652,324.50000467151403"></path><path id="kity_path_271" fill="none" stroke="gray"></path></g><path id="node_outline30" fill="none" stroke="none" d="M108.4999989643693,315.50000467151403h168a5,5,0,0,1,5,5v8a5,5,0,0,1,-5,5h-168a5,5,0,0,1,-5,-5v-8a5,5,0,0,1,5,-5z" stroke-width="3"></path><g id="node_text30" fill="black"><text id="kity_text_267" text-rendering="inherit" font-size="12" dy=".8em" y="316.70000464469194" x="108.4999989643693">互联网或成为青年性启蒙教师。</text></g></g><g id="minder_node34"><g id="node_expander33" style="cursor: pointer;"><path id="kity_path_302" fill="white" stroke="gray" d="M75.49999838322401,402.5000058338046A6,6,0,1,1,63.49999838322401,402.5000058338046A6,6,0,1,1,75.49999838322401,402.5000058338046"></path><path id="kity_path_303" fill="none" stroke="gray" d="M64.99999838322401,402.5000058338046L73.99999838322401,402.5000058338046"></path></g><path id="node_outline34" fill="none" stroke="none" d="M80.49999854713678,393.5000058338046h50a5,5,0,0,1,5,5v8a5,5,0,0,1,-5,5h-50a5,5,0,0,1,-5,-5v-8a5,5,0,0,1,5,-5z" stroke-width="3"></path><g id="node_text34" fill="black"><text id="kity_text_299" text-rendering="inherit" font-size="12" dy=".8em" y="394.7000058069825" x="80.49999854713678">政治独裁</text></g></g><g id="minder_node35"><g id="node_expander34" style="cursor: pointer;" display="none"><path id="kity_path_310" fill="white" stroke="gray" d="M103.49999880045652,428.5000062212348A6,6,0,1,1,91.49999880045652,428.5000062212348A6,6,0,1,1,103.49999880045652,428.5000062212348"></path><path id="kity_path_311" fill="none" stroke="gray"></path></g><path id="node_outline35" fill="none" stroke="none" d="M108.4999989643693,419.5000062212348h325a5,5,0,0,1,5,5v8a5,5,0,0,1,-5,5h-325a5,5,0,0,1,-5,-5v-8a5,5,0,0,1,5,-5z" stroke-width="3"></path><g id="node_text35" fill="black"><text id="kity_text_307" text-rendering="inherit" font-size="12" dy=".8em" y="420.7000061944127" x="108.4999989643693">案例：政府有效率地处理大量的资讯，可能使民主受到影响。</text></g></g><g id="minder_node39"><g id="node_expander38" style="cursor: pointer;"><path id="kity_path_352" fill="white" stroke="gray" d="M718.5000079646707,58.50000070780516A6,6,0,1,1,706.5000079646707,58.50000070780516A6,6,0,1,1,718.5000079646707,58.50000070780516"></path><path id="kity_path_353" fill="none" stroke="gray" d="M708.0000079646707,58.50000070780516L717.0000079646707,58.50000070780516"></path></g><path id="node_outline39" fill="#76923c" stroke="rgb(115, 191, 118)" d="M663.5000074878335,65.50000113993883h98a3,3,0,0,1,3,3v38a3,3,0,0,1,-3,3h-98a3,3,0,0,1,-3,-3v-38a3,3,0,0,1,3,-3z" stroke-width="1"></path><g id="node_text39" fill="black"><text id="kity_text_349" text-rendering="inherit" font-size="32" dy=".8em" y="66.70000106841326" x="680.5000074878335">娱乐</text></g></g><g id="minder_node40"><g id="node_expander41" style="cursor: pointer;"><path id="kity_path_381" fill="white" stroke="gray" d="M688.5000075176358,136.50000187009573A6,6,0,1,1,676.5000075176358,136.50000187009573A6,6,0,1,1,688.5000075176358,136.50000187009573"></path><path id="kity_path_382" fill="none" stroke="gray" d="M678.0000075176358,136.50000187009573L687.0000075176358,136.50000187009573"></path></g><path id="node_outline42" fill="#c2d69b" stroke="none" d="M693.5000080540776,121.50000187009573h361a5,5,0,0,1,5,5v20a5,5,0,0,1,-5,5h-361a5,5,0,0,1,-5,-5v-20a5,5,0,0,1,5,-5z" stroke-width="3"></path><g id="node_text42" fill="black"><text id="kity_text_365" text-rendering="inherit" font-size="24" dy=".8em" y="120.90000181645155" x="718.5000080540776">我们所使用的社交网络在变封闭</text></g><g id="node_priority5"><path id="kity_path_368" fill="#840023" stroke="none" d="M694.0000076889992,140.0000017285347c0,3.866,3.134,7,7,7h6c3.866,0,7,-3.134,7,-7V134.0000017285347H694.0000076889992V140.0000017285347z"></path><path id="kity_path_369" fill="#FF1200" stroke="none" d="M714.0000076889992,137.0000017285347c0,3.866,-3.134,7,-7,7H701.0000076889992c-3.866,0,-7,-3.134,-7,-7V134.0000017285347c0,-3.866,3.134,-7,7,-7h6c3.866,0,7,3.134,7,7V137.0000017285347z" opacity="0.8"></path><text id="kity_text_370" text-rendering="geometricPrecision" x="703.0000076815486" y="136.50000172108412" text-anchor="middle" font-style="italic" font-size="12" fill="white" dy="5">1</text></g></g><g id="minder_node41" opacity="1"><g id="node_expander39" style="cursor: pointer;" display="none"><path id="kity_path_375" fill="white" stroke="gray" d="M744.5000083521008,252.50000359863043A6,6,0,1,1,732.5000083521008,252.50000359863043A6,6,0,1,1,744.5000083521008,252.50000359863043"></path><path id="kity_path_376" fill="none" stroke="gray"></path></g><path id="node_outline40" fill="none" stroke="none" d="M749.5000085160136,243.50000359863043h362a5,5,0,0,1,5,5v8a5,5,0,0,1,-5,5h-362a5,5,0,0,1,-5,-5v-8a5,5,0,0,1,5,-5z" stroke-width="3"></path><g id="node_text40" fill="black"><text id="kity_text_361" text-rendering="inherit" font-size="12" dy=".8em" y="244.70000357180834" x="749.5000085160136">案例：网络公司努力为迎合个人喜好而调整其服务如新闻和搜索结果</text></g></g><g id="minder_node42" opacity="1"><g id="node_expander40" style="cursor: pointer;" display="none"><path id="kity_path_378" fill="white" stroke="gray" d="M744.5000083521008,200.50000282377005A6,6,0,1,1,732.5000083521008,200.50000282377005A6,6,0,1,1,744.5000083521008,200.50000282377005"></path><path id="kity_path_379" fill="none" stroke="gray"></path></g><path id="node_outline41" fill="none" stroke="none" d="M749.5000085160136,191.50000282377005h386a5,5,0,0,1,5,5v8a5,5,0,0,1,-5,5h-386a5,5,0,0,1,-5,-5v-8a5,5,0,0,1,5,-5z" stroke-width="3"></path><g id="node_text41" fill="black"><text id="kity_text_363" text-rendering="inherit" font-size="12" dy=".8em" y="192.70000279694796" x="749.5000085160136">解释：我们深陷过滤过的信息中，得不到能挑战或拓展我们世界观的信息</text></g></g><g id="minder_node44"><g id="node_expander43" style="cursor: pointer;"><path id="kity_path_397" fill="white" stroke="gray" d="M716.5000079348683,171.50000239163637A6,6,0,1,1,704.5000079348683,171.50000239163637A6,6,0,1,1,716.5000079348683,171.50000239163637"></path><path id="kity_path_398" fill="none" stroke="gray" d="M706.0000079348683,171.50000239163637L715.0000079348683,171.50000239163637"></path></g><path id="node_outline44" fill="#eaf1dd" stroke="none" d="M721.5000080987811,159.50000239163637h523a5,5,0,0,1,5,5v14a5,5,0,0,1,-5,5h-523a5,5,0,0,1,-5,-5v-14a5,5,0,0,1,5,-5z" stroke-width="3"></path><g id="node_text44" fill="black"><text id="kity_text_394" text-rendering="inherit" font-size="18" dy=".8em" y="159.80000235140324" x="721.5000080987811">分论点：提供信息是媒体的责任，选择阅读哪些才是我们该做的。</text></g></g><g id="minder_node46"><g id="node_expander45" style="cursor: pointer;"><path id="kity_path_418" fill="white" stroke="gray" d="M75.49999838322401,753.5000110641122A6,6,0,1,1,63.49999838322401,753.5000110641122A6,6,0,1,1,75.49999838322401,753.5000110641122"></path><path id="kity_path_419" fill="none" stroke="gray" d="M64.99999838322401,753.5000110641122L73.99999838322401,753.5000110641122"></path></g><path id="node_outline46" fill="#eaf1dd" stroke="none" d="M80.49999854713678,741.5000110641122h325a5,5,0,0,1,5,5v14a5,5,0,0,1,-5,5h-325a5,5,0,0,1,-5,-5v-14a5,5,0,0,1,5,-5z" stroke-width="3"></path><g id="node_text46" fill="black"><text id="kity_text_415" text-rendering="inherit" font-size="18" dy=".8em" y="741.800011023879" x="80.49999854713678">分论点：数据是我们表达现实所用的工具</text></g></g><g id="minder_node47"><g id="node_expander46" style="cursor: pointer;" display="none"><path id="kity_path_426" fill="white" stroke="gray" d="M103.49999880045652,782.5000114962459A6,6,0,1,1,91.49999880045652,782.5000114962459A6,6,0,1,1,103.49999880045652,782.5000114962459"></path><path id="kity_path_427" fill="none" stroke="gray"></path></g><path id="node_outline47" fill="none" stroke="none" d="M108.4999989643693,773.5000114962459h158a5,5,0,0,1,5,5v8a5,5,0,0,1,-5,5h-158a5,5,0,0,1,-5,-5v-8a5,5,0,0,1,5,-5z" stroke-width="3"></path><g id="node_text47" fill="black"><text id="kity_text_423" text-rendering="inherit" font-size="12" dy=".8em" y="774.7000114694238" x="108.4999989643693">解释：数据是一种总结的工具</text></g></g><g id="minder_node48" opacity="1"><g id="node_expander47" style="cursor: pointer;"><path id="kity_path_434" fill="white" stroke="gray" d="M1352.5000174120069,136.50000187009573A6,6,0,1,1,1340.5000174120069,136.50000187009573A6,6,0,1,1,1352.5000174120069,136.50000187009573"></path><path id="kity_path_435" fill="none" stroke="gray" d="M1342.0000174120069,136.50000187009573L1351.0000174120069,136.50000187009573"></path></g><path id="node_outline48" fill="#c2d69b" stroke="none" d="M1357.5000179484487,121.50000187009573h457a5,5,0,0,1,5,5v20a5,5,0,0,1,-5,5h-457a5,5,0,0,1,-5,-5v-20a5,5,0,0,1,5,-5z" stroke-width="3"></path><g id="node_text48" fill="black"><text id="kity_text_431" text-rendering="inherit" font-size="24" dy=".8em" y="120.90000181645155" x="1382.5000179484487">运用我们的所学用不同的方式去看待未来</text></g><g id="node_priority7"><path id="kity_path_438" fill="#840023" stroke="none" d="M1358.0000175833702,140.0000017285347c0,3.866,3.134,7,7,7h6c3.866,0,7,-3.134,7,-7V134.0000017285347H1358.0000175833702V140.0000017285347z"></path><path id="kity_path_439" fill="#FF1200" stroke="none" d="M1378.0000175833702,137.0000017285347c0,3.866,-3.134,7,-7,7H1365.0000175833702c-3.866,0,-7,-3.134,-7,-7V134.0000017285347c0,-3.866,3.134,-7,7,-7h6c3.866,0,7,3.134,7,7V137.0000017285347z" opacity="0.8"></path><text id="kity_text_440" text-rendering="geometricPrecision" x="1367.0000175759196" y="136.50000172108412" text-anchor="middle" font-style="italic" font-size="12" fill="white" dy="5">1</text></g></g><g id="minder_node27" opacity="1"><g id="node_expander26" style="cursor: pointer;"><path id="kity_path_246" fill="white" stroke="gray" d="M75.49999838322401,495.5000072196126A6,6,0,1,1,63.49999838322401,495.5000072196126A6,6,0,1,1,75.49999838322401,495.5000072196126"></path><path id="kity_path_247" fill="none" stroke="gray" d="M64.99999838322401,495.5000072196126L73.99999838322401,495.5000072196126"></path></g><path id="node_outline27" fill="#eaf1dd" stroke="none" d="M80.49999854713678,483.5000072196126h559a5,5,0,0,1,5,5v14a5,5,0,0,1,-5,5h-559a5,5,0,0,1,-5,-5v-14a5,5,0,0,1,5,-5z" stroke-width="3"></path><g id="node_text27" fill="black"><text id="kity_text_243" text-rendering="inherit" font-size="18" dy=".8em" y="483.80000717937946" x="80.49999854713678">分论点：使用大量电子产品占据大量时间，我们却没有因此更加幸福。</text></g></g><g id="minder_node31"><g id="node_expander30" style="cursor: pointer;" display="none"><path id="kity_path_278" fill="white" stroke="gray" d="M103.49999880045652,660.5000096783042A6,6,0,1,1,91.49999880045652,660.5000096783042A6,6,0,1,1,103.49999880045652,660.5000096783042"></path><path id="kity_path_279" fill="none" stroke="gray" d="M92.99999880045652,660.5000096783042L101.99999880045652,660.5000096783042"></path></g><path id="node_outline31" fill="none" stroke="none" d="M108.4999989643693,651.5000096783042h301a5,5,0,0,1,5,5v8a5,5,0,0,1,-5,5h-301a5,5,0,0,1,-5,-5v-8a5,5,0,0,1,5,-5z" stroke-width="3"></path><g id="node_text31" fill="black"><text id="kity_text_275" text-rendering="inherit" font-size="12" dy=".8em" y="652.7000096514821" x="108.4999989643693">解释：机器学习采用的是以前的数据，可能会继续偏见。</text></g></g><g id="minder_node33"><g id="node_expander32" style="cursor: pointer;" display="none"><path id="kity_path_294" fill="white" stroke="gray" d="M103.49999880045652,686.5000100657344A6,6,0,1,1,91.49999880045652,686.5000100657344A6,6,0,1,1,103.49999880045652,686.5000100657344"></path><path id="kity_path_295" fill="none" stroke="gray"></path></g><path id="node_outline33" fill="none" stroke="none" d="M108.4999989643693,677.5000100657344h86a5,5,0,0,1,5,5v8a5,5,0,0,1,-5,5h-86a5,5,0,0,1,-5,-5v-8a5,5,0,0,1,5,-5z" stroke-width="3"></path><g id="node_text33" fill="black"><text id="kity_text_291" text-rendering="inherit" font-size="12" dy=".8em" y="678.7000100389123" x="108.4999989643693">案例：招聘软件</text></g></g><g id="minder_node28"><g id="node_expander27" style="cursor: pointer;"><path id="kity_path_254" fill="white" stroke="gray" d="M75.49999838322401,631.5000092461705A6,6,0,1,1,63.49999838322401,631.5000092461705A6,6,0,1,1,75.49999838322401,631.5000092461705"></path><path id="kity_path_255" fill="none" stroke="gray" d="M64.99999838322401,631.5000092461705L73.99999838322401,631.5000092461705"></path></g><path id="node_outline28" fill="#eaf1dd" stroke="none" d="M80.49999854713678,619.5000092461705h217a5,5,0,0,1,5,5v14a5,5,0,0,1,-5,5h-217a5,5,0,0,1,-5,-5v-14a5,5,0,0,1,5,-5z" stroke-width="3"></path><g id="node_text28" fill="black"><text id="kity_text_251" text-rendering="inherit" font-size="18" dy=".8em" y="619.8000092059374" x="80.49999854713678">分论点：机器是否要责任？</text></g></g><g id="minder_node51" opacity="1"><g id="node_expander50" style="cursor: pointer;" display="none"><path id="kity_path_474" fill="white" stroke="gray" d="M103.49999880045652,524.5000076517463A6,6,0,1,1,91.49999880045652,524.5000076517463A6,6,0,1,1,103.49999880045652,524.5000076517463"></path><path id="kity_path_475" fill="none" stroke="gray"></path></g><path id="node_outline51" fill="none" stroke="none" d="M108.4999989643693,515.5000076517463h349a5,5,0,0,1,5,5v8a5,5,0,0,1,-5,5h-349a5,5,0,0,1,-5,-5v-8a5,5,0,0,1,5,-5z" stroke-width="3"></path><g id="node_text51" fill="black"><text id="kity_text_471" text-rendering="inherit" font-size="12" dy=".8em" y="516.7000076249242" x="108.4999989643693">解释：这些软件的目的是让我们花更多时间，夺走我们的注意力。</text></g></g><g id="minder_node52" opacity="1"><g id="node_expander51" style="cursor: pointer;" display="none"><path id="kity_path_482" fill="white" stroke="gray" d="M131.49999921768904,576.5000084266067A6,6,0,1,1,119.49999921768904,576.5000084266067A6,6,0,1,1,131.49999921768904,576.5000084266067"></path><path id="kity_path_483" fill="none" stroke="gray"></path></g><path id="node_outline52" fill="none" stroke="none" d="M136.4999993816018,567.5000084266067h409a5,5,0,0,1,5,5v8a5,5,0,0,1,-5,5h-409a5,5,0,0,1,-5,-5v-8a5,5,0,0,1,5,-5z" stroke-width="3"></path><g id="node_text52" fill="black"><text id="kity_text_479" text-rendering="inherit" font-size="12" dy=".8em" y="568.7000083997846" x="136.4999993816018">案例：吸引你的注意力影响你的情绪，此时我的情绪被触发，不是我的本意。</text></g></g><g id="minder_node50" opacity="1"><g id="node_expander49" style="cursor: pointer;"><path id="kity_path_460" fill="white" stroke="gray" d="M103.49999880045652,550.5000080391765A6,6,0,1,1,91.49999880045652,550.5000080391765A6,6,0,1,1,103.49999880045652,550.5000080391765"></path><path id="kity_path_461" fill="none" stroke="gray" d="M92.99999880045652,550.5000080391765L101.99999880045652,550.5000080391765"></path></g><path id="node_outline50" fill="none" stroke="none" d="M108.4999989643693,541.5000080391765h253a5,5,0,0,1,5,5v8a5,5,0,0,1,-5,5h-253a5,5,0,0,1,-5,-5v-8a5,5,0,0,1,5,-5z" stroke-width="3"></path><g id="node_text50" fill="black"><text id="kity_text_457" text-rendering="inherit" font-size="12" dy=".8em" y="542.7000080123544" x="108.4999989643693">解释：控制室能控制人的情感，左右人的想法。 </text></g></g><g id="minder_node23" opacity="1"><g id="node_expander22" style="cursor: pointer;" display="none"><path id="kity_path_214" fill="white" stroke="gray" d="M103.49999880045652,602.5000088140368A6,6,0,1,1,91.49999880045652,602.5000088140368A6,6,0,1,1,103.49999880045652,602.5000088140368"></path><path id="kity_path_215" fill="none" stroke="gray"></path></g><path id="node_outline23" fill="none" stroke="none" d="M108.4999989643693,593.5000088140368h289a5,5,0,0,1,5,5v8a5,5,0,0,1,-5,5h-289a5,5,0,0,1,-5,-5v-8a5,5,0,0,1,5,-5z" stroke-width="3"></path><g id="node_text23" fill="black"><text id="kity_text_211" text-rendering="inherit" font-size="12" dy=".8em" y="594.7000087872148" x="108.4999989643693">案例：社交软件公司会分析我们的动态，发出的照片。</text></g></g><g id="minder_node54"><g id="node_expander53" style="cursor: pointer;"><path id="kity_path_502" fill="white" stroke="gray" d="M688.5000075176358,284.5000040754676A6,6,0,1,1,676.5000075176358,284.5000040754676A6,6,0,1,1,688.5000075176358,284.5000040754676"></path><path id="kity_path_503" fill="none" stroke="gray" d="M678.0000075176358,284.5000040754676L687.0000075176358,284.5000040754676"></path></g><path id="node_outline54" fill="#c2d69b" stroke="none" d="M693.5000080540776,269.5000040754676h193a5,5,0,0,1,5,5v20a5,5,0,0,1,-5,5h-193a5,5,0,0,1,-5,-5v-20a5,5,0,0,1,5,-5z" stroke-width="3"></path><g id="node_text54" fill="black"><text id="kity_text_499" text-rendering="inherit" font-size="24" dy=".8em" y="268.9000040218234" x="718.5000080540776">对于娱乐的上瘾</text></g><g id="node_priority8"><path id="kity_path_506" fill="#01467F" stroke="none" d="M694.0000076889992,288.00000393390656c0,3.866,3.134,7,7,7h6c3.866,0,7,-3.134,7,-7V282.00000393390656H694.0000076889992V288.00000393390656z"></path><path id="kity_path_507" fill="#0074FF" stroke="none" d="M714.0000076889992,285.00000393390656c0,3.866,-3.134,7,-7,7H701.0000076889992c-3.866,0,-7,-3.134,-7,-7V282.00000393390656c0,-3.866,3.134,-7,7,-7h6c3.866,0,7,3.134,7,7V285.00000393390656z" opacity="0.8"></path><text id="kity_text_508" text-rendering="geometricPrecision" x="703.0000076815486" y="284.500003926456" text-anchor="middle" font-style="italic" font-size="12" fill="white" dy="5">2</text></g></g><g id="minder_node55"><g id="node_expander54" style="cursor: pointer;"><path id="kity_path_515" fill="white" stroke="gray" d="M716.5000079348683,319.5000045970082A6,6,0,1,1,704.5000079348683,319.5000045970082A6,6,0,1,1,716.5000079348683,319.5000045970082"></path><path id="kity_path_516" fill="none" stroke="gray" d="M706.0000079348683,319.5000045970082L715.0000079348683,319.5000045970082"></path></g><path id="node_outline55" fill="#eaf1dd" stroke="none" d="M721.5000080987811,307.5000045970082h451a5,5,0,0,1,5,5v14a5,5,0,0,1,-5,5h-451a5,5,0,0,1,-5,-5v-14a5,5,0,0,1,5,-5z" stroke-width="3"></path><g id="node_text55" fill="black"><text id="kity_text_512" text-rendering="inherit" font-size="18" dy=".8em" y="307.8000045567751" x="721.5000080987811">分论点：上瘾是依赖，是对生活的无奈，与外界的失联。</text></g></g><g id="minder_node56"><g id="node_expander55" style="cursor: pointer;" display="none"><path id="kity_path_523" fill="white" stroke="gray" d="M744.5000083521008,348.5000050291419A6,6,0,1,1,732.5000083521008,348.5000050291419A6,6,0,1,1,744.5000083521008,348.5000050291419"></path><path id="kity_path_524" fill="none" stroke="gray"></path></g><path id="node_outline56" fill="none" stroke="none" d="M749.5000085160136,339.5000050291419h277a5,5,0,0,1,5,5v8a5,5,0,0,1,-5,5h-277a5,5,0,0,1,-5,-5v-8a5,5,0,0,1,5,-5z" stroke-width="3"></path><g id="node_text56" fill="black"><text id="kity_text_520" text-rendering="inherit" font-size="12" dy=".8em" y="340.7000050023198" x="749.5000085160136">案例：吸毒者与社会失去联系，所以才会选择吸毒。</text></g></g><g id="minder_node57"><g id="node_expander56" style="cursor: pointer;" display="none"><path id="kity_path_531" fill="white" stroke="gray" d="M744.5000083521008,374.5000054165721A6,6,0,1,1,732.5000083521008,374.5000054165721A6,6,0,1,1,744.5000083521008,374.5000054165721"></path><path id="kity_path_532" fill="none" stroke="gray"></path></g><path id="node_outline57" fill="none" stroke="none" d="M749.5000085160136,365.5000054165721h265a5,5,0,0,1,5,5v8a5,5,0,0,1,-5,5h-265a5,5,0,0,1,-5,-5v-8a5,5,0,0,1,5,-5z" stroke-width="3"></path><g id="node_text57" fill="black"><text id="kity_text_528" text-rendering="inherit" font-size="12" dy=".8em" y="366.70000538975" x="749.5000085160136">案例：美国青少年沉迷色情片，缺乏沟通与交流。</text></g></g><g id="minder_node58"><g id="node_expander57" style="cursor: pointer;" display="none"><path id="kity_path_539" fill="white" stroke="gray" d="M716.5000079348683,403.50000584870577A6,6,0,1,1,704.5000079348683,403.50000584870577A6,6,0,1,1,716.5000079348683,403.50000584870577"></path><path id="kity_path_540" fill="none" stroke="gray"></path></g><path id="node_outline58" fill="#eaf1dd" stroke="none" d="M721.5000080987811,391.50000584870577h253a5,5,0,0,1,5,5v14a5,5,0,0,1,-5,5h-253a5,5,0,0,1,-5,-5v-14a5,5,0,0,1,5,-5z" stroke-width="3"></path><g id="node_text58" fill="black"><text id="kity_text_536" text-rendering="inherit" font-size="18" dy=".8em" y="391.80000580847263" x="721.5000080987811">分论点：注意力和时间的损失。</text></g></g><g id="minder_node67" opacity="1"><g id="node_expander66" style="cursor: pointer;"><path id="kity_path_612" fill="white" stroke="gray" d="M1294.5000165477395,426.5000061914325A6,6,0,1,1,1282.5000165477395,426.5000061914325A6,6,0,1,1,1294.5000165477395,426.5000061914325"></path><path id="kity_path_613" fill="none" stroke="gray" d="M1284.0000165477395,426.5000061914325L1293.0000165477395,426.5000061914325"></path></g><path id="node_outline67" fill="#c2d69b" stroke="none" d="M1299.5000170841813,411.5000061914325h169a5,5,0,0,1,5,5v20a5,5,0,0,1,-5,5h-169a5,5,0,0,1,-5,-5v-20a5,5,0,0,1,5,-5z" stroke-width="3"></path><g id="node_text67" fill="black"><text id="kity_text_609" text-rendering="inherit" font-size="24" dy=".8em" y="410.9000061377883" x="1324.5000170841813">编程改变世界</text></g><g id="node_priority9"><path id="kity_path_616" fill="#01467F" stroke="none" d="M1300.0000167191029,430.00000604987144c0,3.866,3.134,7,7,7h6c3.866,0,7,-3.134,7,-7V424.00000604987144H1300.0000167191029V430.00000604987144z"></path><path id="kity_path_617" fill="#0074FF" stroke="none" d="M1320.0000167191029,427.00000604987144c0,3.866,-3.134,7,-7,7H1307.0000167191029c-3.866,0,-7,-3.134,-7,-7V424.00000604987144c0,-3.866,3.134,-7,7,-7h6c3.866,0,7,3.134,7,7V427.00000604987144z" opacity="0.8"></path><text id="kity_text_618" text-rendering="geometricPrecision" x="1309.0000167116523" y="426.50000604242086" text-anchor="middle" font-style="italic" font-size="12" fill="white" dy="5">2</text></g></g><g id="minder_node75"><g id="node_expander74" style="cursor: pointer;" display="none"><path id="kity_path_681" fill="white" stroke="gray" d="M744.5000083521008,226.50000321120024A6,6,0,1,1,732.5000083521008,226.50000321120024A6,6,0,1,1,744.5000083521008,226.50000321120024"></path><path id="kity_path_682" fill="none" stroke="gray"></path></g><path id="node_outline75" fill="none" stroke="none" d="M749.5000085160136,217.50000321120024h181a5,5,0,0,1,5,5v8a5,5,0,0,1,-5,5h-181a5,5,0,0,1,-5,-5v-8a5,5,0,0,1,5,-5z" stroke-width="3"></path><g id="node_text75" fill="black"><text id="kity_text_678" text-rendering="inherit" font-size="12" dy=".8em" y="218.70000318437815" x="749.5000085160136">解释：我们需要去捍卫新闻自由。</text></g></g><g id="minder_node79" opacity="1"><g id="node_expander78" style="cursor: pointer;"><path id="kity_path_734" fill="white" stroke="gray" d="M1300.5000166371465,563.5000082328916A6,6,0,1,1,1288.5000166371465,563.5000082328916A6,6,0,1,1,1300.5000166371465,563.5000082328916"></path><path id="kity_path_735" fill="none" stroke="gray" d="M1290.0000166371465,563.5000082328916L1299.0000166371465,563.5000082328916"></path></g><path id="node_outline79" fill="#c2d69b" stroke="none" d="M1305.5000171735883,548.5000082328916h193a5,5,0,0,1,5,5v20a5,5,0,0,1,-5,5h-193a5,5,0,0,1,-5,-5v-20a5,5,0,0,1,5,-5z" stroke-width="3"></path><g id="node_text79" fill="black"><text id="kity_text_731" text-rendering="inherit" font-size="24" dy=".8em" y="547.9000081792474" x="1330.5000171735883">关于情绪的设计</text></g><g id="node_priority10"><path id="kity_path_738" fill="#006300" stroke="none" d="M1306.0000168085098,567.0000080913305c0,3.866,3.134,7,7,7h6c3.866,0,7,-3.134,7,-7V561.0000080913305H1306.0000168085098V567.0000080913305z"></path><path id="kity_path_739" fill="#00AF00" stroke="none" d="M1326.0000168085098,564.0000080913305c0,3.866,-3.134,7,-7,7H1313.0000168085098c-3.866,0,-7,-3.134,-7,-7V561.0000080913305c0,-3.866,3.134,-7,7,-7h6c3.866,0,7,3.134,7,7V564.0000080913305z" opacity="0.8"></path><text id="kity_text_740" text-rendering="geometricPrecision" x="1315.0000168010592" y="563.50000808388" text-anchor="middle" font-style="italic" font-size="12" fill="white" dy="5">3</text></g></g><g id="minder_node86"><g id="node_expander85" style="cursor: pointer;" display="none"><path id="kity_path_802" fill="white" stroke="gray" d="M1356.5000174716115,627.5000091865659A6,6,0,1,1,1344.5000174716115,627.5000091865659A6,6,0,1,1,1356.5000174716115,627.5000091865659"></path><path id="kity_path_803" fill="none" stroke="gray"></path></g><path id="node_outline86" fill="none" stroke="none" d="M1361.5000176355243,618.5000091865659h301a5,5,0,0,1,5,5v8a5,5,0,0,1,-5,5h-301a5,5,0,0,1,-5,-5v-8a5,5,0,0,1,5,-5z" stroke-width="3"></path><g id="node_text86" fill="black"><text id="kity_text_799" text-rendering="inherit" font-size="12" dy=".8em" y="619.7000091597438" x="1361.5000176355243">解释：我们要为自己的情绪负责，拥抱并接纳这些责任。</text></g></g><g id="minder_node80"><g id="node_expander79" style="cursor: pointer;"><path id="kity_path_747" fill="white" stroke="gray" d="M1328.500017054379,598.5000087544322A6,6,0,1,1,1316.500017054379,598.5000087544322A6,6,0,1,1,1328.500017054379,598.5000087544322"></path><path id="kity_path_748" fill="none" stroke="gray" d="M1318.000017054379,598.5000087544322L1327.000017054379,598.5000087544322"></path></g><path id="node_outline80" fill="#eaf1dd" stroke="none" d="M1333.5000172182918,586.5000087544322h253a5,5,0,0,1,5,5v14a5,5,0,0,1,-5,5h-253a5,5,0,0,1,-5,-5v-14a5,5,0,0,1,5,-5z" stroke-width="3"></path><g id="node_text80" fill="black"><text id="kity_text_744" text-rendering="inherit" font-size="18" dy=".8em" y="586.8000087141991" x="1333.5000172182918">分论点：情绪不是无法控制的。</text></g></g><g id="minder_node87"><g id="node_expander86" style="cursor: pointer;" display="none"><path id="kity_path_812" fill="white" stroke="gray" d="M1356.5000174716115,653.5000095739961A6,6,0,1,1,1344.5000174716115,653.5000095739961A6,6,0,1,1,1356.5000174716115,653.5000095739961"></path><path id="kity_path_813" fill="none" stroke="gray"></path></g><path id="node_outline87" fill="none" stroke="none" d="M1361.5000176355243,644.5000095739961h283a5,5,0,0,1,5,5v8a5,5,0,0,1,-5,5h-283a5,5,0,0,1,-5,-5v-8a5,5,0,0,1,5,-5z" stroke-width="3"></path><g id="node_text87" fill="black"><text id="kity_text_809" text-rendering="inherit" font-size="12" dy=".8em" y="645.700009547174" x="1361.5000176355243">案例: 有勇气并不是没有恐惧，勇气是在恐惧中行走。</text></g></g><g id="minder_node68"><g id="node_expander67" style="cursor: pointer;" display="none"><path id="kity_path_625" fill="white" stroke="gray" d="M1322.500016964972,461.5000067129731A6,6,0,1,1,1310.500016964972,461.5000067129731A6,6,0,1,1,1322.500016964972,461.5000067129731"></path><path id="kity_path_626" fill="none" stroke="gray" d="M1312.000016964972,461.5000067129731L1321.000016964972,461.5000067129731"></path></g><path id="node_outline68" fill="#eaf1dd" stroke="none" d="M1327.5000171288848,449.5000067129731h235a5,5,0,0,1,5,5v14a5,5,0,0,1,-5,5h-235a5,5,0,0,1,-5,-5v-14a5,5,0,0,1,5,-5z" stroke-width="3"></path><g id="node_text68" fill="black"><text id="kity_text_622" text-rendering="inherit" font-size="18" dy=".8em" y="449.80000667274" x="1327.5000171288848">分论点：编码改善更好的政府</text></g></g><g id="minder_node69"><g id="node_expander68" style="cursor: pointer;" display="none"><path id="kity_path_633" fill="white" stroke="gray" d="M1322.500016964972,490.5000071451068A6,6,0,1,1,1310.500016964972,490.5000071451068A6,6,0,1,1,1322.500016964972,490.5000071451068"></path><path id="kity_path_634" fill="none" stroke="gray"></path></g><path id="node_outline69" fill="none" stroke="none" d="M1327.5000171288848,481.5000071451068h242a5,5,0,0,1,5,5v8a5,5,0,0,1,-5,5h-242a5,5,0,0,1,-5,-5v-8a5,5,0,0,1,5,-5z" stroke-width="3"></path><g id="node_text69" fill="black"><text id="kity_text_630" text-rendering="inherit" font-size="12" dy=".8em" y="482.7000071182847" x="1327.5000171288848">解释：公民编程项目用编程来改变自己的生活</text></g></g><g id="minder_node71"><g id="node_expander70" style="cursor: pointer;" display="none"><path id="kity_path_649" fill="white" stroke="gray" d="M1322.500016964972,516.500007532537A6,6,0,1,1,1310.500016964972,516.500007532537A6,6,0,1,1,1322.500016964972,516.500007532537"></path><path id="kity_path_650" fill="none" stroke="gray"></path></g><path id="node_outline71" fill="none" stroke="none" d="M1327.5000171288848,507.500007532537h326a5,5,0,0,1,5,5v8a5,5,0,0,1,-5,5h-326a5,5,0,0,1,-5,-5v-8a5,5,0,0,1,5,-5z" stroke-width="3"></path><g id="node_text71" fill="black"><text id="kity_text_646" text-rendering="inherit" font-size="12" dy=".8em" y="508.7000075057149" x="1327.5000171288848">案例：领养一个消防栓的游戏，呼吁人们铲雪，爱护城市环境</text></g></g><g id="minder_node49" opacity="1"><g id="node_expander48" style="cursor: pointer;" display="none"><path id="kity_path_447" fill="white" stroke="gray" d="M1380.5000178292394,168.5000023469329A6,6,0,1,1,1368.5000178292394,168.5000023469329A6,6,0,1,1,1380.5000178292394,168.5000023469329"></path><path id="kity_path_448" fill="none" stroke="gray" d="M1370.0000178292394,168.5000023469329L1379.0000178292394,168.5000023469329"></path></g><path id="node_outline49" fill="none" stroke="none" d="M1385.5000179931521,159.5000023469329h290a5,5,0,0,1,5,5v8a5,5,0,0,1,-5,5h-290a5,5,0,0,1,-5,-5v-8a5,5,0,0,1,5,-5z" stroke-width="3"></path><g id="node_text49" fill="black"><text id="kity_text_444" text-rendering="inherit" font-size="12" dy=".8em" y="160.7000023201108" x="1385.5000179931521">案例：出门所带的东西是自身对科技掌握的一种的理解</text></g></g><g id="minder_node84"><g id="node_expander83" style="cursor: pointer;" display="none"><path id="kity_path_786" fill="white" stroke="gray" d="M1408.5000182464719,220.50000312179327A6,6,0,1,1,1396.5000182464719,220.50000312179327A6,6,0,1,1,1408.5000182464719,220.50000312179327"></path><path id="kity_path_787" fill="none" stroke="gray"></path></g><path id="node_outline84" fill="none" stroke="none" d="M1413.5000184103847,211.50000312179327h265a5,5,0,0,1,5,5v8a5,5,0,0,1,-5,5h-265a5,5,0,0,1,-5,-5v-8a5,5,0,0,1,5,-5z" stroke-width="3"></path><g id="node_text84" fill="black"><text id="kity_text_783" text-rendering="inherit" font-size="12" dy=".8em" y="212.70000309497118" x="1413.5000184103847">再多尝试也无法修补破裂的系统，要从社会下手。</text></g></g><g id="minder_node76" opacity="1"><g id="node_expander75" style="cursor: pointer;"><path id="kity_path_699" fill="white" stroke="gray" d="M1380.5000178292394,194.50000273436308A6,6,0,1,1,1368.5000178292394,194.50000273436308A6,6,0,1,1,1380.5000178292394,194.50000273436308"></path><path id="kity_path_700" fill="none" stroke="gray" d="M1370.0000178292394,194.50000273436308L1379.0000178292394,194.50000273436308"></path></g><path id="node_outline76" fill="none" stroke="none" d="M1385.5000179931521,185.50000273436308h289a5,5,0,0,1,5,5v8a5,5,0,0,1,-5,5h-289a5,5,0,0,1,-5,-5v-8a5,5,0,0,1,5,-5z" stroke-width="3"></path><g id="node_text76" fill="black"><text id="kity_text_696" text-rendering="inherit" font-size="12" dy=".8em" y="186.700002707541" x="1385.5000179931521">案例：社会告诉女孩应该做什么，而不是自己想做的。</text></g></g><g id="minder_node66"><g id="node_expander65" style="cursor: pointer;" display="none"><path id="kity_path_604" fill="white" stroke="gray" d="M1408.5000182464719,272.50000389665365A6,6,0,1,1,1396.5000182464719,272.50000389665365A6,6,0,1,1,1408.5000182464719,272.50000389665365"></path><path id="kity_path_605" fill="none" stroke="gray"></path></g><path id="node_outline66" fill="none" stroke="none" d="M1413.5000184103847,263.50000389665365h242a5,5,0,0,1,5,5v8a5,5,0,0,1,-5,5h-242a5,5,0,0,1,-5,-5v-8a5,5,0,0,1,5,-5z" stroke-width="3"></path><g id="node_text66" fill="black"><text id="kity_text_601" text-rendering="inherit" font-size="12" dy=".8em" y="264.70000386983156" x="1413.5000184103847">解释：要用更多关心和更多爱来改变这个状况</text></g></g><g id="minder_node59" opacity="1"><g id="node_expander58" style="cursor: pointer;"><path id="kity_path_548" fill="white" stroke="gray" d="M1380.5000178292394,246.50000350922346A6,6,0,1,1,1368.5000178292394,246.50000350922346A6,6,0,1,1,1380.5000178292394,246.50000350922346"></path><path id="kity_path_549" fill="none" stroke="gray" d="M1370.0000178292394,246.50000350922346L1379.0000178292394,246.50000350922346"></path></g><path id="node_outline59" fill="none" stroke="none" d="M1385.5000179931521,237.50000350922346h301a5,5,0,0,1,5,5v8a5,5,0,0,1,-5,5h-301a5,5,0,0,1,-5,-5v-8a5,5,0,0,1,5,-5z" stroke-width="3"></path><g id="node_text59" fill="black"><text id="kity_text_545" text-rendering="inherit" font-size="12" dy=".8em" y="238.70000348240137" x="1385.5000179931521">解释：患精神疾病也很正常，社会不愿意去接纳这些人。</text></g></g><g id="minder_node62"><g id="node_expander61" style="cursor: pointer;" display="none"><path id="kity_path_572" fill="white" stroke="gray" d="M1408.5000182464719,330.500004760921A6,6,0,1,1,1396.5000182464719,330.500004760921A6,6,0,1,1,1408.5000182464719,330.500004760921"></path><path id="kity_path_573" fill="none" stroke="gray"></path></g><path id="node_outline62" fill="none" stroke="none" d="M1413.5000184103847,321.500004760921h337a5,5,0,0,1,5,5v8a5,5,0,0,1,-5,5h-337a5,5,0,0,1,-5,-5v-8a5,5,0,0,1,5,-5z" stroke-width="3"></path><g id="node_text62" fill="black"><text id="kity_text_569" text-rendering="inherit" font-size="12" dy=".8em" y="322.7000047340989" x="1413.5000184103847">案例：政府独裁的趋势增加，民主政府也在加强镇压持异议者。</text></g></g><g id="minder_node83"><g id="node_expander82" style="cursor: pointer;" display="none"><path id="kity_path_778" fill="white" stroke="gray" d="M1408.5000182464719,356.5000051483512A6,6,0,1,1,1396.5000182464719,356.5000051483512A6,6,0,1,1,1408.5000182464719,356.5000051483512"></path><path id="kity_path_779" fill="none" stroke="gray"></path></g><path id="node_outline83" fill="none" stroke="none" d="M1413.5000184103847,347.5000051483512h469a5,5,0,0,1,5,5v8a5,5,0,0,1,-5,5h-469a5,5,0,0,1,-5,-5v-8a5,5,0,0,1,5,-5z" stroke-width="3"></path><g id="node_text83" fill="black"><text id="kity_text_775" text-rendering="inherit" font-size="12" dy=".8em" y="348.7000051215291" x="1413.5000184103847">案例：我们在争取公众使用强加密的权利，否则意见相左的新闻和调查性报导难以传播。</text></g></g><g id="minder_node61"><g id="node_expander60" style="cursor: pointer;"><path id="kity_path_564" fill="white" stroke="gray" d="M1380.5000178292394,301.5000043287873A6,6,0,1,1,1368.5000178292394,301.5000043287873A6,6,0,1,1,1380.5000178292394,301.5000043287873"></path><path id="kity_path_565" fill="none" stroke="gray" d="M1370.0000178292394,301.5000043287873L1379.0000178292394,301.5000043287873"></path></g><path id="node_outline61" fill="#eaf1dd" stroke="none" d="M1385.5000179931521,289.5000043287873h236a5,5,0,0,1,5,5v14a5,5,0,0,1,-5,5h-236a5,5,0,0,1,-5,-5v-14a5,5,0,0,1,5,-5z" stroke-width="3"></path><g id="node_text61" fill="black"><text id="kity_text_561" text-rendering="inherit" font-size="18" dy=".8em" y="289.8000042885542" x="1385.5000179931521">分论点：政府的设计需要改变</text></g></g><g id="minder_node88"><g id="node_expander87" style="cursor: pointer;" display="none"><path id="kity_path_831" fill="white" stroke="gray" d="M1328.500017054379,682.5000100061297A6,6,0,1,1,1316.500017054379,682.5000100061297A6,6,0,1,1,1328.500017054379,682.5000100061297"></path><path id="kity_path_832" fill="none" stroke="gray"></path></g><path id="node_outline88" fill="#eaf1dd" stroke="none" d="M1333.5000172182918,670.5000100061297h523a5,5,0,0,1,5,5v14a5,5,0,0,1,-5,5h-523a5,5,0,0,1,-5,-5v-14a5,5,0,0,1,5,-5z" stroke-width="3"></path><g id="node_text88" fill="black"><text id="kity_text_828" text-rendering="inherit" font-size="18" dy=".8em" y="670.8000099658966" x="1333.5000172182918">分论点：行为设计之本质就是要让使用者感到一切都在掌控之中。</text></g></g><g id="kity_g_12" display="none"><path id="kity_path_13" fill="none" stroke="rgb(66, 112, 68)" d="M456.5000042542815,3.500000335276127h398a5,5,0,0,1,5,5v50a5,5,0,0,1,-5,5h-398a5,5,0,0,1,-5,-5v-50a5,5,0,0,1,5,-5z" stroke-width="5"></path></g></g></g></svg>