<svg id="kity_svg_6" xmlns="http://www.w3.org/2000/svg" xmlns:xlink="http://www.w3.org/1999/xlink" version="1.1" width="1809" height="1171" style="background: rgb(251, 251, 251); visibility: visible;" viewBox="0 0 1809 1171"><defs id="kity_defs_7"><linearGradient id="kity_linearGradient_17" x1="0" y1="0" x2="0" y2="1"><stop id="kity_stop_18" offset="0" stop-color="rgb(255, 255, 255)"></stop><stop id="kity_stop_19" offset="1" stop-color="rgb(204, 204, 204)"></stop></linearGradient><marker id="kity_marker_2" orient="auto" refX="6" refY="0" viewBox="-7 -7 14 14" markerWidth="7" markerHeight="7" markerUnits="userSpaceOnUse"><path id="kity_path_3" fill="rgb(115, 161, 191)" stroke="none" d="M6,0A6,6,0,1,1,-6,0A6,6,0,1,1,6,0"></path></marker></defs><g id="kity_g_8"><g id="minder1" text-rendering="geometricPrecision"><g id="minder_connect_group1"><path id="kity_path_87" fill="none" stroke="rgb(115, 191, 118)" stroke-width="1" d="M685.5000078305602,48.500000678002834v10h-613V66.50000067800283"></path><path id="kity_path_111" fill="none" stroke="rgb(115, 191, 118)" stroke-width="1" d="M40.50000783056021,110.50000067800283V137.50000067800283L48.50000783056021,137.50000067800283"></path><path id="kity_path_119" fill="none" stroke="rgb(115, 191, 118)" stroke-width="1" d="M662.5000078305602,110.50000067800283V867.5000006780028L675.5000078305602,867.5000006780028"></path><path id="kity_path_127" fill="none" stroke="rgb(115, 191, 118)" stroke-width="1" d="M40.50000783056021,110.50000067800283V435.50000067800283L48.50000783056021,435.50000067800283"></path><path id="kity_path_135" fill="none" stroke="rgb(115, 191, 118)" stroke-width="1" d="M40.50000783056021,110.50000067800283V635.5000006780028L48.50000783056021,635.5000006780028"></path><path id="kity_path_143" fill="none" stroke="rgb(115, 191, 118)" stroke-width="1" d="M68.50000783056021,152.50000067800283V195.50000067800283L76.50000783056021,195.50000067800283"></path><path id="kity_path_159" fill="none" stroke="rgb(115, 191, 118)" stroke-width="1" d="M68.50000783056021,152.50000067800283V273.50000067800283L76.50000783056021,273.50000067800283"></path><path id="kity_path_201" fill="none" stroke="rgb(115, 191, 118)" stroke-width="1" d="M96.50000783056021,282.50000067800283V351.50000067800283L104.50000783056021,351.50000067800283"></path><path id="kity_path_257" fill="none" stroke="rgb(115, 191, 118)" stroke-width="1" d="M96.50000783056021,204.50000067800283V221.50000067800283L104.50000783056021,221.50000067800283"></path><path id="kity_path_265" fill="none" stroke="rgb(115, 191, 118)" stroke-width="1" d="M96.50000783056021,204.50000067800283V247.50000067800283L104.50000783056021,247.50000067800283"></path><path id="kity_path_297" fill="none" stroke="rgb(115, 191, 118)" stroke-width="1" d="M68.50000783056021,152.50000067800283V377.50000067800283L76.50000783056021,377.50000067800283"></path><path id="kity_path_305" fill="none" stroke="rgb(115, 191, 118)" stroke-width="1" d="M96.50000783056021,386.50000067800283V403.50000067800283L104.50000783056021,403.50000067800283"></path><path id="kity_path_347" fill="none" stroke="rgb(115, 191, 118)" stroke-width="1" d="M685.5000078305602,48.500000678002834v10h9V66.50000067800283"></path><path id="kity_path_355" fill="none" stroke="rgb(115, 191, 118)" stroke-width="1" d="M662.5000078305602,110.50000067800283V137.50000067800283L670.5000078305602,137.50000067800283"></path><path id="kity_path_413" fill="none" stroke="rgb(115, 191, 118)" stroke-width="1" d="M68.50000783056021,650.5000006780028V670.5000006780028L76.50000783056021,670.5000006780028"></path><path id="kity_path_421" fill="none" stroke="rgb(115, 191, 118)" stroke-width="1" d="M96.50000783056021,682.5000006780028V699.5000006780028L104.50000783056021,699.5000006780028"></path><path id="kity_path_463" fill="none" stroke="rgb(115, 191, 118)" stroke-width="1" d="M68.50000783056021,772.5000006780028V792.5000006780028L76.50000783056021,792.5000006780028"></path><path id="kity_path_464" fill="none" stroke="rgb(115, 191, 118)" stroke-width="1" d="M152.5000078305602,534.5000006780028V551.5000006780028L160.5000078305602,551.5000006780028"></path><path id="kity_path_465" fill="none" stroke="rgb(115, 191, 118)" stroke-width="1" d="M96.50000783056021,482.50000067800283V603.5000006780028L104.50000783056021,603.5000006780028"></path><path id="kity_path_466" fill="none" stroke="rgb(115, 191, 118)" stroke-width="1" d="M68.50000783056021,450.50000067800283V470.50000067800283L76.50000783056021,470.50000067800283"></path><path id="kity_path_497" fill="none" stroke="rgb(115, 191, 118)" stroke-width="1" d="M662.5000078305602,110.50000067800283V378.50000067800283L672.5000078305602,378.50000067800283"></path><path id="kity_path_877" fill="none" stroke="rgb(115, 191, 118)" stroke-width="1" d="M68.50000783056021,152.50000067800283V169.50000067800283L76.50000783056021,169.50000067800283"></path><path id="kity_path_901" fill="none" stroke="rgb(115, 191, 118)" stroke-width="1" d="M685.5000078305602,48.500000678002834v10h614V66.50000067800283"></path><path id="kity_path_986" fill="none" stroke="rgb(115, 191, 118)" stroke-width="1" d="M1267.5000078305602,110.50000067800283V163.50000067800283L1275.5000078305602,163.50000067800283"></path><path id="kity_path_988" fill="none" stroke="rgb(115, 191, 118)" stroke-width="1" d="M1295.5000078305602,178.50000067800283V195.50000067800283L1303.5000078305602,195.50000067800283"></path><path id="kity_path_994" fill="none" stroke="rgb(115, 191, 118)" stroke-width="1" d="M1295.5000078305602,178.50000067800283V221.50000067800283L1303.5000078305602,221.50000067800283"></path><path id="kity_path_1031" fill="none" stroke="rgb(115, 191, 118)" stroke-width="1" d="M1267.5000078305602,110.50000067800283V657.5000006780028L1289.5000078305602,657.5000006780028"></path><path id="kity_path_1076" fill="none" stroke="rgb(115, 191, 118)" stroke-width="1" d="M692.5000078305602,393.50000067800283V410.50000067800283L700.5000078305602,410.50000067800283"></path><path id="kity_path_1116" fill="none" stroke="rgb(115, 191, 118)" stroke-width="1" d="M1267.5000078305602,110.50000067800283V131.50000067800283L1275.5000078305602,131.50000067800283"></path><path id="kity_path_1174" fill="none" stroke="rgb(115, 191, 118)" stroke-width="1" d="M96.50000783056021,282.50000067800283V299.50000067800283L104.50000783056021,299.50000067800283"></path><path id="kity_path_1182" fill="none" stroke="rgb(115, 191, 118)" stroke-width="1" d="M96.50000783056021,282.50000067800283V325.50000067800283L104.50000783056021,325.50000067800283"></path><path id="kity_path_1206" fill="none" stroke="rgb(115, 191, 118)" stroke-width="1" d="M96.50000783056021,682.5000006780028V725.5000006780028L104.50000783056021,725.5000006780028"></path><path id="kity_path_1214" fill="none" stroke="rgb(115, 191, 118)" stroke-width="1" d="M96.50000783056021,482.50000067800283V499.50000067800283L104.50000783056021,499.50000067800283"></path><path id="kity_path_1223" fill="none" stroke="rgb(115, 191, 118)" stroke-width="1" d="M124.50000783056021,508.50000067800283V525.5000006780028L132.5000078305602,525.5000006780028"></path><path id="kity_path_1230" fill="none" stroke="rgb(115, 191, 118)" stroke-width="1" d="M180.5000078305602,560.5000006780028V577.5000006780028L188.5000078305602,577.5000006780028"></path><path id="kity_path_1268" fill="none" stroke="rgb(115, 191, 118)" stroke-width="1" d="M692.5000078305602,393.50000067800283V465.50000067800283L700.5000078305602,465.50000067800283"></path><path id="kity_path_1276" fill="none" stroke="rgb(115, 191, 118)" stroke-width="1" d="M720.5000078305602,477.50000067800283V494.50000067800283L728.5000078305602,494.50000067800283"></path><path id="kity_path_1326" fill="none" stroke="rgb(115, 191, 118)" stroke-width="1" d="M1323.5000078305602,230.50000067800283V247.50000067800283L1331.5000078305602,247.50000067800283"></path><path id="kity_path_1334" fill="none" stroke="rgb(115, 191, 118)" stroke-width="1" d="M1295.5000078305602,178.50000067800283V299.50000067800283L1303.5000078305602,299.50000067800283"></path><path id="kity_path_1336" fill="none" stroke="rgb(115, 191, 118)" stroke-width="1" d="M1323.5000078305602,308.50000067800283V325.50000067800283L1331.5000078305602,325.50000067800283"></path><path id="kity_path_1350" fill="none" stroke="rgb(115, 191, 118)" stroke-width="1" d="M1274.5000078305602,983.5000006780028V1087.5000006780028L1282.5000078305602,1087.5000006780028"></path><path id="kity_path_1411" fill="none" stroke="rgb(115, 191, 118)" stroke-width="1" d="M1351.5000078305602,256.50000067800283V273.50000067800283L1359.5000078305602,273.50000067800283"></path><path id="kity_path_1419" fill="none" stroke="rgb(115, 191, 118)" stroke-width="1" d="M662.5000078305602,110.50000067800283V674.5000006780028L664.5000078305602,674.5000006780028"></path><path id="kity_path_1569" fill="none" stroke="rgb(115, 191, 118)" stroke-width="1" d="M692.5000078305602,393.50000067800283V569.5000006780028L699.5000078305602,569.5000006780028"></path><path id="kity_path_1571" fill="none" stroke="rgb(115, 191, 118)" stroke-width="1" d="M719.5000078305602,581.5000006780028V598.5000006780028L727.5000078305602,598.5000006780028"></path><path id="kity_path_1573" fill="none" stroke="rgb(115, 191, 118)" stroke-width="1" d="M719.5000078305602,581.5000006780028V624.5000006780028L727.5000078305602,624.5000006780028"></path><path id="kity_path_1593" fill="none" stroke="rgb(115, 191, 118)" stroke-width="1" d="M690.5000078305602,152.50000067800283V254.50000067800283L709.5000078305602,254.50000067800283"></path><path id="kity_path_1595" fill="none" stroke="rgb(115, 191, 118)" stroke-width="1" d="M729.5000078305602,266.50000067800283V283.50000067800283L737.5000078305602,283.50000067800283"></path><path id="kity_path_1597" fill="none" stroke="rgb(115, 191, 118)" stroke-width="1" d="M729.5000078305602,266.50000067800283V309.50000067800283L737.5000078305602,309.50000067800283"></path><path id="kity_path_1617" fill="none" stroke="rgb(115, 191, 118)" stroke-width="1" d="M690.5000078305602,152.50000067800283V168.50000067800283L699.5000078305602,168.50000067800283"></path><path id="kity_path_1619" fill="none" stroke="rgb(115, 191, 118)" stroke-width="1" d="M719.5000078305602,177.50000067800283V194.50000067800283L727.5000078305602,194.50000067800283"></path><path id="kity_path_1621" fill="none" stroke="rgb(115, 191, 118)" stroke-width="1" d="M719.5000078305602,177.50000067800283V220.50000067800283L727.5000078305602,220.50000067800283"></path><path id="kity_path_1655" fill="none" stroke="rgb(115, 191, 118)" stroke-width="1" d="M720.5000078305602,419.50000067800283V436.50000067800283L728.5000078305602,436.50000067800283"></path><path id="kity_path_1663" fill="none" stroke="rgb(115, 191, 118)" stroke-width="1" d="M684.5000078305602,689.5000006780028V706.5000006780028L692.5000078305602,706.5000006780028"></path><path id="kity_path_1671" fill="none" stroke="rgb(115, 191, 118)" stroke-width="1" d="M684.5000078305602,689.5000006780028V758.5000006780028L692.5000078305602,758.5000006780028"></path><path id="kity_path_1679" fill="none" stroke="rgb(115, 191, 118)" stroke-width="1" d="M712.5000078305602,715.5000006780028V732.5000006780028L720.5000078305602,732.5000006780028"></path><path id="kity_path_1687" fill="none" stroke="rgb(115, 191, 118)" stroke-width="1" d="M712.5000078305602,767.5000006780028V784.5000006780028L720.5000078305602,784.5000006780028"></path><path id="kity_path_1694" fill="none" stroke="rgb(115, 191, 118)" stroke-width="1" d="M695.5000078305602,882.5000006780028V899.5000006780028L703.5000078305602,899.5000006780028"></path><path id="kity_path_1695" fill="none" stroke="rgb(115, 191, 118)" stroke-width="1" d="M695.5000078305602,882.5000006780028V925.5000006780028L703.5000078305602,925.5000006780028"></path><path id="kity_path_1696" fill="none" stroke="rgb(115, 191, 118)" stroke-width="1" d="M695.5000078305602,882.5000006780028V951.5000006780028L703.5000078305602,951.5000006780028"></path><path id="kity_path_1698" fill="none" stroke="rgb(115, 191, 118)" stroke-width="1" d="M740.5000078305602,793.5000006780028V810.5000006780028L748.5000078305602,810.5000006780028"></path><path id="kity_path_1706" fill="none" stroke="rgb(115, 191, 118)" stroke-width="1" d="M40.50000783056021,110.50000067800283V757.5000006780028L48.50000783056021,757.5000006780028"></path><path id="kity_path_1718" fill="none" stroke="rgb(115, 191, 118)" stroke-width="1" d="M124.50000783056021,830.5000006780028V847.5000006780028L132.5000078305602,847.5000006780028"></path><path id="kity_path_1719" fill="none" stroke="rgb(115, 191, 118)" stroke-width="1" d="M96.50000783056021,804.5000006780028V821.5000006780028L104.50000783056021,821.5000006780028"></path><path id="kity_path_1720" fill="none" stroke="rgb(115, 191, 118)" stroke-width="1" d="M124.50000783056021,882.5000006780028V899.5000006780028L132.5000078305602,899.5000006780028"></path><path id="kity_path_1721" fill="none" stroke="rgb(115, 191, 118)" stroke-width="1" d="M96.50000783056021,804.5000006780028V873.5000006780028L104.50000783056021,873.5000006780028"></path><path id="kity_path_1722" fill="none" stroke="rgb(115, 191, 118)" stroke-width="1" d="M96.50000783056021,804.5000006780028V925.5000006780028L104.50000783056021,925.5000006780028"></path><path id="kity_path_1724" fill="none" stroke="rgb(115, 191, 118)" stroke-width="1" d="M1267.5000078305602,110.50000067800283V447.50000067800283L1276.5000078305602,447.50000067800283"></path><path id="kity_path_1732" fill="none" stroke="rgb(115, 191, 118)" stroke-width="1" d="M1296.5000078305602,462.50000067800283V479.50000067800283L1304.5000078305602,479.50000067800283"></path><path id="kity_path_1740" fill="none" stroke="rgb(115, 191, 118)" stroke-width="1" d="M1296.5000078305602,462.50000067800283V505.50000067800283L1304.5000078305602,505.50000067800283"></path><path id="kity_path_1777" fill="none" stroke="rgb(115, 191, 118)" stroke-width="1" d="M1267.5000078305602,110.50000067800283V968.5000006780028L1254.5000078305602,968.5000006780028"></path><path id="kity_path_1791" fill="none" stroke="rgb(115, 191, 118)" stroke-width="1" d="M1302.5000078305602,1015.5000006780028V1032.5000006780028L1310.5000078305602,1032.5000006780028"></path><path id="kity_path_1792" fill="none" stroke="rgb(115, 191, 118)" stroke-width="1" d="M1302.5000078305602,1015.5000006780028V1058.5000006780028L1310.5000078305602,1058.5000006780028"></path><path id="kity_path_1793" fill="none" stroke="rgb(115, 191, 118)" stroke-width="1" d="M1274.5000078305602,983.5000006780028V1003.5000006780028L1282.5000078305602,1003.5000006780028"></path><path id="kity_path_1794" fill="none" stroke="rgb(115, 191, 118)" stroke-width="1" d="M1302.5000078305602,1099.5000006780028V1116.5000006780028L1310.5000078305602,1116.5000006780028"></path><path id="kity_path_1795" fill="none" stroke="rgb(115, 191, 118)" stroke-width="1" d="M1302.5000078305602,1099.5000006780028V1142.5000006780028L1310.5000078305602,1142.5000006780028"></path><path id="kity_path_1797" fill="none" stroke="rgb(115, 191, 118)" stroke-width="1" d="M1324.5000078305602,514.5000006780028V531.5000006780028L1332.5000078305602,531.5000006780028"></path><path id="kity_path_1805" fill="none" stroke="rgb(115, 191, 118)" stroke-width="1" d="M1352.5000078305602,540.5000006780028V557.5000006780028L1360.5000078305602,557.5000006780028"></path><path id="kity_path_1813" fill="none" stroke="rgb(115, 191, 118)" stroke-width="1" d="M1352.5000078305602,540.5000006780028V609.5000006780028L1360.5000078305602,609.5000006780028"></path><path id="kity_path_1837" fill="none" stroke="rgb(115, 191, 118)" stroke-width="1" d="M1352.5000078305602,540.5000006780028V583.5000006780028L1360.5000078305602,583.5000006780028"></path><path id="kity_path_1844" fill="none" stroke="rgb(115, 191, 118)" stroke-width="1" d="M1365.5000078305602,730.5000006780028V747.5000006780028L1373.5000078305602,747.5000006780028"></path><path id="kity_path_1845" fill="none" stroke="rgb(115, 191, 118)" stroke-width="1" d="M1365.5000078305602,730.5000006780028V773.5000006780028L1373.5000078305602,773.5000006780028"></path><path id="kity_path_1846" fill="none" stroke="rgb(115, 191, 118)" stroke-width="1" d="M1337.5000078305602,698.5000006780028V718.5000006780028L1345.5000078305602,718.5000006780028"></path><path id="kity_path_1847" fill="none" stroke="rgb(115, 191, 118)" stroke-width="1" d="M1309.5000078305602,672.5000006780028V689.5000006780028L1317.5000078305602,689.5000006780028"></path><path id="kity_path_1848" fill="none" stroke="rgb(115, 191, 118)" stroke-width="1" d="M1337.5000078305602,814.5000006780028V831.5000006780028L1345.5000078305602,831.5000006780028"></path><path id="kity_path_1849" fill="none" stroke="rgb(115, 191, 118)" stroke-width="1" d="M1309.5000078305602,672.5000006780028V802.5000006780028L1317.5000078305602,802.5000006780028"></path><path id="kity_path_1851" fill="none" stroke="rgb(115, 191, 118)" stroke-width="1" d="M720.5000078305602,477.50000067800283V520.5000006780028L728.5000078305602,520.5000006780028"></path></g><g id="minder_node1"><path id="node_outline1" fill="#4e6128" stroke="rgb(115, 191, 118)" d="M436.5000078305602,20.500000678002834h498a5,5,0,0,1,5,5v18a5,5,0,0,1,-5,5h-498a5,5,0,0,1,-5,-5v-18a5,5,0,0,1,5,-5z" stroke-width="3"></path><g id="node_text1" fill="white"><text id="kity_text_22" text-rendering="inherit" font-size="16" dy=".8em" y="24.100000642240047" x="443.5000078305602">科技、娱乐与设计https://liuyu19.github.io/TED/mindmap1.0.svg</text></g><a id="kity_a_865" xlink:href="https://liuyu19.github.io/TED/mindmap.svg" target="_blank" xlink:title="https://liuyu19.github.io/TED/mindmap.svg" style="cursor: pointer;" display="none"><path id="kity_path_867" fill="rgba(255, 255, 255, 0)" stroke="none" d="M445.5000078305602,28.500000678002834h16a4,4,0,0,1,4,4v14a4,4,0,0,1,-4,4h-16a4,4,0,0,1,-4,-4v-14a4,4,0,0,1,4,-4z"></path><path id="kity_path_866" fill="#666" stroke="none" d="M460.1140078305602,44.72400067800284h-1.278c-1.668,0,-3.07,-1.07,-3.599,-2.556h4.877c0.707,0,1.278,-0.571,1.278,-1.278V38.33400067800284c0,-0.707,-0.571,-1.278,-1.278,-1.278h-4.877C455.7660078305602,35.57100067800283,457.1680078305602,34.500000678002834,458.8360078305602,34.500000678002834h1.278c2.116,0,3.834,1.716,3.834,3.834V40.890000678002835C463.9480078305602,43.00800067800283,462.2300078305602,44.72400067800284,460.1140078305602,44.72400067800284zM448.61200783056023,39.612000678002836c0,-0.707,0.573,-1.278,1.278,-1.278h7.668c0.707,0,1.278,0.571,1.278,1.278S458.2650078305602,40.890000678002835,457.5580078305602,40.890000678002835H449.8900078305602C449.1850078305602,40.890000678002835,448.61200783056023,40.31900067800284,448.61200783056023,39.612000678002836zM446.0560078305602,38.33400067800284V40.890000678002835c0,0.707,0.573,1.278,1.278,1.278h4.877c-0.528,1.486,-1.932,2.556,-3.599,2.556H447.3340078305602C445.2160078305602,44.72400067800284,443.5000078305602,43.00800067800283,443.5000078305602,40.890000678002835V38.33400067800284C443.5000078305602,36.216000678002835,445.2160078305602,34.500000678002834,447.3340078305602,34.500000678002834h1.278c1.667,0,3.071,1.071,3.599,2.556H447.3340078305602C446.6290078305602,37.05600067800283,446.0560078305602,37.62700067800284,446.0560078305602,38.33400067800284z"></path></a></g><g id="kity_g_14" display="none"><path id="kity_path_15" fill="rgba(0, 153, 5, 0.5)" stroke="none" d="M76.50000783056021,647.5000006780028h226v4h-226z"></path><path id="kity_path_16" fill="none" stroke="rgb(0, 128, 4)" d="M76.50000783056021,647.5000006780028L302.5000078305602,647.5000006780028" stroke-width="1"></path></g><g id="minder_node9"><g id="node_expander8" style="cursor: pointer;"><path id="kity_path_92" fill="white" stroke="gray" d="M78.5000023022294,59.500001050531864A6,6,0,1,1,66.5000023022294,59.500001050531864A6,6,0,1,1,78.5000023022294,59.500001050531864"></path><path id="kity_path_93" fill="none" stroke="gray" d="M68.0000023022294,59.500001050531864L77.0000023022294,59.500001050531864"></path></g><path id="node_outline9" fill="#76923c" stroke="rgb(115, 191, 118)" d="M23.500001825392246,66.50000148266554h98a3,3,0,0,1,3,3v38a3,3,0,0,1,-3,3h-98a3,3,0,0,1,-3,-3v-38a3,3,0,0,1,3,-3z" stroke-width="1"></path><g id="node_text9" fill="black"><text id="kity_text_89" text-rendering="inherit" font-size="32" dy=".8em" y="67.70000141113997" x="40.500001825392246">科技</text></g></g><g id="minder_node12"><g id="node_expander11" style="cursor: pointer;"><path id="kity_path_116" fill="white" stroke="gray" d="M48.50000185519457,137.50000221282244A6,6,0,1,1,36.50000185519457,137.50000221282244A6,6,0,1,1,48.50000185519457,137.50000221282244"></path><path id="kity_path_117" fill="none" stroke="gray" d="M38.00000185519457,137.50000221282244L47.00000185519457,137.50000221282244"></path></g><path id="node_outline12" fill="#c2d69b" stroke="none" d="M53.50000239163637,122.50000221282244h121a5,5,0,0,1,5,5v20a5,5,0,0,1,-5,5h-121a5,5,0,0,1,-5,-5v-20a5,5,0,0,1,5,-5z" stroke-width="3"></path><g id="node_text12" fill="black"><text id="kity_text_113" text-rendering="inherit" font-size="24" dy=".8em" y="121.90000215917826" x="78.50000239163637">影响生活</text></g><g id="node_priority1"><path id="kity_path_176" fill="#840023" stroke="none" d="M54.00000202655792,141.0000020712614c0,3.866,3.134,7,7,7h6c3.866,0,7,-3.134,7,-7V135.0000020712614H54.00000202655792V141.0000020712614z"></path><path id="kity_path_177" fill="#FF1200" stroke="none" d="M74.00000202655792,138.0000020712614c0,3.866,-3.134,7,-7,7H61.00000202655792c-3.866,0,-7,-3.134,-7,-7V135.0000020712614c0,-3.866,3.134,-7,7,-7h6c3.866,0,7,3.134,7,7V138.0000020712614z" opacity="0.8"></path><text id="kity_text_178" text-rendering="geometricPrecision" x="63.00000201910734" y="137.50000206381083" text-anchor="middle" font-style="italic" font-size="12" fill="white" dy="5">1</text></g></g><g id="minder_node13" opacity="1"><g id="node_expander12" style="cursor: pointer;"><path id="kity_path_124" fill="white" stroke="gray" d="M675.5000111982226,867.5000130906701A6,6,0,1,1,663.5000111982226,867.5000130906701A6,6,0,1,1,675.5000111982226,867.5000130906701"></path><path id="kity_path_125" fill="none" stroke="gray" d="M665.0000111982226,867.5000130906701L674.0000111982226,867.5000130906701"></path></g><path id="node_outline13" fill="#c2d69b" stroke="none" d="M680.5000117346644,852.5000130906701h73a5,5,0,0,1,5,5v20a5,5,0,0,1,-5,5h-73a5,5,0,0,1,-5,-5v-20a5,5,0,0,1,5,-5z" stroke-width="3"></path><g id="node_text13" fill="black"><text id="kity_text_121" text-rendering="inherit" font-size="24" dy=".8em" y="851.9000130370259" x="705.5000117346644">态度</text></g><g id="node_priority17"><path id="kity_path_1651" fill="#B25000" stroke="none" d="M681.000011369586,871.0000129491091c0,3.866,3.134,7,7,7h6c3.866,0,7,-3.134,7,-7V865.0000129491091H681.000011369586V871.0000129491091z"></path><path id="kity_path_1652" fill="#FF962E" stroke="none" d="M701.000011369586,868.0000129491091c0,3.866,-3.134,7,-7,7H688.000011369586c-3.866,0,-7,-3.134,-7,-7V865.0000129491091c0,-3.866,3.134,-7,7,-7h6c3.866,0,7,3.134,7,7V868.0000129491091z" opacity="0.8"></path><text id="kity_text_1653" text-rendering="geometricPrecision" x="690.0000113621354" y="867.5000129416585" text-anchor="middle" font-style="italic" font-size="12" fill="white" dy="5">4</text></g></g><g id="minder_node14" opacity="1"><g id="node_expander13" style="cursor: pointer;"><path id="kity_path_132" fill="white" stroke="gray" d="M48.50000185519457,435.5000066533685A6,6,0,1,1,36.50000185519457,435.5000066533685A6,6,0,1,1,48.50000185519457,435.5000066533685"></path><path id="kity_path_133" fill="none" stroke="gray" d="M38.00000185519457,435.5000066533685L47.00000185519457,435.5000066533685"></path></g><path id="node_outline14" fill="#c2d69b" stroke="none" d="M53.50000239163637,420.5000066533685h73a5,5,0,0,1,5,5v20a5,5,0,0,1,-5,5h-73a5,5,0,0,1,-5,-5v-20a5,5,0,0,1,5,-5z" stroke-width="3"></path><g id="node_text14" fill="black"><text id="kity_text_129" text-rendering="inherit" font-size="24" dy=".8em" y="419.9000065997243" x="78.50000239163637">责任</text></g><g id="node_priority2"><path id="kity_path_181" fill="#01467F" stroke="none" d="M54.00000202655792,439.00000651180744c0,3.866,3.134,7,7,7h6c3.866,0,7,-3.134,7,-7V433.00000651180744H54.00000202655792V439.00000651180744z"></path><path id="kity_path_182" fill="#0074FF" stroke="none" d="M74.00000202655792,436.00000651180744c0,3.866,-3.134,7,-7,7H61.00000202655792c-3.866,0,-7,-3.134,-7,-7V433.00000651180744c0,-3.866,3.134,-7,7,-7h6c3.866,0,7,3.134,7,7V436.00000651180744z" opacity="0.8"></path><text id="kity_text_183" text-rendering="geometricPrecision" x="63.00000201910734" y="435.50000650435686" text-anchor="middle" font-style="italic" font-size="12" fill="white" dy="5">2</text></g></g><g id="minder_node15"><g id="node_expander14" style="cursor: pointer;"><path id="kity_path_140" fill="white" stroke="gray" d="M48.50000185519457,635.5000096336007A6,6,0,1,1,36.50000185519457,635.5000096336007A6,6,0,1,1,48.50000185519457,635.5000096336007"></path><path id="kity_path_141" fill="none" stroke="gray" d="M38.00000185519457,635.5000096336007L47.00000185519457,635.5000096336007"></path></g><path id="node_outline15" fill="#c2d69b" stroke="none" d="M53.50000239163637,620.5000096336007h74a5,5,0,0,1,5,5v20a5,5,0,0,1,-5,5h-74a5,5,0,0,1,-5,-5v-20a5,5,0,0,1,5,-5z" stroke-width="3"></path><g id="node_text15" fill="black"><text id="kity_text_137" text-rendering="inherit" font-size="24" dy=".8em" y="619.9000095799565" x="78.50000239163637">数据</text></g><g id="node_priority6"><path id="kity_path_409" fill="#006300" stroke="none" d="M54.00000202655792,639.0000094920397c0,3.866,3.134,7,7,7h6c3.866,0,7,-3.134,7,-7V633.0000094920397H54.00000202655792V639.0000094920397z"></path><path id="kity_path_410" fill="#00AF00" stroke="none" d="M74.00000202655792,636.0000094920397c0,3.866,-3.134,7,-7,7H61.00000202655792c-3.866,0,-7,-3.134,-7,-7V633.0000094920397c0,-3.866,3.134,-7,7,-7h6c3.866,0,7,3.134,7,7V636.0000094920397z" opacity="0.8"></path><text id="kity_text_411" text-rendering="geometricPrecision" x="63.00000201910734" y="635.5000094845891" text-anchor="middle" font-style="italic" font-size="12" fill="white" dy="5">3</text></g></g><g id="minder_node16"><g id="node_expander15" style="cursor: pointer;"><path id="kity_path_148" fill="white" stroke="gray" d="M76.50000227242708,195.5000030770898A6,6,0,1,1,64.50000227242708,195.5000030770898A6,6,0,1,1,76.50000227242708,195.5000030770898"></path><path id="kity_path_149" fill="none" stroke="gray" d="M66.00000227242708,195.5000030770898L75.00000227242708,195.5000030770898"></path></g><path id="node_outline16" fill="#eaf1dd" stroke="none" d="M81.50000243633986,186.5000030770898h49a5,5,0,0,1,5,5v8a5,5,0,0,1,-5,5h-49a5,5,0,0,1,-5,-5v-8a5,5,0,0,1,5,-5z" stroke-width="3"></path><g id="node_text16" fill="black"><text id="kity_text_145" text-rendering="inherit" font-size="12" dy=".8em" y="187.7000030502677" x="81.50000243633986">性别教育</text></g></g><g id="minder_node18"><g id="node_expander17" style="cursor: pointer;"><path id="kity_path_164" fill="white" stroke="gray" d="M76.50000227242708,273.50000423938036A6,6,0,1,1,64.50000227242708,273.50000423938036A6,6,0,1,1,76.50000227242708,273.50000423938036"></path><path id="kity_path_165" fill="none" stroke="gray" d="M66.00000227242708,273.50000423938036L75.00000227242708,273.50000423938036"></path></g><path id="node_outline18" fill="#eaf1dd" stroke="none" d="M81.50000243633986,264.50000423938036h25a5,5,0,0,1,5,5v8a5,5,0,0,1,-5,5h-25a5,5,0,0,1,-5,-5v-8a5,5,0,0,1,5,-5z" stroke-width="3"></path><g id="node_text18" fill="black"><text id="kity_text_161" text-rendering="inherit" font-size="12" dy=".8em" y="265.70000421255827" x="81.50000243633986">改变</text></g></g><g id="minder_node22"><g id="node_expander21" style="cursor: pointer;" display="none"><path id="kity_path_206" fill="white" stroke="gray" d="M104.5000026896596,351.50000540167093A6,6,0,1,1,92.5000026896596,351.50000540167093A6,6,0,1,1,104.5000026896596,351.50000540167093"></path><path id="kity_path_207" fill="none" stroke="gray"></path></g><path id="node_outline22" fill="none" stroke="none" d="M109.50000285357237,342.50000540167093h37a5,5,0,0,1,5,5v8a5,5,0,0,1,-5,5h-37a5,5,0,0,1,-5,-5v-8a5,5,0,0,1,5,-5z" stroke-width="3"></path><g id="node_text22" fill="black"><text id="kity_text_203" text-rendering="inherit" font-size="12" dy=".8em" y="343.70000537484884" x="109.50000285357237">区块链</text></g></g><g id="minder_node29"><g id="node_expander28" style="cursor: pointer;" display="none"><path id="kity_path_262" fill="white" stroke="gray" d="M104.5000026896596,221.50000346451998A6,6,0,1,1,92.5000026896596,221.50000346451998A6,6,0,1,1,104.5000026896596,221.50000346451998"></path><path id="kity_path_263" fill="none" stroke="gray"></path></g><path id="node_outline29" fill="#eaf1dd" stroke="none" d="M109.50000285357237,212.50000346451998h253a5,5,0,0,1,5,5v8a5,5,0,0,1,-5,5h-253a5,5,0,0,1,-5,-5v-8a5,5,0,0,1,5,-5z" stroke-width="3"></path><g id="node_text29" fill="black"><text id="kity_text_259" text-rendering="inherit" font-size="12" dy=".8em" y="213.7000034376979" x="109.50000285357237">论点：青少年能轻易接受高强度色情片的刺激。</text></g></g><g id="minder_node30"><g id="node_expander29" style="cursor: pointer;" display="none"><path id="kity_path_270" fill="white" stroke="gray" d="M104.5000026896596,247.50000385195017A6,6,0,1,1,92.5000026896596,247.50000385195017A6,6,0,1,1,104.5000026896596,247.50000385195017"></path><path id="kity_path_271" fill="none" stroke="gray"></path></g><path id="node_outline30" fill="none" stroke="none" d="M109.50000285357237,238.50000385195017h205a5,5,0,0,1,5,5v8a5,5,0,0,1,-5,5h-205a5,5,0,0,1,-5,-5v-8a5,5,0,0,1,5,-5z" stroke-width="3"></path><g id="node_text30" fill="black"><text id="kity_text_267" text-rendering="inherit" font-size="12" dy=".8em" y="239.70000382512808" x="109.50000285357237">案例：互联网或成为青年性启蒙教师。</text></g></g><g id="minder_node34"><g id="node_expander33" style="cursor: pointer;"><path id="kity_path_302" fill="white" stroke="gray" d="M76.50000227242708,377.5000057891011A6,6,0,1,1,64.50000227242708,377.5000057891011A6,6,0,1,1,76.50000227242708,377.5000057891011"></path><path id="kity_path_303" fill="none" stroke="gray" d="M66.00000227242708,377.5000057891011L75.00000227242708,377.5000057891011"></path></g><path id="node_outline34" fill="#eaf1dd" stroke="none" d="M81.50000243633986,368.5000057891011h50a5,5,0,0,1,5,5v8a5,5,0,0,1,-5,5h-50a5,5,0,0,1,-5,-5v-8a5,5,0,0,1,5,-5z" stroke-width="3"></path><g id="node_text34" fill="black"><text id="kity_text_299" text-rendering="inherit" font-size="12" dy=".8em" y="369.70000576227903" x="81.50000243633986">政治独裁</text></g></g><g id="minder_node35"><g id="node_expander34" style="cursor: pointer;" display="none"><path id="kity_path_310" fill="white" stroke="gray" d="M104.5000026896596,403.5000061765313A6,6,0,1,1,92.5000026896596,403.5000061765313A6,6,0,1,1,104.5000026896596,403.5000061765313"></path><path id="kity_path_311" fill="none" stroke="gray"></path></g><path id="node_outline35" fill="none" stroke="none" d="M109.50000285357237,394.5000061765313h325a5,5,0,0,1,5,5v8a5,5,0,0,1,-5,5h-325a5,5,0,0,1,-5,-5v-8a5,5,0,0,1,5,-5z" stroke-width="3"></path><g id="node_text35" fill="black"><text id="kity_text_307" text-rendering="inherit" font-size="12" dy=".8em" y="395.7000061497092" x="109.50000285357237">案例：政府有效率地处理大量的资讯，可能使民主受到影响。</text></g></g><g id="minder_node39"><g id="node_expander38" style="cursor: pointer;"><path id="kity_path_352" fill="white" stroke="gray" d="M700.5000115707517,59.500001050531864A6,6,0,1,1,688.5000115707517,59.500001050531864A6,6,0,1,1,700.5000115707517,59.500001050531864"></path><path id="kity_path_353" fill="none" stroke="gray" d="M690.0000115707517,59.500001050531864L699.0000115707517,59.500001050531864"></path></g><path id="node_outline39" fill="#76923c" stroke="rgb(115, 191, 118)" d="M645.5000110939145,66.50000148266554h98a3,3,0,0,1,3,3v38a3,3,0,0,1,-3,3h-98a3,3,0,0,1,-3,-3v-38a3,3,0,0,1,3,-3z" stroke-width="1"></path><g id="node_text39" fill="black"><text id="kity_text_349" text-rendering="inherit" font-size="32" dy=".8em" y="67.70000141113997" x="662.5000110939145">娱乐</text></g></g><g id="minder_node40"><g id="node_expander41" style="cursor: pointer;"><path id="kity_path_381" fill="white" stroke="gray" d="M670.5000111237168,137.50000221282244A6,6,0,1,1,658.5000111237168,137.50000221282244A6,6,0,1,1,670.5000111237168,137.50000221282244"></path><path id="kity_path_382" fill="none" stroke="gray" d="M660.0000111237168,137.50000221282244L669.0000111237168,137.50000221282244"></path></g><path id="node_outline42" fill="#c2d69b" stroke="none" d="M675.5000116601586,122.50000221282244h121a5,5,0,0,1,5,5v20a5,5,0,0,1,-5,5h-121a5,5,0,0,1,-5,-5v-20a5,5,0,0,1,5,-5z" stroke-width="3"></path><g id="node_text42" fill="black"><text id="kity_text_365" text-rendering="inherit" font-size="24" dy=".8em" y="121.90000215917826" x="700.5000116601586">社交网络</text></g><g id="node_priority5"><path id="kity_path_368" fill="#840023" stroke="none" d="M676.0000112950802,141.0000020712614c0,3.866,3.134,7,7,7h6c3.866,0,7,-3.134,7,-7V135.0000020712614H676.0000112950802V141.0000020712614z"></path><path id="kity_path_369" fill="#FF1200" stroke="none" d="M696.0000112950802,138.0000020712614c0,3.866,-3.134,7,-7,7H683.0000112950802c-3.866,0,-7,-3.134,-7,-7V135.0000020712614c0,-3.866,3.134,-7,7,-7h6c3.866,0,7,3.134,7,7V138.0000020712614z" opacity="0.8"></path><text id="kity_text_370" text-rendering="geometricPrecision" x="685.0000112876296" y="137.50000206381083" text-anchor="middle" font-style="italic" font-size="12" fill="white" dy="5">1</text></g></g><g id="minder_node46"><g id="node_expander45" style="cursor: pointer;"><path id="kity_path_418" fill="white" stroke="gray" d="M76.50000227242708,670.5000101551414A6,6,0,1,1,64.50000227242708,670.5000101551414A6,6,0,1,1,76.50000227242708,670.5000101551414"></path><path id="kity_path_419" fill="none" stroke="gray" d="M66.00000227242708,670.5000101551414L75.00000227242708,670.5000101551414"></path></g><path id="node_outline46" fill="#eaf1dd" stroke="none" d="M81.50000243633986,658.5000101551414h325a5,5,0,0,1,5,5v14a5,5,0,0,1,-5,5h-325a5,5,0,0,1,-5,-5v-14a5,5,0,0,1,5,-5z" stroke-width="3"></path><g id="node_text46" fill="black"><text id="kity_text_415" text-rendering="inherit" font-size="18" dy=".8em" y="658.8000101149082" x="81.50000243633986">分论点：数据是我们表达现实所用的工具</text></g></g><g id="minder_node47"><g id="node_expander46" style="cursor: pointer;" display="none"><path id="kity_path_426" fill="white" stroke="gray" d="M104.5000026896596,699.500010587275A6,6,0,1,1,92.5000026896596,699.500010587275A6,6,0,1,1,104.5000026896596,699.500010587275"></path><path id="kity_path_427" fill="none" stroke="gray"></path></g><path id="node_outline47" fill="none" stroke="none" d="M109.50000285357237,690.500010587275h50a5,5,0,0,1,5,5v8a5,5,0,0,1,-5,5h-50a5,5,0,0,1,-5,-5v-8a5,5,0,0,1,5,-5z" stroke-width="3"></path><g id="node_text47" fill="black"><text id="kity_text_423" text-rendering="inherit" font-size="12" dy=".8em" y="691.7000105604529" x="109.50000285357237">用于总结</text></g></g><g id="minder_node27" opacity="1"><g id="node_expander26" style="cursor: pointer;"><path id="kity_path_246" fill="white" stroke="gray" d="M76.50000227242708,792.500011973083A6,6,0,1,1,64.50000227242708,792.500011973083A6,6,0,1,1,76.50000227242708,792.500011973083"></path><path id="kity_path_247" fill="none" stroke="gray" d="M66.00000227242708,792.500011973083L75.00000227242708,792.500011973083"></path></g><path id="node_outline27" fill="#eaf1dd" stroke="none" d="M81.50000243633986,780.500011973083h540a5,5,0,0,1,5,5v14a5,5,0,0,1,-5,5h-540a5,5,0,0,1,-5,-5v-14a5,5,0,0,1,5,-5z" stroke-width="3"></path><g id="node_text27" fill="black"><text id="kity_text_243" text-rendering="inherit" font-size="18" dy=".8em" y="780.8000119328499" x="81.50000243633986">论点：使用大量电子产品占据大量时间，我们却没有因此更加幸福。</text></g></g><g id="minder_node31" opacity="1"><g id="node_expander30" style="cursor: pointer;"><path id="kity_path_278" fill="white" stroke="gray" d="M160.50000352412462,551.5000083819032A6,6,0,1,1,148.50000352412462,551.5000083819032A6,6,0,1,1,160.50000352412462,551.5000083819032"></path><path id="kity_path_279" fill="none" stroke="gray" d="M150.00000352412462,551.5000083819032L159.00000352412462,551.5000083819032"></path></g><path id="node_outline31" fill="#eaf1dd" stroke="none" d="M165.5000036880374,542.5000083819032h61a5,5,0,0,1,5,5v8a5,5,0,0,1,-5,5h-61a5,5,0,0,1,-5,-5v-8a5,5,0,0,1,5,-5z" stroke-width="3"></path><g id="node_text31" fill="black"><text id="kity_text_275" text-rendering="inherit" font-size="12" dy=".8em" y="543.7000083550811" x="165.5000036880374">以前的数据</text></g></g><g id="minder_node33"><g id="node_expander32" style="cursor: pointer;" display="none"><path id="kity_path_294" fill="white" stroke="gray" d="M104.5000026896596,603.5000091567636A6,6,0,1,1,92.5000026896596,603.5000091567636A6,6,0,1,1,104.5000026896596,603.5000091567636"></path><path id="kity_path_295" fill="none" stroke="gray"></path></g><path id="node_outline33" fill="none" stroke="none" d="M109.50000285357237,594.5000091567636h86a5,5,0,0,1,5,5v8a5,5,0,0,1,-5,5h-86a5,5,0,0,1,-5,-5v-8a5,5,0,0,1,5,-5z" stroke-width="3"></path><g id="node_text33" fill="black"><text id="kity_text_291" text-rendering="inherit" font-size="12" dy=".8em" y="595.7000091299415" x="109.50000285357237">案例：招聘软件</text></g></g><g id="minder_node28"><g id="node_expander27" style="cursor: pointer;"><path id="kity_path_254" fill="white" stroke="gray" d="M76.50000227242708,470.5000071749091A6,6,0,1,1,64.50000227242708,470.5000071749091A6,6,0,1,1,76.50000227242708,470.5000071749091"></path><path id="kity_path_255" fill="none" stroke="gray" d="M66.00000227242708,470.5000071749091L75.00000227242708,470.5000071749091"></path></g><path id="node_outline28" fill="#eaf1dd" stroke="none" d="M81.50000243633986,458.5000071749091h216a5,5,0,0,1,5,5v14a5,5,0,0,1,-5,5h-216a5,5,0,0,1,-5,-5v-14a5,5,0,0,1,5,-5z" stroke-width="3"></path><g id="node_text28" fill="black"><text id="kity_text_251" text-rendering="inherit" font-size="18" dy=".8em" y="458.800007134676" x="81.50000243633986">论点：机器是否要负责任？</text></g></g><g id="minder_node54" opacity="1"><g id="node_expander53" style="cursor: pointer;"><path id="kity_path_502" fill="white" stroke="gray" d="M672.5000111535192,378.5000058040023A6,6,0,1,1,660.5000111535192,378.5000058040023A6,6,0,1,1,672.5000111535192,378.5000058040023"></path><path id="kity_path_503" fill="none" stroke="gray" d="M662.0000111535192,378.5000058040023L671.0000111535192,378.5000058040023"></path></g><path id="node_outline54" fill="#c2d69b" stroke="none" d="M677.500011689961,363.5000058040023h74a5,5,0,0,1,5,5v20a5,5,0,0,1,-5,5h-74a5,5,0,0,1,-5,-5v-20a5,5,0,0,1,5,-5z" stroke-width="3"></path><g id="node_text54" fill="black"><text id="kity_text_499" text-rendering="inherit" font-size="24" dy=".8em" y="362.9000057503581" x="702.500011689961">成瘾</text></g><g id="node_priority8"><path id="kity_path_506" fill="#01467F" stroke="none" d="M678.0000113248825,382.00000566244125c0,3.866,3.134,7,7,7h6c3.866,0,7,-3.134,7,-7V376.00000566244125H678.0000113248825V382.00000566244125z"></path><path id="kity_path_507" fill="#0074FF" stroke="none" d="M698.0000113248825,379.00000566244125c0,3.866,-3.134,7,-7,7H685.0000113248825c-3.866,0,-7,-3.134,-7,-7V376.00000566244125c0,-3.866,3.134,-7,7,-7h6c3.866,0,7,3.134,7,7V379.00000566244125z" opacity="0.8"></path><text id="kity_text_508" text-rendering="geometricPrecision" x="687.0000113174319" y="378.5000056549907" text-anchor="middle" font-style="italic" font-size="12" fill="white" dy="5">2</text></g></g><g id="minder_node94" opacity="1"><g id="node_expander93" style="cursor: pointer;" display="none"><path id="kity_path_882" fill="white" stroke="gray" d="M76.50000227242708,169.5000026896596A6,6,0,1,1,64.50000227242708,169.5000026896596A6,6,0,1,1,76.50000227242708,169.5000026896596"></path><path id="kity_path_883" fill="none" stroke="gray"></path></g><path id="node_outline94" fill="#eaf1dd" stroke="none" d="M81.50000243633986,160.5000026896596h41a5,5,0,0,1,5,5v8a5,5,0,0,1,-5,5h-41a5,5,0,0,1,-5,-5v-8a5,5,0,0,1,5,-5z" stroke-width="3"></path><g id="node_text94" fill="black"><text id="kity_text_879" text-rendering="inherit" font-size="12" dy=".8em" y="161.7000026628375" x="81.50000243633986">数字屑&#xa0;</text></g></g><g id="minder_node97"><g id="node_expander96" style="cursor: pointer;"><path id="kity_path_906" fill="white" stroke="gray" d="M1305.5000205859542,59.500001050531864A6,6,0,1,1,1293.5000205859542,59.500001050531864A6,6,0,1,1,1305.5000205859542,59.500001050531864"></path><path id="kity_path_907" fill="none" stroke="gray" d="M1295.0000205859542,59.500001050531864L1304.0000205859542,59.500001050531864"></path></g><path id="node_outline97" fill="#76923c" stroke="rgb(115, 191, 118)" d="M1250.500020109117,66.50000148266554h98a3,3,0,0,1,3,3v38a3,3,0,0,1,-3,3h-98a3,3,0,0,1,-3,-3v-38a3,3,0,0,1,3,-3z" stroke-width="1"></path><g id="node_text97" fill="black"><text id="kity_text_903" text-rendering="inherit" font-size="32" dy=".8em" y="67.70000141113997" x="1267.500020109117">设计</text></g></g><g id="minder_node107"><g id="node_expander110" style="cursor: pointer;"><path id="kity_path_1028" fill="white" stroke="gray" d="M1275.5000201389194,163.50000260025263A6,6,0,1,1,1263.5000201389194,163.50000260025263A6,6,0,1,1,1275.5000201389194,163.50000260025263"></path><path id="kity_path_1029" fill="none" stroke="gray" d="M1265.0000201389194,163.50000260025263L1274.0000201389194,163.50000260025263"></path></g><path id="node_outline111" fill="#c2d69b" stroke="none" d="M1280.5000206753612,148.50000260025263h121a5,5,0,0,1,5,5v20a5,5,0,0,1,-5,5h-121a5,5,0,0,1,-5,-5v-20a5,5,0,0,1,5,-5z" stroke-width="3"></path><g id="node_text111" fill="black"><text id="kity_text_1004" text-rendering="inherit" font-size="24" dy=".8em" y="147.90000254660845" x="1305.5000206753612">看待未来</text></g><g id="node_priority12"><path id="kity_path_1007" fill="#840023" stroke="none" d="M1281.0000203102827,167.0000024586916c0,3.866,3.134,7,7,7h6c3.866,0,7,-3.134,7,-7V161.0000024586916H1281.0000203102827V167.0000024586916z"></path><path id="kity_path_1008" fill="#FF1200" stroke="none" d="M1301.0000203102827,164.0000024586916c0,3.866,-3.134,7,-7,7H1288.0000203102827c-3.866,0,-7,-3.134,-7,-7V161.0000024586916c0,-3.866,3.134,-7,7,-7h6c3.866,0,7,3.134,7,7V164.0000024586916z" opacity="0.8"></path><text id="kity_text_1009" text-rendering="geometricPrecision" x="1290.0000203028321" y="163.50000245124102" text-anchor="middle" font-style="italic" font-size="12" fill="white" dy="5">1</text></g></g><g id="minder_node108"><g id="node_expander108" style="cursor: pointer;" display="none"><path id="kity_path_1022" fill="white" stroke="gray" d="M1303.5000205561519,195.5000030770898A6,6,0,1,1,1291.5000205561519,195.5000030770898A6,6,0,1,1,1303.5000205561519,195.5000030770898"></path><path id="kity_path_1023" fill="none" stroke="gray" d="M1293.0000205561519,195.5000030770898L1302.0000205561519,195.5000030770898"></path></g><path id="node_outline109" fill="none" stroke="none" d="M1308.5000207200646,186.5000030770898h290a5,5,0,0,1,5,5v8a5,5,0,0,1,-5,5h-290a5,5,0,0,1,-5,-5v-8a5,5,0,0,1,5,-5z" stroke-width="3"></path><g id="node_text109" fill="black"><text id="kity_text_1000" text-rendering="inherit" font-size="12" dy=".8em" y="187.7000030502677" x="1308.5000207200646">案例：出门所带的东西是自身对科技掌握的一种的理解</text></g></g><g id="minder_node111"><g id="node_expander109" style="cursor: pointer;"><path id="kity_path_1025" fill="white" stroke="gray" d="M1303.5000205561519,221.50000346451998A6,6,0,1,1,1291.5000205561519,221.50000346451998A6,6,0,1,1,1303.5000205561519,221.50000346451998"></path><path id="kity_path_1026" fill="none" stroke="gray" d="M1293.0000205561519,221.50000346451998L1302.0000205561519,221.50000346451998"></path></g><path id="node_outline110" fill="none" stroke="none" d="M1308.5000207200646,212.50000346451998h289a5,5,0,0,1,5,5v8a5,5,0,0,1,-5,5h-289a5,5,0,0,1,-5,-5v-8a5,5,0,0,1,5,-5z" stroke-width="3"></path><g id="node_text110" fill="black"><text id="kity_text_1002" text-rendering="inherit" font-size="12" dy=".8em" y="213.7000034376979" x="1308.5000207200646">案例：社会告诉女孩应该做什么，而不是自己想做的。</text></g></g><g id="minder_node112" opacity="1"><g id="node_expander114" style="cursor: pointer;"><path id="kity_path_1065" fill="white" stroke="gray" d="M1289.5000203475356,657.5000099614263A6,6,0,1,1,1277.5000203475356,657.5000099614263A6,6,0,1,1,1289.5000203475356,657.5000099614263"></path><path id="kity_path_1066" fill="none" stroke="gray" d="M1279.0000203475356,657.5000099614263L1288.0000203475356,657.5000099614263"></path></g><path id="node_outline115" fill="#c2d69b" stroke="none" d="M1294.5000208839774,642.5000099614263h73a5,5,0,0,1,5,5v20a5,5,0,0,1,-5,5h-73a5,5,0,0,1,-5,-5v-20a5,5,0,0,1,5,-5z" stroke-width="3"></path><g id="node_text115" fill="black"><text id="kity_text_1045" text-rendering="inherit" font-size="24" dy=".8em" y="641.9000099077821" x="1319.5000208839774">情绪</text></g><g id="node_priority13"><path id="kity_path_1048" fill="#006300" stroke="none" d="M1295.000020518899,661.0000098198652c0,3.866,3.134,7,7,7h6c3.866,0,7,-3.134,7,-7V655.0000098198652H1295.000020518899V661.0000098198652z"></path><path id="kity_path_1049" fill="#00AF00" stroke="none" d="M1315.000020518899,658.0000098198652c0,3.866,-3.134,7,-7,7H1302.000020518899c-3.866,0,-7,-3.134,-7,-7V655.0000098198652c0,-3.866,3.134,-7,7,-7h6c3.866,0,7,3.134,7,7V658.0000098198652z" opacity="0.8"></path><text id="kity_text_1050" text-rendering="geometricPrecision" x="1304.0000205114484" y="657.5000098124146" text-anchor="middle" font-style="italic" font-size="12" fill="white" dy="5">3</text></g></g><g id="minder_node117" opacity="1"><g id="node_expander116" style="cursor: pointer;"><path id="kity_path_1081" fill="white" stroke="gray" d="M700.5000115707517,410.50000628083944A6,6,0,1,1,688.5000115707517,410.50000628083944A6,6,0,1,1,700.5000115707517,410.50000628083944"></path><path id="kity_path_1082" fill="none" stroke="gray" d="M690.0000115707517,410.50000628083944L699.0000115707517,410.50000628083944"></path></g><path id="node_outline117" fill="none" stroke="none" d="M705.5000117346644,401.50000628083944h49a5,5,0,0,1,5,5v8a5,5,0,0,1,-5,5h-49a5,5,0,0,1,-5,-5v-8a5,5,0,0,1,5,-5z" stroke-width="3"></path><g id="node_text117" fill="black"><text id="kity_text_1078" text-rendering="inherit" font-size="12" dy=".8em" y="402.70000625401735" x="705.5000117346644">成瘾机制</text></g></g><g id="minder_node122" opacity="1"><g id="node_expander121" style="cursor: pointer;" display="none"><path id="kity_path_1121" fill="white" stroke="gray" d="M1275.5000201389194,131.50000212341547A6,6,0,1,1,1263.5000201389194,131.50000212341547A6,6,0,1,1,1275.5000201389194,131.50000212341547"></path><path id="kity_path_1122" fill="none" stroke="gray"></path></g><path id="node_outline122" fill="none" stroke="none" d="M1280.5000203028321,122.50000212341547h182a5,5,0,0,1,5,5v8a5,5,0,0,1,-5,5h-182a5,5,0,0,1,-5,-5v-8a5,5,0,0,1,5,-5z" stroke-width="3"></path><g id="node_text122" fill="black"><text id="kity_text_1118" text-rendering="inherit" font-size="12" dy=".8em" y="123.70000209659338" x="1280.5000203028321">编程：让计算机代为解决某个问题</text></g></g><g id="minder_node128" opacity="1"><g id="node_expander127" style="cursor: pointer;" display="none"><path id="kity_path_1179" fill="white" stroke="gray" d="M104.5000026896596,299.50000462681055A6,6,0,1,1,92.5000026896596,299.50000462681055A6,6,0,1,1,104.5000026896596,299.50000462681055"></path><path id="kity_path_1180" fill="none" stroke="gray"></path></g><path id="node_outline128" fill="none" stroke="none" d="M109.50000285357237,290.50000462681055h26a5,5,0,0,1,5,5v8a5,5,0,0,1,-5,5h-26a5,5,0,0,1,-5,-5v-8a5,5,0,0,1,5,-5z" stroke-width="3"></path><g id="node_text128" fill="black"><text id="kity_text_1176" text-rendering="inherit" font-size="12" dy=".8em" y="291.70000459998846" x="109.50000285357237">金钱</text></g></g><g id="minder_node129"><g id="node_expander128" style="cursor: pointer;" display="none"><path id="kity_path_1187" fill="white" stroke="gray" d="M104.5000026896596,325.50000501424074A6,6,0,1,1,92.5000026896596,325.50000501424074A6,6,0,1,1,104.5000026896596,325.50000501424074"></path><path id="kity_path_1188" fill="none" stroke="gray"></path></g><path id="node_outline129" fill="none" stroke="none" d="M109.50000285357237,316.50000501424074h24a5,5,0,0,1,5,5v8a5,5,0,0,1,-5,5h-24a5,5,0,0,1,-5,-5v-8a5,5,0,0,1,5,-5z" stroke-width="3"></path><g id="node_text129" fill="black"><text id="kity_text_1184" text-rendering="inherit" font-size="12" dy=".8em" y="317.70000498741865" x="109.50000285357237">贸易</text></g></g><g id="minder_node132"><g id="node_expander131" style="cursor: pointer;" display="none"><path id="kity_path_1211" fill="white" stroke="gray" d="M104.5000026896596,725.5000109747052A6,6,0,1,1,92.5000026896596,725.5000109747052A6,6,0,1,1,104.5000026896596,725.5000109747052"></path><path id="kity_path_1212" fill="none" stroke="gray"></path></g><path id="node_outline132" fill="none" stroke="none" d="M109.50000285357237,716.5000109747052h62a5,5,0,0,1,5,5v8a5,5,0,0,1,-5,5h-62a5,5,0,0,1,-5,-5v-8a5,5,0,0,1,5,-5z" stroke-width="3"></path><g id="node_text132" fill="black"><text id="kity_text_1208" text-rendering="inherit" font-size="12" dy=".8em" y="717.7000109478831" x="109.50000285357237">信息可视化</text></g></g><g id="minder_node133" opacity="1"><g id="node_expander132" style="cursor: pointer;"><path id="kity_path_1219" fill="white" stroke="gray" d="M104.5000026896596,499.5000076070428A6,6,0,1,1,92.5000026896596,499.5000076070428A6,6,0,1,1,104.5000026896596,499.5000076070428"></path><path id="kity_path_1220" fill="none" stroke="gray" d="M94.0000026896596,499.5000076070428L103.0000026896596,499.5000076070428"></path></g><path id="node_outline133" fill="none" stroke="none" d="M109.50000285357237,490.5000076070428h49a5,5,0,0,1,5,5v8a5,5,0,0,1,-5,5h-49a5,5,0,0,1,-5,-5v-8a5,5,0,0,1,5,-5z" stroke-width="3"></path><g id="node_text133" fill="black"><text id="kity_text_1216" text-rendering="inherit" font-size="12" dy=".8em" y="491.7000075802207" x="109.50000285357237">机器学习</text></g></g><g id="minder_node134" opacity="1"><g id="node_expander133" style="cursor: pointer;"><path id="kity_path_1228" fill="white" stroke="gray" d="M132.5000031068921,525.500007994473A6,6,0,1,1,120.50000310689211,525.500007994473A6,6,0,1,1,132.5000031068921,525.500007994473"></path><path id="kity_path_1229" fill="none" stroke="gray" d="M122.00000310689211,525.500007994473L131.0000031068921,525.500007994473"></path></g><path id="node_outline134" fill="none" stroke="none" d="M137.50000327080488,516.500007994473h40a5,5,0,0,1,5,5v8a5,5,0,0,1,-5,5h-40a5,5,0,0,1,-5,-5v-8a5,5,0,0,1,5,-5z" stroke-width="3"></path><g id="node_text134" fill="black"><text id="kity_text_1225" text-rendering="inherit" font-size="12" dy=".8em" y="517.7000079676509" x="137.50000327080488">大数据.</text></g></g><g id="minder_node131"><g id="node_expander130" style="cursor: pointer;" display="none"><path id="kity_path_1203" fill="white" stroke="gray" d="M188.50000394135714,577.5000087693334A6,6,0,1,1,176.50000394135714,577.5000087693334A6,6,0,1,1,188.50000394135714,577.5000087693334"></path><path id="kity_path_1204" fill="none" stroke="gray"></path></g><path id="node_outline131" fill="none" stroke="none" d="M193.5000041052699,568.5000087693334h50a5,5,0,0,1,5,5v8a5,5,0,0,1,-5,5h-50a5,5,0,0,1,-5,-5v-8a5,5,0,0,1,5,-5z" stroke-width="3"></path><g id="node_text131" fill="black"><text id="kity_text_1200" text-rendering="inherit" font-size="12" dy=".8em" y="569.7000087425113" x="193.5000041052699">继续偏见</text></g></g><g id="minder_node136"><g id="node_expander135" style="cursor: pointer;"><path id="kity_path_1273" fill="white" stroke="gray" d="M700.5000115707517,465.5000071004033A6,6,0,1,1,688.5000115707517,465.5000071004033A6,6,0,1,1,700.5000115707517,465.5000071004033"></path><path id="kity_path_1274" fill="none" stroke="gray" d="M690.0000115707517,465.5000071004033L699.0000115707517,465.5000071004033"></path></g><path id="node_outline136" fill="#eaf1dd" stroke="none" d="M705.5000117346644,453.5000071004033h234a5,5,0,0,1,5,5v14a5,5,0,0,1,-5,5h-234a5,5,0,0,1,-5,-5v-14a5,5,0,0,1,5,-5z" stroke-width="3"></path><g id="node_text136" fill="black"><text id="kity_text_1270" text-rendering="inherit" font-size="18" dy=".8em" y="453.8000070601702" x="705.5000117346644">论点：成瘾会消耗大量注意力</text></g></g><g id="minder_node137"><g id="node_expander136" style="cursor: pointer;" display="none"><path id="kity_path_1281" fill="white" stroke="gray" d="M728.5000119879842,494.500007532537A6,6,0,1,1,716.5000119879842,494.500007532537A6,6,0,1,1,728.5000119879842,494.500007532537"></path><path id="kity_path_1282" fill="none" stroke="gray" d="M718.0000119879842,494.500007532537L727.0000119879842,494.500007532537"></path></g><path id="node_outline137" fill="none" stroke="none" d="M733.500012151897,485.500007532537h24a5,5,0,0,1,5,5v8a5,5,0,0,1,-5,5h-24a5,5,0,0,1,-5,-5v-8a5,5,0,0,1,5,-5z" stroke-width="3"></path><g id="node_text137" fill="black"><text id="kity_text_1278" text-rendering="inherit" font-size="12" dy=".8em" y="486.7000075057149" x="733.500012151897">时间</text></g></g><g id="minder_node143"><g id="node_expander142" style="cursor: pointer;"><path id="kity_path_1331" fill="white" stroke="gray" d="M1331.5000209733844,247.50000385195017A6,6,0,1,1,1319.5000209733844,247.50000385195017A6,6,0,1,1,1331.5000209733844,247.50000385195017"></path><path id="kity_path_1332" fill="none" stroke="gray" d="M1321.0000209733844,247.50000385195017L1330.0000209733844,247.50000385195017"></path></g><path id="node_outline143" fill="none" stroke="none" d="M1336.5000211372972,238.50000385195017h62a5,5,0,0,1,5,5v8a5,5,0,0,1,-5,5h-62a5,5,0,0,1,-5,-5v-8a5,5,0,0,1,5,-5z" stroke-width="3"></path><g id="node_text143" fill="black"><text id="kity_text_1328" text-rendering="inherit" font-size="12" dy=".8em" y="239.70000382512808" x="1336.5000211372972">破裂的系统</text></g></g><g id="minder_node144"><g id="node_expander144" style="cursor: pointer;"><path id="kity_path_1347" fill="white" stroke="gray" d="M1303.5000205561519,299.50000462681055A6,6,0,1,1,1291.5000205561519,299.50000462681055A6,6,0,1,1,1303.5000205561519,299.50000462681055"></path><path id="kity_path_1348" fill="none" stroke="gray" d="M1293.0000205561519,299.50000462681055L1302.0000205561519,299.50000462681055"></path></g><path id="node_outline145" fill="none" stroke="none" d="M1308.5000207200646,290.50000462681055h301a5,5,0,0,1,5,5v8a5,5,0,0,1,-5,5h-301a5,5,0,0,1,-5,-5v-8a5,5,0,0,1,5,-5z" stroke-width="3"></path><g id="node_text145" fill="black"><text id="kity_text_1340" text-rendering="inherit" font-size="12" dy=".8em" y="291.70000459998846" x="1308.5000207200646">解释：患精神疾病也很正常，社会不愿意去接纳这些人。</text></g></g><g id="minder_node145"><g id="node_expander143" style="cursor: pointer;" display="none"><path id="kity_path_1344" fill="white" stroke="gray" d="M1331.5000209733844,325.50000501424074A6,6,0,1,1,1319.5000209733844,325.50000501424074A6,6,0,1,1,1331.5000209733844,325.50000501424074"></path><path id="kity_path_1345" fill="none" stroke="gray"></path></g><path id="node_outline144" fill="none" stroke="none" d="M1336.5000211372972,316.50000501424074h242a5,5,0,0,1,5,5v8a5,5,0,0,1,-5,5h-242a5,5,0,0,1,-5,-5v-8a5,5,0,0,1,5,-5z"></path><g id="node_text144" fill="black"><text id="kity_text_1338" text-rendering="inherit" font-size="12" dy=".8em" y="317.70000498741865" x="1336.5000211372972">解释：要用更多关心和更多爱来改变这个状况</text></g></g><g id="minder_node146" opacity="1"><g id="node_expander147" style="cursor: pointer;"><path id="kity_path_1371" fill="white" stroke="gray" d="M1282.5000202432275,1087.5000163689256A6,6,0,1,1,1270.5000202432275,1087.5000163689256A6,6,0,1,1,1282.5000202432275,1087.5000163689256"></path><path id="kity_path_1372" fill="none" stroke="gray" d="M1272.0000202432275,1087.5000163689256L1281.0000202432275,1087.5000163689256"></path></g><path id="node_outline148" fill="#eaf1dd" stroke="none" d="M1287.5000204071403,1075.5000163689256h236a5,5,0,0,1,5,5v14a5,5,0,0,1,-5,5h-236a5,5,0,0,1,-5,-5v-14a5,5,0,0,1,5,-5z" stroke-width="3"></path><g id="node_text148" fill="black"><text id="kity_text_1360" text-rendering="inherit" font-size="18" dy=".8em" y="1075.8000163286924" x="1287.5000204071403">分论点：政府的设计需要改变</text></g></g><g id="minder_node153"><g id="node_expander152" style="cursor: pointer;" display="none"><path id="kity_path_1416" fill="white" stroke="gray" d="M1359.500021390617,273.50000423938036A6,6,0,1,1,1347.500021390617,273.50000423938036A6,6,0,1,1,1359.500021390617,273.50000423938036"></path><path id="kity_path_1417" fill="none" stroke="gray"></path></g><path id="node_outline153" fill="none" stroke="none" d="M1364.5000215545297,264.50000423938036h50a5,5,0,0,1,5,5v8a5,5,0,0,1,-5,5h-50a5,5,0,0,1,-5,-5v-8a5,5,0,0,1,5,-5z" stroke-width="3"></path><g id="node_text153" fill="black"><text id="kity_text_1413" text-rendering="inherit" font-size="12" dy=".8em" y="265.70000421255827" x="1364.5000215545297">更多尝试</text></g></g><g id="minder_node154" opacity="1"><g id="node_expander153" style="cursor: pointer;"><path id="kity_path_1424" fill="white" stroke="gray" d="M664.5000110343099,674.500010214746A6,6,0,1,1,652.5000110343099,674.500010214746A6,6,0,1,1,664.5000110343099,674.500010214746"></path><path id="kity_path_1425" fill="none" stroke="gray" d="M654.0000110343099,674.500010214746L663.0000110343099,674.500010214746"></path></g><path id="node_outline154" fill="#c2d69b" stroke="none" d="M669.5000115707517,659.500010214746h121a5,5,0,0,1,5,5v20a5,5,0,0,1,-5,5h-121a5,5,0,0,1,-5,-5v-20a5,5,0,0,1,5,-5z" stroke-width="3"></path><g id="node_text154" fill="black"><text id="kity_text_1421" text-rendering="inherit" font-size="24" dy=".8em" y="658.9000101611018" x="694.5000115707517">情感线索</text></g><g id="node_priority15"><path id="kity_path_1428" fill="#006300" stroke="none" d="M670.0000112056732,678.000010073185c0,3.866,3.134,7,7,7h6c3.866,0,7,-3.134,7,-7V672.000010073185H670.0000112056732V678.000010073185z"></path><path id="kity_path_1429" fill="#00AF00" stroke="none" d="M690.0000112056732,675.000010073185c0,3.866,-3.134,7,-7,7H677.0000112056732c-3.866,0,-7,-3.134,-7,-7V672.000010073185c0,-3.866,3.134,-7,7,-7h6c3.866,0,7,3.134,7,7V675.000010073185z" opacity="0.8"></path><text id="kity_text_1430" text-rendering="geometricPrecision" x="679.0000111982226" y="674.5000100657344" text-anchor="middle" font-style="italic" font-size="12" fill="white" dy="5">3</text></g></g><g id="minder_node170"><g id="node_expander171" style="cursor: pointer;"><path id="kity_path_1590" fill="white" stroke="gray" d="M699.5000115558505,569.5000086501241A6,6,0,1,1,687.5000115558505,569.5000086501241A6,6,0,1,1,699.5000115558505,569.5000086501241"></path><path id="kity_path_1591" fill="none" stroke="gray" d="M689.0000115558505,569.5000086501241L698.0000115558505,569.5000086501241"></path></g><path id="node_outline172" fill="#eaf1dd" stroke="none" d="M704.5000117197633,557.5000086501241h451a5,5,0,0,1,5,5v14a5,5,0,0,1,-5,5h-451a5,5,0,0,1,-5,-5v-14a5,5,0,0,1,5,-5z" stroke-width="3"></path><g id="node_text172" fill="black"><text id="kity_text_1579" text-rendering="inherit" font-size="18" dy=".8em" y="557.8000086098909" x="704.5000117197633">分论点：上瘾是依赖，是对生活的无奈，与外界的失联。</text></g></g><g id="minder_node171"><g id="node_expander169" style="cursor: pointer;" display="none"><path id="kity_path_1584" fill="white" stroke="gray" d="M727.500011973083,598.5000090822577A6,6,0,1,1,715.500011973083,598.5000090822577A6,6,0,1,1,727.500011973083,598.5000090822577"></path><path id="kity_path_1585" fill="none" stroke="gray"></path></g><path id="node_outline170" fill="none" stroke="none" d="M732.5000121369958,589.5000090822577h277a5,5,0,0,1,5,5v8a5,5,0,0,1,-5,5h-277a5,5,0,0,1,-5,-5v-8a5,5,0,0,1,5,-5z"></path><g id="node_text170" fill="black"><text id="kity_text_1575" text-rendering="inherit" font-size="12" dy=".8em" y="590.7000090554357" x="732.5000121369958">案例：吸毒者与社会失去联系，所以才会选择吸毒。</text></g></g><g id="minder_node172"><g id="node_expander170" style="cursor: pointer;" display="none"><path id="kity_path_1587" fill="white" stroke="gray" d="M727.500011973083,624.5000094696879A6,6,0,1,1,715.500011973083,624.5000094696879A6,6,0,1,1,727.500011973083,624.5000094696879"></path><path id="kity_path_1588" fill="none" stroke="gray"></path></g><path id="node_outline171" fill="none" stroke="none" d="M732.5000121369958,615.5000094696879h265a5,5,0,0,1,5,5v8a5,5,0,0,1,-5,5h-265a5,5,0,0,1,-5,-5v-8a5,5,0,0,1,5,-5z"></path><g id="node_text171" fill="black"><text id="kity_text_1577" text-rendering="inherit" font-size="12" dy=".8em" y="616.7000094428658" x="732.5000121369958">案例：美国青少年沉迷色情片，缺乏沟通与交流。</text></g></g><g id="minder_node173"><g id="node_expander174" style="cursor: pointer;"><path id="kity_path_1614" fill="white" stroke="gray" d="M709.5000117048621,254.5000039562583A6,6,0,1,1,697.5000117048621,254.5000039562583A6,6,0,1,1,709.5000117048621,254.5000039562583"></path><path id="kity_path_1615" fill="none" stroke="gray" d="M699.0000117048621,254.5000039562583L708.0000117048621,254.5000039562583"></path></g><path id="node_outline175" fill="#eaf1dd" stroke="none" d="M714.5000118687749,242.5000039562583h523a5,5,0,0,1,5,5v14a5,5,0,0,1,-5,5h-523a5,5,0,0,1,-5,-5v-14a5,5,0,0,1,5,-5z" stroke-width="3"></path><g id="node_text175" fill="black"><text id="kity_text_1603" text-rendering="inherit" font-size="18" dy=".8em" y="242.80000391602516" x="714.5000118687749">分论点：提供信息是媒体的责任，选择阅读哪些才是我们该做的。</text></g></g><g id="minder_node174"><g id="node_expander172" style="cursor: pointer;" display="none"><path id="kity_path_1608" fill="white" stroke="gray" d="M737.5000121220946,283.500004388392A6,6,0,1,1,725.5000121220946,283.500004388392A6,6,0,1,1,737.5000121220946,283.500004388392"></path><path id="kity_path_1609" fill="none" stroke="gray"></path></g><path id="node_outline173" fill="none" stroke="none" d="M742.5000122860074,274.500004388392h386a5,5,0,0,1,5,5v8a5,5,0,0,1,-5,5h-386a5,5,0,0,1,-5,-5v-8a5,5,0,0,1,5,-5z"></path><g id="node_text173" fill="black"><text id="kity_text_1599" text-rendering="inherit" font-size="12" dy=".8em" y="275.7000043615699" x="742.5000122860074">解释：我们深陷过滤过的信息中，得不到能挑战或拓展我们世界观的信息</text></g></g><g id="minder_node175"><g id="node_expander173" style="cursor: pointer;" display="none"><path id="kity_path_1611" fill="white" stroke="gray" d="M737.5000121220946,309.50000477582216A6,6,0,1,1,725.5000121220946,309.50000477582216A6,6,0,1,1,737.5000121220946,309.50000477582216"></path><path id="kity_path_1612" fill="none" stroke="gray"></path></g><path id="node_outline174" fill="none" stroke="none" d="M742.5000122860074,300.50000477582216h362a5,5,0,0,1,5,5v8a5,5,0,0,1,-5,5h-362a5,5,0,0,1,-5,-5v-8a5,5,0,0,1,5,-5z"></path><g id="node_text174" fill="black"><text id="kity_text_1601" text-rendering="inherit" font-size="12" dy=".8em" y="301.7000047490001" x="742.5000122860074">案例：网络公司努力为迎合个人喜好而调整其服务如新闻和搜索结果</text></g></g><g id="minder_node176"><g id="node_expander177" style="cursor: pointer;"><path id="kity_path_1638" fill="white" stroke="gray" d="M699.5000115558505,168.50000267475843A6,6,0,1,1,687.5000115558505,168.50000267475843A6,6,0,1,1,699.5000115558505,168.50000267475843"></path><path id="kity_path_1639" fill="none" stroke="gray" d="M689.0000115558505,168.50000267475843L698.0000115558505,168.50000267475843"></path></g><path id="node_outline178" fill="none" stroke="none" d="M704.5000117197633,159.50000267475843h60a5,5,0,0,1,5,5v8a5,5,0,0,1,-5,5h-60a5,5,0,0,1,-5,-5v-8a5,5,0,0,1,5,-5z" stroke-width="3"></path><g id="node_text178" fill="black"><text id="kity_text_1627" text-rendering="inherit" font-size="12" dy=".8em" y="160.70000264793634" x="704.5000117197633">“同温层”</text></g></g><g id="minder_node177"><g id="node_expander175" style="cursor: pointer;" display="none"><path id="kity_path_1632" fill="white" stroke="gray" d="M727.500011973083,194.50000306218863A6,6,0,1,1,715.500011973083,194.50000306218863A6,6,0,1,1,727.500011973083,194.50000306218863"></path><path id="kity_path_1633" fill="none" stroke="gray"></path></g><path id="node_outline176" fill="none" stroke="none" d="M732.5000121369958,185.50000306218863h72a5,5,0,0,1,5,5v8a5,5,0,0,1,-5,5h-72a5,5,0,0,1,-5,-5v-8a5,5,0,0,1,5,-5z"></path><g id="node_text176" fill="black"><text id="kity_text_1623" text-rendering="inherit" font-size="12" dy=".8em" y="186.70000303536654" x="732.5000121369958">“过滤泡沫”</text></g></g><g id="minder_node178"><g id="node_expander176" style="cursor: pointer;" display="none"><path id="kity_path_1635" fill="white" stroke="gray" d="M727.500011973083,220.50000344961882A6,6,0,1,1,715.500011973083,220.50000344961882A6,6,0,1,1,727.500011973083,220.50000344961882"></path><path id="kity_path_1636" fill="none" stroke="gray"></path></g><path id="node_outline177" fill="none" stroke="none" d="M732.5000121369958,211.50000344961882h49a5,5,0,0,1,5,5v8a5,5,0,0,1,-5,5h-49a5,5,0,0,1,-5,-5v-8a5,5,0,0,1,5,-5z"></path><g id="node_text177" fill="black"><text id="kity_text_1625" text-rendering="inherit" font-size="12" dy=".8em" y="212.70000342279673" x="732.5000121369958">新闻自由</text></g></g><g id="minder_node179"><g id="node_expander178" style="cursor: pointer;" display="none"><path id="kity_path_1660" fill="white" stroke="gray" d="M728.5000119879842,436.50000666826963A6,6,0,1,1,716.5000119879842,436.50000666826963A6,6,0,1,1,728.5000119879842,436.50000666826963"></path><path id="kity_path_1661" fill="none" stroke="gray"></path></g><path id="node_outline179" fill="none" stroke="none" d="M733.500012151897,427.50000666826963h74a5,5,0,0,1,5,5v8a5,5,0,0,1,-5,5h-74a5,5,0,0,1,-5,-5v-8a5,5,0,0,1,5,-5z" stroke-width="3"></path><g id="node_text179" fill="black"><text id="kity_text_1657" text-rendering="inherit" font-size="12" dy=".8em" y="428.70000664144754" x="733.500012151897">大脑持续亢奋</text></g></g><g id="minder_node180"><g id="node_expander179" style="cursor: pointer;"><path id="kity_path_1668" fill="white" stroke="gray" d="M692.5000114515424,706.5000106915832A6,6,0,1,1,680.5000114515424,706.5000106915832A6,6,0,1,1,692.5000114515424,706.5000106915832"></path><path id="kity_path_1669" fill="none" stroke="gray" d="M682.0000114515424,706.5000106915832L691.0000114515424,706.5000106915832"></path></g><path id="node_outline180" fill="none" stroke="none" d="M697.5000116154552,697.5000106915832h25a5,5,0,0,1,5,5v8a5,5,0,0,1,-5,5h-25a5,5,0,0,1,-5,-5v-8a5,5,0,0,1,5,-5z" stroke-width="3"></path><g id="node_text180" fill="black"><text id="kity_text_1665" text-rendering="inherit" font-size="12" dy=".8em" y="698.7000106647611" x="697.5000116154552">压抑</text></g></g><g id="minder_node181"><g id="node_expander180" style="cursor: pointer;"><path id="kity_path_1676" fill="white" stroke="gray" d="M692.5000114515424,758.5000114664435A6,6,0,1,1,680.5000114515424,758.5000114664435A6,6,0,1,1,692.5000114515424,758.5000114664435"></path><path id="kity_path_1677" fill="none" stroke="gray" d="M682.0000114515424,758.5000114664435L691.0000114515424,758.5000114664435"></path></g><path id="node_outline181" fill="none" stroke="none" d="M697.5000116154552,749.5000114664435h25a5,5,0,0,1,5,5v8a5,5,0,0,1,-5,5h-25a5,5,0,0,1,-5,-5v-8a5,5,0,0,1,5,-5z" stroke-width="3"></path><g id="node_text181" fill="black"><text id="kity_text_1673" text-rendering="inherit" font-size="12" dy=".8em" y="750.7000114396214" x="697.5000116154552">情绪</text></g></g><g id="minder_node182"><g id="node_expander181" style="cursor: pointer;" display="none"><path id="kity_path_1684" fill="white" stroke="gray" d="M720.5000118687749,732.5000110790133A6,6,0,1,1,708.5000118687749,732.5000110790133A6,6,0,1,1,720.5000118687749,732.5000110790133"></path><path id="kity_path_1685" fill="none" stroke="gray"></path></g><path id="node_outline182" fill="none" stroke="none" d="M725.5000120326877,723.5000110790133h26a5,5,0,0,1,5,5v8a5,5,0,0,1,-5,5h-26a5,5,0,0,1,-5,-5v-8a5,5,0,0,1,5,-5z" stroke-width="3"></path><g id="node_text182" fill="black"><text id="kity_text_1681" text-rendering="inherit" font-size="12" dy=".8em" y="724.7000110521913" x="725.5000120326877">无效</text></g></g><g id="minder_node183"><g id="node_expander182" style="cursor: pointer;"><path id="kity_path_1692" fill="white" stroke="gray" d="M720.5000118687749,784.5000118538737A6,6,0,1,1,708.5000118687749,784.5000118538737A6,6,0,1,1,720.5000118687749,784.5000118538737"></path><path id="kity_path_1693" fill="none" stroke="gray" d="M710.0000118687749,784.5000118538737L719.0000118687749,784.5000118538737"></path></g><path id="node_outline183" fill="none" stroke="none" d="M725.5000120326877,775.5000118538737h62a5,5,0,0,1,5,5v8a5,5,0,0,1,-5,5h-62a5,5,0,0,1,-5,-5v-8a5,5,0,0,1,5,-5z" stroke-width="3"></path><g id="node_text183" fill="black"><text id="kity_text_1689" text-rendering="inherit" font-size="12" dy=".8em" y="776.7000118270516" x="725.5000120326877">过去的经验</text></g></g><g id="minder_node24" opacity="1"><g id="node_expander23" style="cursor: pointer;" display="none"><path id="kity_path_222" fill="white" stroke="gray" d="M703.5000116154552,899.5000135675073A6,6,0,1,1,691.5000116154552,899.5000135675073A6,6,0,1,1,703.5000116154552,899.5000135675073"></path><path id="kity_path_223" fill="none" stroke="gray"></path></g><path id="node_outline24" fill="#eaf1dd" stroke="none" d="M708.5000117793679,890.5000135675073h217a5,5,0,0,1,5,5v8a5,5,0,0,1,-5,5h-217a5,5,0,0,1,-5,-5v-8a5,5,0,0,1,5,-5z" stroke-width="3"></path><g id="node_text24" fill="black"><text id="kity_text_219" text-rendering="inherit" font-size="12" dy=".8em" y="891.7000135406852" x="708.5000117793679">论点：科技发展使人们更注重隐私保护。</text></g></g><g id="minder_node21"><g id="node_expander20" style="cursor: pointer;" display="none"><path id="kity_path_198" fill="white" stroke="gray" d="M703.5000116154552,925.5000139549375A6,6,0,1,1,691.5000116154552,925.5000139549375A6,6,0,1,1,703.5000116154552,925.5000139549375"></path><path id="kity_path_199" fill="none" stroke="gray"></path></g><path id="node_outline21" fill="none" stroke="none" d="M708.5000117793679,916.5000139549375h62a5,5,0,0,1,5,5v8a5,5,0,0,1,-5,5h-62a5,5,0,0,1,-5,-5v-8a5,5,0,0,1,5,-5z" stroke-width="3"></path><g id="node_text21" fill="black"><text id="kity_text_195" text-rendering="inherit" font-size="12" dy=".8em" y="917.7000139281154" x="708.5000117793679">复仇式色情</text></g></g><g id="minder_node20" opacity="1"><g id="node_expander19" style="cursor: pointer;" display="none"><path id="kity_path_190" fill="white" stroke="gray" d="M703.5000116154552,951.5000143423676A6,6,0,1,1,691.5000116154552,951.5000143423676A6,6,0,1,1,703.5000116154552,951.5000143423676"></path><path id="kity_path_191" fill="none" stroke="gray"></path></g><path id="node_outline20" fill="none" stroke="none" d="M708.5000117793679,942.5000143423676h241a5,5,0,0,1,5,5v8a5,5,0,0,1,-5,5h-241a5,5,0,0,1,-5,-5v-8a5,5,0,0,1,5,-5z" stroke-width="3"></path><g id="node_text20" fill="black"><text id="kity_text_187" text-rendering="inherit" font-size="12" dy=".8em" y="943.7000143155456" x="708.5000117793679">案例：人们花时间在色情片上，不愿意社交。</text></g></g><g id="minder_node184"><g id="node_expander183" style="cursor: pointer;" display="none"><path id="kity_path_1703" fill="white" stroke="gray" d="M748.5000122860074,810.5000122413039A6,6,0,1,1,736.5000122860074,810.5000122413039A6,6,0,1,1,748.5000122860074,810.5000122413039"></path><path id="kity_path_1704" fill="none" stroke="gray"></path></g><path id="node_outline184" fill="none" stroke="none" d="M753.5000124499202,801.5000122413039h337a5,5,0,0,1,5,5v8a5,5,0,0,1,-5,5h-337a5,5,0,0,1,-5,-5v-8a5,5,0,0,1,5,-5z" stroke-width="3"></path><g id="node_text184" fill="black"><text id="kity_text_1700" text-rendering="inherit" font-size="12" dy=".8em" y="802.7000122144818" x="753.5000124499202">解释：当我想推测别人的情绪，其实一部分情绪来自我的脑袋。</text></g></g><g id="minder_node185"><g id="node_expander184" style="cursor: pointer;"><path id="kity_path_1711" fill="white" stroke="gray" d="M48.50000185519457,757.5000114515424A6,6,0,1,1,36.50000185519457,757.5000114515424A6,6,0,1,1,48.50000185519457,757.5000114515424"></path><path id="kity_path_1712" fill="none" stroke="gray" d="M38.00000185519457,757.5000114515424L47.00000185519457,757.5000114515424"></path></g><path id="node_outline185" fill="#c2d69b" stroke="none" d="M53.50000239163637,742.5000114515424h73a5,5,0,0,1,5,5v20a5,5,0,0,1,-5,5h-73a5,5,0,0,1,-5,-5v-20a5,5,0,0,1,5,-5z" stroke-width="3"></path><g id="node_text185" fill="black"><text id="kity_text_1708" text-rendering="inherit" font-size="24" dy=".8em" y="741.9000113978982" x="78.50000239163637">时间</text></g><g id="node_priority18"><path id="kity_path_1715" fill="#B25000" stroke="none" d="M54.00000202655792,761.0000113099813c0,3.866,3.134,7,7,7h6c3.866,0,7,-3.134,7,-7V755.0000113099813H54.00000202655792V761.0000113099813z"></path><path id="kity_path_1716" fill="#FF962E" stroke="none" d="M74.00000202655792,758.0000113099813c0,3.866,-3.134,7,-7,7H61.00000202655792c-3.866,0,-7,-3.134,-7,-7V755.0000113099813c0,-3.866,3.134,-7,7,-7h6c3.866,0,7,3.134,7,7V758.0000113099813z" opacity="0.8"></path><text id="kity_text_1717" text-rendering="geometricPrecision" x="63.00000201910734" y="757.5000113025308" text-anchor="middle" font-style="italic" font-size="12" fill="white" dy="5">4</text></g></g><g id="minder_node130"><g id="node_expander129" style="cursor: pointer;" display="none"><path id="kity_path_1195" fill="white" stroke="gray" d="M132.5000031068921,847.5000127926469A6,6,0,1,1,120.50000310689211,847.5000127926469A6,6,0,1,1,132.5000031068921,847.5000127926469"></path><path id="kity_path_1196" fill="none" stroke="gray"></path></g><path id="node_outline130" fill="none" stroke="none" d="M137.50000327080488,838.5000127926469h98a5,5,0,0,1,5,5v8a5,5,0,0,1,-5,5h-98a5,5,0,0,1,-5,-5v-8a5,5,0,0,1,5,-5z" stroke-width="3"></path><g id="node_text130" fill="black"><text id="kity_text_1192" text-rendering="inherit" font-size="12" dy=".8em" y="839.7000127658248" x="137.50000327080488">成为被争抢的对象</text></g></g><g id="minder_node51" opacity="1"><g id="node_expander50" style="cursor: pointer;"><path id="kity_path_474" fill="white" stroke="gray" d="M104.5000026896596,821.5000124052167A6,6,0,1,1,92.5000026896596,821.5000124052167A6,6,0,1,1,104.5000026896596,821.5000124052167"></path><path id="kity_path_475" fill="none" stroke="gray" d="M94.0000026896596,821.5000124052167L103.0000026896596,821.5000124052167"></path></g><path id="node_outline51" fill="#eaf1dd" stroke="none" d="M109.50000285357237,812.5000124052167h37a5,5,0,0,1,5,5v8a5,5,0,0,1,-5,5h-37a5,5,0,0,1,-5,-5v-8a5,5,0,0,1,5,-5z" stroke-width="3"></path><g id="node_text51" fill="black"><text id="kity_text_471" text-rendering="inherit" font-size="12" dy=".8em" y="813.7000123783946" x="109.50000285357237">注意力</text></g></g><g id="minder_node52" opacity="1"><g id="node_expander51" style="cursor: pointer;" display="none"><path id="kity_path_482" fill="white" stroke="gray" d="M132.5000031068921,899.5000135675073A6,6,0,1,1,120.50000310689211,899.5000135675073A6,6,0,1,1,132.5000031068921,899.5000135675073"></path><path id="kity_path_483" fill="none" stroke="gray"></path></g><path id="node_outline52" fill="none" stroke="none" d="M137.50000327080488,890.5000135675073h409a5,5,0,0,1,5,5v8a5,5,0,0,1,-5,5h-409a5,5,0,0,1,-5,-5v-8a5,5,0,0,1,5,-5z" stroke-width="3"></path><g id="node_text52" fill="black"><text id="kity_text_479" text-rendering="inherit" font-size="12" dy=".8em" y="891.7000135406852" x="137.50000327080488">案例：吸引你的注意力影响你的情绪，此时我的情绪被触发，不是我的本意。</text></g></g><g id="minder_node50" opacity="1"><g id="node_expander49" style="cursor: pointer;"><path id="kity_path_460" fill="white" stroke="gray" d="M104.5000026896596,873.5000131800771A6,6,0,1,1,92.5000026896596,873.5000131800771A6,6,0,1,1,104.5000026896596,873.5000131800771"></path><path id="kity_path_461" fill="none" stroke="gray" d="M94.0000026896596,873.5000131800771L103.0000026896596,873.5000131800771"></path></g><path id="node_outline50" fill="#eaf1dd" stroke="none" d="M109.50000285357237,864.5000131800771h38a5,5,0,0,1,5,5v8a5,5,0,0,1,-5,5h-38a5,5,0,0,1,-5,-5v-8a5,5,0,0,1,5,-5z" stroke-width="3"></path><g id="node_text50" fill="black"><text id="kity_text_457" text-rendering="inherit" font-size="12" dy=".8em" y="865.700013153255" x="109.50000285357237">控制室</text></g></g><g id="minder_node23" opacity="1"><g id="node_expander22" style="cursor: pointer;" display="none"><path id="kity_path_214" fill="white" stroke="gray" d="M104.5000026896596,925.5000139549375A6,6,0,1,1,92.5000026896596,925.5000139549375A6,6,0,1,1,104.5000026896596,925.5000139549375"></path><path id="kity_path_215" fill="none" stroke="gray"></path></g><path id="node_outline23" fill="none" stroke="none" d="M109.50000285357237,916.5000139549375h289a5,5,0,0,1,5,5v8a5,5,0,0,1,-5,5h-289a5,5,0,0,1,-5,-5v-8a5,5,0,0,1,5,-5z" stroke-width="3"></path><g id="node_text23" fill="black"><text id="kity_text_211" text-rendering="inherit" font-size="12" dy=".8em" y="917.7000139281154" x="109.50000285357237">案例：社交软件公司会分析我们的动态，发出的照片。</text></g></g><g id="minder_node186"><g id="node_expander185" style="cursor: pointer;"><path id="kity_path_1729" fill="white" stroke="gray" d="M1276.5000201538205,447.5000068321824A6,6,0,1,1,1264.5000201538205,447.5000068321824A6,6,0,1,1,1276.5000201538205,447.5000068321824"></path><path id="kity_path_1730" fill="none" stroke="gray" d="M1266.0000201538205,447.5000068321824L1275.0000201538205,447.5000068321824"></path></g><path id="node_outline186" fill="#c2d69b" stroke="none" d="M1281.5000206902623,432.5000068321824h73a5,5,0,0,1,5,5v20a5,5,0,0,1,-5,5h-73a5,5,0,0,1,-5,-5v-20a5,5,0,0,1,5,-5z" stroke-width="3"></path><g id="node_text186" fill="black"><text id="kity_text_1726" text-rendering="inherit" font-size="24" dy=".8em" y="431.9000067785382" x="1306.5000206902623">编程</text></g><g id="node_priority19"><path id="kity_path_1773" fill="#01467F" stroke="none" d="M1282.0000203251839,451.0000066906214c0,3.866,3.134,7,7,7h6c3.866,0,7,-3.134,7,-7V445.0000066906214H1282.0000203251839V451.0000066906214z"></path><path id="kity_path_1774" fill="#0074FF" stroke="none" d="M1302.0000203251839,448.0000066906214c0,3.866,-3.134,7,-7,7H1289.0000203251839c-3.866,0,-7,-3.134,-7,-7V445.0000066906214c0,-3.866,3.134,-7,7,-7h6c3.866,0,7,3.134,7,7V448.0000066906214z" opacity="0.8"></path><text id="kity_text_1775" text-rendering="geometricPrecision" x="1291.0000203177333" y="447.5000066831708" text-anchor="middle" font-style="italic" font-size="12" fill="white" dy="5">2</text></g></g><g id="minder_node187"><g id="node_expander186" style="cursor: pointer;" display="none"><path id="kity_path_1737" fill="white" stroke="gray" d="M1304.500020571053,479.50000730901957A6,6,0,1,1,1292.500020571053,479.50000730901957A6,6,0,1,1,1304.500020571053,479.50000730901957"></path><path id="kity_path_1738" fill="none" stroke="gray"></path></g><path id="node_outline187" fill="#eaf1dd" stroke="none" d="M1309.5000207349658,470.50000730901957h26a5,5,0,0,1,5,5v8a5,5,0,0,1,-5,5h-26a5,5,0,0,1,-5,-5v-8a5,5,0,0,1,5,-5z" stroke-width="3"></path><g id="node_text187" fill="black"><text id="kity_text_1734" text-rendering="inherit" font-size="12" dy=".8em" y="471.7000072821975" x="1309.5000207349658">骇客</text></g></g><g id="minder_node188"><g id="node_expander190" style="cursor: pointer;"><path id="kity_path_1769" fill="white" stroke="gray" d="M1304.500020571053,505.50000769644976A6,6,0,1,1,1292.500020571053,505.50000769644976A6,6,0,1,1,1304.500020571053,505.50000769644976"></path><path id="kity_path_1770" fill="none" stroke="gray" d="M1294.000020571053,505.50000769644976L1303.000020571053,505.50000769644976"></path></g><path id="node_outline191" fill="none" stroke="none" d="M1309.5000207349658,496.50000769644976h26a5,5,0,0,1,5,5v8a5,5,0,0,1,-5,5h-26a5,5,0,0,1,-5,-5v-8a5,5,0,0,1,5,-5z" stroke-width="3"></path><g id="node_text191" fill="black"><text id="kity_text_1754" text-rendering="inherit" font-size="12" dy=".8em" y="497.70000766962767" x="1309.5000207349658">编程</text></g></g><g id="minder_node192" opacity="1"><g id="node_expander191" style="cursor: pointer;"><path id="kity_path_1782" fill="white" stroke="gray" d="M1254.500019825995,968.5000145956874A6,6,0,1,1,1242.500019825995,968.5000145956874A6,6,0,1,1,1254.500019825995,968.5000145956874"></path><path id="kity_path_1783" fill="none" stroke="gray" d="M1244.000019825995,968.5000145956874L1253.000019825995,968.5000145956874"></path></g><path id="node_outline192" fill="#c2d69b" stroke="none" d="M1259.5000203624368,953.5000145956874h73a5,5,0,0,1,5,5v20a5,5,0,0,1,-5,5h-73a5,5,0,0,1,-5,-5v-20a5,5,0,0,1,5,-5z" stroke-width="3"></path><g id="node_text192" fill="black"><text id="kity_text_1779" text-rendering="inherit" font-size="24" dy=".8em" y="952.9000145420432" x="1284.5000203624368">政府</text></g><g id="node_priority20"><path id="kity_path_1786" fill="#B25000" stroke="none" d="M1260.0000199973583,972.0000144541264c0,3.866,3.134,7,7,7h6c3.866,0,7,-3.134,7,-7V966.0000144541264H1260.0000199973583V972.0000144541264z"></path><path id="kity_path_1787" fill="#FF962E" stroke="none" d="M1280.0000199973583,969.0000144541264c0,3.866,-3.134,7,-7,7H1267.0000199973583c-3.866,0,-7,-3.134,-7,-7V966.0000144541264c0,-3.866,3.134,-7,7,-7h6c3.866,0,7,3.134,7,7V969.0000144541264z" opacity="0.8"></path><text id="kity_text_1788" text-rendering="geometricPrecision" x="1269.0000199899077" y="968.5000144466758" text-anchor="middle" font-style="italic" font-size="12" fill="white" dy="5">4</text></g></g><g id="minder_node190"><g id="node_expander187" style="cursor: pointer;" display="none"><path id="kity_path_1760" fill="white" stroke="gray" d="M1310.50002066046,1032.5000155493617A6,6,0,1,1,1298.50002066046,1032.5000155493617A6,6,0,1,1,1310.50002066046,1032.5000155493617"></path><path id="kity_path_1761" fill="none" stroke="gray"></path></g><path id="node_outline188" fill="none" stroke="none" d="M1315.5000208243728,1023.5000155493617h242a5,5,0,0,1,5,5v8a5,5,0,0,1,-5,5h-242a5,5,0,0,1,-5,-5v-8a5,5,0,0,1,5,-5z"></path><g id="node_text188" fill="black"><text id="kity_text_1748" text-rendering="inherit" font-size="12" dy=".8em" y="1024.7000155225396" x="1315.5000208243728">解释：公民编程项目用编程来改变自己的生活</text></g></g><g id="minder_node191"><g id="node_expander188" style="cursor: pointer;" display="none"><path id="kity_path_1763" fill="white" stroke="gray" d="M1310.50002066046,1058.500015936792A6,6,0,1,1,1298.50002066046,1058.500015936792A6,6,0,1,1,1310.50002066046,1058.500015936792"></path><path id="kity_path_1764" fill="none" stroke="gray"></path></g><path id="node_outline189" fill="none" stroke="none" d="M1315.5000208243728,1049.500015936792h326a5,5,0,0,1,5,5v8a5,5,0,0,1,-5,5h-326a5,5,0,0,1,-5,-5v-8a5,5,0,0,1,5,-5z"></path><g id="node_text189" fill="black"><text id="kity_text_1750" text-rendering="inherit" font-size="12" dy=".8em" y="1050.7000159099698" x="1315.5000208243728">案例：领养一个消防栓的游戏，呼吁人们铲雪，爱护城市环境</text></g></g><g id="minder_node189" opacity="1"><g id="node_expander189" style="cursor: pointer;"><path id="kity_path_1766" fill="white" stroke="gray" d="M1282.5000202432275,1003.500015117228A6,6,0,1,1,1270.5000202432275,1003.500015117228A6,6,0,1,1,1282.5000202432275,1003.500015117228"></path><path id="kity_path_1767" fill="none" stroke="gray" d="M1272.0000202432275,1003.500015117228L1281.0000202432275,1003.500015117228"></path></g><path id="node_outline190" fill="#eaf1dd" stroke="none" d="M1287.5000204071403,991.500015117228h235a5,5,0,0,1,5,5v14a5,5,0,0,1,-5,5h-235a5,5,0,0,1,-5,-5v-14a5,5,0,0,1,5,-5z" stroke-width="3"></path><g id="node_text190" fill="black"><text id="kity_text_1752" text-rendering="inherit" font-size="18" dy=".8em" y="991.8000150769949" x="1287.5000204071403">分论点：编码改善更好的政府</text></g></g><g id="minder_node147"><g id="node_expander145" style="cursor: pointer;" display="none"><path id="kity_path_1365" fill="white" stroke="gray" d="M1310.50002066046,1116.5000168010592A6,6,0,1,1,1298.50002066046,1116.5000168010592A6,6,0,1,1,1310.50002066046,1116.5000168010592"></path><path id="kity_path_1366" fill="none" stroke="gray"></path></g><path id="node_outline146" fill="none" stroke="none" d="M1315.5000208243728,1107.5000168010592h337a5,5,0,0,1,5,5v8a5,5,0,0,1,-5,5h-337a5,5,0,0,1,-5,-5v-8a5,5,0,0,1,5,-5z"></path><g id="node_text146" fill="black"><text id="kity_text_1356" text-rendering="inherit" font-size="12" dy=".8em" y="1108.7000167742372" x="1315.5000208243728">案例：政府独裁的趋势增加，民主政府也在加强镇压持异议者。</text></g></g><g id="minder_node148"><g id="node_expander146" style="cursor: pointer;" display="none"><path id="kity_path_1368" fill="white" stroke="gray" d="M1310.50002066046,1142.5000171884894A6,6,0,1,1,1298.50002066046,1142.5000171884894A6,6,0,1,1,1310.50002066046,1142.5000171884894"></path><path id="kity_path_1369" fill="none" stroke="gray"></path></g><path id="node_outline147" fill="none" stroke="none" d="M1315.5000208243728,1133.5000171884894h469a5,5,0,0,1,5,5v8a5,5,0,0,1,-5,5h-469a5,5,0,0,1,-5,-5v-8a5,5,0,0,1,5,-5z"></path><g id="node_text147" fill="black"><text id="kity_text_1358" text-rendering="inherit" font-size="12" dy=".8em" y="1134.7000171616673" x="1315.5000208243728">案例：我们在争取公众使用强加密的权利，否则意见相左的新闻和调查性报导难以传播。</text></g></g><g id="minder_node193"><g id="node_expander192" style="cursor: pointer;"><path id="kity_path_1802" fill="white" stroke="gray" d="M1332.5000209882855,531.50000808388A6,6,0,1,1,1320.5000209882855,531.50000808388A6,6,0,1,1,1332.5000209882855,531.50000808388"></path><path id="kity_path_1803" fill="none" stroke="gray" d="M1322.0000209882855,531.50000808388L1331.0000209882855,531.50000808388"></path></g><path id="node_outline193" fill="none" stroke="none" d="M1337.5000211521983,522.50000808388h25a5,5,0,0,1,5,5v8a5,5,0,0,1,-5,5h-25a5,5,0,0,1,-5,-5v-8a5,5,0,0,1,5,-5z" stroke-width="3"></path><g id="node_text193" fill="black"><text id="kity_text_1799" text-rendering="inherit" font-size="12" dy=".8em" y="523.7000080570579" x="1337.5000211521983">影响</text></g></g><g id="minder_node194"><g id="node_expander193" style="cursor: pointer;" display="none"><path id="kity_path_1810" fill="white" stroke="gray" d="M1360.500021405518,557.5000084713101A6,6,0,1,1,1348.500021405518,557.5000084713101A6,6,0,1,1,1360.500021405518,557.5000084713101"></path><path id="kity_path_1811" fill="none" stroke="gray" d="M1350.000021405518,557.5000084713101L1359.000021405518,557.5000084713101"></path></g><path id="node_outline194" fill="none" stroke="none" d="M1365.5000215694308,548.5000084713101h62a5,5,0,0,1,5,5v8a5,5,0,0,1,-5,5h-62a5,5,0,0,1,-5,-5v-8a5,5,0,0,1,5,-5z" stroke-width="3"></path><g id="node_text194" fill="black"><text id="kity_text_1807" text-rendering="inherit" font-size="12" dy=".8em" y="549.700008444488" x="1365.5000215694308">未来的孩子</text></g></g><g id="minder_node195"><g id="node_expander194" style="cursor: pointer;" display="none"><path id="kity_path_1818" fill="white" stroke="gray" d="M1360.500021405518,609.5000092461705A6,6,0,1,1,1348.500021405518,609.5000092461705A6,6,0,1,1,1360.500021405518,609.5000092461705"></path><path id="kity_path_1819" fill="none" stroke="gray"></path></g><path id="node_outline195" fill="none" stroke="none" d="M1365.5000215694308,600.5000092461705h26a5,5,0,0,1,5,5v8a5,5,0,0,1,-5,5h-26a5,5,0,0,1,-5,-5v-8a5,5,0,0,1,5,-5z" stroke-width="3"></path><g id="node_text195" fill="black"><text id="kity_text_1815" text-rendering="inherit" font-size="12" dy=".8em" y="601.7000092193484" x="1365.5000215694308">偏见</text></g></g><g id="minder_node198"><g id="node_expander197" style="cursor: pointer;" display="none"><path id="kity_path_1842" fill="white" stroke="gray" d="M1360.500021405518,583.5000088587403A6,6,0,1,1,1348.500021405518,583.5000088587403A6,6,0,1,1,1360.500021405518,583.5000088587403"></path><path id="kity_path_1843" fill="none" stroke="gray"></path></g><path id="node_outline198" fill="none" stroke="none" d="M1365.5000215694308,574.5000088587403h50a5,5,0,0,1,5,5v8a5,5,0,0,1,-5,5h-50a5,5,0,0,1,-5,-5v-8a5,5,0,0,1,5,-5z" stroke-width="3"></path><g id="node_text198" fill="black"><text id="kity_text_1839" text-rendering="inherit" font-size="12" dy=".8em" y="575.7000088319182" x="1365.5000215694308">社会发展</text></g></g><g id="minder_node141"><g id="node_expander140" style="cursor: pointer;" display="none"><path id="kity_path_1315" fill="white" stroke="gray" d="M1373.5000215992332,747.5000113025308A6,6,0,1,1,1361.5000215992332,747.5000113025308A6,6,0,1,1,1373.5000215992332,747.5000113025308"></path><path id="kity_path_1316" fill="none" stroke="gray"></path></g><path id="node_outline141" fill="none" stroke="none" d="M1378.500021763146,738.5000113025308h301a5,5,0,0,1,5,5v8a5,5,0,0,1,-5,5h-301a5,5,0,0,1,-5,-5v-8a5,5,0,0,1,5,-5z" stroke-width="3"></path><g id="node_text141" fill="black"><text id="kity_text_1312" text-rendering="inherit" font-size="12" dy=".8em" y="739.7000112757087" x="1378.500021763146">解释：我们要为自己的情绪负责，拥抱并接纳这些责任。</text></g></g><g id="minder_node142"><g id="node_expander141" style="cursor: pointer;" display="none"><path id="kity_path_1323" fill="white" stroke="gray" d="M1373.5000215992332,773.500011689961A6,6,0,1,1,1361.5000215992332,773.500011689961A6,6,0,1,1,1373.5000215992332,773.500011689961"></path><path id="kity_path_1324" fill="none" stroke="gray"></path></g><path id="node_outline142" fill="none" stroke="none" d="M1378.500021763146,764.500011689961h283a5,5,0,0,1,5,5v8a5,5,0,0,1,-5,5h-283a5,5,0,0,1,-5,-5v-8a5,5,0,0,1,5,-5z" stroke-width="3"></path><g id="node_text142" fill="black"><text id="kity_text_1320" text-rendering="inherit" font-size="12" dy=".8em" y="765.7000116631389" x="1378.500021763146">案例: 有勇气并不是没有恐惧，勇气是在恐惧中行走。</text></g></g><g id="minder_node113" opacity="1"><g id="node_expander111" style="cursor: pointer;"><path id="kity_path_1056" fill="white" stroke="gray" d="M1345.5000211820006,718.5000108703971A6,6,0,1,1,1333.5000211820006,718.5000108703971A6,6,0,1,1,1345.5000211820006,718.5000108703971"></path><path id="kity_path_1057" fill="none" stroke="gray" d="M1335.0000211820006,718.5000108703971L1344.0000211820006,718.5000108703971"></path></g><path id="node_outline112" fill="#eaf1dd" stroke="none" d="M1350.5000213459134,706.5000108703971h253a5,5,0,0,1,5,5v14a5,5,0,0,1,-5,5h-253a5,5,0,0,1,-5,-5v-14a5,5,0,0,1,5,-5z" stroke-width="3"></path><g id="node_text112" fill="black"><text id="kity_text_1039" text-rendering="inherit" font-size="18" dy=".8em" y="706.800010830164" x="1350.5000213459134">分论点：情绪不是无法控制的。</text></g></g><g id="minder_node159" opacity="1"><g id="node_expander158" style="cursor: pointer;"><path id="kity_path_1479" fill="white" stroke="gray" d="M1317.5000207647681,689.5000104382634A6,6,0,1,1,1305.5000207647681,689.5000104382634A6,6,0,1,1,1317.5000207647681,689.5000104382634"></path><path id="kity_path_1480" fill="none" stroke="gray" d="M1307.0000207647681,689.5000104382634L1316.0000207647681,689.5000104382634"></path></g><path id="node_outline159" fill="#eaf1dd" stroke="none" d="M1322.500020928681,680.5000104382634h61a5,5,0,0,1,5,5v8a5,5,0,0,1,-5,5h-61a5,5,0,0,1,-5,-5v-8a5,5,0,0,1,5,-5z" stroke-width="3"></path><g id="node_text159" fill="black"><text id="kity_text_1476" text-rendering="inherit" font-size="12" dy=".8em" y="681.7000104114413" x="1322.500020928681">积极心理学</text></g></g><g id="minder_node157"><g id="node_expander156" style="cursor: pointer;" display="none"><path id="kity_path_1463" fill="white" stroke="gray" d="M1345.5000211820006,831.5000125542283A6,6,0,1,1,1333.5000211820006,831.5000125542283A6,6,0,1,1,1345.5000211820006,831.5000125542283"></path><path id="kity_path_1464" fill="none" stroke="gray"></path></g><path id="node_outline157" fill="none" stroke="none" d="M1350.5000213459134,822.5000125542283h37a5,5,0,0,1,5,5v8a5,5,0,0,1,-5,5h-37a5,5,0,0,1,-5,-5v-8a5,5,0,0,1,5,-5z" stroke-width="3"></path><g id="node_text157" fill="black"><text id="kity_text_1460" text-rendering="inherit" font-size="12" dy=".8em" y="823.7000125274062" x="1350.5000213459134">掌控感</text></g></g><g id="minder_node114"><g id="node_expander112" style="cursor: pointer;"><path id="kity_path_1059" fill="white" stroke="gray" d="M1317.5000207647681,802.5000121220946A6,6,0,1,1,1305.5000207647681,802.5000121220946A6,6,0,1,1,1317.5000207647681,802.5000121220946"></path><path id="kity_path_1060" fill="none" stroke="gray" d="M1307.0000207647681,802.5000121220946L1316.0000207647681,802.5000121220946"></path></g><path id="node_outline113" fill="#eaf1dd" stroke="none" d="M1322.500020928681,790.5000121220946h72a5,5,0,0,1,5,5v14a5,5,0,0,1,-5,5h-72a5,5,0,0,1,-5,-5v-14a5,5,0,0,1,5,-5z" stroke-width="3"></path><g id="node_text113" fill="black"><text id="kity_text_1041" text-rendering="inherit" font-size="18" dy=".8em" y="790.8000120818615" x="1322.500020928681">行为设计</text></g></g><g id="minder_node199" opacity="1"><g id="node_expander198" style="cursor: pointer;" display="none"><path id="kity_path_1856" fill="white" stroke="gray" d="M728.5000119879842,520.5000079199672A6,6,0,1,1,716.5000119879842,520.5000079199672A6,6,0,1,1,728.5000119879842,520.5000079199672"></path><path id="kity_path_1857" fill="none" stroke="gray"></path></g><path id="node_outline199" fill="none" stroke="none" d="M733.500012151897,511.5000079199672h26a5,5,0,0,1,5,5v8a5,5,0,0,1,-5,5h-26a5,5,0,0,1,-5,-5v-8a5,5,0,0,1,5,-5z" stroke-width="3"></path><g id="node_text199" fill="black"><text id="kity_text_1853" text-rendering="inherit" font-size="12" dy=".8em" y="512.7000078931451" x="733.500012151897">金钱</text></g></g><g id="kity_g_12" display="none"><path id="kity_path_13" fill="none" stroke="rgb(66, 112, 68)" d="M705.5000078305602,453.50000067800283h234a5,5,0,0,1,5,5v14a5,5,0,0,1,-5,5h-234a5,5,0,0,1,-5,-5v-14a5,5,0,0,1,5,-5z" stroke-width="5"></path></g></g></g></svg>